<svg width="574" height="501" viewBox="0 0 574 501" fill="none" xmlns="http://www.w3.org/2000/svg">
<g clip-path="url(#clip0_3280_76835)">
<path d="M151.971 247.93C138.367 361.841 270.473 472.349 372.686 390.526C418.833 353.588 451.938 235.472 373.854 218.172C329.073 208.258 280.939 247.914 238.253 232.307C217.735 224.814 207.227 195.328 183.379 198.435C160.989 201.401 154.24 228.945 151.971 247.93Z" fill="url(#paint0_linear_3280_76835)"/>
<path d="M151.971 247.93C138.367 361.841 270.473 472.349 372.686 390.526C418.833 353.588 451.938 235.472 373.854 218.172C329.073 208.258 280.939 247.914 238.253 232.307C217.735 224.814 207.227 195.328 183.379 198.435C160.989 201.401 154.24 228.945 151.971 247.93Z" fill="#F3F5F6"/>
<path d="M312.853 481.776C388.597 481.776 450 477.563 450 472.365C450 467.166 388.597 462.953 312.853 462.953C237.11 462.953 175.707 467.166 175.707 472.365C175.707 477.563 237.11 481.776 312.853 481.776Z" fill="#F3F5F6"/>
<path d="M430.292 249.014H349.062C344.776 249.014 341.303 252.48 341.303 256.755V278.797C341.303 283.072 344.776 286.538 349.062 286.538H430.292C434.577 286.538 438.051 283.072 438.051 278.797V256.755C438.051 252.48 434.577 249.014 430.292 249.014Z" fill="url(#paint1_linear_3280_76835)"/>
<path d="M414.181 255.342H350.728C349.978 255.342 349.37 255.948 349.37 256.697V258.184C349.37 258.932 349.978 259.539 350.728 259.539H414.181C414.931 259.539 415.539 258.932 415.539 258.184V256.697C415.539 255.948 414.931 255.342 414.181 255.342Z" fill="url(#paint2_linear_3280_76835)"/>
<path d="M394.084 265.455H350.728C349.978 265.455 349.37 266.061 349.37 266.81V268.297C349.37 269.045 349.978 269.652 350.728 269.652H394.084C394.834 269.652 395.442 269.045 395.442 268.297V266.81C395.442 266.061 394.834 265.455 394.084 265.455Z" fill="url(#paint3_linear_3280_76835)"/>
<path d="M382.458 275.568H350.728C349.978 275.568 349.37 276.175 349.37 276.923V278.41C349.37 279.158 349.978 279.765 350.728 279.765H382.458C383.208 279.765 383.816 279.158 383.816 278.41V276.923C383.816 276.175 383.208 275.568 382.458 275.568Z" fill="url(#paint4_linear_3280_76835)"/>
<path d="M421.782 275.568H390.052C389.302 275.568 388.694 276.175 388.694 276.923V278.41C388.694 279.158 389.302 279.765 390.052 279.765H421.782C422.532 279.765 423.14 279.158 423.14 278.41V276.923C423.14 276.175 422.532 275.568 421.782 275.568Z" fill="url(#paint5_linear_3280_76835)"/>
<g opacity="0.5">
<path d="M414.181 255.342H350.728C349.978 255.342 349.37 255.948 349.37 256.697V258.184C349.37 258.932 349.978 259.539 350.728 259.539H414.181C414.931 259.539 415.539 258.932 415.539 258.184V256.697C415.539 255.948 414.931 255.342 414.181 255.342Z" fill="white"/>
<path d="M394.084 265.455H350.728C349.978 265.455 349.37 266.062 349.37 266.81V268.297C349.37 269.045 349.978 269.652 350.728 269.652H394.084C394.834 269.652 395.442 269.045 395.442 268.297V266.81C395.442 266.062 394.834 265.455 394.084 265.455Z" fill="white"/>
<path d="M382.458 275.569H350.728C349.978 275.569 349.37 276.175 349.37 276.923V278.411C349.37 279.159 349.978 279.765 350.728 279.765H382.458C383.208 279.765 383.816 279.159 383.816 278.411V276.923C383.816 276.175 383.208 275.569 382.458 275.569Z" fill="white"/>
<path d="M421.782 275.569H390.052C389.302 275.569 388.694 276.175 388.694 276.923V278.411C388.694 279.159 389.302 279.765 390.052 279.765H421.782C422.532 279.765 423.14 279.159 423.14 278.411V276.923C423.14 276.175 422.532 275.569 421.782 275.569Z" fill="white"/>
</g>
<path d="M365.225 240.264H273.022C266.739 240.264 261.645 245.346 261.645 251.615V283.935C261.645 290.204 266.739 295.286 273.022 295.286H365.225C371.508 295.286 376.602 290.204 376.602 283.935V251.615C376.602 245.346 371.508 240.264 365.225 240.264Z" fill="url(#paint6_linear_3280_76835)"/>
<path d="M368.488 249.542H275.466C274.364 249.542 273.47 250.433 273.47 251.533V253.706C273.47 254.805 274.364 255.697 275.466 255.697H368.488C369.59 255.697 370.484 254.805 370.484 253.706V251.533C370.484 250.433 369.59 249.542 368.488 249.542Z" fill="url(#paint7_linear_3280_76835)"/>
<path d="M339.018 264.374H275.466C274.364 264.374 273.47 265.265 273.47 266.365V268.538C273.47 269.637 274.364 270.529 275.466 270.529H339.018C340.12 270.529 341.014 269.637 341.014 268.538V266.365C341.014 265.265 340.12 264.374 339.018 264.374Z" fill="url(#paint8_linear_3280_76835)"/>
<path d="M321.977 279.201H275.466C274.364 279.201 273.47 280.092 273.47 281.192V283.365C273.47 284.464 274.364 285.356 275.466 285.356H321.977C323.079 285.356 323.973 284.464 323.973 283.365V281.192C323.973 280.092 323.079 279.201 321.977 279.201Z" fill="url(#paint9_linear_3280_76835)"/>
<path d="M371.875 279.201H333.123C332.021 279.201 331.127 280.092 331.127 281.192V283.365C331.127 284.464 332.021 285.356 333.123 285.356H371.875C372.978 285.356 373.871 284.464 373.871 283.365V281.192C373.871 280.092 372.978 279.201 371.875 279.201Z" fill="url(#paint10_linear_3280_76835)"/>
<g opacity="0.5">
<path d="M368.488 249.542H275.466C274.364 249.542 273.47 250.433 273.47 251.533V253.706C273.47 254.805 274.364 255.697 275.466 255.697H368.488C369.59 255.697 370.484 254.805 370.484 253.706V251.533C370.484 250.433 369.59 249.542 368.488 249.542Z" fill="white"/>
<path d="M339.018 264.374H275.466C274.364 264.374 273.47 265.265 273.47 266.365V268.538C273.47 269.637 274.364 270.529 275.466 270.529H339.018C340.12 270.529 341.014 269.637 341.014 268.538V266.365C341.014 265.265 340.12 264.374 339.018 264.374Z" fill="white"/>
<path d="M321.977 279.201H275.466C274.364 279.201 273.47 280.092 273.47 281.192V283.365C273.47 284.464 274.364 285.356 275.466 285.356H321.977C323.079 285.356 323.973 284.464 323.973 283.365V281.192C323.973 280.092 323.079 279.201 321.977 279.201Z" fill="white"/>
<path d="M371.875 279.2H333.123C332.021 279.2 331.127 280.092 331.127 281.191V283.364C331.127 284.464 332.021 285.355 333.123 285.355H371.875C372.978 285.355 373.871 284.464 373.871 283.364V281.191C373.871 280.092 372.978 279.2 371.875 279.2Z" fill="white"/>
</g>
<path d="M307.899 305.258H263.491C260.555 305.258 258.175 307.633 258.175 310.562V376.936C258.175 379.865 260.555 382.24 263.491 382.24H307.899C310.835 382.24 313.215 379.865 313.215 376.936V310.562C313.215 307.633 310.835 305.258 307.899 305.258Z" fill="#153553"/>
<path d="M305.863 313.291H265.521C264.981 313.291 264.543 313.728 264.543 314.266V315.728C264.543 316.267 264.981 316.703 265.521 316.703H305.863C306.402 316.703 306.84 316.267 306.84 315.728V314.266C306.84 313.728 306.402 313.291 305.863 313.291Z" fill="#FAFAFA"/>
<path d="M293.02 321.499H265.521C264.981 321.499 264.543 321.935 264.543 322.473V323.936C264.543 324.474 264.981 324.911 265.521 324.911H293.02C293.559 324.911 293.997 324.474 293.997 323.936V322.473C293.997 321.935 293.559 321.499 293.02 321.499Z" fill="#FAFAFA"/>
<path d="M305.863 329.721H265.521C264.981 329.721 264.543 330.157 264.543 330.696V332.158C264.543 332.696 264.981 333.133 265.521 333.133H305.863C306.402 333.133 306.84 332.696 306.84 332.158V330.696C306.84 330.157 306.402 329.721 305.863 329.721Z" fill="#FAFAFA"/>
<path d="M280.516 337.934H265.521C264.981 337.934 264.543 338.37 264.543 338.909V340.371C264.543 340.909 264.981 341.346 265.521 341.346H280.516C281.056 341.346 281.493 340.909 281.493 340.371V338.909C281.493 338.37 281.056 337.934 280.516 337.934Z" fill="#FAFAFA"/>
<path d="M301.5 337.934H286.504C285.964 337.934 285.527 338.371 285.527 338.909V340.371C285.527 340.91 285.964 341.346 286.504 341.346H301.5C302.039 341.346 302.477 340.91 302.477 340.371V338.909C302.477 338.371 302.039 337.934 301.5 337.934Z" fill="#FAFAFA"/>
<path d="M305.863 346.152H265.521C264.981 346.152 264.543 346.588 264.543 347.127V348.589C264.543 349.128 264.981 349.564 265.521 349.564H305.863C306.402 349.564 306.84 349.128 306.84 348.589V347.127C306.84 346.588 306.402 346.152 305.863 346.152Z" fill="#FAFAFA"/>
<path d="M305.863 354.365H265.521C264.981 354.365 264.543 354.801 264.543 355.34V356.802C264.543 357.34 264.981 357.777 265.521 357.777H305.863C306.402 357.777 306.84 357.34 306.84 356.802V355.34C306.84 354.801 306.402 354.365 305.863 354.365Z" fill="#FAFAFA"/>
<path d="M298.709 362.587H265.521C264.981 362.587 264.543 363.024 264.543 363.562V365.024C264.543 365.563 264.981 365.999 265.521 365.999H298.709C299.248 365.999 299.686 365.563 299.686 365.024V363.562C299.686 363.024 299.248 362.587 298.709 362.587Z" fill="#FAFAFA"/>
<path d="M281.005 370.8H265.521C264.981 370.8 264.543 371.237 264.543 371.775V373.237C264.543 373.776 264.981 374.212 265.521 374.212H281.005C281.545 374.212 281.982 373.776 281.982 373.237V371.775C281.982 371.237 281.545 370.8 281.005 370.8Z" fill="#FAFAFA"/>
<path d="M319.915 304.786H258.317L285.552 326.407L327.31 342.104V312.147C327.305 310.194 326.525 308.321 325.138 306.941C323.752 305.561 321.874 304.786 319.915 304.786Z" fill="url(#paint11_linear_3280_76835)"/>
<path opacity="0.4" d="M319.915 304.786H258.317L285.552 326.407L327.31 342.104V312.147C327.305 310.194 326.525 308.321 325.138 306.941C323.752 305.561 321.874 304.786 319.915 304.786Z" fill="black"/>
<path d="M317.224 315.924H272.154C271.477 315.924 270.928 316.472 270.928 317.147V319.427C270.928 320.103 271.477 320.65 272.154 320.65H317.224C317.901 320.65 318.45 320.103 318.45 319.427V317.147C318.45 316.472 317.901 315.924 317.224 315.924Z" fill="#FAFAFA"/>
<path d="M426.442 363.312V320.088C426.442 316.775 423.751 314.09 420.431 314.09H345.203C341.883 314.09 339.192 316.775 339.192 320.088V363.312C339.192 366.625 341.883 369.31 345.203 369.31H420.431C423.751 369.31 426.442 366.625 426.442 363.312Z" fill="url(#paint12_linear_3280_76835)"/>
<path d="M440.181 349.613V306.388C440.181 303.076 437.49 300.391 434.17 300.391H358.942C355.622 300.391 352.93 303.076 352.93 306.388V349.613C352.93 352.926 355.622 355.611 358.942 355.611H434.17C437.49 355.611 440.181 352.926 440.181 349.613Z" fill="url(#paint13_linear_3280_76835)"/>
<path opacity="0.5" d="M440.181 349.613V306.388C440.181 303.076 437.49 300.391 434.17 300.391H358.942C355.622 300.391 352.93 303.076 352.93 306.388V349.613C352.93 352.926 355.622 355.611 358.942 355.611H434.17C437.49 355.611 440.181 352.926 440.181 349.613Z" fill="white"/>
<path d="M432.545 334.803V308.193C432.545 306.719 431.348 305.524 429.871 305.524H405.286C403.809 305.524 402.612 306.719 402.612 308.193V334.803C402.612 336.277 403.809 337.472 405.286 337.472H429.871C431.348 337.472 432.545 336.277 432.545 334.803Z" fill="url(#paint14_linear_3280_76835)"/>
<path opacity="0.7" d="M432.545 334.803V308.193C432.545 306.719 431.348 305.524 429.871 305.524H405.286C403.809 305.524 402.612 306.719 402.612 308.193V334.803C402.612 336.277 403.809 337.472 405.286 337.472H429.871C431.348 337.472 432.545 336.277 432.545 334.803Z" fill="white"/>
<path d="M397.926 347.672V327.282C397.926 326.151 397.007 325.234 395.873 325.234H377.035C375.901 325.234 374.981 326.151 374.981 327.282V347.672C374.981 348.804 375.901 349.721 377.035 349.721H395.873C397.007 349.721 397.926 348.804 397.926 347.672Z" fill="url(#paint15_linear_3280_76835)"/>
<path opacity="0.3" d="M397.926 347.672V327.282C397.926 326.151 397.007 325.234 395.873 325.234H377.035C375.901 325.234 374.981 326.151 374.981 327.282V347.672C374.981 348.804 375.901 349.721 377.035 349.721H395.873C397.007 349.721 397.926 348.804 397.926 347.672Z" fill="white"/>
<path d="M386.449 218.395V207.383C386.449 204.015 383.713 201.286 380.338 201.286H178.188C174.813 201.286 172.077 204.015 172.077 207.383V218.395C172.077 221.763 174.813 224.492 178.188 224.492H380.338C383.713 224.492 386.449 221.763 386.449 218.395Z" fill="url(#paint16_linear_3280_76835)"/>
<path opacity="0.5" d="M386.449 218.395V207.383C386.449 204.015 383.713 201.286 380.338 201.286H178.188C174.813 201.286 172.077 204.015 172.077 207.383V218.395C172.077 221.763 174.813 224.492 178.188 224.492H380.338C383.713 224.492 386.449 221.763 386.449 218.395Z" fill="white"/>
<path d="M348.202 228.374V220.385H290.032V228.374H348.202Z" fill="url(#paint17_linear_3280_76835)"/>
<path opacity="0.5" d="M348.202 228.374V220.385H290.032V228.374H348.202Z" fill="white"/>
<path d="M407.308 184.11V173.097C407.308 169.73 404.572 167 401.197 167H199.047C195.672 167 192.936 169.73 192.936 173.097V184.11C192.936 187.477 195.672 190.207 199.047 190.207H401.197C404.572 190.207 407.308 187.477 407.308 184.11Z" fill="url(#paint18_linear_3280_76835)"/>
<path d="M190.624 289.03C189.895 290.682 189.092 292.467 188.388 294.21C187.684 295.953 186.956 297.746 186.318 299.531C185.01 303.01 183.961 306.58 183.18 310.213L182.94 311.535L182.857 312.031C182.857 312.171 182.857 312.353 182.807 312.518C182.776 313.322 182.792 314.128 182.857 314.93C183.014 316.674 183.296 318.541 183.685 320.408C184.38 324.15 185.266 328.009 186.169 331.809L181.921 333.461C179.941 329.86 178.255 326.105 176.878 322.234C176.153 320.219 175.567 318.157 175.123 316.062C174.874 314.903 174.719 313.726 174.659 312.543C174.659 312.212 174.659 311.898 174.659 311.543C174.659 311.188 174.659 310.791 174.717 310.56L174.883 308.908C175.13 306.78 175.509 304.669 176.017 302.587C176.481 300.522 177.077 298.515 177.673 296.532C178.269 294.549 179.015 292.599 179.801 290.682C180.191 289.724 180.629 288.774 181.01 287.824C181.391 286.874 181.838 285.965 182.368 284.949L190.624 289.03Z" fill="#E4897B"/>
<path d="M185.946 330.695L189.175 333.843L182.128 337.147C182.128 337.147 180.423 334.165 181.607 331.471L185.946 330.695Z" fill="#E4897B"/>
<path d="M191.783 338.525L185.83 340.954L182.137 337.112L189.175 333.841L191.783 338.525Z" fill="#E4897B"/>
<path opacity="0.4" d="M312.388 335.138C300.672 333.826 289.609 329.077 280.598 321.492C271.586 313.907 265.031 303.827 261.761 292.526C258.491 281.224 258.652 269.209 262.225 258C265.798 246.79 272.621 236.889 281.833 229.548C291.045 222.207 302.232 217.755 313.979 216.757C325.726 215.758 337.506 218.257 347.83 223.937C358.154 229.617 366.558 238.224 371.98 248.669C377.402 259.114 379.599 270.928 378.292 282.619C377.424 290.386 375.03 297.906 371.248 304.75C367.465 311.593 362.368 317.626 356.248 322.504C350.127 327.381 343.104 331.007 335.578 333.175C328.052 335.343 320.172 336.01 312.388 335.138Z" fill="#FAFAFA"/>
<path opacity="0.4" d="M355.762 229.157L265.091 301.438C264.71 300.612 264.338 299.786 263.99 298.96C261.717 293.565 260.263 287.862 259.676 282.04L337.992 219.607C344.422 221.746 350.433 224.977 355.762 229.157Z" fill="#FAFAFA"/>
<path opacity="0.4" d="M376.686 260.825L291.439 328.777C283.34 324.564 276.322 318.549 270.928 311.196L364.008 236.99C370.008 243.861 374.346 252.016 376.686 260.825Z" fill="#FAFAFA"/>
<path opacity="0.4" d="M376.686 260.825L291.439 328.777C283.34 324.564 276.322 318.549 270.928 311.196L364.008 236.99C370.008 243.861 374.346 252.016 376.686 260.825Z" fill="#FAFAFA"/>
<path d="M251.924 253.292L251.137 253.028C252.5 249.017 254.212 245.133 256.255 241.42L256.975 241.817C254.959 245.488 253.269 249.328 251.924 253.292ZM261.976 234.01L261.306 233.522C268.111 224.342 277.017 216.917 287.281 211.868L287.654 212.612C277.506 217.609 268.702 224.954 261.976 234.034V234.01ZM352.721 213.744C350.016 212.296 347.216 211.029 344.342 209.952L344.64 209.175C347.542 210.278 350.369 211.569 353.102 213.042L352.721 213.744Z" fill="url(#paint19_linear_3280_76835)"/>
<path opacity="0.3" d="M251.924 253.292L251.137 253.028C252.5 249.017 254.212 245.133 256.255 241.42L256.975 241.817C254.959 245.488 253.269 249.328 251.924 253.292ZM261.976 234.01L261.306 233.522C268.111 224.342 277.017 216.917 287.281 211.868L287.654 212.612C277.506 217.609 268.702 224.954 261.976 234.034V234.01ZM352.721 213.744C350.016 212.296 347.216 211.029 344.342 209.952L344.64 209.175C347.542 210.278 350.369 211.569 353.102 213.042L352.721 213.744Z" fill="black"/>
<path d="M380.67 245.639C373.002 229.773 359.51 217.459 342.989 211.25C326.467 205.041 308.185 205.414 291.932 212.29C275.679 219.167 262.701 232.02 255.689 248.185C248.677 264.35 248.169 282.588 254.269 299.117C248.738 301.05 243.273 303.124 237.841 305.263C230.008 308.364 222.246 311.603 214.556 314.979C206.872 318.375 199.221 321.836 191.644 325.455C187.844 327.231 184.093 329.107 180.309 330.924C178.34 331.768 176.556 332.989 175.059 334.518C174.248 335.365 173.535 336.298 172.931 337.302C172.194 338.489 171.636 339.778 171.275 341.127C170.652 343.558 170.921 346.132 172.034 348.382C173.147 350.632 175.031 352.411 177.344 353.396C178.629 353.933 179.984 354.284 181.368 354.437C182.538 354.569 183.718 354.569 184.888 354.437C187.013 354.179 189.066 353.509 190.932 352.462C194.683 350.57 198.459 348.744 202.185 346.803C209.638 343.011 217.09 339.054 224.451 335.038C231.813 331.023 239.182 326.818 246.37 322.506C251.338 319.507 256.356 316.441 261.275 313.236C270.719 328.112 285.539 338.793 302.661 343.065C319.784 347.337 337.898 344.873 353.249 336.183C368.6 327.493 380.012 313.243 385.12 296.387C390.228 279.53 388.641 261.36 380.686 245.639H380.67ZM343.027 324.563C333.404 329.302 322.589 331.088 311.949 329.694C301.309 328.301 291.321 323.791 283.25 316.735C275.179 309.678 269.386 300.393 266.604 290.052C263.822 279.711 264.175 268.779 267.62 258.639C271.064 248.498 277.445 239.604 285.956 233.082C294.466 226.56 304.724 222.702 315.432 221.995C326.14 221.289 336.817 223.767 346.114 229.115C355.411 234.464 362.909 242.442 367.661 252.042C370.817 258.418 372.684 265.351 373.154 272.446C373.624 279.541 372.688 286.659 370.4 293.394C368.113 300.128 364.518 306.347 359.821 311.695C355.124 317.043 349.418 321.415 343.027 324.563Z" fill="url(#paint20_linear_3280_76835)"/>
<path opacity="0.3" d="M380.67 245.639C373.002 229.773 359.51 217.459 342.989 211.25C326.467 205.041 308.185 205.414 291.932 212.29C275.679 219.167 262.701 232.02 255.689 248.185C248.677 264.35 248.169 282.588 254.269 299.117C248.738 301.05 243.273 303.124 237.841 305.263C230.008 308.364 222.246 311.603 214.556 314.979C206.872 318.375 199.221 321.836 191.644 325.455C187.844 327.231 184.093 329.107 180.309 330.924C178.34 331.768 176.556 332.989 175.059 334.518C174.248 335.365 173.535 336.298 172.931 337.302C172.194 338.489 171.636 339.778 171.275 341.127C170.652 343.558 170.921 346.132 172.034 348.382C173.147 350.632 175.031 352.411 177.344 353.396C178.629 353.933 179.984 354.284 181.368 354.437C182.538 354.569 183.718 354.569 184.888 354.437C187.013 354.179 189.066 353.509 190.932 352.462C194.683 350.57 198.459 348.744 202.185 346.803C209.638 343.011 217.09 339.054 224.451 335.038C231.813 331.023 239.182 326.818 246.37 322.506C251.338 319.507 256.356 316.441 261.275 313.236C270.719 328.112 285.539 338.793 302.661 343.065C319.784 347.337 337.898 344.873 353.249 336.183C368.6 327.493 380.012 313.243 385.12 296.387C390.228 279.53 388.641 261.36 380.686 245.639H380.67ZM343.027 324.563C333.404 329.302 322.589 331.088 311.949 329.694C301.309 328.301 291.321 323.791 283.25 316.735C275.179 309.678 269.386 300.393 266.604 290.052C263.822 279.711 264.175 268.779 267.62 258.639C271.064 248.498 277.445 239.604 285.956 233.082C294.466 226.56 304.724 222.702 315.432 221.995C326.14 221.289 336.817 223.767 346.114 229.115C355.411 234.464 362.909 242.442 367.661 252.042C370.817 258.418 372.684 265.351 373.154 272.446C373.624 279.541 372.688 286.659 370.4 293.394C368.113 300.128 364.518 306.347 359.821 311.695C355.124 317.043 349.418 321.415 343.027 324.563Z" fill="black"/>
<path d="M213.512 259.53C213.512 260.017 213.768 260.414 214.091 260.414C214.414 260.414 214.671 260.017 214.671 259.53C214.671 259.042 214.414 258.646 214.091 258.646C213.768 258.646 213.512 259.075 213.512 259.53Z" fill="#263238"/>
<path d="M213.742 260.413C214.328 261.91 215.117 263.319 216.086 264.602C215.751 264.841 215.367 265.004 214.962 265.08C214.558 265.155 214.141 265.142 213.742 265.04V260.413Z" fill="#DE5753"/>
<path d="M211.797 256.806C211.751 256.806 211.705 256.796 211.664 256.776C211.622 256.756 211.585 256.727 211.557 256.691C211.514 256.628 211.496 256.551 211.509 256.475C211.521 256.4 211.562 256.332 211.623 256.286C211.988 256.01 212.414 255.826 212.865 255.75C213.316 255.674 213.779 255.707 214.215 255.848C214.254 255.859 214.29 255.877 214.322 255.903C214.353 255.929 214.379 255.96 214.397 255.996C214.415 256.033 214.426 256.072 214.428 256.112C214.43 256.153 214.424 256.193 214.409 256.231C214.395 256.269 214.372 256.303 214.344 256.331C214.315 256.36 214.281 256.382 214.243 256.397C214.205 256.411 214.165 256.418 214.124 256.416C214.084 256.414 214.044 256.403 214.008 256.385C213.662 256.279 213.296 256.258 212.94 256.322C212.584 256.387 212.249 256.536 211.963 256.757C211.913 256.789 211.856 256.807 211.797 256.806Z" fill="#263238"/>
<path d="M196.786 263.206C197.614 267.642 198.525 275.78 195.412 278.746C195.412 278.746 196.629 283.248 204.901 283.248C214.009 283.248 209.24 278.746 209.24 278.746C204.272 277.556 204.412 273.888 205.274 270.434L196.786 263.206Z" fill="#E4897B"/>
<path d="M191.691 281.081C192.677 279.553 191.021 275.843 191.021 275.843C191.021 275.843 205.66 272.167 211.647 277.81C212.889 278.975 211.515 280.693 211.515 280.693L191.691 281.081Z" fill="url(#paint21_linear_3280_76835)"/>
<path opacity="0.1" d="M191.691 281.081C192.677 279.553 191.021 275.843 191.021 275.843C191.021 275.843 205.66 272.167 211.647 277.81C212.889 278.975 211.515 280.693 211.515 280.693L191.691 281.081Z" fill="black"/>
<path d="M167.474 449.646C166.704 449.646 165.47 448.366 165.106 447.887C165.09 447.863 165.082 447.836 165.082 447.808C165.082 447.78 165.09 447.753 165.106 447.73C165.119 447.707 165.138 447.687 165.162 447.674C165.185 447.661 165.211 447.655 165.238 447.655C165.329 447.655 167.358 447.837 167.913 448.556C167.973 448.632 168.016 448.72 168.039 448.814C168.062 448.908 168.064 449.006 168.045 449.101C168.038 449.224 167.993 449.342 167.915 449.438C167.838 449.534 167.733 449.604 167.615 449.638L167.474 449.646ZM165.553 447.994C166.157 448.688 167.126 449.473 167.54 449.374C167.54 449.374 167.706 449.332 167.755 449.068C167.766 449.013 167.764 448.956 167.75 448.902C167.736 448.847 167.709 448.797 167.673 448.754C167.059 448.291 166.321 448.02 165.553 447.978V447.994Z" fill="url(#paint22_linear_3280_76835)"/>
<path d="M165.644 447.974C165.495 447.989 165.345 447.989 165.197 447.974C165.17 447.972 165.145 447.962 165.125 447.946C165.104 447.93 165.089 447.908 165.081 447.883C165.069 447.86 165.063 447.834 165.063 447.808C165.063 447.783 165.069 447.757 165.081 447.734C165.139 447.685 166.356 446.42 167.275 446.42C167.385 446.418 167.494 446.439 167.596 446.482C167.697 446.524 167.788 446.588 167.863 446.668C167.945 446.737 168.002 446.832 168.023 446.937C168.044 447.042 168.028 447.151 167.979 447.247C167.739 447.709 166.472 447.974 165.644 447.974ZM165.536 447.685C166.364 447.685 167.565 447.428 167.764 447.065C167.764 447.065 167.822 446.958 167.689 446.825C167.641 446.773 167.582 446.732 167.516 446.705C167.45 446.678 167.379 446.665 167.308 446.668C166.629 446.824 166.012 447.178 165.536 447.685Z" fill="url(#paint23_linear_3280_76835)"/>
<path d="M222.116 468.398C221.488 468.394 220.862 468.336 220.244 468.225C220.214 468.219 220.186 468.202 220.166 468.178C220.147 468.154 220.136 468.124 220.137 468.093C220.132 468.064 220.136 468.035 220.148 468.008C220.159 467.982 220.179 467.96 220.203 467.944C220.294 467.894 222.414 466.68 223.432 466.961C223.527 466.982 223.616 467.022 223.694 467.079C223.772 467.136 223.838 467.208 223.888 467.291C223.953 467.383 223.987 467.493 223.987 467.605C223.987 467.717 223.953 467.827 223.888 467.919C223.648 468.291 222.894 468.398 222.116 468.398ZM220.716 468.01C221.842 468.175 223.383 468.167 223.664 467.77C223.706 467.721 223.739 467.63 223.664 467.456C223.601 467.354 223.5 467.279 223.383 467.25C222.737 467.085 221.453 467.63 220.716 468.01Z" fill="url(#paint24_linear_3280_76835)"/>
<path d="M220.276 468.234C220.249 468.242 220.22 468.242 220.193 468.234C220.17 468.219 220.152 468.198 220.142 468.173C220.131 468.148 220.129 468.12 220.135 468.093C220.191 467.233 220.522 466.414 221.079 465.755C221.192 465.658 221.324 465.587 221.467 465.545C221.61 465.504 221.76 465.494 221.907 465.516C222.305 465.516 222.42 465.755 222.445 465.912C222.553 466.598 221.104 467.912 220.367 468.242L220.276 468.234ZM221.758 465.755C221.576 465.754 221.399 465.819 221.261 465.937C220.793 466.459 220.503 467.116 220.433 467.812C221.178 467.358 222.172 466.334 222.089 465.921C222.089 465.921 222.089 465.78 221.808 465.755H221.758Z" fill="url(#paint25_linear_3280_76835)"/>
<path d="M213.587 468.081H219.673L220.278 454.028H214.191L213.587 468.081Z" fill="#E4897B"/>
<path d="M159.391 443.961L164.475 447.282L175.704 437.823L170.611 434.493L159.391 443.961Z" fill="#E4897B"/>
<path d="M165.312 446.966L160.029 442.645C159.935 442.568 159.818 442.527 159.697 442.527C159.577 442.527 159.46 442.568 159.366 442.645L155.011 446.057C154.905 446.141 154.82 446.247 154.762 446.368C154.704 446.489 154.673 446.621 154.673 446.755C154.673 446.889 154.704 447.022 154.762 447.143C154.82 447.264 154.905 447.37 155.011 447.453C156.882 448.932 157.867 449.56 160.194 451.46C161.627 452.625 165.162 456.194 167.158 457.805C169.154 459.416 170.984 457.681 170.321 456.847C167.349 453.088 166.181 449.874 165.841 447.883C165.783 447.523 165.594 447.197 165.312 446.966Z" fill="#263238"/>
<path d="M219.631 467.38H213.006C212.885 467.38 212.768 467.421 212.674 467.496C212.579 467.571 212.512 467.676 212.484 467.793L211.284 473.188C211.254 473.318 211.254 473.454 211.284 473.585C211.314 473.716 211.374 473.838 211.458 473.942C211.543 474.046 211.65 474.13 211.772 474.187C211.894 474.244 212.027 474.272 212.162 474.27C214.555 474.229 218.016 474.088 221.03 474.088C224.549 474.088 227.596 474.278 231.72 474.278C234.204 474.278 234.916 471.758 233.865 471.535C229.112 470.494 225.22 470.387 221.113 467.851C220.672 467.559 220.159 467.396 219.631 467.38Z" fill="#263238"/>
<path d="M183.419 280.552C178.144 283.031 175.139 299.636 175.139 299.636L188.031 304.767C189.918 300.169 191.444 295.432 192.594 290.598C194.366 282.948 188.818 277.991 183.419 280.552Z" fill="#263238"/>
<path d="M190.259 289.915C187.072 293.137 185.614 299.449 184.977 303.555L188.065 304.786C189.899 300.319 191.393 295.721 192.537 291.03C192.263 289.279 191.584 288.576 190.259 289.915Z" fill="#203048"/>
<path d="M218.595 280.437C218.595 280.437 225.07 287.74 218.959 332.898H186.425C186.202 327.941 189.34 303.611 184.521 280.131C188.116 279.436 191.754 278.977 195.41 278.76C200.015 278.487 204.633 278.487 209.238 278.76C212.396 279.077 215.524 279.638 218.595 280.437Z" fill="#263238"/>
<path d="M221.568 297.967L216.086 288.54C215.028 292.939 214.596 297.464 214.803 301.982C214.952 305.221 217.924 317.216 220.599 318.968C221.309 311.991 221.632 304.98 221.568 297.967Z" fill="#203048"/>
<path d="M222.332 286.891C223.16 290.906 223.988 295.02 224.874 299.052C225.76 303.083 226.679 307.131 227.747 311.039C228.02 312.006 228.277 312.997 228.575 313.923L228.799 314.633L228.906 314.988V314.947C228.848 314.873 228.782 314.864 228.832 314.947C229.172 315.318 229.607 315.589 230.091 315.732C230.873 316.022 231.679 316.246 232.5 316.401C236.415 317.02 240.379 317.277 244.341 317.169L245.128 321.664C244.018 322.019 242.983 322.275 241.89 322.531C240.797 322.787 239.721 323.002 238.619 323.167C236.341 323.546 234.031 323.701 231.722 323.63C230.438 323.595 229.162 323.429 227.913 323.134C226.324 322.788 224.832 322.097 223.541 321.11C222.698 320.431 222.002 319.588 221.495 318.632C221.363 318.384 221.247 318.103 221.139 317.863L220.99 317.475L220.684 316.649C220.262 315.6 219.914 314.567 219.533 313.534C218.134 309.403 216.966 305.231 215.939 301.067C214.913 296.904 214.027 292.748 213.29 288.477L222.332 286.891Z" fill="#E4897B"/>
<path d="M210.472 284.864C208.758 290.407 215.705 306.939 215.705 306.939L229.542 303.469C229.542 303.469 229.012 294.877 225.857 288.061C221.104 277.783 212.526 278.213 210.472 284.864Z" fill="#263238"/>
<path d="M244.224 317.168L251.113 316.995L247.801 324.15C247.801 324.15 244.994 324.521 242.692 320.746L240.266 317.854L243.056 317.301C243.44 317.22 243.831 317.176 244.224 317.168Z" fill="#E4897B"/>
<path d="M255.461 318.325L251.52 324.257L247.802 324.15L251.114 316.995L255.461 318.325Z" fill="#E4897B"/>
<path d="M220.277 454.028L219.962 461.274H213.876L214.191 454.028H220.277Z" fill="#CE6F64"/>
<path d="M170.609 434.493L175.702 437.823L169.905 442.697L164.821 439.376L170.609 434.493Z" fill="#CE6F64"/>
<path d="M197.167 258.475C197.531 264.481 197.44 268.026 200.479 271.107C205.05 275.759 212.494 273.007 213.935 266.976C215.235 261.573 214.423 252.651 208.528 250.255C207.227 249.731 205.814 249.545 204.421 249.716C203.029 249.886 201.703 250.406 200.567 251.228C199.431 252.05 198.524 253.146 197.929 254.413C197.334 255.681 197.072 257.079 197.167 258.475Z" fill="#E4897B"/>
<path d="M190.078 257.42C191.576 262.898 195.104 269.209 199.666 269.614C205.33 270.11 207.889 264.269 208.634 258.238C212.029 255.917 210.249 253.364 213.652 253.041C218.024 252.628 216.625 244.648 210.87 243.367C210.87 243.367 212.799 246.961 208.75 245.143C204.899 243.317 200.621 242.577 196.379 243.004C196.379 243.004 201.546 245.581 196.495 246.73C191.444 247.878 189.937 250.984 192.264 252.86C192.264 252.868 189.092 253.818 190.078 257.42Z" fill="#263238"/>
<path d="M205.181 259.48C205.292 260.972 205.894 262.387 206.895 263.503C208.219 264.965 209.602 264.056 209.834 262.28C210.049 260.686 209.611 258.001 207.988 257.191C206.365 256.381 205.073 257.678 205.181 259.48Z" fill="#E4897B"/>
<path d="M207.418 332.901C207.418 332.901 213.347 375.738 208.677 392.905C201.274 420.086 172.972 443.029 172.972 443.029L163.375 436.75C163.375 436.75 187.479 417.376 190.427 394.616C193.076 374.185 186.427 349.474 186.427 332.893L207.418 332.901Z" fill="url(#paint26_linear_3280_76835)"/>
<path opacity="0.1" d="M207.418 332.901C207.418 332.901 213.347 375.738 208.677 392.905C201.274 420.086 172.972 443.029 172.972 443.029L163.375 436.75C163.375 436.75 187.479 417.376 190.427 394.616C193.076 374.185 186.427 349.474 186.427 332.893L207.418 332.901Z" fill="black"/>
<path d="M209.868 357.385C208.29 355.581 206.552 353.922 204.676 352.428C205.686 366.332 206.515 386.928 205.595 401.56C206.831 398.755 207.861 395.864 208.676 392.91C210.953 384.524 210.713 370.042 209.868 357.385Z" fill="url(#paint27_linear_3280_76835)"/>
<path opacity="0.3" d="M209.868 357.385C208.29 355.581 206.552 353.922 204.676 352.428C205.686 366.332 206.515 386.928 205.595 401.56C206.831 398.755 207.861 395.864 208.676 392.91C210.953 384.524 210.713 370.042 209.868 357.385Z" fill="black"/>
<path d="M176.839 440.884C176.881 440.884 173.121 443.363 173.121 443.363L162.638 436.505L165.95 433.771L176.839 440.884Z" fill="url(#paint28_linear_3280_76835)"/>
<path opacity="0.3" d="M176.839 440.884C176.881 440.884 173.121 443.363 173.121 443.363L162.638 436.505L165.95 433.771L176.839 440.884Z" fill="black"/>
<path d="M218.96 332.898C218.96 332.898 228.118 371.645 228.764 390.159C229.492 410.913 222.23 459.871 222.23 459.871H211.921C211.921 459.871 210.654 410.533 210.199 391.63C209.694 371.017 197.571 332.898 197.571 332.898H218.96Z" fill="url(#paint29_linear_3280_76835)"/>
<path opacity="0.1" d="M218.96 332.898C218.96 332.898 228.118 371.645 228.764 390.159C229.492 410.913 222.23 459.871 222.23 459.871H211.921C211.921 459.871 210.654 410.533 210.199 391.63C209.694 371.017 197.571 332.898 197.571 332.898H218.96Z" fill="black"/>
<path d="M224.211 455.781C224.26 455.781 223.631 460.044 223.631 460.044H211.094L210.755 456.235L224.211 455.781Z" fill="url(#paint30_linear_3280_76835)"/>
<path opacity="0.3" d="M224.211 455.781C224.26 455.781 223.631 460.044 223.631 460.044H211.094L210.755 456.235L224.211 455.781Z" fill="black"/>
<path d="M377.464 295.667C378.168 296.328 378.723 296.89 379.303 297.517C379.882 298.145 380.429 298.757 380.959 299.393C382.035 300.657 383.045 301.987 384.023 303.325C385.974 306.01 387.71 308.844 389.214 311.802L389.521 312.405C389.67 312.697 389.795 313.001 389.893 313.314C390.093 313.918 390.216 314.546 390.258 315.181C390.312 316.301 390.157 317.421 389.802 318.485C389.197 320.253 388.299 321.906 387.144 323.376C385.064 326.042 382.61 328.396 379.857 330.366L377.796 328.003C378.764 326.871 379.775 325.657 380.677 324.442C381.596 323.265 382.426 322.023 383.161 320.724C383.848 319.591 384.357 318.36 384.668 317.073C384.775 316.612 384.795 316.136 384.726 315.668C384.697 315.511 384.647 315.358 384.577 315.214C384.546 315.15 384.51 315.09 384.47 315.032L384.205 314.586C382.608 311.988 380.875 309.476 379.013 307.06C378.094 305.845 377.108 304.68 376.115 303.532C375.626 302.954 375.121 302.392 374.616 301.83C374.111 301.268 373.564 300.706 373.125 300.269L377.464 295.667Z" fill="#E4897B"/>
<path d="M378.59 327.307L372.405 326.299L375.642 331.702C375.642 331.702 379.625 331.562 380.76 329.224L378.59 327.307Z" fill="#E4897B"/>
<path d="M367.834 328.794L370.782 333.181L375.643 331.702L372.405 326.299L367.834 328.794Z" fill="#E4897B"/>
<path d="M378.293 468.326C377.872 468.362 377.453 468.248 377.109 468.004C377.005 467.906 376.928 467.783 376.886 467.647C376.844 467.511 376.838 467.367 376.869 467.228C376.875 467.139 376.905 467.053 376.956 466.981C377.007 466.908 377.077 466.85 377.158 466.814C377.879 466.492 379.767 467.698 379.982 467.839C380.007 467.854 380.026 467.877 380.036 467.904C380.047 467.93 380.048 467.96 380.04 467.988C380.037 468.016 380.025 468.042 380.005 468.063C379.986 468.084 379.96 468.098 379.932 468.103C379.396 468.239 378.846 468.314 378.293 468.326ZM377.465 467.046C377.404 467.036 377.343 467.036 377.283 467.046C377.246 467.063 377.215 467.089 377.193 467.123C377.171 467.157 377.159 467.196 377.158 467.236C377.137 467.328 377.139 467.424 377.165 467.515C377.191 467.607 377.24 467.689 377.308 467.756C377.622 468.037 378.434 468.078 379.518 467.864C378.897 467.454 378.198 467.176 377.465 467.046Z" fill="url(#paint31_linear_3280_76835)"/>
<path d="M379.948 468.097H379.874C379.286 467.758 378.151 466.444 378.292 465.726C378.319 465.612 378.382 465.511 378.472 465.436C378.561 465.362 378.673 465.318 378.789 465.313C378.901 465.296 379.015 465.306 379.122 465.34C379.23 465.375 379.328 465.433 379.41 465.511C380.089 466.106 380.097 467.89 380.097 467.989C380.096 468.014 380.088 468.039 380.075 468.06C380.062 468.082 380.044 468.1 380.023 468.113L379.948 468.097ZM378.888 465.618H378.822C378.64 465.618 378.599 465.717 378.582 465.792C378.499 466.213 379.203 467.221 379.791 467.692C379.806 466.999 379.606 466.318 379.22 465.742C379.17 465.696 379.111 465.661 379.047 465.64C378.983 465.618 378.914 465.611 378.847 465.618H378.888Z" fill="url(#paint32_linear_3280_76835)"/>
<path d="M350.073 468.328C349.544 468.378 349.014 468.244 348.574 467.948C348.475 467.86 348.398 467.749 348.35 467.626C348.303 467.502 348.286 467.369 348.301 467.237C348.306 467.157 348.332 467.079 348.375 467.011C348.418 466.944 348.478 466.888 348.549 466.849C349.319 466.419 351.787 467.675 352.068 467.832C352.094 467.849 352.115 467.872 352.128 467.9C352.141 467.928 352.146 467.959 352.143 467.989C352.138 468.018 352.124 468.045 352.103 468.066C352.083 468.086 352.056 468.1 352.027 468.105C351.384 468.241 350.73 468.316 350.073 468.328ZM348.971 467.047C348.877 467.041 348.782 467.061 348.698 467.105C348.668 467.119 348.643 467.141 348.626 467.169C348.608 467.197 348.599 467.229 348.599 467.262C348.586 467.348 348.595 467.436 348.623 467.518C348.652 467.6 348.701 467.674 348.764 467.733C349.145 468.072 350.164 468.13 351.538 467.898C350.737 467.472 349.869 467.185 348.971 467.047Z" fill="url(#paint33_linear_3280_76835)"/>
<path d="M352.001 468.096H351.935C351.198 467.765 349.732 466.443 349.848 465.725C349.848 465.559 349.997 465.353 350.403 465.311C350.551 465.296 350.701 465.31 350.844 465.354C350.986 465.398 351.118 465.471 351.231 465.568C352.009 466.212 352.159 467.881 352.159 467.955C352.162 467.98 352.158 468.006 352.148 468.029C352.138 468.053 352.121 468.073 352.101 468.087C352.069 468.101 352.034 468.104 352.001 468.096ZM350.519 465.617H350.428C350.163 465.617 350.146 465.749 350.138 465.782C350.072 466.204 351.066 467.253 351.794 467.707C351.722 467.001 351.433 466.334 350.966 465.799C350.84 465.692 350.684 465.628 350.519 465.617Z" fill="url(#paint34_linear_3280_76835)"/>
<path d="M361.791 276.674C361.55 280.409 360.905 287.993 363.778 290.091C363.778 290.091 363.256 293.917 356.475 294.809C349.022 295.775 352.425 291.578 352.425 291.578C356.375 290.075 355.87 287.076 354.794 284.333L361.791 276.674Z" fill="#E4897B"/>
<path d="M346.362 270.073C346.321 270.073 346.28 270.064 346.243 270.047C346.206 270.03 346.173 270.005 346.146 269.974C345.91 269.694 345.61 269.473 345.272 269.329C344.934 269.186 344.567 269.124 344.201 269.148C344.162 269.155 344.122 269.154 344.084 269.145C344.045 269.136 344.009 269.12 343.977 269.097C343.946 269.073 343.919 269.044 343.899 269.01C343.879 268.976 343.866 268.939 343.861 268.9C343.852 268.822 343.873 268.744 343.921 268.682C343.969 268.62 344.04 268.58 344.118 268.569C344.585 268.53 345.055 268.604 345.488 268.785C345.921 268.967 346.303 269.25 346.602 269.61C346.638 269.653 346.661 269.706 346.668 269.761C346.675 269.817 346.667 269.873 346.644 269.924C346.62 269.975 346.583 270.018 346.536 270.049C346.489 270.08 346.434 270.097 346.378 270.098L346.362 270.073Z" fill="#263238"/>
<path d="M345.072 273.734C344.779 274.919 344.325 276.059 343.723 277.121C343.999 277.27 344.305 277.356 344.618 277.373C344.932 277.39 345.245 277.338 345.536 277.22L345.072 273.734Z" fill="#DE5753"/>
<path d="M345.404 272.823C345.47 273.319 345.263 273.749 344.94 273.798C344.617 273.848 344.294 273.468 344.236 272.972C344.178 272.476 344.377 272.047 344.7 272.005C345.023 271.964 345.346 272.295 345.404 272.823Z" fill="#263238"/>
<path d="M344.846 272.013L343.612 271.823C343.612 271.823 344.341 272.674 344.846 272.013Z" fill="#263238"/>
<path d="M358.826 467.963H352.616L352.202 453.629H358.412L358.826 467.963Z" fill="#E4897B"/>
<path d="M387.019 467.963H380.809L378.813 453.629H385.024L387.019 467.963Z" fill="#E4897B"/>
<path d="M380.428 467.267H387.401C387.519 467.266 387.635 467.308 387.725 467.386C387.815 467.463 387.873 467.571 387.889 467.689L388.717 473.199C388.732 473.338 388.718 473.479 388.675 473.612C388.632 473.744 388.561 473.867 388.467 473.971C388.373 474.074 388.259 474.157 388.13 474.214C388.002 474.27 387.864 474.299 387.724 474.298C385.297 474.257 384.122 474.116 381.058 474.116C379.17 474.116 376.412 474.306 373.812 474.306C371.212 474.306 371.072 471.737 372.156 471.505C377.017 470.464 377.787 469.027 379.418 467.647C379.703 467.412 380.059 467.278 380.428 467.267Z" fill="#263238"/>
<path d="M352.407 467.267H359.37C359.49 467.266 359.607 467.308 359.698 467.385C359.789 467.463 359.849 467.57 359.867 467.689L360.695 473.199C360.711 473.338 360.696 473.479 360.653 473.612C360.61 473.745 360.539 473.867 360.445 473.971C360.351 474.074 360.237 474.157 360.109 474.214C359.98 474.27 359.842 474.299 359.702 474.298C357.276 474.257 356.1 474.116 353.036 474.116C351.148 474.116 347.24 474.306 344.64 474.306C342.04 474.306 341.899 471.737 342.983 471.505C347.844 470.464 349.757 469.027 351.396 467.647C351.681 467.412 352.037 467.278 352.407 467.267Z" fill="#263238"/>
<path d="M352.202 453.629L352.417 461.023H358.627L358.412 453.629H352.202Z" fill="#CE6F64"/>
<path d="M385.024 453.629H378.813L379.849 461.023H386.051L385.024 453.629Z" fill="#CE6F64"/>
<path d="M361.871 268.94C362.293 275.07 362.599 277.656 359.933 281.183C355.917 286.479 348.283 285.661 346.03 279.779C344.002 274.483 343.654 265.354 349.301 262.149C350.543 261.438 351.947 261.056 353.379 261.039C354.811 261.022 356.223 261.37 357.482 262.05C358.741 262.73 359.805 263.72 360.573 264.926C361.341 266.132 361.788 267.513 361.871 268.94Z" fill="#E4897B"/>
<path d="M365.449 274.633C368.894 276.549 371.452 271.824 371.452 271.824C371.452 271.824 365.275 272.493 365.83 268.825C366.559 263.959 363.064 258.043 354.304 258.803C353.815 258.845 353.351 258.903 352.896 258.977C351.979 258.543 350.942 258.431 349.953 258.659C348.964 258.887 348.081 259.442 347.447 260.233C344.963 260.439 341.61 263.397 343.887 267.305C344.047 266.856 344.294 266.443 344.615 266.09C344.806 268.379 346.81 272.014 349.31 272.253C349.849 275.385 347.762 279.011 348.482 282.283C349.551 287 357.525 288.066 357.525 288.066C357.25 287.477 357.147 286.822 357.229 286.178C357.311 285.533 357.574 284.925 357.988 284.423C363.404 286.901 366.973 284.481 366.973 284.481C363.28 283.109 364.397 280.664 364.397 280.664C365.673 281.229 367.117 281.278 368.429 280.802C369.74 280.326 370.815 279.361 371.427 278.111C370.201 278.169 368.983 277.872 367.922 277.254C366.862 276.637 366.002 275.727 365.449 274.633Z" fill="#263238"/>
<path d="M351.471 273.196C351.485 273.785 351.383 274.37 351.17 274.919C350.957 275.468 350.637 275.969 350.229 276.394C349.136 277.525 347.794 276.732 347.43 275.287C347.107 273.981 347.289 271.825 348.714 271.23C349.027 271.107 349.366 271.064 349.7 271.106C350.035 271.147 350.353 271.271 350.627 271.466C350.901 271.662 351.122 271.922 351.269 272.224C351.417 272.527 351.486 272.861 351.471 273.196Z" fill="#E4897B"/>
<path d="M356.631 330.306C356.631 330.306 358.204 371.085 361.947 395.027C364.961 414.376 378.35 459.584 378.35 459.584H386.813C386.813 459.584 379.833 415.921 378.301 396.795C374.425 348.39 384.486 337.997 374.989 327.918L356.631 330.306Z" fill="#263238"/>
<path d="M363.702 343.206C363.702 343.206 359.876 342.545 357.641 349.816C358.469 363.588 359.885 381.863 361.946 395.032C362.402 397.965 363.097 401.5 363.95 405.375C362.336 382.11 363.702 343.206 363.702 343.206Z" fill="#161F33"/>
<path d="M350.03 331.166C350.03 331.166 343.058 376.282 343.463 395.16C343.886 414.798 351.098 459.601 351.098 459.601H359.486C359.486 459.601 358.161 415.963 358.898 396.68C359.726 375.655 368.329 328.795 368.329 328.795L350.03 331.166Z" fill="#263238"/>
<path d="M388.037 459.984H376.784L375.906 456.216L387.954 456.299L388.037 459.984Z" fill="url(#paint35_linear_3280_76835)"/>
<path opacity="0.2" d="M388.037 459.984H376.784L375.906 456.216L387.954 456.299L388.037 459.984Z" fill="black"/>
<path d="M374.565 290.1C377.803 290.414 382.721 299.593 382.721 299.593L374.549 305.847C374.549 305.847 367.784 299.923 368.587 296.594C369.423 293.132 371.46 289.811 374.565 290.1Z" fill="url(#paint36_linear_3280_76835)"/>
<path opacity="0.1" d="M374.565 290.1C377.803 290.414 382.721 299.593 382.721 299.593L374.549 305.847C374.549 305.847 367.784 299.923 368.587 296.594C369.423 293.132 371.46 289.811 374.565 290.1Z" fill="black"/>
<path d="M372.123 294.049C371.298 293.827 370.443 293.733 369.589 293.768C369.154 294.672 368.819 295.619 368.587 296.594C367.759 299.899 374.549 305.847 374.549 305.847L375.153 305.384L372.123 294.049Z" fill="url(#paint37_linear_3280_76835)"/>
<path opacity="0.3" d="M372.123 294.049C371.298 293.827 370.443 293.733 369.589 293.768C369.154 294.672 368.819 295.619 368.587 296.594C367.759 299.899 374.549 305.847 374.549 305.847L375.153 305.384L372.123 294.049Z" fill="black"/>
<path d="M347.257 302.864C344.897 308.821 342.413 314.876 340.434 320.85C340.301 321.23 340.194 321.593 340.078 321.965L339.796 322.882C339.719 323.152 339.719 323.438 339.796 323.708C340.264 324.741 341.005 325.627 341.941 326.269C344.417 328.041 347.114 329.483 349.965 330.557L349.219 333.597C345.713 333.136 342.322 332.032 339.217 330.342C337.306 329.324 335.75 327.751 334.754 325.831C334.182 324.604 333.983 323.237 334.182 321.899C334.201 321.735 334.229 321.572 334.265 321.411L334.348 321.064L334.489 320.436C334.588 320.015 334.687 319.61 334.795 319.197C335.623 315.893 336.683 312.753 337.801 309.638C338.919 306.524 340.086 303.451 341.403 300.385L347.257 302.864Z" fill="#E4897B"/>
<path d="M342.229 294.504C342.229 294.504 339.431 295.917 350.029 331.169L375.02 327.914C373.264 317.818 372.436 311.564 374.564 290.101C370.981 289.845 367.383 289.845 363.8 290.101C359.985 290.322 356.191 290.819 352.447 291.588C347.653 292.654 342.229 294.504 342.229 294.504Z" fill="url(#paint38_linear_3280_76835)"/>
<path opacity="0.1" d="M342.229 294.504C342.229 294.504 339.431 295.917 350.029 331.169L375.02 327.914C373.264 317.818 372.436 311.564 374.564 290.101C370.981 289.845 367.383 289.845 363.8 290.101C359.985 290.322 356.191 290.819 352.447 291.588C347.653 292.654 342.229 294.504 342.229 294.504Z" fill="black"/>
<path d="M375.202 326.402L376.635 328.476C376.743 328.641 376.56 328.84 376.279 328.881L350.071 332.301C349.848 332.301 349.641 332.243 349.608 332.103L349.094 329.897C349.053 329.748 349.235 329.591 349.483 329.558L374.788 326.254C374.864 326.242 374.942 326.249 375.015 326.275C375.087 326.301 375.152 326.345 375.202 326.402Z" fill="url(#paint39_linear_3280_76835)"/>
<path opacity="0.2" d="M375.202 326.402L376.635 328.476C376.743 328.641 376.56 328.84 376.279 328.881L350.071 332.301C349.848 332.301 349.641 332.243 349.608 332.103L349.094 329.897C349.053 329.748 349.235 329.591 349.483 329.558L374.788 326.254C374.864 326.242 374.942 326.249 375.015 326.275C375.087 326.301 375.152 326.345 375.202 326.402Z" fill="black"/>
<path d="M372.173 329.664L372.852 329.573C372.984 329.573 373.075 329.474 373.059 329.391L372.363 326.533C372.337 326.484 372.294 326.446 372.243 326.425C372.192 326.404 372.135 326.401 372.081 326.417L371.402 326.5C371.262 326.5 371.171 326.599 371.195 326.69L371.891 329.54C371.908 329.631 372.04 329.68 372.173 329.664Z" fill="#263238"/>
<path d="M355.744 331.779L356.423 331.688C356.556 331.688 356.655 331.589 356.63 331.506L355.935 328.648C355.907 328.599 355.865 328.561 355.814 328.539C355.764 328.517 355.707 328.511 355.653 328.524L354.974 328.615C354.842 328.615 354.742 328.714 354.767 328.796L355.463 331.655C355.479 331.779 355.612 331.828 355.744 331.779Z" fill="#263238"/>
<path d="M343.398 306.467C344.086 309.656 345.055 313.696 346.47 318.81L346.777 305.847L343.398 306.467Z" fill="url(#paint40_linear_3280_76835)"/>
<path opacity="0.3" d="M343.398 306.467C344.086 309.656 345.055 313.696 346.47 318.81L346.777 305.847L343.398 306.467Z" fill="black"/>
<path d="M342.231 294.5C339.126 295.748 336.435 306.348 336.435 306.348L347.117 311.536C347.117 311.536 352.276 298.573 349.965 296.045C347.655 293.517 345.809 293.071 342.231 294.5Z" fill="url(#paint41_linear_3280_76835)"/>
<path opacity="0.1" d="M342.231 294.5C339.126 295.748 336.435 306.348 336.435 306.348L347.117 311.536C347.117 311.536 352.276 298.573 349.965 296.045C347.655 293.517 345.809 293.071 342.231 294.5Z" fill="black"/>
<path d="M360.919 459.984H349.666L348.789 456.216L361.317 456.299L360.919 459.984Z" fill="url(#paint42_linear_3280_76835)"/>
<path opacity="0.2" d="M360.919 459.984H349.666L348.789 456.216L361.317 456.299L360.919 459.984Z" fill="black"/>
<path d="M350.138 329.532L349.235 329.161C349.013 329.071 348.772 329.041 348.534 329.074C348.297 329.107 348.073 329.203 347.885 329.35C347.696 329.498 347.551 329.693 347.462 329.915C347.373 330.137 347.345 330.378 347.38 330.615L348.035 334.919C348.066 335.134 348.145 335.34 348.266 335.521C348.387 335.703 348.546 335.855 348.733 335.967C348.92 336.079 349.13 336.149 349.347 336.17C349.564 336.192 349.783 336.165 349.989 336.092C350.317 335.973 350.625 335.803 350.9 335.588C351.199 335.34 351.436 335.026 351.591 334.67C351.747 334.314 351.816 333.927 351.794 333.539L351.703 331.755C351.687 331.273 351.531 330.805 351.253 330.411C350.975 330.016 350.587 329.711 350.138 329.532Z" fill="#E4897B"/>
<g filter="url(#filter0_d_3280_76835)">
<rect x="34" y="44" width="199" height="147" rx="14.6025" fill="#738698"/>
</g>
<path d="M94.3555 81.1022C93.7899 81.1022 93.3095 81 92.9143 80.7956C92.519 80.5911 92.1647 80.2913 91.8512 79.8961L92.6485 79.0988C92.8461 79.385 93.0812 79.6098 93.3538 79.7734C93.6264 79.9301 93.9739 80.0085 94.3964 80.0085C94.7917 80.0085 95.1051 79.9267 95.3368 79.7632C95.5753 79.5996 95.6946 79.3747 95.6946 79.0885C95.6946 78.85 95.6333 78.6558 95.5106 78.5059C95.3879 78.356 95.2244 78.2333 95.0199 78.1379C94.8223 78.0357 94.6009 77.9471 94.3555 77.8722C94.117 77.7904 93.8751 77.7018 93.6298 77.6064C93.3913 77.5042 93.1698 77.3781 92.9654 77.2282C92.7678 77.0783 92.6076 76.8841 92.485 76.6455C92.3623 76.407 92.301 76.1038 92.301 75.7358C92.301 75.3133 92.4032 74.9556 92.6076 74.6625C92.8189 74.3627 93.1017 74.1344 93.456 73.9777C93.8104 73.8209 94.2056 73.7426 94.6417 73.7426C95.1119 73.7426 95.531 73.8346 95.899 74.0186C96.2738 74.2026 96.5771 74.4377 96.8087 74.7239L96.0115 75.5212C95.807 75.2895 95.5924 75.1191 95.3675 75.0101C95.1494 74.8942 94.8973 74.8363 94.6111 74.8363C94.2567 74.8363 93.9773 74.9079 93.7729 75.051C93.5753 75.1941 93.4765 75.3951 93.4765 75.654C93.4765 75.8721 93.5378 76.0493 93.6605 76.1856C93.7831 76.315 93.9433 76.4275 94.1409 76.5229C94.3453 76.6115 94.5668 76.6967 94.8053 76.7784C95.0506 76.8602 95.2925 76.9522 95.531 77.0544C95.7764 77.1566 95.9978 77.2895 96.1954 77.4531C96.3999 77.6098 96.5634 77.8142 96.6861 78.0664C96.8087 78.3185 96.8701 78.6354 96.8701 79.017C96.8701 79.6575 96.6418 80.1652 96.1852 80.54C95.7355 80.9148 95.1256 81.1022 94.3555 81.1022ZM97.5877 81L100.532 73.8448H101.349L104.273 81H103.005L100.716 75.2043H101.145L98.8347 81H97.5877ZM99.0392 79.6201V78.5979H102.831V79.6201H99.0392ZM106.331 77.9641V76.9931H108.14C108.501 76.9931 108.78 76.9011 108.978 76.7171C109.183 76.5263 109.285 76.2639 109.285 75.93C109.285 75.6302 109.186 75.3781 108.988 75.1736C108.791 74.9692 108.511 74.867 108.15 74.867H106.331V73.8448H108.201C108.651 73.8448 109.046 73.9368 109.387 74.1208C109.728 74.298 109.99 74.5433 110.174 74.8567C110.365 75.1634 110.46 75.5143 110.46 75.9096C110.46 76.3253 110.365 76.6864 110.174 76.9931C109.99 77.2997 109.728 77.5382 109.387 77.7086C109.046 77.879 108.651 77.9641 108.201 77.9641H106.331ZM105.523 81V73.8448H106.699V81H105.523ZM109.448 81L106.944 77.8926L108.038 77.4939L110.93 81H109.448ZM111.347 81L114.291 73.8448H115.109L118.032 81H116.765L114.475 75.2043H114.905L112.595 81H111.347ZM112.799 79.6201V78.5979H116.591V79.6201H112.799ZM119.283 81V73.8448H120.458V81H119.283ZM123.832 81V73.8448H125.007V81H123.832ZM120.09 77.8313V76.758H124.087V77.8313H120.09ZM126.591 76.3491L127.286 75.051L127.664 74.9487C127.623 75.0305 127.575 75.0987 127.521 75.1532C127.466 75.2077 127.402 75.2349 127.327 75.2349C127.17 75.2349 127.023 75.1702 126.887 75.0407C126.758 74.9044 126.693 74.7341 126.693 74.5297C126.693 74.3116 126.768 74.1276 126.918 73.9777C127.068 73.8209 127.248 73.7426 127.459 73.7426C127.664 73.7426 127.841 73.8209 127.991 73.9777C128.148 74.1276 128.226 74.3116 128.226 74.5297C128.226 74.6182 128.206 74.7239 128.165 74.8465C128.131 74.9624 128.066 75.1123 127.971 75.2963L127.214 76.6864L126.591 76.3491ZM131.412 81.1022C130.847 81.1022 130.366 81 129.971 80.7956C129.576 80.5911 129.222 80.2913 128.908 79.8961L129.705 79.0988C129.903 79.385 130.138 79.6098 130.411 79.7734C130.683 79.9301 131.031 80.0085 131.453 80.0085C131.849 80.0085 132.162 79.9267 132.394 79.7632C132.632 79.5996 132.752 79.3747 132.752 79.0885C132.752 78.85 132.69 78.6558 132.568 78.5059C132.445 78.356 132.281 78.2333 132.077 78.1379C131.879 78.0357 131.658 77.9471 131.412 77.8722C131.174 77.7904 130.932 77.7018 130.687 77.6064C130.448 77.5042 130.227 77.3781 130.022 77.2282C129.825 77.0783 129.665 76.8841 129.542 76.6455C129.419 76.407 129.358 76.1038 129.358 75.7358C129.358 75.3133 129.46 74.9556 129.665 74.6625C129.876 74.3627 130.159 74.1344 130.513 73.9777C130.867 73.8209 131.263 73.7426 131.699 73.7426C132.169 73.7426 132.588 73.8346 132.956 74.0186C133.331 74.2026 133.634 74.4377 133.866 74.7239L133.068 75.5212C132.864 75.2895 132.649 75.1191 132.424 75.0101C132.206 74.8942 131.954 74.8363 131.668 74.8363C131.314 74.8363 131.034 74.9079 130.83 75.051C130.632 75.1941 130.533 75.3951 130.533 75.654C130.533 75.8721 130.595 76.0493 130.717 76.1856C130.84 76.315 131 76.4275 131.198 76.5229C131.402 76.6115 131.624 76.6967 131.862 76.7784C132.108 76.8602 132.349 76.9522 132.588 77.0544C132.833 77.1566 133.055 77.2895 133.252 77.4531C133.457 77.6098 133.62 77.8142 133.743 78.0664C133.866 78.3185 133.927 78.6354 133.927 79.017C133.927 79.6575 133.699 80.1652 133.242 80.54C132.792 80.9148 132.183 81.1022 131.412 81.1022ZM139.599 81L137.248 73.8448H138.403L140.171 79.3543H139.864L141.592 73.8448H142.41L144.137 79.3543H143.83L145.599 73.8448H146.754L144.403 81H143.585L141.847 75.5007H142.154L140.416 81H139.599ZM146.717 81L149.661 73.8448H150.479L153.402 81H152.135L149.845 75.2043H150.275L147.964 81H146.717ZM148.169 79.6201V78.5979H151.961V79.6201H148.169ZM154.653 81V73.8448H155.828V81H154.653ZM155.46 81V79.9267H159.202V81H155.46ZM160.58 81V73.8448H161.755V81H160.58ZM161.387 81V79.9267H165.128V81H161.387ZM166.506 81V73.8448H167.682V81H166.506ZM167.314 81V79.9267H171.321V81H167.314ZM167.314 77.8619V76.8295H170.973V77.8619H167.314ZM167.314 74.9181V73.8448H171.269V74.9181H167.314ZM174.391 81V74.0492H175.567V81H174.391ZM172.061 74.9181V73.8448H177.898V74.9181H172.061Z" fill="#F3F5F6"/>
<path d="M96.1794 103.811C95.3334 103.811 94.5945 103.656 93.9627 103.345C93.3416 103.035 92.7741 102.569 92.2601 101.948L93.6736 100.518C94.0056 100.957 94.3804 101.311 94.798 101.579C95.2263 101.836 95.7243 101.964 96.2918 101.964C96.8701 101.964 97.3252 101.846 97.6572 101.611C97.9891 101.375 98.1551 101.043 98.1551 100.615C98.1551 100.272 98.0587 99.9937 97.866 99.7795C97.6732 99.5654 97.4162 99.3833 97.095 99.2334C96.7844 99.0835 96.4417 98.9496 96.0669 98.8318C95.6921 98.7033 95.3174 98.5588 94.9426 98.3981C94.5678 98.2375 94.2197 98.0394 93.8985 97.8038C93.5879 97.5575 93.3363 97.247 93.1435 96.8722C92.9615 96.4867 92.8705 96.0048 92.8705 95.4265C92.8705 94.7412 93.0311 94.1576 93.3523 93.6757C93.6843 93.1938 94.1341 92.8244 94.7016 92.5674C95.2799 92.3104 95.9331 92.1819 96.6613 92.1819C97.368 92.1819 98.0212 92.3264 98.6209 92.6156C99.2206 92.9047 99.7185 93.2795 100.115 93.7399L98.6852 95.1695C98.3639 94.8054 98.0319 94.527 97.6893 94.3343C97.3573 94.1415 96.9986 94.0451 96.6131 94.0451C96.0884 94.0451 95.6814 94.1469 95.3923 94.3503C95.1032 94.5431 94.9586 94.8429 94.9586 95.2498C94.9586 95.5604 95.055 95.812 95.2477 96.0048C95.4405 96.1975 95.6921 96.3635 96.0027 96.5027C96.3239 96.6419 96.672 96.7758 97.0468 96.9043C97.4323 97.0328 97.8124 97.1774 98.1872 97.338C98.5727 97.4986 98.9208 97.7074 99.2313 97.9644C99.5526 98.2214 99.8096 98.5534 100.002 98.9603C100.195 99.3565 100.291 99.8491 100.291 100.438C100.291 101.488 99.922 102.312 99.1831 102.912C98.4549 103.511 97.4537 103.811 96.1794 103.811ZM95.7939 102.815H97.3198V105.257H95.7939V102.815ZM97.3198 93.2581H95.7939V90.7362H97.3198V93.2581ZM101.524 99.6671L105.379 92.3586H107.789L103.837 99.6671H101.524ZM101.524 100.952V99.6671L102.327 99.0406H110.423V100.952H101.524ZM106.857 103.651V96.4545H109.009V103.651H106.857ZM111.23 105.562L112.371 103.442L113.029 103.265C112.954 103.404 112.869 103.522 112.772 103.619C112.676 103.715 112.564 103.763 112.435 103.763C112.167 103.763 111.916 103.645 111.68 103.41C111.445 103.174 111.327 102.88 111.327 102.526C111.327 102.141 111.455 101.814 111.712 101.546C111.969 101.279 112.291 101.145 112.676 101.145C113.029 101.145 113.34 101.279 113.608 101.546C113.875 101.814 114.009 102.141 114.009 102.526C114.009 102.676 113.977 102.858 113.913 103.072C113.849 103.276 113.731 103.538 113.559 103.859L112.323 106.14L111.23 105.562ZM115.882 103.651L119.849 93.6275H122.001L118.146 103.651H115.882ZM114.323 94.254V92.3586H122.001V93.6275L121.182 94.254H114.323ZM127.506 103.811C126.618 103.811 125.814 103.57 125.097 103.088C124.38 102.607 123.807 101.927 123.378 101.048C122.961 100.17 122.752 99.1477 122.752 97.9805C122.752 96.8133 122.961 95.796 123.378 94.9286C123.796 94.0612 124.358 93.3866 125.065 92.9047C125.782 92.4228 126.58 92.1819 127.458 92.1819C128.358 92.1819 129.161 92.4228 129.868 92.9047C130.585 93.3866 131.153 94.0666 131.57 94.9446C131.988 95.812 132.197 96.8347 132.197 98.0126C132.197 99.1798 131.988 100.203 131.57 101.081C131.153 101.948 130.59 102.623 129.884 103.105C129.177 103.576 128.385 103.811 127.506 103.811ZM127.474 101.836C127.988 101.836 128.433 101.691 128.807 101.402C129.182 101.113 129.471 100.684 129.675 100.117C129.889 99.5493 129.996 98.8425 129.996 97.9966C129.996 97.1506 129.889 96.4438 129.675 95.8763C129.471 95.3087 129.177 94.8858 128.791 94.6073C128.417 94.3182 127.972 94.1736 127.458 94.1736C126.955 94.1736 126.516 94.3182 126.141 94.6073C125.766 94.8858 125.472 95.3087 125.258 95.8763C125.054 96.4331 124.952 97.1345 124.952 97.9805C124.952 98.8372 125.054 99.5493 125.258 100.117C125.472 100.684 125.766 101.113 126.141 101.402C126.516 101.691 126.96 101.836 127.474 101.836ZM138.11 103.811C137.222 103.811 136.418 103.57 135.701 103.088C134.983 102.607 134.411 101.927 133.982 101.048C133.565 100.17 133.356 99.1477 133.356 97.9805C133.356 96.8133 133.565 95.796 133.982 94.9286C134.4 94.0612 134.962 93.3866 135.669 92.9047C136.386 92.4228 137.184 92.1819 138.062 92.1819C138.962 92.1819 139.765 92.4228 140.472 92.9047C141.189 93.3866 141.757 94.0666 142.174 94.9446C142.592 95.812 142.801 96.8347 142.801 98.0126C142.801 99.1798 142.592 100.203 142.174 101.081C141.757 101.948 141.194 102.623 140.488 103.105C139.781 103.576 138.988 103.811 138.11 103.811ZM138.078 101.836C138.592 101.836 139.037 101.691 139.411 101.402C139.786 101.113 140.075 100.684 140.279 100.117C140.493 99.5493 140.6 98.8425 140.6 97.9966C140.6 97.1506 140.493 96.4438 140.279 95.8763C140.075 95.3087 139.781 94.8858 139.395 94.6073C139.021 94.3182 138.576 94.1736 138.062 94.1736C137.559 94.1736 137.12 94.3182 136.745 94.6073C136.37 94.8858 136.076 95.3087 135.862 95.8763C135.658 96.4331 135.556 97.1345 135.556 97.9805C135.556 98.8372 135.658 99.5493 135.862 100.117C136.076 100.684 136.37 101.113 136.745 101.402C137.12 101.691 137.564 101.836 138.078 101.836ZM145.414 103.811C145.028 103.811 144.712 103.683 144.466 103.426C144.22 103.169 144.096 102.853 144.096 102.478C144.096 102.103 144.22 101.787 144.466 101.53C144.712 101.273 145.028 101.145 145.414 101.145C145.788 101.145 146.099 101.273 146.345 101.53C146.592 101.787 146.715 102.103 146.715 102.478C146.715 102.853 146.592 103.169 146.345 103.426C146.099 103.683 145.788 103.811 145.414 103.811ZM152.761 103.811C151.872 103.811 151.069 103.57 150.352 103.088C149.634 102.607 149.061 101.927 148.633 101.048C148.216 100.17 148.007 99.1477 148.007 97.9805C148.007 96.8133 148.216 95.796 148.633 94.9286C149.051 94.0612 149.613 93.3866 150.32 92.9047C151.037 92.4228 151.835 92.1819 152.713 92.1819C153.613 92.1819 154.416 92.4228 155.122 92.9047C155.84 93.3866 156.407 94.0666 156.825 94.9446C157.243 95.812 157.452 96.8347 157.452 98.0126C157.452 99.1798 157.243 100.203 156.825 101.081C156.407 101.948 155.845 102.623 155.139 103.105C154.432 103.576 153.639 103.811 152.761 103.811ZM152.729 101.836C153.243 101.836 153.688 101.691 154.062 101.402C154.437 101.113 154.726 100.684 154.93 100.117C155.144 99.5493 155.251 98.8425 155.251 97.9966C155.251 97.1506 155.144 96.4438 154.93 95.8763C154.726 95.3087 154.432 94.8858 154.046 94.6073C153.671 94.3182 153.227 94.1736 152.713 94.1736C152.21 94.1736 151.771 94.3182 151.396 94.6073C151.021 94.8858 150.727 95.3087 150.512 95.8763C150.309 96.4331 150.207 97.1345 150.207 97.9805C150.207 98.8372 150.309 99.5493 150.512 100.117C150.727 100.684 151.021 101.113 151.396 101.402C151.771 101.691 152.215 101.836 152.729 101.836ZM163.365 103.811C162.476 103.811 161.673 103.57 160.956 103.088C160.238 102.607 159.665 101.927 159.237 101.048C158.819 100.17 158.611 99.1477 158.611 97.9805C158.611 96.8133 158.819 95.796 159.237 94.9286C159.655 94.0612 160.217 93.3866 160.924 92.9047C161.641 92.4228 162.439 92.1819 163.317 92.1819C164.216 92.1819 165.02 92.4228 165.726 92.9047C166.444 93.3866 167.011 94.0666 167.429 94.9446C167.847 95.812 168.055 96.8347 168.055 98.0126C168.055 99.1798 167.847 100.203 167.429 101.081C167.011 101.948 166.449 102.623 165.742 103.105C165.036 103.576 164.243 103.811 163.365 103.811ZM163.333 101.836C163.847 101.836 164.291 101.691 164.666 101.402C165.041 101.113 165.33 100.684 165.534 100.117C165.748 99.5493 165.855 98.8425 165.855 97.9966C165.855 97.1506 165.748 96.4438 165.534 95.8763C165.33 95.3087 165.036 94.8858 164.65 94.6073C164.275 94.3182 163.831 94.1736 163.317 94.1736C162.814 94.1736 162.375 94.3182 162 94.6073C161.625 94.8858 161.331 95.3087 161.116 95.8763C160.913 96.4331 160.811 97.1345 160.811 97.9805C160.811 98.8372 160.913 99.5493 161.116 100.117C161.331 100.684 161.625 101.113 162 101.402C162.375 101.691 162.819 101.836 163.333 101.836Z" fill="#F3F5F6"/>
<g clip-path="url(#clip1_3280_76835)">
<path d="M67.8975 103C76.4871 103 83.3975 96.0896 83.3975 87.5C83.3975 78.9104 76.4871 72 67.8975 72C59.3078 72 52.3975 78.9104 52.3975 87.5C52.3975 96.0896 59.3078 103 67.8975 103Z" fill="url(#paint43_linear_3280_76835)"/>
<g clip-path="url(#clip2_3280_76835)">
<path opacity="0.3" d="M67.5291 80.4885C66.3061 80.4885 65.3148 81.4797 65.3148 82.7027C65.3148 83.2726 65.5364 83.7863 65.89 84.1789H69.1682C69.5217 83.7863 69.7434 83.2726 69.7434 82.7027C69.7434 81.4797 68.7521 80.4885 67.5291 80.4885ZM74.91 84.1789L72.7419 85.4807C72.1762 85.1303 71.5391 84.8346 70.8289 84.6157L70.6501 85.1506C70.5498 85.4517 70.2676 85.6551 69.9495 85.6551H65.1087C64.7905 85.6551 64.5084 85.4525 64.408 85.1506L64.3504 84.9761C63.0852 85.6415 62.2251 86.6802 61.8463 87.904C61.7745 87.8812 61.6997 87.8696 61.6243 87.8694C61.4286 87.8694 61.2408 87.9472 61.1024 88.0856C60.964 88.224 60.8862 88.4118 60.8862 88.6075C60.8862 88.8033 60.964 88.991 61.1024 89.1294C61.2408 89.2678 61.4286 89.3456 61.6243 89.3456C61.6243 90.205 61.9135 91.0807 62.4172 91.8871L62.9982 95.3715C63.0572 95.728 63.3652 95.9885 63.7262 95.9885H65.4272C65.7882 95.9885 66.0962 95.728 66.1553 95.3715L66.2432 94.8438C66.9912 95.099 67.7942 95.2504 68.6362 95.2504C69.1489 95.2504 69.6469 95.2077 70.1283 95.1307L70.4281 95.6295C70.5617 95.8524 70.8012 95.9885 71.061 95.9885H72.6958C73.1615 95.9885 73.5102 95.5631 73.4194 95.1062L73.1989 94.002C73.9384 93.5339 74.5413 92.9539 74.9648 92.298H75.8096C76.1484 92.298 76.4441 92.0678 76.5261 91.7387L76.9585 90.0087C77.0523 89.6345 76.8417 89.2512 76.4756 89.1294L75.4449 88.7863C75.2454 88.1377 74.9003 87.5052 74.4213 86.9266C74.6903 86.2277 74.91 85.3152 74.91 84.1789ZM73.4339 88.6075C73.8413 88.6075 74.1719 88.9382 74.1719 89.3456C74.1719 89.753 73.8413 90.0837 73.4339 90.0837C73.0264 90.0837 72.6958 89.753 72.6958 89.3456C72.6958 88.9382 73.0264 88.6075 73.4339 88.6075Z" fill="white"/>
<path d="M66.4217 79.3812C65.1986 79.3812 64.2074 80.3725 64.2074 81.5955C64.2074 82.1653 64.429 82.679 64.7826 83.0717H68.0608C68.4143 82.679 68.636 82.1653 68.636 81.5955C68.636 80.3725 67.6447 79.3812 66.4217 79.3812ZM73.8026 83.0717L71.6345 84.3735C71.0688 84.0231 70.4317 83.7273 69.7215 83.5085L69.5427 84.0433C69.4423 84.3445 69.1602 84.5479 68.8421 84.5479H64.0012C63.6831 84.5479 63.401 84.3452 63.3006 84.0433L63.243 83.8689C61.9777 84.5343 61.1176 85.573 60.7389 86.7968C60.6671 86.774 60.5922 86.7623 60.5169 86.7622C60.3211 86.7622 60.1334 86.8399 59.995 86.9784C59.8566 87.1168 59.7788 87.3045 59.7788 87.5003C59.7788 87.696 59.8566 87.8838 59.995 88.0222C60.1334 88.1606 60.3211 88.2384 60.5169 88.2384C60.5169 89.0977 60.8061 89.9734 61.3098 90.7799L61.8907 94.2642C61.9498 94.6207 62.2578 94.8812 62.6187 94.8812H64.3198C64.6808 94.8812 64.9888 94.6207 65.0478 94.2642L65.1358 93.7366C65.8837 93.9917 66.6867 94.1431 67.5288 94.1431C68.0414 94.1431 68.5395 94.1004 69.0209 94.0235L69.3207 94.5223C69.4543 94.7452 69.6938 94.8812 69.9536 94.8812H71.5883C72.0541 94.8812 72.4028 94.4559 72.312 93.999L72.0914 92.8947C72.831 92.4267 73.4339 91.8466 73.8574 91.1907H74.7022C75.041 91.1907 75.3367 90.9606 75.4186 90.6314L75.8511 88.9015C75.9449 88.5273 75.7343 88.1439 75.3682 88.0221L74.3375 87.679C74.138 87.0304 73.7929 86.398 73.3139 85.8194C73.5829 85.1204 73.8026 84.208 73.8026 83.0717ZM72.3264 87.5003C72.7339 87.5003 73.0645 87.8309 73.0645 88.2384C73.0645 88.6458 72.7339 88.9765 72.3264 88.9765C71.919 88.9765 71.5883 88.6458 71.5883 88.2384C71.5883 87.8309 71.919 87.5003 72.3264 87.5003Z" fill="white"/>
</g>
</g>
<rect x="55" y="117" width="160" height="9" rx="4.5" fill="#F3F5F6" fill-opacity="0.33"/>
<rect x="55" y="134" width="104" height="9" rx="4.5" fill="#F3F5F6" fill-opacity="0.33"/>
<rect x="167" y="134" width="48" height="9" rx="4.5" fill="#F3F5F6" fill-opacity="0.33"/>
<rect x="55" y="151" width="78" height="9" rx="4.5" fill="#F3F5F6" fill-opacity="0.33"/>
<rect x="55" y="168" width="160" height="9" rx="4.5" fill="#F3F5F6" fill-opacity="0.33"/>
<path d="M204.75 52.375C202.889 52.375 201.375 53.8892 201.375 55.75V70.375C201.375 71.6159 202.384 72.625 203.625 72.625H219.375C220.616 72.625 221.625 71.6159 221.625 70.375V59.125C221.625 57.8841 220.616 56.875 219.375 56.875H208.125H207H204.75C204.129 56.875 203.625 56.3699 203.625 55.75C203.625 55.1301 204.129 54.625 204.75 54.625H220.5V52.375H204.75ZM203.625 58.9185C203.979 59.0446 204.354 59.125 204.75 59.125H207H208.125H219.375V70.375H203.625V58.9185ZM216 63.625C215.379 63.625 214.875 64.129 214.875 64.75C214.875 65.371 215.379 65.875 216 65.875C216.621 65.875 217.125 65.371 217.125 64.75C217.125 64.129 216.621 63.625 216 63.625Z" fill="white"/>
<g filter="url(#filter1_d_3280_76835)">
<rect x="350" y="45" width="199" height="147" rx="14.6025" fill="#738698"/>
</g>
<g clip-path="url(#clip3_3280_76835)">
<path d="M383.897 105.825C392.487 105.825 399.397 98.915 399.397 90.3253C399.397 81.7357 392.487 74.8253 383.897 74.8253C375.308 74.8253 368.397 81.7357 368.397 90.3253C368.397 98.915 375.308 105.825 383.897 105.825Z" fill="url(#paint44_linear_3280_76835)"/>
<g clip-path="url(#clip4_3280_76835)">
<path opacity="0.3" d="M383.529 83.3138C382.306 83.3138 381.315 84.305 381.315 85.5281C381.315 86.0979 381.536 86.6116 381.89 87.0043H385.168C385.522 86.6116 385.743 86.0979 385.743 85.5281C385.743 84.305 384.752 83.3138 383.529 83.3138ZM390.91 87.0043L388.742 88.306C388.176 87.9556 387.539 87.6599 386.829 87.4411L386.65 87.9759C386.55 88.277 386.268 88.4804 385.95 88.4804H381.109C380.791 88.4804 380.508 88.2778 380.408 87.9759L380.35 87.8015C379.085 88.4668 378.225 89.5055 377.846 90.7293C377.775 90.7065 377.7 90.6949 377.624 90.6947C377.429 90.6947 377.241 90.7725 377.102 90.9109C376.964 91.0493 376.886 91.2371 376.886 91.4328C376.886 91.6286 376.964 91.8163 377.102 91.9547C377.241 92.0932 377.429 92.1709 377.624 92.1709C377.624 93.0303 377.913 93.906 378.417 94.7125L378.998 98.1968C379.057 98.5533 379.365 98.8138 379.726 98.8138H381.427C381.788 98.8138 382.096 98.5533 382.155 98.1968L382.243 97.6692C382.991 97.9243 383.794 98.0757 384.636 98.0757C385.149 98.0757 385.647 98.033 386.128 97.956L386.428 98.4548C386.562 98.6777 386.801 98.8138 387.061 98.8138H388.696C389.161 98.8138 389.51 98.3884 389.419 97.9315L389.199 96.8273C389.938 96.3592 390.541 95.7792 390.965 95.1233H391.81C392.148 95.1233 392.444 94.8932 392.526 94.564L392.959 92.8341C393.052 92.4598 392.842 92.0765 392.476 91.9547L391.445 91.6116C391.245 90.963 390.9 90.3305 390.421 89.7519C390.69 89.053 390.91 88.1405 390.91 87.0043ZM389.434 91.4328C389.841 91.4328 390.172 91.7635 390.172 92.1709C390.172 92.5784 389.841 92.909 389.434 92.909C389.026 92.909 388.696 92.5784 388.696 92.1709C388.696 91.7635 389.026 91.4328 389.434 91.4328Z" fill="white"/>
<path d="M382.422 82.2065C381.199 82.2065 380.207 83.1978 380.207 84.4208C380.207 84.9906 380.429 85.5044 380.783 85.897H384.061C384.414 85.5044 384.636 84.9906 384.636 84.4208C384.636 83.1978 383.645 82.2065 382.422 82.2065ZM389.803 85.897L387.634 87.1988C387.069 86.8484 386.432 86.5527 385.721 86.3338L385.543 86.8687C385.442 87.1698 385.16 87.3732 384.842 87.3732H380.001C379.683 87.3732 379.401 87.1705 379.301 86.8687L379.243 86.6942C377.978 87.3596 377.118 88.3983 376.739 89.6221C376.667 89.5993 376.592 89.5876 376.517 89.5875C376.321 89.5875 376.133 89.6653 375.995 89.8037C375.857 89.9421 375.779 90.1298 375.779 90.3256C375.779 90.5213 375.857 90.7091 375.995 90.8475C376.133 90.9859 376.321 91.0637 376.517 91.0637C376.517 91.923 376.806 92.7987 377.31 93.6052L377.891 97.0895C377.95 97.446 378.258 97.7065 378.619 97.7065H380.32C380.681 97.7065 380.989 97.446 381.048 97.0895L381.136 96.5619C381.884 96.817 382.687 96.9684 383.529 96.9684C384.041 96.9684 384.54 96.9257 385.021 96.8488L385.321 97.3476C385.454 97.5705 385.694 97.7065 385.954 97.7065H387.588C388.054 97.7065 388.403 97.2812 388.312 96.8243L388.091 95.72C388.831 95.252 389.434 94.6719 389.857 94.0161H390.702C391.041 94.0161 391.337 93.7859 391.419 93.4567L391.851 91.7268C391.945 91.3526 391.734 90.9692 391.368 90.8474L390.337 90.5043C390.138 89.8557 389.793 89.2233 389.314 88.6447C389.583 87.9457 389.803 87.0333 389.803 85.897ZM388.326 90.3256C388.734 90.3256 389.065 90.6563 389.065 91.0637C389.065 91.4711 388.734 91.8018 388.326 91.8018C387.919 91.8018 387.588 91.4711 387.588 91.0637C387.588 90.6563 387.919 90.3256 388.326 90.3256Z" fill="white"/>
</g>
</g>
<path d="M415.071 82.1022C414.506 82.1022 414.025 82 413.63 81.7956C413.235 81.5911 412.881 81.2913 412.567 80.8961L413.364 80.0988C413.562 80.385 413.797 80.6098 414.07 80.7734C414.342 80.9301 414.69 81.0085 415.112 81.0085C415.507 81.0085 415.821 80.9267 416.053 80.7632C416.291 80.5996 416.41 80.3747 416.41 80.0885C416.41 79.85 416.349 79.6558 416.226 79.5059C416.104 79.356 415.94 79.2333 415.736 79.1379C415.538 79.0357 415.317 78.9471 415.071 78.8722C414.833 78.7904 414.591 78.7018 414.346 78.6064C414.107 78.5042 413.886 78.3781 413.681 78.2282C413.484 78.0783 413.323 77.8841 413.201 77.6455C413.078 77.407 413.017 77.1038 413.017 76.7358C413.017 76.3133 413.119 75.9556 413.323 75.6625C413.535 75.3627 413.817 75.1344 414.172 74.9777C414.526 74.8209 414.921 74.7426 415.358 74.7426C415.828 74.7426 416.247 74.8346 416.615 75.0186C416.99 75.2026 417.293 75.4377 417.525 75.7239L416.727 76.5212C416.523 76.2895 416.308 76.1191 416.083 76.0101C415.865 75.8942 415.613 75.8363 415.327 75.8363C414.973 75.8363 414.693 75.9079 414.489 76.051C414.291 76.1941 414.192 76.3951 414.192 76.654C414.192 76.8721 414.254 77.0493 414.376 77.1856C414.499 77.315 414.659 77.4275 414.857 77.5229C415.061 77.6115 415.283 77.6967 415.521 77.7784C415.766 77.8602 416.008 77.9522 416.247 78.0544C416.492 78.1566 416.714 78.2895 416.911 78.4531C417.116 78.6098 417.279 78.8142 417.402 79.0664C417.525 79.3185 417.586 79.6354 417.586 80.017C417.586 80.6575 417.358 81.1652 416.901 81.54C416.451 81.9148 415.841 82.1022 415.071 82.1022ZM419.065 82V74.8448H420.24V82H419.065ZM422.904 82V80.9778H424.958C425.32 80.9778 425.599 80.8654 425.797 80.6405C425.994 80.4156 426.093 80.1567 426.093 79.8637C426.093 79.666 426.049 79.482 425.96 79.3117C425.872 79.1413 425.742 79.005 425.572 78.9028C425.401 78.8006 425.197 78.7495 424.958 78.7495H422.904V77.7273H424.785C425.091 77.7273 425.337 77.649 425.521 77.4922C425.705 77.3355 425.797 77.1038 425.797 76.7971C425.797 76.4905 425.705 76.2588 425.521 76.1021C425.337 75.9453 425.091 75.867 424.785 75.867H422.904V74.8448H424.815C425.299 74.8448 425.701 74.9334 426.022 75.1106C426.342 75.2877 426.58 75.516 426.737 75.7954C426.894 76.0748 426.972 76.3746 426.972 76.6949C426.972 77.0697 426.867 77.4002 426.655 77.6864C426.451 77.9726 426.148 78.2043 425.746 78.3815L425.838 78.0135C426.287 78.1975 426.638 78.4565 426.89 78.7904C427.143 79.1243 427.269 79.5161 427.269 79.9659C427.269 80.3339 427.177 80.6712 426.993 80.9778C426.815 81.2845 426.55 81.5332 426.195 81.724C425.848 81.908 425.418 82 424.907 82H422.904ZM422.096 82V74.8448H423.272V82H422.096ZM431.522 82.1022C430.983 82.1022 430.499 81.9796 430.07 81.7342C429.641 81.4889 429.3 81.155 429.048 80.7325C428.803 80.3032 428.68 79.8194 428.68 79.281V74.8448H429.855V79.2708C429.855 79.6183 429.927 79.9216 430.07 80.1805C430.22 80.4327 430.421 80.6303 430.673 80.7734C430.925 80.9097 431.208 80.9778 431.522 80.9778C431.842 80.9778 432.125 80.9097 432.37 80.7734C432.615 80.6303 432.809 80.4327 432.953 80.1805C433.096 79.9216 433.167 79.6217 433.167 79.281V74.8448H434.343V79.2912C434.343 79.8296 434.22 80.31 433.975 80.7325C433.729 81.155 433.396 81.4889 432.973 81.7342C432.551 81.9796 432.067 82.1022 431.522 82.1022ZM435.85 77.3491L436.545 76.051L436.923 75.9487C436.882 76.0305 436.834 76.0987 436.78 76.1532C436.725 76.2077 436.661 76.2349 436.586 76.2349C436.429 76.2349 436.282 76.1702 436.146 76.0407C436.017 75.9044 435.952 75.7341 435.952 75.5297C435.952 75.3116 436.027 75.1276 436.177 74.9777C436.327 74.8209 436.507 74.7426 436.719 74.7426C436.923 74.7426 437.1 74.8209 437.25 74.9777C437.407 75.1276 437.485 75.3116 437.485 75.5297C437.485 75.6182 437.465 75.7239 437.424 75.8465C437.39 75.9624 437.325 76.1123 437.23 76.2963L436.473 77.6864L435.85 77.3491ZM440.672 82.1022C440.106 82.1022 439.626 82 439.23 81.7956C438.835 81.5911 438.481 81.2913 438.167 80.8961L438.965 80.0988C439.162 80.385 439.397 80.6098 439.67 80.7734C439.942 80.9301 440.29 81.0085 440.712 81.0085C441.108 81.0085 441.421 80.9267 441.653 80.7632C441.891 80.5996 442.011 80.3747 442.011 80.0885C442.011 79.85 441.949 79.6558 441.827 79.5059C441.704 79.356 441.54 79.2333 441.336 79.1379C441.138 79.0357 440.917 78.9471 440.672 78.8722C440.433 78.7904 440.191 78.7018 439.946 78.6064C439.707 78.5042 439.486 78.3781 439.281 78.2282C439.084 78.0783 438.924 77.8841 438.801 77.6455C438.678 77.407 438.617 77.1038 438.617 76.7358C438.617 76.3133 438.719 75.9556 438.924 75.6625C439.135 75.3627 439.418 75.1344 439.772 74.9777C440.126 74.8209 440.522 74.7426 440.958 74.7426C441.428 74.7426 441.847 74.8346 442.215 75.0186C442.59 75.2026 442.893 75.4377 443.125 75.7239L442.327 76.5212C442.123 76.2895 441.908 76.1191 441.684 76.0101C441.465 75.8942 441.213 75.8363 440.927 75.8363C440.573 75.8363 440.293 75.9079 440.089 76.051C439.891 76.1941 439.793 76.3951 439.793 76.654C439.793 76.8721 439.854 77.0493 439.977 77.1856C440.099 77.315 440.259 77.4275 440.457 77.5229C440.661 77.6115 440.883 77.6967 441.121 77.7784C441.367 77.8602 441.609 77.9522 441.847 78.0544C442.092 78.1566 442.314 78.2895 442.511 78.4531C442.716 78.6098 442.879 78.8142 443.002 79.0664C443.125 79.3185 443.186 79.6354 443.186 80.017C443.186 80.6575 442.958 81.1652 442.501 81.54C442.052 81.9148 441.442 82.1022 440.672 82.1022ZM448.858 82L446.507 74.8448H447.662L449.43 80.3543H449.124L450.851 74.8448H451.669L453.396 80.3543H453.09L454.858 74.8448H456.013L453.662 82H452.844L451.107 76.5007H451.413L449.675 82H448.858ZM455.977 82L458.92 74.8448H459.738L462.662 82H461.394L459.104 76.2043H459.534L457.224 82H455.977ZM457.428 80.6201V79.5979H461.22V80.6201H457.428ZM463.912 82V74.8448H465.088V82H463.912ZM464.72 82V80.9267H468.461V82H464.72ZM469.839 82V74.8448H471.014V82H469.839ZM470.646 82V80.9267H474.387V82H470.646ZM475.765 82V74.8448H476.941V82H475.765ZM476.573 82V80.9267H480.58V82H476.573ZM476.573 78.8619V77.8295H480.232V78.8619H476.573ZM476.573 75.9181V74.8448H480.529V75.9181H476.573ZM483.651 82V75.0492H484.826V82H483.651ZM481.32 75.9181V74.8448H487.157V75.9181H481.32Z" fill="#F3F5F6"/>
<path d="M415.064 99.9282V98.2256H417.682C418.218 98.2256 418.63 98.0917 418.919 97.824C419.219 97.5456 419.369 97.1654 419.369 96.6835C419.369 96.2445 419.219 95.8804 418.919 95.5913C418.63 95.2914 418.218 95.1415 417.682 95.1415H415.064V93.3586H417.875C418.603 93.3586 419.24 93.5031 419.786 93.7922C420.343 94.0707 420.772 94.4562 421.072 94.9488C421.382 95.4414 421.537 96.0089 421.537 96.6514C421.537 97.3153 421.382 97.8936 421.072 98.3862C420.772 98.8681 420.343 99.2482 419.786 99.5266C419.23 99.7943 418.582 99.9282 417.843 99.9282H415.064ZM413.458 104.651V93.3586H415.642V104.651H413.458ZM419.626 104.651L415.899 99.7676L417.907 99.1411L422.276 104.651H419.626ZM425.162 104.651V93.3586H427.314V104.651H425.162ZM422.945 95.254V93.3586H427.154V95.254H422.945ZM433.807 104.811C432.918 104.811 432.115 104.57 431.397 104.088C430.68 103.607 430.107 102.927 429.678 102.048C429.261 101.17 429.052 100.148 429.052 98.9805C429.052 97.8133 429.261 96.796 429.678 95.9286C430.096 95.0612 430.658 94.3866 431.365 93.9047C432.083 93.4228 432.88 93.1819 433.758 93.1819C434.658 93.1819 435.461 93.4228 436.168 93.9047C436.885 94.3866 437.453 95.0666 437.87 95.9446C438.288 96.812 438.497 97.8347 438.497 99.0126C438.497 100.18 438.288 101.203 437.87 102.081C437.453 102.948 436.891 103.623 436.184 104.105C435.477 104.576 434.685 104.811 433.807 104.811ZM433.774 102.836C434.288 102.836 434.733 102.691 435.108 102.402C435.482 102.113 435.772 101.684 435.975 101.117C436.189 100.549 436.296 99.8425 436.296 98.9966C436.296 98.1506 436.189 97.4438 435.975 96.8763C435.772 96.3087 435.477 95.8858 435.092 95.6073C434.717 95.3182 434.272 95.1736 433.758 95.1736C433.255 95.1736 432.816 95.3182 432.441 95.6073C432.066 95.8858 431.772 96.3087 431.558 96.8763C431.354 97.4331 431.253 98.1345 431.253 98.9805C431.253 99.8372 431.354 100.549 431.558 101.117C431.772 101.684 432.066 102.113 432.441 102.402C432.816 102.691 433.26 102.836 433.774 102.836ZM439.648 106.562L440.789 104.442L441.447 104.265C441.372 104.404 441.287 104.522 441.19 104.619C441.094 104.715 440.981 104.763 440.853 104.763C440.585 104.763 440.333 104.645 440.098 104.41C439.862 104.174 439.745 103.88 439.745 103.526C439.745 103.141 439.873 102.814 440.13 102.546C440.387 102.279 440.708 102.145 441.094 102.145C441.447 102.145 441.758 102.279 442.025 102.546C442.293 102.814 442.427 103.141 442.427 103.526C442.427 103.676 442.395 103.858 442.331 104.072C442.266 104.276 442.149 104.538 441.977 104.859L440.74 107.14L439.648 106.562ZM448.222 104.811C447.333 104.811 446.53 104.57 445.813 104.088C445.095 103.607 444.522 102.927 444.094 102.048C443.676 101.17 443.468 100.148 443.468 98.9805C443.468 97.8133 443.676 96.796 444.094 95.9286C444.512 95.0612 445.074 94.3866 445.781 93.9047C446.498 93.4228 447.296 93.1819 448.174 93.1819C449.074 93.1819 449.877 93.4228 450.583 93.9047C451.301 94.3866 451.868 95.0666 452.286 95.9446C452.704 96.812 452.913 97.8347 452.913 99.0126C452.913 100.18 452.704 101.203 452.286 102.081C451.868 102.948 451.306 103.623 450.6 104.105C449.893 104.576 449.1 104.811 448.222 104.811ZM448.19 102.836C448.704 102.836 449.149 102.691 449.523 102.402C449.898 102.113 450.187 101.684 450.391 101.117C450.605 100.549 450.712 99.8425 450.712 98.9966C450.712 98.1506 450.605 97.4438 450.391 96.8763C450.187 96.3087 449.893 95.8858 449.507 95.6073C449.132 95.3182 448.688 95.1736 448.174 95.1736C447.671 95.1736 447.232 95.3182 446.857 95.6073C446.482 95.8858 446.188 96.3087 445.973 96.8763C445.77 97.4331 445.668 98.1345 445.668 98.9805C445.668 99.8372 445.77 100.549 445.973 101.117C446.188 101.684 446.482 102.113 446.857 102.402C447.232 102.691 447.676 102.836 448.19 102.836ZM458.826 104.811C457.937 104.811 457.134 104.57 456.417 104.088C455.699 103.607 455.126 102.927 454.698 102.048C454.28 101.17 454.072 100.148 454.072 98.9805C454.072 97.8133 454.28 96.796 454.698 95.9286C455.116 95.0612 455.678 94.3866 456.385 93.9047C457.102 93.4228 457.9 93.1819 458.778 93.1819C459.677 93.1819 460.481 93.4228 461.187 93.9047C461.905 94.3866 462.472 95.0666 462.89 95.9446C463.308 96.812 463.516 97.8347 463.516 99.0126C463.516 100.18 463.308 101.203 462.89 102.081C462.472 102.948 461.91 103.623 461.203 104.105C460.497 104.576 459.704 104.811 458.826 104.811ZM458.794 102.836C459.308 102.836 459.752 102.691 460.127 102.402C460.502 102.113 460.791 101.684 460.995 101.117C461.209 100.549 461.316 99.8425 461.316 98.9966C461.316 98.1506 461.209 97.4438 460.995 96.8763C460.791 96.3087 460.497 95.8858 460.111 95.6073C459.736 95.3182 459.292 95.1736 458.778 95.1736C458.275 95.1736 457.836 95.3182 457.461 95.6073C457.086 95.8858 456.792 96.3087 456.577 96.8763C456.374 97.4331 456.272 98.1345 456.272 98.9805C456.272 99.8372 456.374 100.549 456.577 101.117C456.792 101.684 457.086 102.113 457.461 102.402C457.836 102.691 458.28 102.836 458.794 102.836ZM469.43 104.811C468.541 104.811 467.738 104.57 467.021 104.088C466.303 103.607 465.73 102.927 465.302 102.048C464.884 101.17 464.675 100.148 464.675 98.9805C464.675 97.8133 464.884 96.796 465.302 95.9286C465.72 95.0612 466.282 94.3866 466.988 93.9047C467.706 93.4228 468.504 93.1819 469.382 93.1819C470.281 93.1819 471.084 93.4228 471.791 93.9047C472.509 94.3866 473.076 95.0666 473.494 95.9446C473.912 96.812 474.12 97.8347 474.12 99.0126C474.12 100.18 473.912 101.203 473.494 102.081C473.076 102.948 472.514 103.623 471.807 104.105C471.101 104.576 470.308 104.811 469.43 104.811ZM469.398 102.836C469.912 102.836 470.356 102.691 470.731 102.402C471.106 102.113 471.395 101.684 471.598 101.117C471.813 100.549 471.92 99.8425 471.92 98.9966C471.92 98.1506 471.813 97.4438 471.598 96.8763C471.395 96.3087 471.101 95.8858 470.715 95.6073C470.34 95.3182 469.896 95.1736 469.382 95.1736C468.879 95.1736 468.439 95.3182 468.065 95.6073C467.69 95.8858 467.395 96.3087 467.181 96.8763C466.978 97.4331 466.876 98.1345 466.876 98.9805C466.876 99.8372 466.978 100.549 467.181 101.117C467.395 101.684 467.69 102.113 468.065 102.402C468.439 102.691 468.884 102.836 469.398 102.836ZM476.733 104.811C476.348 104.811 476.032 104.683 475.786 104.426C475.539 104.169 475.416 103.853 475.416 103.478C475.416 103.103 475.539 102.787 475.786 102.53C476.032 102.273 476.348 102.145 476.733 102.145C477.108 102.145 477.419 102.273 477.665 102.53C477.911 102.787 478.034 103.103 478.034 103.478C478.034 103.853 477.911 104.169 477.665 104.426C477.419 104.683 477.108 104.811 476.733 104.811ZM484.081 104.811C483.192 104.811 482.389 104.57 481.672 104.088C480.954 103.607 480.381 102.927 479.953 102.048C479.535 101.17 479.326 100.148 479.326 98.9805C479.326 97.8133 479.535 96.796 479.953 95.9286C480.37 95.0612 480.933 94.3866 481.639 93.9047C482.357 93.4228 483.155 93.1819 484.033 93.1819C484.932 93.1819 485.735 93.4228 486.442 93.9047C487.16 94.3866 487.727 95.0666 488.145 95.9446C488.562 96.812 488.771 97.8347 488.771 99.0126C488.771 100.18 488.562 101.203 488.145 102.081C487.727 102.948 487.165 103.623 486.458 104.105C485.751 104.576 484.959 104.811 484.081 104.811ZM484.049 102.836C484.563 102.836 485.007 102.691 485.382 102.402C485.757 102.113 486.046 101.684 486.249 101.117C486.464 100.549 486.571 99.8425 486.571 98.9966C486.571 98.1506 486.464 97.4438 486.249 96.8763C486.046 96.3087 485.751 95.8858 485.366 95.6073C484.991 95.3182 484.547 95.1736 484.033 95.1736C483.529 95.1736 483.09 95.3182 482.716 95.6073C482.341 95.8858 482.046 96.3087 481.832 96.8763C481.629 97.4331 481.527 98.1345 481.527 98.9805C481.527 99.8372 481.629 100.549 481.832 101.117C482.046 101.684 482.341 102.113 482.716 102.402C483.09 102.691 483.535 102.836 484.049 102.836ZM494.685 104.811C493.796 104.811 492.993 104.57 492.275 104.088C491.558 103.607 490.985 102.927 490.557 102.048C490.139 101.17 489.93 100.148 489.93 98.9805C489.93 97.8133 490.139 96.796 490.557 95.9286C490.974 95.0612 491.537 94.3866 492.243 93.9047C492.961 93.4228 493.759 93.1819 494.637 93.1819C495.536 93.1819 496.339 93.4228 497.046 93.9047C497.764 94.3866 498.331 95.0666 498.749 95.9446C499.166 96.812 499.375 97.8347 499.375 99.0126C499.375 100.18 499.166 101.203 498.749 102.081C498.331 102.948 497.769 103.623 497.062 104.105C496.355 104.576 495.563 104.811 494.685 104.811ZM494.653 102.836C495.167 102.836 495.611 102.691 495.986 102.402C496.361 102.113 496.65 101.684 496.853 101.117C497.067 100.549 497.175 99.8425 497.175 98.9966C497.175 98.1506 497.067 97.4438 496.853 96.8763C496.65 96.3087 496.355 95.8858 495.97 95.6073C495.595 95.3182 495.151 95.1736 494.637 95.1736C494.133 95.1736 493.694 95.3182 493.32 95.6073C492.945 95.8858 492.65 96.3087 492.436 96.8763C492.233 97.4331 492.131 98.1345 492.131 98.9805C492.131 99.8372 492.233 100.549 492.436 101.117C492.65 101.684 492.945 102.113 493.32 102.402C493.694 102.691 494.139 102.836 494.653 102.836Z" fill="#F3F5F6"/>
<rect x="371" y="118" width="160" height="9" rx="4.5" fill="#9DABB7"/>
<rect x="371" y="135" width="160" height="9" rx="4.5" fill="#9DABB7"/>
<rect x="371" y="152" width="104" height="9" rx="4.5" fill="#9DABB7"/>
<rect x="483" y="152" width="48" height="9" rx="4.5" fill="#9DABB7"/>
<rect x="371" y="169" width="78" height="9" rx="4.5" fill="#9DABB7"/>
<path d="M520.75 53.375C518.889 53.375 517.375 54.8892 517.375 56.75V71.375C517.375 72.6159 518.384 73.625 519.625 73.625H535.375C536.616 73.625 537.625 72.6159 537.625 71.375V60.125C537.625 58.8841 536.616 57.875 535.375 57.875H524.125H523H520.75C520.129 57.875 519.625 57.3699 519.625 56.75C519.625 56.1301 520.129 55.625 520.75 55.625H536.5V53.375H520.75ZM519.625 59.9185C519.979 60.0446 520.354 60.125 520.75 60.125H523H524.125H535.375V71.375H519.625V59.9185ZM532 64.625C531.379 64.625 530.875 65.129 530.875 65.75C530.875 66.371 531.379 66.875 532 66.875C532.621 66.875 533.125 66.371 533.125 65.75C533.125 65.129 532.621 64.625 532 64.625Z" fill="white"/>
<path d="M348 124L233 124" stroke="#1870B8" stroke-opacity="0.4" stroke-dasharray="7 7"/>
</g>
<defs>
<filter id="filter0_d_3280_76835" x="12.0963" y="22.0963" width="242.807" height="190.807" filterUnits="userSpaceOnUse" color-interpolation-filters="sRGB">
<feFlood flood-opacity="0" result="BackgroundImageFix"/>
<feColorMatrix in="SourceAlpha" type="matrix" values="0 0 0 0 0 0 0 0 0 0 0 0 0 0 0 0 0 0 127 0" result="hardAlpha"/>
<feOffset/>
<feGaussianBlur stdDeviation="10.9518"/>
<feComposite in2="hardAlpha" operator="out"/>
<feColorMatrix type="matrix" values="0 0 0 0 0 0 0 0 0 0 0 0 0 0 0 0 0 0 0.05 0"/>
<feBlend mode="normal" in2="BackgroundImageFix" result="effect1_dropShadow_3280_76835"/>
<feBlend mode="normal" in="SourceGraphic" in2="effect1_dropShadow_3280_76835" result="shape"/>
</filter>
<filter id="filter1_d_3280_76835" x="328.096" y="23.0963" width="242.807" height="190.807" filterUnits="userSpaceOnUse" color-interpolation-filters="sRGB">
<feFlood flood-opacity="0" result="BackgroundImageFix"/>
<feColorMatrix in="SourceAlpha" type="matrix" values="0 0 0 0 0 0 0 0 0 0 0 0 0 0 0 0 0 0 127 0" result="hardAlpha"/>
<feOffset/>
<feGaussianBlur stdDeviation="10.9518"/>
<feComposite in2="hardAlpha" operator="out"/>
<feColorMatrix type="matrix" values="0 0 0 0 0 0 0 0 0 0 0 0 0 0 0 0 0 0 0.05 0"/>
<feBlend mode="normal" in2="BackgroundImageFix" result="effect1_dropShadow_3280_76835"/>
<feBlend mode="normal" in="SourceGraphic" in2="effect1_dropShadow_3280_76835" result="shape"/>
</filter>
<linearGradient id="paint0_linear_3280_76835" x1="182.875" y1="395.091" x2="310.646" y2="147.371" gradientUnits="userSpaceOnUse">
<stop stop-color="#2783C4"/>
<stop offset="1" stop-color="#15B2EE"/>
</linearGradient>
<linearGradient id="paint1_linear_3280_76835" x1="352.737" y1="282.503" x2="365.047" y2="232.168" gradientUnits="userSpaceOnUse">
<stop stop-color="#2783C4"/>
<stop offset="1" stop-color="#15B2EE"/>
</linearGradient>
<linearGradient id="paint2_linear_3280_76835" x1="357.19" y1="259.087" x2="357.428" y2="253.13" gradientUnits="userSpaceOnUse">
<stop stop-color="#2783C4"/>
<stop offset="1" stop-color="#15B2EE"/>
</linearGradient>
<linearGradient id="paint3_linear_3280_76835" x1="354.815" y1="269.2" x2="355.156" y2="263.253" gradientUnits="userSpaceOnUse">
<stop stop-color="#2783C4"/>
<stop offset="1" stop-color="#15B2EE"/>
</linearGradient>
<linearGradient id="paint4_linear_3280_76835" x1="353.441" y1="279.314" x2="353.896" y2="273.382" gradientUnits="userSpaceOnUse">
<stop stop-color="#2783C4"/>
<stop offset="1" stop-color="#15B2EE"/>
</linearGradient>
<linearGradient id="paint5_linear_3280_76835" x1="392.765" y1="279.314" x2="393.221" y2="273.382" gradientUnits="userSpaceOnUse">
<stop stop-color="#2783C4"/>
<stop offset="1" stop-color="#15B2EE"/>
</linearGradient>
<linearGradient id="paint6_linear_3280_76835" x1="275.231" y1="289.369" x2="296.869" y2="217.679" gradientUnits="userSpaceOnUse">
<stop stop-color="#2783C4"/>
<stop offset="1" stop-color="#15B2EE"/>
</linearGradient>
<linearGradient id="paint7_linear_3280_76835" x1="284.935" y1="255.035" x2="285.285" y2="246.299" gradientUnits="userSpaceOnUse">
<stop stop-color="#2783C4"/>
<stop offset="1" stop-color="#15B2EE"/>
</linearGradient>
<linearGradient id="paint8_linear_3280_76835" x1="281.453" y1="269.867" x2="281.954" y2="261.146" gradientUnits="userSpaceOnUse">
<stop stop-color="#2783C4"/>
<stop offset="1" stop-color="#15B2EE"/>
</linearGradient>
<linearGradient id="paint9_linear_3280_76835" x1="279.439" y1="284.694" x2="280.107" y2="275.995" gradientUnits="userSpaceOnUse">
<stop stop-color="#2783C4"/>
<stop offset="1" stop-color="#15B2EE"/>
</linearGradient>
<linearGradient id="paint10_linear_3280_76835" x1="336.179" y1="284.694" x2="336.967" y2="276.015" gradientUnits="userSpaceOnUse">
<stop stop-color="#2783C4"/>
<stop offset="1" stop-color="#15B2EE"/>
</linearGradient>
<linearGradient id="paint11_linear_3280_76835" x1="266.471" y1="338.091" x2="282.68" y2="290.568" gradientUnits="userSpaceOnUse">
<stop stop-color="#2783C4"/>
<stop offset="1" stop-color="#15B2EE"/>
</linearGradient>
<linearGradient id="paint12_linear_3280_76835" x1="348.575" y1="320.616" x2="410.82" y2="382.634" gradientUnits="userSpaceOnUse">
<stop stop-color="#2783C4"/>
<stop offset="1" stop-color="#15B2EE"/>
</linearGradient>
<linearGradient id="paint13_linear_3280_76835" x1="362.314" y1="306.917" x2="424.559" y2="368.935" gradientUnits="userSpaceOnUse">
<stop stop-color="#2783C4"/>
<stop offset="1" stop-color="#15B2EE"/>
</linearGradient>
<linearGradient id="paint14_linear_3280_76835" x1="405.831" y1="309.3" x2="437.374" y2="327.937" gradientUnits="userSpaceOnUse">
<stop stop-color="#2783C4"/>
<stop offset="1" stop-color="#15B2EE"/>
</linearGradient>
<linearGradient id="paint15_linear_3280_76835" x1="377.449" y1="328.127" x2="401.627" y2="342.413" gradientUnits="userSpaceOnUse">
<stop stop-color="#2783C4"/>
<stop offset="1" stop-color="#15B2EE"/>
</linearGradient>
<linearGradient id="paint16_linear_3280_76835" x1="195.131" y1="204.028" x2="203.856" y2="254.849" gradientUnits="userSpaceOnUse">
<stop stop-color="#2783C4"/>
<stop offset="1" stop-color="#15B2EE"/>
</linearGradient>
<linearGradient id="paint17_linear_3280_76835" x1="296.288" y1="221.329" x2="300.032" y2="238.524" gradientUnits="userSpaceOnUse">
<stop stop-color="#2783C4"/>
<stop offset="1" stop-color="#15B2EE"/>
</linearGradient>
<linearGradient id="paint18_linear_3280_76835" x1="215.991" y1="169.743" x2="224.715" y2="220.563" gradientUnits="userSpaceOnUse">
<stop stop-color="#2783C4"/>
<stop offset="1" stop-color="#15B2EE"/>
</linearGradient>
<linearGradient id="paint19_linear_3280_76835" x1="263.188" y1="248.548" x2="279.114" y2="190.175" gradientUnits="userSpaceOnUse">
<stop stop-color="#2783C4"/>
<stop offset="1" stop-color="#15B2EE"/>
</linearGradient>
<linearGradient id="paint20_linear_3280_76835" x1="196.605" y1="338.653" x2="272.668" y2="161.326" gradientUnits="userSpaceOnUse">
<stop stop-color="#2783C4"/>
<stop offset="1" stop-color="#15B2EE"/>
</linearGradient>
<linearGradient id="paint21_linear_3280_76835" x1="193.52" y1="280.391" x2="195.202" y2="271.594" gradientUnits="userSpaceOnUse">
<stop stop-color="#2783C4"/>
<stop offset="1" stop-color="#15B2EE"/>
</linearGradient>
<linearGradient id="paint22_linear_3280_76835" x1="165.433" y1="449.432" x2="166.447" y2="447.029" gradientUnits="userSpaceOnUse">
<stop stop-color="#2783C4"/>
<stop offset="1" stop-color="#15B2EE"/>
</linearGradient>
<linearGradient id="paint23_linear_3280_76835" x1="165.414" y1="447.817" x2="166.08" y2="445.814" gradientUnits="userSpaceOnUse">
<stop stop-color="#2783C4"/>
<stop offset="1" stop-color="#15B2EE"/>
</linearGradient>
<linearGradient id="paint24_linear_3280_76835" x1="220.59" y1="468.239" x2="221.071" y2="466.252" gradientUnits="userSpaceOnUse">
<stop stop-color="#2783C4"/>
<stop offset="1" stop-color="#15B2EE"/>
</linearGradient>
<linearGradient id="paint25_linear_3280_76835" x1="220.406" y1="467.948" x2="222.27" y2="465.443" gradientUnits="userSpaceOnUse">
<stop stop-color="#2783C4"/>
<stop offset="1" stop-color="#15B2EE"/>
</linearGradient>
<linearGradient id="paint26_linear_3280_76835" x1="168.94" y1="431.184" x2="241.669" y2="381.866" gradientUnits="userSpaceOnUse">
<stop stop-color="#2783C4"/>
<stop offset="1" stop-color="#15B2EE"/>
</linearGradient>
<linearGradient id="paint27_linear_3280_76835" x1="205.361" y1="396.276" x2="217.983" y2="393.915" gradientUnits="userSpaceOnUse">
<stop stop-color="#2783C4"/>
<stop offset="1" stop-color="#15B2EE"/>
</linearGradient>
<linearGradient id="paint28_linear_3280_76835" x1="164.317" y1="442.331" x2="169.232" y2="430.789" gradientUnits="userSpaceOnUse">
<stop stop-color="#2783C4"/>
<stop offset="1" stop-color="#15B2EE"/>
</linearGradient>
<linearGradient id="paint29_linear_3280_76835" x1="201.264" y1="446.216" x2="262.392" y2="422.362" gradientUnits="userSpaceOnUse">
<stop stop-color="#2783C4"/>
<stop offset="1" stop-color="#15B2EE"/>
</linearGradient>
<linearGradient id="paint30_linear_3280_76835" x1="212.345" y1="459.585" x2="213.509" y2="453.757" gradientUnits="userSpaceOnUse">
<stop stop-color="#2783C4"/>
<stop offset="1" stop-color="#15B2EE"/>
</linearGradient>
<linearGradient id="paint31_linear_3280_76835" x1="377.227" y1="468.164" x2="377.86" y2="466.124" gradientUnits="userSpaceOnUse">
<stop stop-color="#2783C4"/>
<stop offset="1" stop-color="#15B2EE"/>
</linearGradient>
<linearGradient id="paint32_linear_3280_76835" x1="378.495" y1="467.811" x2="380.491" y2="465.764" gradientUnits="userSpaceOnUse">
<stop stop-color="#2783C4"/>
<stop offset="1" stop-color="#15B2EE"/>
</linearGradient>
<linearGradient id="paint33_linear_3280_76835" x1="348.75" y1="468.168" x2="349.294" y2="466.065" gradientUnits="userSpaceOnUse">
<stop stop-color="#2783C4"/>
<stop offset="1" stop-color="#15B2EE"/>
</linearGradient>
<linearGradient id="paint34_linear_3280_76835" x1="350.116" y1="467.8" x2="352.03" y2="465.282" gradientUnits="userSpaceOnUse">
<stop stop-color="#2783C4"/>
<stop offset="1" stop-color="#15B2EE"/>
</linearGradient>
<linearGradient id="paint35_linear_3280_76835" x1="377.34" y1="459.578" x2="378.35" y2="454.421" gradientUnits="userSpaceOnUse">
<stop stop-color="#2783C4"/>
<stop offset="1" stop-color="#15B2EE"/>
</linearGradient>
<linearGradient id="paint36_linear_3280_76835" x1="370.199" y1="304.151" x2="380.727" y2="289.111" gradientUnits="userSpaceOnUse">
<stop stop-color="#2783C4"/>
<stop offset="1" stop-color="#15B2EE"/>
</linearGradient>
<linearGradient id="paint37_linear_3280_76835" x1="369.301" y1="304.547" x2="377.811" y2="297.138" gradientUnits="userSpaceOnUse">
<stop stop-color="#2783C4"/>
<stop offset="1" stop-color="#15B2EE"/>
</linearGradient>
<linearGradient id="paint38_linear_3280_76835" x1="345.81" y1="326.732" x2="374.303" y2="290.456" gradientUnits="userSpaceOnUse">
<stop stop-color="#2783C4"/>
<stop offset="1" stop-color="#15B2EE"/>
</linearGradient>
<linearGradient id="paint39_linear_3280_76835" x1="352.348" y1="331.65" x2="353.516" y2="323.207" gradientUnits="userSpaceOnUse">
<stop stop-color="#2783C4"/>
<stop offset="1" stop-color="#15B2EE"/>
</linearGradient>
<linearGradient id="paint40_linear_3280_76835" x1="343.798" y1="317.416" x2="350.303" y2="314.727" gradientUnits="userSpaceOnUse">
<stop stop-color="#2783C4"/>
<stop offset="1" stop-color="#15B2EE"/>
</linearGradient>
<linearGradient id="paint41_linear_3280_76835" x1="338.104" y1="309.617" x2="350.465" y2="294.098" gradientUnits="userSpaceOnUse">
<stop stop-color="#2783C4"/>
<stop offset="1" stop-color="#15B2EE"/>
</linearGradient>
<linearGradient id="paint42_linear_3280_76835" x1="350.269" y1="459.578" x2="351.249" y2="454.409" gradientUnits="userSpaceOnUse">
<stop stop-color="#2783C4"/>
<stop offset="1" stop-color="#15B2EE"/>
</linearGradient>
<linearGradient id="paint43_linear_3280_76835" x1="67.8975" y1="72" x2="67.8975" y2="103" gradientUnits="userSpaceOnUse">
<stop stop-color="#18ADE9"/>
<stop offset="1" stop-color="#248ECE"/>
</linearGradient>
<linearGradient id="paint44_linear_3280_76835" x1="383.897" y1="74.8253" x2="383.897" y2="105.825" gradientUnits="userSpaceOnUse">
<stop stop-color="#18ADE9"/>
<stop offset="1" stop-color="#248ECE"/>
</linearGradient>
<clipPath id="clip0_3280_76835">
<path d="M0 16.5C0 7.66345 7.16344 0.5 16 0.5H574V500.5H16C7.16346 500.5 0 493.337 0 484.5V16.5Z" fill="white"/>
</clipPath>
<clipPath id="clip1_3280_76835">
<rect x="52" y="72" width="31" height="31" rx="15.5" fill="white"/>
</clipPath>
<clipPath id="clip2_3280_76835">
<rect width="17.7143" height="17.7143" fill="white" transform="translate(59.0405 78.6429)"/>
</clipPath>
<clipPath id="clip3_3280_76835">
<rect x="368" y="74.8253" width="31" height="31" rx="15.5" fill="white"/>
</clipPath>
<clipPath id="clip4_3280_76835">
<rect width="17.7143" height="17.7143" fill="white" transform="translate(375.041 81.4682)"/>
</clipPath>
</defs>
</svg>
