<svg width="23" height="21" viewBox="0 0 23 21" fill="none" xmlns="http://www.w3.org/2000/svg">
<path d="M11.5 0C11.302 0 11.1042 0.0746562 10.9512 0.222656L9.44531 1.67773L7.37305 1.38477C7.33505 1.37877 7.29872 1.37695 7.26172 1.37695C6.88372 1.37695 6.55137 1.64825 6.48438 2.03125L6.12109 4.09375L4.27344 5.07422C3.89644 5.27422 3.74659 5.73614 3.93359 6.11914L4.85352 8L3.93359 9.88086C3.74659 10.2639 3.89644 10.7258 4.27344 10.9258L5.77734 11.7227L0.5 17L3.5 18L4.5 21L10.3262 15.1738L10.9512 15.7773C11.1032 15.9253 11.302 16 11.5 16C11.698 16 11.8958 15.9253 12.0488 15.7773L12.6738 15.1738L18.5 21L19.5 18L22.5 17L17.2227 11.7227L18.7266 10.9258C19.1036 10.7258 19.2534 10.2639 19.0664 9.88086L18.1465 8L19.0664 6.11914C19.2534 5.73614 19.1036 5.27422 18.7266 5.07422L16.877 4.09375L16.5156 2.03125C16.4486 1.64825 16.1153 1.37695 15.7383 1.37695C15.7013 1.37695 15.665 1.37977 15.627 1.38477L13.5527 1.67773L12.0488 0.222656C11.8968 0.0746562 11.698 0 11.5 0ZM11.5 2.47266L12.1641 3.11523L12.8672 3.79492L13.8359 3.6582L14.748 3.5293L14.9082 4.4375L15.0781 5.40039L15.9414 5.85938L16.7578 6.29297L16.3516 7.12109L15.9219 8L16.3516 8.87891L16.7559 9.70703L15.9395 10.1406L15.0762 10.5977L14.9062 11.5605L14.7461 12.4707L13.832 12.3418L12.8652 12.2031L12.1621 12.8848L11.5 13.5273L10.8359 12.8848L10.1328 12.2051L9.16406 12.3418L8.25195 12.4707L8.0918 11.5625L7.92188 10.5996L7.06055 10.1406L6.24414 9.70703L6.64844 8.87891L7.07812 8L6.64844 7.12109L6.24414 6.29297L7.06055 5.85938L7.92383 5.40039L8.09375 4.4375L8.25391 3.5293L9.16797 3.6582L10.1348 3.79492L10.8379 3.11523L11.5 2.47266ZM6.46484 13.8633L6.48438 13.9688C6.55137 14.3518 6.88472 14.623 7.26172 14.623C7.29872 14.623 7.33505 14.6202 7.37305 14.6152L8.16992 14.502L5.37305 17.2988L5.08008 16.4199L4.20117 16.127L6.46484 13.8633ZM16.5352 13.8633L18.7988 16.127L17.9199 16.4199L17.627 17.2988L14.8301 14.502L15.627 14.6152C15.664 14.6202 15.7013 14.623 15.7383 14.623C16.1163 14.623 16.4486 14.3518 16.5156 13.9688L16.5352 13.8633Z" fill="#153553"/>
</svg>
