<svg width="560" height="304" viewBox="0 0 560 304" fill="none" xmlns="http://www.w3.org/2000/svg">
<rect x="2.00928" y="284.509" width="65" height="19.4215" rx="5.42155" fill="#CDCDCD" fill-opacity="0.32"/>
<path d="M13.0194 298.219V290.519H14.2624V298.219H13.0194ZM11.4794 291.652V290.519H14.1524V291.652H11.4794ZM18.1417 298.219V290.519H19.0217L22.2227 295.788H21.6507L24.8517 290.519H25.7317V298.219H24.4667V292.741L24.7527 292.818L22.3767 296.723H21.4967L19.1207 292.818L19.4067 292.741V298.219H18.1417ZM30.9434 298.329C30.3934 298.329 29.8801 298.227 29.4034 298.021C28.9268 297.816 28.5088 297.534 28.1494 297.174C27.7901 296.808 27.5078 296.386 27.3024 295.909C27.1044 295.425 27.0054 294.908 27.0054 294.358C27.0054 293.808 27.1044 293.295 27.3024 292.818C27.5078 292.342 27.7864 291.924 28.1384 291.564C28.4978 291.198 28.9121 290.915 29.3814 290.717C29.8581 290.512 30.3714 290.409 30.9214 290.409C31.4714 290.409 31.9811 290.512 32.4504 290.717C32.9271 290.915 33.3451 291.198 33.7044 291.564C34.0638 291.924 34.3424 292.345 34.5404 292.829C34.7458 293.306 34.8484 293.819 34.8484 294.369C34.8484 294.919 34.7458 295.436 34.5404 295.92C34.3424 296.397 34.0638 296.815 33.7044 297.174C33.3524 297.534 32.9381 297.816 32.4614 298.021C31.9921 298.227 31.4861 298.329 30.9434 298.329ZM30.9214 297.119C31.4421 297.119 31.8968 297.002 32.2854 296.767C32.6814 296.533 32.9894 296.21 33.2094 295.799C33.4368 295.381 33.5504 294.901 33.5504 294.358C33.5504 293.955 33.4844 293.588 33.3524 293.258C33.2278 292.921 33.0481 292.631 32.8134 292.389C32.5788 292.14 32.3001 291.949 31.9774 291.817C31.6621 291.685 31.3101 291.619 30.9214 291.619C30.4081 291.619 29.9534 291.737 29.5574 291.971C29.1688 292.199 28.8608 292.518 28.6334 292.928C28.4134 293.339 28.3034 293.816 28.3034 294.358C28.3034 294.762 28.3658 295.136 28.4904 295.48C28.6224 295.818 28.8021 296.107 29.0294 296.349C29.2641 296.591 29.5428 296.782 29.8654 296.921C30.1881 297.053 30.5401 297.119 30.9214 297.119ZM36.1348 298.219V290.519H37.0148L37.3998 291.971V298.219H36.1348ZM41.4698 298.219L36.8608 292.202L37.0148 290.519L41.6238 296.536L41.4698 298.219ZM41.4698 298.219L41.0848 296.866V290.519H42.3498V298.219H41.4698ZM45.9556 298.219V290.739H47.2206V298.219H45.9556ZM43.4476 291.674V290.519H49.7286V291.674H43.4476ZM50.8301 298.219V290.519H52.0951V298.219H50.8301ZM55.7251 298.219V290.519H56.9901V298.219H55.7251ZM51.6991 294.809V293.654H56.0001V294.809H51.6991Z" fill="#738698"/>
<rect x="111.009" y="284.509" width="77" height="19.4215" rx="5.42155" fill="#CDCDCD" fill-opacity="0.32"/>
<path d="M122.063 298.219V290.519H123.306V298.219H122.063ZM120.523 291.652V290.519H123.196V291.652H120.523ZM124.455 297.471L127.293 294.457C127.528 294.208 127.718 293.984 127.865 293.786C128.012 293.588 128.118 293.401 128.184 293.225C128.25 293.049 128.283 292.87 128.283 292.686C128.283 292.342 128.169 292.074 127.942 291.883C127.722 291.685 127.44 291.586 127.095 291.586C126.728 291.586 126.406 291.678 126.127 291.861C125.848 292.045 125.599 292.331 125.379 292.719L124.499 291.993C124.8 291.473 125.17 291.08 125.61 290.816C126.05 290.545 126.56 290.409 127.139 290.409C127.616 290.409 128.034 290.505 128.393 290.695C128.752 290.886 129.031 291.154 129.229 291.498C129.427 291.836 129.526 292.228 129.526 292.675C129.526 292.998 129.486 293.288 129.405 293.544C129.332 293.794 129.203 294.047 129.02 294.303C128.837 294.553 128.584 294.846 128.261 295.183L126.083 297.438L124.455 297.471ZM124.455 298.219V297.471L125.544 297.086H129.68V298.219H124.455ZM133.136 298.219V290.519H134.016L137.217 295.788H136.645L139.846 290.519H140.726V298.219H139.461V292.741L139.747 292.818L137.371 296.723H136.491L134.115 292.818L134.401 292.741V298.219H133.136ZM145.938 298.329C145.388 298.329 144.875 298.227 144.398 298.021C143.921 297.816 143.503 297.534 143.144 297.174C142.785 296.808 142.502 296.386 142.297 295.909C142.099 295.425 142 294.908 142 294.358C142 293.808 142.099 293.295 142.297 292.818C142.502 292.342 142.781 291.924 143.133 291.564C143.492 291.198 143.907 290.915 144.376 290.717C144.853 290.512 145.366 290.409 145.916 290.409C146.466 290.409 146.976 290.512 147.445 290.717C147.922 290.915 148.34 291.198 148.699 291.564C149.058 291.924 149.337 292.345 149.535 292.829C149.74 293.306 149.843 293.819 149.843 294.369C149.843 294.919 149.74 295.436 149.535 295.92C149.337 296.397 149.058 296.815 148.699 297.174C148.347 297.534 147.933 297.816 147.456 298.021C146.987 298.227 146.481 298.329 145.938 298.329ZM145.916 297.119C146.437 297.119 146.891 297.002 147.28 296.767C147.676 296.533 147.984 296.21 148.204 295.799C148.431 295.381 148.545 294.901 148.545 294.358C148.545 293.955 148.479 293.588 148.347 293.258C148.222 292.921 148.043 292.631 147.808 292.389C147.573 292.14 147.295 291.949 146.972 291.817C146.657 291.685 146.305 291.619 145.916 291.619C145.403 291.619 144.948 291.737 144.552 291.971C144.163 292.199 143.855 292.518 143.628 292.928C143.408 293.339 143.298 293.816 143.298 294.358C143.298 294.762 143.36 295.136 143.485 295.48C143.617 295.818 143.797 296.107 144.024 296.349C144.259 296.591 144.537 296.782 144.86 296.921C145.183 297.053 145.535 297.119 145.916 297.119ZM151.129 298.219V290.519H152.009L152.394 291.971V298.219H151.129ZM156.464 298.219L151.855 292.202L152.009 290.519L156.618 296.536L156.464 298.219ZM156.464 298.219L156.079 296.866V290.519H157.344V298.219H156.464ZM160.95 298.219V290.739H162.215V298.219H160.95ZM158.442 291.674V290.519H164.723V291.674H158.442ZM165.825 298.219V290.519H167.09V298.219H165.825ZM170.72 298.219V290.519H171.985V298.219H170.72ZM166.694 294.809V293.654H170.995V294.809H166.694ZM175.65 298.329C175.042 298.329 174.525 298.219 174.099 297.999C173.674 297.779 173.293 297.457 172.955 297.031L173.813 296.173C174.026 296.481 174.279 296.723 174.572 296.899C174.866 297.068 175.24 297.152 175.694 297.152C176.12 297.152 176.457 297.064 176.706 296.888C176.963 296.712 177.091 296.47 177.091 296.162C177.091 295.906 177.025 295.697 176.893 295.535C176.761 295.374 176.585 295.242 176.365 295.139C176.153 295.029 175.914 294.934 175.65 294.853C175.394 294.765 175.133 294.67 174.869 294.567C174.613 294.457 174.374 294.322 174.154 294.16C173.942 293.999 173.769 293.79 173.637 293.533C173.505 293.277 173.439 292.95 173.439 292.554C173.439 292.1 173.549 291.715 173.769 291.399C173.997 291.077 174.301 290.831 174.682 290.662C175.064 290.494 175.489 290.409 175.958 290.409C176.464 290.409 176.915 290.508 177.311 290.706C177.715 290.904 178.041 291.157 178.29 291.465L177.432 292.323C177.212 292.074 176.981 291.891 176.739 291.773C176.505 291.649 176.233 291.586 175.925 291.586C175.544 291.586 175.243 291.663 175.023 291.817C174.811 291.971 174.704 292.188 174.704 292.466C174.704 292.701 174.77 292.892 174.902 293.038C175.034 293.178 175.207 293.299 175.419 293.401C175.639 293.497 175.878 293.588 176.134 293.676C176.398 293.764 176.659 293.863 176.915 293.973C177.179 294.083 177.418 294.226 177.63 294.402C177.85 294.571 178.026 294.791 178.158 295.062C178.29 295.334 178.356 295.675 178.356 296.085C178.356 296.775 178.111 297.321 177.619 297.724C177.135 298.128 176.479 298.329 175.65 298.329Z" fill="#738698"/>
<rect x="232.009" y="284.509" width="80" height="19.4215" rx="5.42155" fill="#CDCDCD" fill-opacity="0.32"/>
<path d="M241.707 297.471L244.545 294.457C244.78 294.208 244.971 293.984 245.117 293.786C245.264 293.588 245.37 293.401 245.436 293.225C245.502 293.049 245.535 292.87 245.535 292.686C245.535 292.342 245.422 292.074 245.194 291.883C244.974 291.685 244.692 291.586 244.347 291.586C243.981 291.586 243.658 291.678 243.379 291.861C243.101 292.045 242.851 292.331 242.631 292.719L241.751 291.993C242.052 291.473 242.422 291.08 242.862 290.816C243.302 290.545 243.812 290.409 244.391 290.409C244.868 290.409 245.286 290.505 245.645 290.695C246.005 290.886 246.283 291.154 246.481 291.498C246.679 291.836 246.778 292.228 246.778 292.675C246.778 292.998 246.738 293.288 246.657 293.544C246.584 293.794 246.456 294.047 246.272 294.303C246.089 294.553 245.836 294.846 245.513 295.183L243.335 297.438L241.707 297.471ZM241.707 298.219V297.471L242.796 297.086H246.932V298.219H241.707ZM247.659 295.469L250.398 290.519H251.828L249.023 295.469H247.659ZM247.659 296.239V295.469L248.198 295.106H253.632V296.239H247.659ZM251.311 298.219V293.181H252.554V298.219H251.311ZM256.974 298.219V290.519H257.854L261.055 295.788H260.483L263.684 290.519H264.564V298.219H263.299V292.741L263.585 292.818L261.209 296.723H260.329L257.953 292.818L258.239 292.741V298.219H256.974ZM269.775 298.329C269.225 298.329 268.712 298.227 268.235 298.021C267.759 297.816 267.341 297.534 266.981 297.174C266.622 296.808 266.34 296.386 266.134 295.909C265.936 295.425 265.837 294.908 265.837 294.358C265.837 293.808 265.936 293.295 266.134 292.818C266.34 292.342 266.618 291.924 266.97 291.564C267.33 291.198 267.744 290.915 268.213 290.717C268.69 290.512 269.203 290.409 269.753 290.409C270.303 290.409 270.813 290.512 271.282 290.717C271.759 290.915 272.177 291.198 272.536 291.564C272.896 291.924 273.174 292.345 273.372 292.829C273.578 293.306 273.68 293.819 273.68 294.369C273.68 294.919 273.578 295.436 273.372 295.92C273.174 296.397 272.896 296.815 272.536 297.174C272.184 297.534 271.77 297.816 271.293 298.021C270.824 298.227 270.318 298.329 269.775 298.329ZM269.753 297.119C270.274 297.119 270.729 297.002 271.117 296.767C271.513 296.533 271.821 296.21 272.041 295.799C272.269 295.381 272.382 294.901 272.382 294.358C272.382 293.955 272.316 293.588 272.184 293.258C272.06 292.921 271.88 292.631 271.645 292.389C271.411 292.14 271.132 291.949 270.809 291.817C270.494 291.685 270.142 291.619 269.753 291.619C269.24 291.619 268.785 291.737 268.389 291.971C268.001 292.199 267.693 292.518 267.465 292.928C267.245 293.339 267.135 293.816 267.135 294.358C267.135 294.762 267.198 295.136 267.322 295.48C267.454 295.818 267.634 296.107 267.861 296.349C268.096 296.591 268.375 296.782 268.697 296.921C269.02 297.053 269.372 297.119 269.753 297.119ZM274.967 298.219V290.519H275.847L276.232 291.971V298.219H274.967ZM280.302 298.219L275.693 292.202L275.847 290.519L280.456 296.536L280.302 298.219ZM280.302 298.219L279.917 296.866V290.519H281.182V298.219H280.302ZM284.788 298.219V290.739H286.053V298.219H284.788ZM282.28 291.674V290.519H288.561V291.674H282.28ZM289.662 298.219V290.519H290.927V298.219H289.662ZM294.557 298.219V290.519H295.822V298.219H294.557ZM290.531 294.809V293.654H294.832V294.809H290.531ZM299.488 298.329C298.879 298.329 298.362 298.219 297.937 297.999C297.512 297.779 297.13 297.457 296.793 297.031L297.651 296.173C297.864 296.481 298.117 296.723 298.41 296.899C298.703 297.068 299.077 297.152 299.532 297.152C299.957 297.152 300.295 297.064 300.544 296.888C300.801 296.712 300.929 296.47 300.929 296.162C300.929 295.906 300.863 295.697 300.731 295.535C300.599 295.374 300.423 295.242 300.203 295.139C299.99 295.029 299.752 294.934 299.488 294.853C299.231 294.765 298.971 294.67 298.707 294.567C298.45 294.457 298.212 294.322 297.992 294.16C297.779 293.999 297.607 293.79 297.475 293.533C297.343 293.277 297.277 292.95 297.277 292.554C297.277 292.1 297.387 291.715 297.607 291.399C297.834 291.077 298.139 290.831 298.52 290.662C298.901 290.494 299.327 290.409 299.796 290.409C300.302 290.409 300.753 290.508 301.149 290.706C301.552 290.904 301.879 291.157 302.128 291.465L301.27 292.323C301.05 292.074 300.819 291.891 300.577 291.773C300.342 291.649 300.071 291.586 299.763 291.586C299.382 291.586 299.081 291.663 298.861 291.817C298.648 291.971 298.542 292.188 298.542 292.466C298.542 292.701 298.608 292.892 298.74 293.038C298.872 293.178 299.044 293.299 299.257 293.401C299.477 293.497 299.715 293.588 299.972 293.676C300.236 293.764 300.496 293.863 300.753 293.973C301.017 294.083 301.255 294.226 301.468 294.402C301.688 294.571 301.864 294.791 301.996 295.062C302.128 295.334 302.194 295.675 302.194 296.085C302.194 296.775 301.948 297.321 301.457 297.724C300.973 298.128 300.317 298.329 299.488 298.329Z" fill="#738698"/>
<rect x="356.009" y="284.509" width="79" height="18.6568" rx="4.65684" fill="#CDCDCD" fill-opacity="0.32"/>
<path d="M367.815 297.947C367.302 297.947 366.836 297.855 366.418 297.672C366.007 297.481 365.659 297.206 365.373 296.847L366.231 295.989C366.385 296.224 366.601 296.411 366.88 296.55C367.159 296.689 367.463 296.759 367.793 296.759C368.108 296.759 368.38 296.7 368.607 296.583C368.834 296.466 369.01 296.301 369.135 296.088C369.267 295.875 369.333 295.63 369.333 295.351C369.333 295.058 369.267 294.808 369.135 294.603C369.01 294.398 368.827 294.24 368.585 294.13C368.35 294.013 368.064 293.954 367.727 293.954C367.595 293.954 367.459 293.965 367.32 293.987C367.181 294.002 367.056 294.027 366.946 294.064L367.507 293.338C367.661 293.279 367.822 293.232 367.991 293.195C368.167 293.151 368.336 293.129 368.497 293.129C368.893 293.129 369.249 293.224 369.564 293.415C369.887 293.606 370.14 293.873 370.323 294.218C370.514 294.555 370.609 294.955 370.609 295.417C370.609 295.916 370.492 296.356 370.257 296.737C370.022 297.118 369.696 297.415 369.278 297.628C368.86 297.841 368.372 297.947 367.815 297.947ZM366.946 294.064V293.316L369.003 290.918L370.521 290.885L368.376 293.349L366.946 294.064ZM365.758 291.27V290.137H370.521V290.885L369.432 291.27H365.758ZM374.14 297.947C373.627 297.947 373.165 297.83 372.754 297.595C372.344 297.353 372.017 297.03 371.775 296.627C371.541 296.224 371.423 295.776 371.423 295.285C371.423 294.581 371.669 293.87 372.16 293.151L374.261 290.137H375.724L373.48 293.294L373.018 293.569C373.092 293.4 373.183 293.257 373.293 293.14C373.411 293.015 373.561 292.92 373.744 292.854C373.935 292.788 374.17 292.755 374.448 292.755C374.896 292.755 375.299 292.861 375.658 293.074C376.025 293.279 376.318 293.569 376.538 293.943C376.758 294.31 376.868 294.742 376.868 295.241C376.868 295.74 376.747 296.194 376.505 296.605C376.263 297.016 375.933 297.342 375.515 297.584C375.105 297.826 374.646 297.947 374.14 297.947ZM374.14 296.759C374.419 296.759 374.668 296.693 374.888 296.561C375.108 296.429 375.281 296.249 375.405 296.022C375.537 295.787 375.603 295.527 375.603 295.241C375.603 294.955 375.537 294.698 375.405 294.471C375.281 294.244 375.108 294.068 374.888 293.943C374.668 293.811 374.419 293.745 374.14 293.745C373.862 293.745 373.612 293.811 373.392 293.943C373.172 294.075 373 294.255 372.875 294.482C372.751 294.702 372.688 294.955 372.688 295.241C372.688 295.527 372.751 295.787 372.875 296.022C373 296.249 373.172 296.429 373.392 296.561C373.612 296.693 373.862 296.759 374.14 296.759ZM380.264 297.837V290.137H381.144L384.345 295.406H383.773L386.974 290.137H387.854V297.837H386.589V292.359L386.875 292.436L384.499 296.341H383.619L381.243 292.436L381.529 292.359V297.837H380.264ZM393.066 297.947C392.516 297.947 392.003 297.844 391.526 297.639C391.049 297.434 390.631 297.151 390.272 296.792C389.913 296.425 389.63 296.004 389.425 295.527C389.227 295.043 389.128 294.526 389.128 293.976C389.128 293.426 389.227 292.913 389.425 292.436C389.63 291.959 389.909 291.541 390.261 291.182C390.62 290.815 391.035 290.533 391.504 290.335C391.981 290.13 392.494 290.027 393.044 290.027C393.594 290.027 394.104 290.13 394.573 290.335C395.05 290.533 395.468 290.815 395.827 291.182C396.186 291.541 396.465 291.963 396.663 292.447C396.868 292.924 396.971 293.437 396.971 293.987C396.971 294.537 396.868 295.054 396.663 295.538C396.465 296.015 396.186 296.433 395.827 296.792C395.475 297.151 395.061 297.434 394.584 297.639C394.115 297.844 393.609 297.947 393.066 297.947ZM393.044 296.737C393.565 296.737 394.019 296.62 394.408 296.385C394.804 296.15 395.112 295.828 395.332 295.417C395.559 294.999 395.673 294.519 395.673 293.976C395.673 293.573 395.607 293.206 395.475 292.876C395.35 292.539 395.171 292.249 394.936 292.007C394.701 291.758 394.423 291.567 394.1 291.435C393.785 291.303 393.433 291.237 393.044 291.237C392.531 291.237 392.076 291.354 391.68 291.589C391.291 291.816 390.983 292.135 390.756 292.546C390.536 292.957 390.426 293.433 390.426 293.976C390.426 294.379 390.488 294.753 390.613 295.098C390.745 295.435 390.925 295.725 391.152 295.967C391.387 296.209 391.665 296.4 391.988 296.539C392.311 296.671 392.663 296.737 393.044 296.737ZM398.257 297.837V290.137H399.137L399.522 291.589V297.837H398.257ZM403.592 297.837L398.983 291.82L399.137 290.137L403.746 296.154L403.592 297.837ZM403.592 297.837L403.207 296.484V290.137H404.472V297.837H403.592ZM408.078 297.837V290.357H409.343V297.837H408.078ZM405.57 291.292V290.137H411.851V291.292H405.57ZM412.953 297.837V290.137H414.218V297.837H412.953ZM417.848 297.837V290.137H419.113V297.837H417.848ZM413.822 294.427V293.272H418.123V294.427H413.822ZM422.778 297.947C422.17 297.947 421.653 297.837 421.227 297.617C420.802 297.397 420.421 297.074 420.083 296.649L420.941 295.791C421.154 296.099 421.407 296.341 421.7 296.517C421.994 296.686 422.368 296.77 422.822 296.77C423.248 296.77 423.585 296.682 423.834 296.506C424.091 296.33 424.219 296.088 424.219 295.78C424.219 295.523 424.153 295.314 424.021 295.153C423.889 294.992 423.713 294.86 423.493 294.757C423.281 294.647 423.042 294.552 422.778 294.471C422.522 294.383 422.261 294.288 421.997 294.185C421.741 294.075 421.502 293.939 421.282 293.778C421.07 293.617 420.897 293.408 420.765 293.151C420.633 292.894 420.567 292.568 420.567 292.172C420.567 291.717 420.677 291.332 420.897 291.017C421.125 290.694 421.429 290.449 421.81 290.28C422.192 290.111 422.617 290.027 423.086 290.027C423.592 290.027 424.043 290.126 424.439 290.324C424.843 290.522 425.169 290.775 425.418 291.083L424.56 291.941C424.34 291.692 424.109 291.508 423.867 291.391C423.633 291.266 423.361 291.204 423.053 291.204C422.672 291.204 422.371 291.281 422.151 291.435C421.939 291.589 421.832 291.805 421.832 292.084C421.832 292.319 421.898 292.509 422.03 292.656C422.162 292.795 422.335 292.916 422.547 293.019C422.767 293.114 423.006 293.206 423.262 293.294C423.526 293.382 423.787 293.481 424.043 293.591C424.307 293.701 424.546 293.844 424.758 294.02C424.978 294.189 425.154 294.409 425.286 294.68C425.418 294.951 425.484 295.292 425.484 295.703C425.484 296.392 425.239 296.939 424.747 297.342C424.263 297.745 423.607 297.947 422.778 297.947Z" fill="#738698"/>
<rect x="479.009" y="284.509" width="80" height="19.4215" rx="5.42155" fill="#CDCDCD" fill-opacity="0.32"/>
<path d="M488.67 295.469L491.409 290.519H492.839L490.034 295.469H488.67ZM488.67 296.239V295.469L489.209 295.106H494.643V296.239H488.67ZM492.322 298.219V293.181H493.565V298.219H492.322ZM497.961 298.329C497.433 298.329 496.974 298.234 496.586 298.043C496.197 297.853 495.893 297.589 495.673 297.251C495.46 296.907 495.354 296.518 495.354 296.085C495.354 295.741 495.42 295.425 495.552 295.139C495.691 294.846 495.889 294.597 496.146 294.391C496.41 294.186 496.721 294.039 497.081 293.951L497.048 294.303C496.754 294.223 496.505 294.091 496.3 293.907C496.102 293.724 495.951 293.508 495.849 293.258C495.746 293.009 495.695 292.749 495.695 292.477C495.695 292.067 495.79 291.707 495.981 291.399C496.179 291.084 496.45 290.838 496.795 290.662C497.139 290.486 497.528 290.398 497.961 290.398C498.401 290.398 498.789 290.486 499.127 290.662C499.471 290.838 499.739 291.084 499.93 291.399C500.128 291.707 500.227 292.067 500.227 292.477C500.227 292.749 500.175 293.009 500.073 293.258C499.97 293.508 499.82 293.724 499.622 293.907C499.424 294.091 499.174 294.223 498.874 294.303L498.841 293.951C499.207 294.039 499.519 294.186 499.776 294.391C500.032 294.597 500.227 294.846 500.359 295.139C500.498 295.425 500.568 295.741 500.568 296.085C500.568 296.518 500.461 296.907 500.249 297.251C500.036 297.589 499.732 297.853 499.336 298.043C498.947 298.234 498.489 298.329 497.961 298.329ZM497.961 297.185C498.232 297.185 498.47 297.13 498.676 297.02C498.888 296.91 499.053 296.76 499.171 296.569C499.295 296.379 499.358 296.162 499.358 295.92C499.358 295.671 499.295 295.455 499.171 295.271C499.053 295.081 498.888 294.93 498.676 294.82C498.47 294.71 498.232 294.655 497.961 294.655C497.689 294.655 497.447 294.71 497.235 294.82C497.029 294.93 496.864 295.081 496.74 295.271C496.622 295.455 496.564 295.671 496.564 295.92C496.564 296.162 496.622 296.379 496.74 296.569C496.864 296.76 497.029 296.91 497.235 297.02C497.447 297.13 497.689 297.185 497.961 297.185ZM497.961 293.665C498.283 293.665 498.547 293.563 498.753 293.357C498.958 293.152 499.061 292.888 499.061 292.565C499.061 292.243 498.958 291.982 498.753 291.784C498.547 291.579 498.283 291.476 497.961 291.476C497.645 291.476 497.381 291.579 497.169 291.784C496.963 291.982 496.861 292.243 496.861 292.565C496.861 292.888 496.963 293.152 497.169 293.357C497.381 293.563 497.645 293.665 497.961 293.665ZM504.011 298.219V290.519H504.891L508.092 295.788H507.52L510.721 290.519H511.601V298.219H510.336V292.741L510.622 292.818L508.246 296.723H507.366L504.99 292.818L505.276 292.741V298.219H504.011ZM516.813 298.329C516.263 298.329 515.75 298.227 515.273 298.021C514.796 297.816 514.378 297.534 514.019 297.174C513.66 296.808 513.377 296.386 513.172 295.909C512.974 295.425 512.875 294.908 512.875 294.358C512.875 293.808 512.974 293.295 513.172 292.818C513.377 292.342 513.656 291.924 514.008 291.564C514.367 291.198 514.782 290.915 515.251 290.717C515.728 290.512 516.241 290.409 516.791 290.409C517.341 290.409 517.851 290.512 518.32 290.717C518.797 290.915 519.215 291.198 519.574 291.564C519.933 291.924 520.212 292.345 520.41 292.829C520.615 293.306 520.718 293.819 520.718 294.369C520.718 294.919 520.615 295.436 520.41 295.92C520.212 296.397 519.933 296.815 519.574 297.174C519.222 297.534 518.808 297.816 518.331 298.021C517.862 298.227 517.356 298.329 516.813 298.329ZM516.791 297.119C517.312 297.119 517.766 297.002 518.155 296.767C518.551 296.533 518.859 296.21 519.079 295.799C519.306 295.381 519.42 294.901 519.42 294.358C519.42 293.955 519.354 293.588 519.222 293.258C519.097 292.921 518.918 292.631 518.683 292.389C518.448 292.14 518.17 291.949 517.847 291.817C517.532 291.685 517.18 291.619 516.791 291.619C516.278 291.619 515.823 291.737 515.427 291.971C515.038 292.199 514.73 292.518 514.503 292.928C514.283 293.339 514.173 293.816 514.173 294.358C514.173 294.762 514.235 295.136 514.36 295.48C514.492 295.818 514.672 296.107 514.899 296.349C515.134 296.591 515.412 296.782 515.735 296.921C516.058 297.053 516.41 297.119 516.791 297.119ZM522.004 298.219V290.519H522.884L523.269 291.971V298.219H522.004ZM527.339 298.219L522.73 292.202L522.884 290.519L527.493 296.536L527.339 298.219ZM527.339 298.219L526.954 296.866V290.519H528.219V298.219H527.339ZM531.825 298.219V290.739H533.09V298.219H531.825ZM529.317 291.674V290.519H535.598V291.674H529.317ZM536.7 298.219V290.519H537.965V298.219H536.7ZM541.595 298.219V290.519H542.86V298.219H541.595ZM537.569 294.809V293.654H541.87V294.809H537.569ZM546.525 298.329C545.917 298.329 545.4 298.219 544.974 297.999C544.549 297.779 544.168 297.457 543.83 297.031L544.688 296.173C544.901 296.481 545.154 296.723 545.447 296.899C545.741 297.068 546.115 297.152 546.569 297.152C546.995 297.152 547.332 297.064 547.581 296.888C547.838 296.712 547.966 296.47 547.966 296.162C547.966 295.906 547.9 295.697 547.768 295.535C547.636 295.374 547.46 295.242 547.24 295.139C547.028 295.029 546.789 294.934 546.525 294.853C546.269 294.765 546.008 294.67 545.744 294.567C545.488 294.457 545.249 294.322 545.029 294.16C544.817 293.999 544.644 293.79 544.512 293.533C544.38 293.277 544.314 292.95 544.314 292.554C544.314 292.1 544.424 291.715 544.644 291.399C544.872 291.077 545.176 290.831 545.557 290.662C545.939 290.494 546.364 290.409 546.833 290.409C547.339 290.409 547.79 290.508 548.186 290.706C548.59 290.904 548.916 291.157 549.165 291.465L548.307 292.323C548.087 292.074 547.856 291.891 547.614 291.773C547.38 291.649 547.108 291.586 546.8 291.586C546.419 291.586 546.118 291.663 545.898 291.817C545.686 291.971 545.579 292.188 545.579 292.466C545.579 292.701 545.645 292.892 545.777 293.038C545.909 293.178 546.082 293.299 546.294 293.401C546.514 293.497 546.753 293.588 547.009 293.676C547.273 293.764 547.534 293.863 547.79 293.973C548.054 294.083 548.293 294.226 548.505 294.402C548.725 294.571 548.901 294.791 549.033 295.062C549.165 295.334 549.231 295.675 549.231 296.085C549.231 296.775 548.986 297.321 548.494 297.724C548.01 298.128 547.354 298.329 546.525 298.329Z" fill="#738698"/>
<path d="M300 163C355.701 140.132 439.5 100.5 439.5 100.5L503 66L555.845 28.9642V275.777L3 271L119 234L215.5 198C215.5 198 267.462 176.358 300 163Z" fill="url(#paint0_linear_3321_77205)"/>
<path d="M2 272.5C242 195 474 95.5 553.5 31" stroke="#6EFFD7" stroke-width="2"/>
<line x1="1.42717" y1="273" x2="1.42716" y2="2.54446e-08" stroke="#E4E4E4" stroke-width="1.16421"/>
<line x1="2.00928" y1="272.284" x2="555.009" y2="272.284" stroke="#E4E4E4" stroke-width="1.16421"/>
<defs>
<linearGradient id="paint0_linear_3321_77205" x1="188.537" y1="43.5169" x2="209.049" y2="283.003" gradientUnits="userSpaceOnUse">
<stop stop-color="#59C9A5" stop-opacity="0.35"/>
<stop offset="1" stop-color="#00AE76" stop-opacity="0"/>
</linearGradient>
</defs>
</svg>
