<svg width="574" height="500" viewBox="0 0 574 500" fill="none" xmlns="http://www.w3.org/2000/svg">
<path d="M0 16C0 7.16345 7.16344 0 16 0H574V500H16C7.16346 500 0 492.837 0 484V16Z" fill="#F3F5F6"/>
<path d="M142.825 36.9633C165.89 -12.3313 247.778 -5.3745 279.437 29.2934C311.097 63.9613 321.336 86.175 349.855 73.2398C378.374 60.3046 414.744 63.754 416.794 104.881C418.843 146.008 385.498 194.64 332.459 209.026C279.421 223.412 279.437 274.332 209.251 264.058C170.981 258.453 170.113 216.911 175.517 182.55C180.922 148.189 116.066 94.1351 142.825 36.9633Z" fill="url(#paint0_linear_3362_78514)"/>
<path d="M142.825 36.9633C165.89 -12.3313 247.778 -5.3745 279.437 29.2934C311.097 63.9613 321.336 86.175 349.855 73.2398C378.374 60.3046 414.744 63.754 416.794 104.881C418.843 146.008 385.498 194.64 332.459 209.026C279.421 223.412 279.437 274.332 209.251 264.058C170.981 258.453 170.113 216.911 175.517 182.55C180.922 148.189 116.066 94.1351 142.825 36.9633Z" fill="#F3F5F6"/>
<path d="M278.668 301.578C367.161 301.578 438.899 297.375 438.899 292.192C438.899 287.008 367.161 282.805 278.668 282.805C190.175 282.805 118.437 287.008 118.437 292.192C118.437 297.375 190.175 301.578 278.668 301.578Z" fill="#F3F5F6"/>
<path d="M214.142 50.2127C206.234 45.7683 198.994 36.183 192.763 34.1183C194.733 30.0157 197.041 26.0856 199.664 22.3689C205.895 28.4302 213.134 39.0851 221.043 38.4549C219.068 42.5574 216.76 46.4899 214.142 50.2127V50.2127Z" fill="url(#paint1_linear_3362_78514)"/>
<path opacity="0.5" d="M214.142 50.2127C206.234 45.7683 198.994 36.183 192.763 34.1183C194.733 30.0157 197.041 26.0856 199.664 22.3689C205.895 28.4302 213.134 39.0851 221.043 38.4549C219.068 42.5574 216.76 46.4899 214.142 50.2127V50.2127Z" fill="white"/>
<path opacity="0.2" d="M219.166 40.9922C218.34 40.8927 218.067 39.9806 218.58 39.0686C212.2 37.6921 206.283 29.9476 201.027 24.6326C200.898 24.7948 200.736 24.9272 200.551 25.0204C200.366 25.1137 200.164 25.1656 199.957 25.1727C199.751 25.1798 199.545 25.1419 199.354 25.0615C199.164 24.9811 198.993 24.8603 198.853 24.7072C197.298 27.0004 195.861 29.3722 194.548 31.8132C194.892 32.107 195.114 32.5198 195.169 32.9698C195.224 33.4198 195.108 33.8741 194.845 34.2427C200.11 37.0619 206.018 44.1929 212.406 48.4797C212.714 48.1426 213.123 47.9168 213.572 47.8373C214.02 47.7578 214.482 47.8292 214.886 48.0403V48.0403C216.437 45.7631 217.871 43.4079 219.183 40.9839L219.166 40.9922ZM204.341 39.0934C202.771 37.6258 202.407 35.3621 203.465 34.0354C204.523 32.7088 206.613 32.9741 208.183 34.4915C209.754 36.0089 210.2 38.173 209.142 39.4666C208.084 40.7601 205.944 40.5777 204.341 39.0934Z" fill="black"/>
<g opacity="0.2">
<path d="M205.539 38.2642L205.258 38.6042L204.944 38.314C205.044 38.1979 205.134 38.0818 205.234 37.974C204.91 37.6541 204.667 37.262 204.523 36.8297L204.953 36.6805C205.063 37.0389 205.252 37.3677 205.506 37.6423L206.01 37.0288C205.663 36.5478 205.308 36.0006 205.663 35.5777C206.019 35.1548 206.432 35.2709 207.052 35.7933C207.151 35.6855 207.242 35.5694 207.341 35.4533L207.647 35.7518L207.366 36.0918C207.626 36.3538 207.833 36.6634 207.977 37.0039L207.564 37.1697C207.449 36.8944 207.289 36.6396 207.093 36.4152L206.581 37.0288C206.928 37.5097 207.3 38.0569 206.944 38.4798C206.589 38.9027 206.176 38.8115 205.539 38.2642ZM206.366 36.6639L206.812 36.1249C206.523 35.9011 206.316 35.9011 206.209 36.0337C206.101 36.1664 206.151 36.4317 206.325 36.6971L206.366 36.6639ZM206.482 38.0404C206.605 37.8911 206.482 37.6672 206.308 37.3936L205.862 37.9326C206.126 38.1979 206.325 38.2062 206.44 38.0735L206.482 38.0404Z" fill="black"/>
</g>
<path d="M281.974 85.3034C274.701 89.2337 263.694 89.7313 259.099 93.6367C256.793 89.7096 254.787 85.6128 253.099 81.3814C260.859 79.7231 272.718 79.8309 275.974 73.0399C278.278 76.9706 280.284 81.0701 281.974 85.3034V85.3034Z" fill="url(#paint2_linear_3362_78514)"/>
<path opacity="0.5" d="M281.974 85.3034C274.701 89.2337 263.694 89.7313 259.099 93.6367C256.793 89.7096 254.787 85.6128 253.099 81.3814C260.859 79.7231 272.718 79.8309 275.974 73.0399C278.278 76.9706 280.284 81.0701 281.974 85.3034V85.3034Z" fill="white"/>
<path opacity="0.2" d="M277.073 76.0499C276.593 76.6801 275.75 76.3733 275.279 75.4446C271.147 79.8558 262.255 80.3367 255.528 81.5971C255.601 81.7797 255.633 81.9762 255.622 82.1727C255.611 82.3691 255.557 82.5607 255.464 82.734C255.371 82.9072 255.241 83.0578 255.084 83.1751C254.927 83.2925 254.745 83.3737 254.553 83.413C255.545 85.7678 256.702 88.2388 258.123 90.8756C258.768 90.5522 259.702 91.058 260.189 92.0116C264.916 89.3167 273.337 88.5041 279.783 85.743C279.661 85.3278 279.676 84.8844 279.825 84.4782C279.974 84.072 280.249 83.7246 280.61 83.4876V83.4876C279.626 81.141 278.478 78.6784 277.073 76.025V76.0499ZM268.544 87.0199C267.675 87.2606 266.749 87.1764 265.937 86.7829C265.125 86.3893 264.483 85.7133 264.131 84.8806C263.578 83.272 264.784 81.7298 266.734 81.3069C268.685 80.884 270.602 81.738 271.123 83.3301C271.643 84.9221 270.461 86.5804 268.544 87.0199Z" fill="black"/>
<g opacity="0.2">
<path d="M268.486 85.595C268.536 85.736 268.577 85.8769 268.619 86.0179L268.238 86.1091C268.238 85.9681 268.148 85.8272 268.106 85.6862C267.694 85.7647 267.268 85.742 266.867 85.6199C266.867 85.4706 266.924 85.3297 266.958 85.1887C267.284 85.3018 267.634 85.3304 267.974 85.2716C267.9 85.0229 267.817 84.7741 267.734 84.5171C267.189 84.5171 266.586 84.5171 266.42 83.9781C266.296 83.5967 266.536 83.1904 267.247 82.9748C267.197 82.8338 267.156 82.6929 267.106 82.5519L267.495 82.469C267.495 82.61 267.577 82.7509 267.627 82.8919C267.962 82.8214 268.308 82.8214 268.643 82.8919L268.569 83.3148C268.295 83.2684 268.016 83.2684 267.743 83.3148C267.825 83.5635 267.908 83.8206 267.982 84.0776C268.536 84.0776 269.139 84.0776 269.304 84.5917C269.445 84.9565 269.197 85.3711 268.486 85.595ZM267.594 84.061C267.519 83.8371 267.453 83.6133 267.379 83.3894C267.065 83.5055 266.966 83.6713 267.015 83.8371C267.065 84.003 267.305 84.0527 267.594 84.061V84.061ZM268.734 84.7409C268.676 84.5585 268.445 84.5171 268.148 84.5171C268.214 84.7409 268.288 84.9648 268.354 85.1804C268.685 85.0643 268.751 84.9068 268.751 84.7409H268.734Z" fill="black"/>
</g>
<path d="M341.416 33.0556C332.838 35.9577 324.401 39.5481 318.013 45.145C315.748 41.7786 313.418 38.3541 311.294 34.7637C318.442 29.2829 326.781 25.8252 334.698 22.6743C336.962 26.0408 339.292 29.4653 341.416 33.0556Z" fill="url(#paint3_linear_3362_78514)"/>
<path opacity="0.5" d="M341.416 33.0556C332.838 35.9577 324.401 39.5481 318.013 45.145C315.748 41.7786 313.418 38.3541 311.294 34.7637C318.442 29.2829 326.781 25.8252 334.698 22.6743C336.962 26.0408 339.292 29.4653 341.416 33.0556Z" fill="white"/>
<path opacity="0.2" d="M335.359 24.8219C334.92 24.9839 334.441 24.9979 333.994 24.8617C333.546 24.7256 333.155 24.4467 332.88 24.0674C326.318 26.729 319.575 29.6726 313.559 33.8931C313.783 34.3017 313.854 34.7774 313.758 35.2338C313.663 35.6903 313.407 36.0972 313.038 36.3807C314.393 38.578 315.807 40.7173 317.22 42.8317C317.381 42.6932 317.569 42.5912 317.773 42.5327C317.977 42.4743 318.191 42.4607 318.401 42.493C318.61 42.5253 318.81 42.6027 318.987 42.7198C319.164 42.8369 319.314 42.9911 319.426 43.1716C324.996 38.8599 331.822 35.8251 338.764 33.3127C338.65 33.1338 338.58 32.9306 338.559 32.7195C338.539 32.5084 338.567 32.2953 338.644 32.0975C338.72 31.8997 338.842 31.7228 338.999 31.581C339.157 31.4392 339.345 31.3365 339.549 31.2812V31.2812C338.194 29.0922 336.772 26.9529 335.367 24.8385L335.359 24.8219ZM327.294 35.7256C326.477 36.1622 325.528 36.2817 324.629 36.0615C323.729 35.8413 322.942 35.2967 322.418 34.5316C322.19 34.15 322.045 33.7243 321.992 33.2824C321.94 32.8406 321.982 32.3926 322.114 31.968C322.247 31.5435 322.468 31.1519 322.762 30.8192C323.057 30.4864 323.418 30.22 323.823 30.0375C324.67 29.6185 325.64 29.5228 326.552 29.7685C327.465 30.0141 328.257 30.5842 328.781 31.3724C329.003 31.7491 329.14 32.1694 329.185 32.6045C329.229 33.0397 329.178 33.4792 329.037 33.893C328.896 34.3067 328.667 34.6848 328.366 35.0012C328.065 35.3175 327.699 35.5647 327.294 35.7256V35.7256Z" fill="black"/>
<g opacity="0.2">
<path d="M326.815 34.2329L327.071 34.6558L326.724 34.8217L326.467 34.4071C326.088 34.5843 325.669 34.6559 325.253 34.6144C325.253 34.4568 325.253 34.291 325.211 34.1334C325.553 34.1775 325.901 34.1318 326.22 34.0008C326.071 33.7437 325.914 33.495 325.757 33.2462C325.228 33.3789 324.649 33.495 324.335 32.9726C324.096 32.5912 324.203 32.0937 324.823 31.7122L324.558 31.2811L324.906 31.1152L325.162 31.5298C325.474 31.395 325.813 31.3327 326.153 31.3474C326.153 31.4967 326.195 31.6542 326.22 31.8117C325.939 31.8012 325.658 31.8434 325.393 31.9361L325.856 32.699C326.385 32.5746 326.98 32.4585 327.302 32.9809C327.55 33.3623 327.426 33.8432 326.815 34.2329ZM325.484 32.7902L325.071 32.1185C324.798 32.3092 324.757 32.5083 324.856 32.6741C324.955 32.8399 325.195 32.8482 325.484 32.7902ZM326.798 33.2711C326.682 33.0887 326.443 33.097 326.153 33.155L326.558 33.8184C326.839 33.6276 326.897 33.4369 326.798 33.2877V33.2711Z" fill="black"/>
</g>
<path d="M190.391 121.456C184.144 114.922 173.987 115.535 167.74 109.018C169.707 105.414 171.676 101.807 173.649 98.1971C179.896 104.731 190.053 104.126 196.3 110.635C194.333 114.244 192.364 117.851 190.391 121.456Z" fill="url(#paint4_linear_3362_78514)"/>
<path opacity="0.5" d="M190.391 121.456C184.144 114.922 173.987 115.535 167.74 109.018C169.707 105.414 171.676 101.807 173.649 98.1971C179.896 104.731 190.053 104.126 196.3 110.635C194.333 114.244 192.364 117.851 190.391 121.456Z" fill="white"/>
<path opacity="0.2" d="M194.705 112.194C194.358 111.871 194.122 111.444 194.033 110.978C193.944 110.511 194.006 110.028 194.21 109.598C188.557 105.204 180.756 104.748 175.103 100.345C175.015 100.535 174.881 100.701 174.714 100.828C174.547 100.955 174.352 101.04 174.145 101.074C173.938 101.108 173.726 101.092 173.528 101.025C173.329 100.959 173.149 100.845 173.004 100.693L169.327 107.442C169.671 107.766 169.904 108.191 169.991 108.656C170.079 109.121 170.017 109.602 169.814 110.03C175.467 114.432 183.268 114.889 188.921 119.291C189.008 119.1 189.141 118.934 189.308 118.806C189.474 118.678 189.67 118.592 189.876 118.557C190.083 118.522 190.295 118.538 190.495 118.604C190.694 118.67 190.874 118.783 191.02 118.935V118.935L194.697 112.194H194.705ZM180.326 112.608C179.914 112.475 179.538 112.25 179.224 111.951C178.911 111.651 178.668 111.285 178.515 110.879C178.362 110.473 178.302 110.037 178.339 109.604C178.377 109.172 178.511 108.753 178.731 108.379C179.218 107.561 179.972 106.936 180.864 106.61C181.757 106.284 182.734 106.276 183.632 106.588C184.044 106.719 184.421 106.941 184.736 107.239C185.05 107.536 185.294 107.901 185.448 108.306C185.602 108.711 185.663 109.146 185.626 109.578C185.589 110.01 185.455 110.428 185.235 110.801C184.75 111.624 183.996 112.253 183.102 112.583C182.207 112.912 181.227 112.921 180.326 112.608V112.608Z" fill="black"/>
<g opacity="0.2">
<path d="M181.441 111.323C181.367 111.472 181.284 111.622 181.202 111.771L180.846 111.638L181.086 111.199C180.725 111.062 180.417 110.812 180.21 110.486L180.623 110.154C180.79 110.425 181.035 110.639 181.326 110.767C181.466 110.502 181.615 110.237 181.764 109.938C181.342 109.656 180.937 109.325 181.21 108.769C181.359 108.537 181.584 108.364 181.847 108.281C182.109 108.198 182.393 108.209 182.648 108.313L182.896 107.857L183.251 107.99L183.003 108.429C183.299 108.544 183.556 108.739 183.747 108.993L183.35 109.325C183.193 109.13 182.996 108.971 182.772 108.86L182.334 109.69C182.755 109.971 183.16 110.303 182.896 110.859C182.744 111.092 182.516 111.266 182.251 111.351C181.986 111.436 181.7 111.426 181.441 111.323V111.323ZM182.02 109.491L182.408 108.777C182.078 108.711 181.871 108.777 181.78 108.985C181.689 109.192 181.813 109.325 182.02 109.491V109.491ZM182.326 110.701C182.433 110.502 182.326 110.345 182.069 110.179L181.681 110.884C182.02 110.958 182.226 110.867 182.326 110.701Z" fill="black"/>
</g>
<path d="M394.802 88.2139C388.901 95.3614 378.736 91.5306 372.836 97.2437C370.679 93.3216 368.522 89.5489 366.365 86.0498C372.266 78.9023 382.43 82.7331 388.331 77.02C390.488 80.942 392.645 84.6982 394.802 88.2139Z" fill="url(#paint5_linear_3362_78514)"/>
<path opacity="0.5" d="M394.802 88.2139C388.901 95.3614 378.736 91.5306 372.836 97.2437C370.679 93.3216 368.522 89.5489 366.365 86.0498C372.266 78.9023 382.43 82.7331 388.331 77.02C390.488 80.942 392.645 84.6982 394.802 88.2139Z" fill="white"/>
<path opacity="0.2" d="M389.092 79.6494C388.439 80.2381 387.439 79.8816 386.976 78.9778C381.563 82.4769 373.795 80.5781 368.391 84.9893C368.616 85.4032 368.702 85.8786 368.638 86.3456C368.574 86.8127 368.363 87.247 368.035 87.5846C369.374 89.8483 370.721 92.2032 372.068 94.6244C372.721 94.0356 373.721 94.3922 374.184 95.2877C379.588 91.7886 387.356 93.6874 392.769 89.2845C392.542 88.8725 392.454 88.3979 392.518 87.9317C392.582 87.4654 392.795 87.0324 393.125 86.6974V86.6974C391.778 84.4421 390.431 82.0789 389.092 79.6577V79.6494ZM382.142 90.379C380.373 90.6194 378.167 89.3342 377.183 87.4686C376.2 85.6029 376.787 83.787 378.547 83.5383C380.307 83.2895 382.53 84.5913 383.505 86.457C384.481 88.3226 383.91 90.1302 382.142 90.379Z" fill="black"/>
<g opacity="0.2">
<path d="M381.637 88.728L381.902 89.2338L381.563 89.2835L381.29 88.7777C380.867 88.813 380.443 88.7358 380.059 88.5538L380.009 88.0646C380.327 88.2237 380.679 88.3007 381.034 88.2885L380.563 87.3847C380.274 87.3939 379.987 87.3268 379.732 87.19C379.477 87.0532 379.262 86.8516 379.109 86.6053C379.038 86.5093 378.993 86.3961 378.98 86.2773C378.968 86.1585 378.987 86.0383 379.035 85.9293C379.084 85.8203 379.161 85.7264 379.258 85.6571C379.355 85.5879 379.469 85.546 379.588 85.5356L379.315 85.0216L379.662 84.9718L379.927 85.4776C380.27 85.4532 380.614 85.5041 380.935 85.6268C380.935 85.7927 380.976 85.9502 381.001 86.1078C380.737 86.0084 380.457 85.9606 380.175 85.9668L380.662 86.8789C380.951 86.8688 381.237 86.9347 381.492 87.07C381.747 87.2053 381.962 87.4053 382.117 87.65C382.187 87.7467 382.231 87.8604 382.244 87.9796C382.256 88.0987 382.237 88.2191 382.189 88.3285C382.14 88.4379 382.063 88.5325 381.967 88.6026C381.87 88.6728 381.756 88.716 381.637 88.728ZM380.315 86.8375L379.885 86.0083C379.613 86.1078 379.571 86.2902 379.679 86.4892C379.748 86.5953 379.843 86.6826 379.954 86.7433C380.065 86.8041 380.189 86.8364 380.315 86.8375ZM381.654 87.7661C381.579 87.6627 381.481 87.5782 381.367 87.5193C381.254 87.4603 381.129 87.4284 381.001 87.4262L381.423 88.2553C381.662 88.1393 381.712 87.9651 381.613 87.7661H381.654Z" fill="black"/>
</g>
<path d="M358.829 144C335.238 189.65 303.945 230.856 266.338 265.79L208.564 221.611C246.197 186.685 277.513 145.479 301.121 99.8218L358.829 144Z" fill="url(#paint6_linear_3362_78514)"/>
<path opacity="0.2" d="M358.829 144C356.89 147.765 354.89 151.496 352.829 155.194C330.022 196.425 300.827 233.756 266.338 265.79L208.564 221.611C246.197 186.685 277.513 145.479 301.121 99.8218L358.829 144Z" fill="white"/>
<path opacity="0.2" d="M310.154 111.62C309.603 112.737 308.809 113.714 307.831 114.481C306.852 115.247 305.714 115.783 304.501 116.047C303.287 116.312 302.03 116.298 300.823 116.009C299.616 115.719 298.489 115.16 297.526 114.373C277.042 151.147 251.461 184.819 221.547 214.38C222.564 215.097 223.406 216.036 224.009 217.127C224.612 218.217 224.961 219.431 225.028 220.676C225.096 221.922 224.881 223.166 224.399 224.316C223.918 225.466 223.183 226.492 222.249 227.315L258.256 254.852C260.28 253.002 262.874 251.902 265.607 251.736C268.34 251.57 271.048 252.348 273.28 253.94C303.196 224.381 328.778 190.709 349.259 153.933C344.92 150.616 343.59 144.033 346.16 139.157L346.201 139.082L310.187 111.545L310.154 111.62ZM303.542 199.123C296.741 208.053 283.643 209.488 274.775 202.705C265.908 195.923 264.586 183.468 271.395 174.513C278.205 165.558 290.543 163.568 299.427 170.367C308.311 177.167 310.393 190.193 303.576 199.123H303.542Z" fill="black"/>
<g opacity="0.2">
<path d="M297.361 191.661L299.75 193.485L298.411 195.243L296.023 193.41C294.295 195.417 292.039 196.909 290.238 197.274L288.833 194.679C290.728 194.165 292.435 193.114 293.75 191.652L289.486 188.394C287.106 190.334 284.354 192.274 281.395 190.002C279.222 188.344 278.569 185.334 280.8 181.752L278.396 179.911C278.842 179.331 279.288 178.742 279.726 178.153L282.09 179.961C283.315 178.474 284.884 177.31 286.66 176.57L288.155 179.107C286.735 179.706 285.454 180.596 284.395 181.719L288.692 185.036C291.073 183.087 293.75 181.031 296.709 183.294C298.874 184.928 299.568 187.996 297.361 191.661ZM286.932 186.429L283.139 183.527C282.213 185.226 282.478 186.453 283.42 187.167C284.362 187.88 285.602 187.39 286.932 186.429ZM294.866 186.188C293.824 185.359 292.626 185.964 291.287 187.017L295.056 189.903C296.023 188.112 295.766 186.893 294.849 186.188H294.866Z" fill="black"/>
</g>
<path opacity="0.2" d="M352.854 155.178C330.04 196.416 300.837 233.753 266.338 265.79C266.338 265.79 241.86 228.319 231.704 221.354C231.704 221.354 310.559 191.993 352.854 155.178Z" fill="black"/>
<path d="M414 204.988C375.568 239.014 331.553 266.105 283.908 285.061L245.893 222.939C293.537 203.985 337.549 176.894 375.977 142.866C388.659 163.579 401.334 184.286 414 204.988Z" fill="url(#paint7_linear_3362_78514)"/>
<path opacity="0.3" d="M413.999 204.985C375.567 239.011 331.553 266.103 283.907 285.059L267.487 258.21C260.324 246.463 253.138 234.709 245.926 222.945C293.57 203.991 337.582 176.9 376.01 142.872C388.67 163.579 401.333 184.283 413.999 204.985Z" fill="white"/>
<path opacity="0.2" d="M380.225 157.151C379.317 158.002 378.227 158.635 377.039 159.003C375.852 159.37 374.596 159.462 373.368 159.272C372.139 159.082 370.97 158.615 369.947 157.906C368.925 157.197 368.076 156.264 367.465 155.178C335.131 182.054 299.16 204.193 260.628 220.931C261.32 221.968 261.768 223.148 261.938 224.384C262.108 225.619 261.997 226.878 261.611 228.064C261.226 229.249 260.577 230.332 259.714 231.23C258.851 232.127 257.796 232.816 256.628 233.245L280.321 271.934C282.875 270.942 285.69 270.857 288.298 271.693C290.907 272.528 293.151 274.235 294.659 276.528C333.195 259.795 369.166 237.656 401.497 210.774C398.637 206.114 399.769 199.489 403.918 195.849L403.984 195.791L380.316 157.093L380.225 157.151ZM342.624 236.371C333.062 242.241 320.311 238.858 314.526 229.298C308.741 219.737 311.948 207.665 321.509 201.802C331.071 195.94 343.301 198.486 349.144 208.079C354.987 217.673 352.218 230.517 342.624 236.371Z" fill="black"/>
<g opacity="0.2">
<path d="M339.516 227.142L341.086 229.712L339.202 230.865C338.69 230.036 338.169 229.207 337.648 228.328C335.318 229.563 332.69 230.144 330.847 229.829C330.723 228.85 330.599 227.872 330.467 226.893C332.418 227.098 334.386 226.736 336.136 225.848C335.205 224.323 334.274 222.797 333.343 221.271C330.417 222.217 327.161 223.021 325.211 219.837C323.781 217.499 324.252 214.456 327.624 211.927L326.046 209.34L327.922 208.179L329.475 210.724C331.152 209.782 333.033 209.264 334.954 209.215C335.12 210.185 335.277 211.155 335.442 212.117C333.9 212.17 332.384 212.537 330.988 213.195L333.814 217.822C336.739 216.868 339.971 215.923 341.913 219.099C343.342 221.437 342.88 224.547 339.516 227.142ZM331.649 218.502C330.817 217.142 329.99 215.782 329.17 214.422C327.69 215.674 327.517 216.91 328.12 217.922C328.723 218.933 330.079 218.925 331.649 218.502ZM339.128 221.155C338.442 220.028 337.12 220.135 335.508 220.591L337.987 224.646C339.508 223.361 339.731 222.134 339.128 221.155Z" fill="black"/>
</g>
<path opacity="0.2" d="M414 204.986C375.567 239.012 331.553 266.104 283.907 285.06L267.487 258.211L264.619 216.612C264.619 216.612 355.771 223.212 414 204.986Z" fill="black"/>
<path d="M425.024 285.5C375.136 297.294 323.589 300.332 272.668 294.48C271.258 270.229 269.842 245.976 268.42 221.72C319.352 227.584 370.911 224.545 420.809 212.74C422.203 236.996 423.608 261.25 425.024 285.5Z" fill="url(#paint8_linear_3362_78514)"/>
<path opacity="0.4" d="M425.024 285.5C375.136 297.294 323.589 300.332 272.668 294.48C271.258 270.229 269.842 245.976 268.42 221.72C319.352 227.584 370.911 224.545 420.809 212.74C422.203 236.996 423.608 261.25 425.024 285.5Z" fill="white"/>
<path opacity="0.2" d="M417.768 227.316C416.566 227.624 415.309 227.656 414.092 227.41C412.876 227.165 411.73 226.647 410.74 225.896C409.75 225.144 408.941 224.179 408.374 223.071C407.806 221.964 407.495 220.742 407.463 219.497C366.314 227.872 324.187 230.343 282.346 226.835C282.467 228.077 282.305 229.329 281.874 230.499C281.442 231.669 280.751 232.725 279.854 233.588C278.956 234.451 277.875 235.098 276.692 235.481C275.509 235.864 274.255 235.973 273.024 235.799C273.911 250.917 274.792 266.036 275.668 281.155C278.387 281.486 280.91 282.743 282.817 284.715C284.723 286.687 285.899 289.256 286.147 291.992C327.989 295.499 370.115 293.029 411.264 284.654C410.942 279.189 415.058 273.874 420.421 272.664H420.504L417.851 227.316H417.768ZM347.342 279.347C336.153 279.985 326.533 270.956 325.856 259.787C325.178 248.618 333.764 239.497 344.954 238.858C356.143 238.22 365.705 246.321 366.358 257.49C367.011 268.659 358.523 278.725 347.342 279.347Z" fill="black"/>
<g opacity="0.2">
<path d="M348.912 269.738L349.086 272.739L346.888 272.872L346.714 269.895C344.337 269.962 341.996 269.3 340.004 267.996C340.359 267.076 340.706 266.156 341.053 265.235C342.678 266.336 344.581 266.948 346.54 267.001C346.441 265.21 346.337 263.422 346.226 261.637C343.21 261.081 339.954 260.252 339.739 256.521C339.582 253.784 341.433 251.33 345.59 250.716L345.417 247.69L347.615 247.557L347.788 250.534C349.71 250.489 351.613 250.925 353.325 251.803L352.383 254.589C351.001 253.902 349.494 253.507 347.954 253.428L348.276 258.851C351.292 259.389 354.59 260.086 354.813 263.826C355.003 266.52 353.135 269.049 348.912 269.738ZM346.045 258.386C345.945 256.8 345.852 255.21 345.764 253.618C343.871 254.016 343.127 255.02 343.194 256.205C343.26 257.391 344.491 257.996 346.078 258.386H346.045ZM351.391 264.273C351.317 262.963 350.102 262.424 348.466 262.068L348.739 266.819C350.714 266.396 351.491 265.459 351.391 264.273V264.273Z" fill="black"/>
</g>
<path d="M306.303 285.577C306.518 288.059 306.774 290.582 307.072 293.147H133.279C138.717 247.053 133.279 227.07 133.279 227.07C191.359 222.684 307.072 227.07 307.072 227.07C307.072 227.07 303.576 249.275 305.931 281.074C306.041 282.55 306.165 284.051 306.303 285.577Z" fill="url(#paint9_linear_3362_78514)"/>
<path opacity="0.2" d="M307.072 227.07C299.46 230.635 262.231 231.141 240.811 229.806C219.39 228.471 191.359 232.542 191.359 232.542C175.128 226.921 133.279 227.07 133.279 227.07C191.359 222.684 307.072 227.07 307.072 227.07Z" fill="white"/>
<path opacity="0.2" d="M133.279 293.147C138.717 247.053 133.279 227.07 133.279 227.07C133.279 227.07 167.732 226.315 191.359 232.542C191.359 232.542 192.185 239.574 191.359 243.189C191.359 243.189 219.779 238.562 245.075 239.176C245.075 239.176 205.92 243.695 191.359 247.053C191.359 247.053 167.939 243.388 153.121 243.189C153.121 243.189 183.929 247.21 191.359 249.615C191.359 249.615 200.168 248.006 204.78 248.006C204.78 248.006 193.747 250.021 191.359 251.821V264.557C191.359 264.557 166.765 265.046 154.427 263.28C160.286 264.2 184.177 267.89 191.359 267.89C191.359 267.89 218.498 266.887 234.257 267.89C234.257 267.89 198.35 269.963 191.359 271.638H160.534L191.359 274.233V276.812H204.581L191.359 279.101C191.359 279.101 153.121 276.663 142.122 279.101C142.122 279.101 187.252 281.157 191.309 282.757L191.359 286.571C191.359 286.571 241.968 279.863 286.726 285.635C286.726 285.635 221.365 283.031 191.359 290.328C191.359 290.328 285.246 288.28 307.055 293.147H133.279Z" fill="black"/>
<path d="M134.296 232.542L129.709 234.151C129.709 234.151 157.336 235.105 175.162 237.841C175.145 237.841 147.684 232.94 134.296 232.542Z" fill="url(#paint10_linear_3362_78514)"/>
<path opacity="0.2" d="M195.383 237.84L202.375 239.175C202.375 239.175 234.927 235.626 273.404 235.195C273.404 235.195 217.828 232.492 195.383 237.84Z" fill="white"/>
<path opacity="0.2" d="M217.44 245.345C217.44 245.345 236.96 240.005 254.074 240.27C271.189 240.536 303.766 237.841 303.766 237.841L305.047 240.27C305.047 240.27 279.503 241.771 258.421 241.597C244.677 241.623 230.962 242.878 217.44 245.345V245.345Z" fill="white"/>
<path opacity="0.2" d="M198.069 253.33C198.069 253.33 221.341 248.355 244.158 248.811C266.975 249.267 295.709 251.058 295.709 251.058C295.709 251.058 233.348 251.058 217.44 254.375L198.069 253.33Z" fill="white"/>
<path d="M238.323 246.101C238.323 246.101 258.363 244.442 275.66 245.346C292.957 246.25 311.121 247.062 311.121 247.062L305.047 248.787C305.047 248.787 263.405 244.6 238.323 246.101Z" fill="url(#paint11_linear_3362_78514)"/>
<path opacity="0.2" d="M238.323 246.101C238.323 246.101 258.363 244.442 275.66 245.346C292.957 246.25 311.121 247.062 311.121 247.062L305.047 248.787C305.047 248.787 263.405 244.6 238.323 246.101Z" fill="black"/>
<path opacity="0.2" d="M198.821 257.55C198.821 257.55 233.53 257.119 250.248 256.282C266.966 255.444 289.387 260.096 289.387 260.096C289.387 260.096 261.727 259.507 253.165 260.867L198.821 257.55Z" fill="black"/>
<path opacity="0.2" d="M195.383 262.825L217.44 260.868L264.429 262.825L216.837 264.782L195.383 262.825Z" fill="white"/>
<path opacity="0.2" d="M211.878 273.213C211.878 273.213 243.951 270.212 256.446 270.054C268.941 269.897 302.568 267.641 302.568 267.641L298.832 272.616C298.832 272.616 235.604 271.265 211.878 273.213Z" fill="white"/>
<path d="M293.205 256.282L305.047 257.401L308.27 256.282C303.259 255.812 298.215 255.812 293.205 256.282V256.282Z" fill="url(#paint12_linear_3362_78514)"/>
<path d="M306.543 231.2L311.121 231.938L306.204 234.517L277.28 233.903C277.28 233.903 298.965 233.613 306.543 231.2Z" fill="url(#paint13_linear_3362_78514)"/>
<path opacity="0.2" d="M293.205 256.282L305.047 257.401L308.27 256.282C303.259 255.812 298.215 255.812 293.205 256.282V256.282Z" fill="white"/>
<path opacity="0.2" d="M306.543 231.2L311.121 231.938L306.204 234.517L277.28 233.903C277.28 233.903 298.965 233.613 306.543 231.2Z" fill="black"/>
<path opacity="0.2" d="M306.303 285.575C298.535 285.07 244.1 278.204 244.1 278.204C247.728 277.781 295.246 280.6 305.931 281.073C306.042 282.549 306.166 284.05 306.303 285.575Z" fill="black"/>
<path d="M224.341 277.267C224.341 277.267 275.239 277.134 289.8 278.187C304.361 279.241 305.667 277.267 305.667 277.267L312.923 280.775C312.923 280.775 313.295 284.257 294.197 281.828C275.098 279.398 224.341 277.267 224.341 277.267Z" fill="url(#paint14_linear_3362_78514)"/>
<path d="M182.756 251.59C182.756 251.59 152.948 246.847 135.568 248.057C138.18 248.653 140.614 249.864 142.667 251.59H182.756Z" fill="url(#paint15_linear_3362_78514)"/>
<path d="M135.535 264.557C136.213 264.482 157.848 267.343 166.112 267.641L132.478 269.001L135.535 264.557Z" fill="url(#paint16_linear_3362_78514)"/>
<path d="M134.313 283.313L166.988 284.474L129.709 287.243L134.313 283.313Z" fill="url(#paint17_linear_3362_78514)"/>
<path d="M193.846 224.83C193.846 224.83 240.257 232.79 267.173 200.925L317.881 213.984C317.881 213.984 308.551 233.404 238.472 230.825C168.393 228.246 193.846 224.83 193.846 224.83Z" fill="url(#paint18_linear_3362_78514)"/>
<path opacity="0.5" d="M193.846 224.83C193.846 224.83 240.257 232.79 267.173 200.925L317.881 213.984C317.881 213.984 308.551 233.404 238.472 230.825C168.393 228.246 193.846 224.83 193.846 224.83Z" fill="white"/>
<path opacity="0.2" d="M220.35 226.549C220.35 226.549 248.72 225.048 264.76 206.839C266.233 207.296 267.808 207.299 269.282 206.846C270.755 206.394 272.059 205.507 273.024 204.302L310.039 214.144C310.039 214.144 306.056 215.545 307.452 220.172C307.419 220.172 258.835 239.923 220.35 226.549Z" fill="black"/>
<path d="M262.694 134.195L263.561 129.576C263.561 129.576 261.768 127.868 261.975 126.26C262.181 124.651 270.164 122.114 271.577 121.973C272.991 121.832 272.453 127.636 272.024 128.689C271.594 129.742 266.801 131.011 266.801 131.011L266.197 135.878L262.694 134.195Z" fill="#EBB376"/>
<path d="M170.657 156.898L167.492 153.432C167.492 153.432 168.112 151.035 167.104 149.808C166.096 148.581 157.956 150.596 156.699 151.251C155.443 151.906 158.931 156.525 159.856 157.188C160.782 157.851 165.509 156.359 165.509 156.359L168.583 160.181L170.657 156.898Z" fill="#EBB376"/>
<path d="M233.604 149.45C242.505 148.953 250.571 150.819 254.711 149.45C258.851 148.082 262.867 130.802 262.867 130.802L267.223 132.278C267.223 132.278 265.57 150.263 258.413 155.081C251.256 159.898 234.671 159.857 234.671 159.857L233.604 149.45Z" fill="url(#paint19_linear_3362_78514)"/>
<path opacity="0.7" d="M267.223 132.278C267.223 132.278 265.57 150.263 258.413 155.081C254.281 157.817 247.199 158.986 241.819 159.492C237.745 159.865 234.671 159.857 234.671 159.857L234.175 154.998L233.604 149.45C242.505 148.953 250.571 150.819 254.711 149.45C258.851 148.082 262.867 130.802 262.867 130.802L267.223 132.278Z" fill="white"/>
<path opacity="0.2" d="M241.819 159.492C237.744 159.865 234.67 159.857 234.67 159.857L234.174 154.998C236.945 156.078 239.525 157.595 241.819 159.492V159.492Z" fill="black"/>
<path d="M290.502 289.133L296.262 287.549L295.229 273.437L289.478 275.029L290.502 289.133Z" fill="#B97964"/>
<path d="M296.618 286.779L289.924 287.243C289.812 287.247 289.705 287.296 289.628 287.378C289.551 287.46 289.509 287.57 289.511 287.683V287.683L289.552 293.014C289.571 293.293 289.699 293.553 289.908 293.738C290.117 293.922 290.39 294.017 290.668 294.001C292.998 293.802 294.106 293.586 297.048 293.362C299.673 293.273 302.288 292.996 304.874 292.533C307.353 291.961 306.692 289.557 305.601 289.581C302.783 289.429 300.052 288.546 297.676 287.019C297.359 286.826 296.987 286.741 296.618 286.779V286.779Z" fill="#153553"/>
<path d="M298.8 287.65C298.263 287.675 297.726 287.642 297.196 287.551C297.17 287.547 297.144 287.536 297.124 287.518C297.103 287.5 297.088 287.477 297.081 287.451C297.077 287.425 297.078 287.398 297.086 287.372C297.093 287.347 297.105 287.323 297.122 287.302C297.304 287.153 298.915 285.884 299.667 286.116C299.752 286.144 299.829 286.192 299.889 286.257C299.95 286.323 299.993 286.403 300.014 286.489C300.072 286.618 300.092 286.761 300.072 286.9C300.051 287.04 299.991 287.171 299.899 287.277C299.589 287.531 299.199 287.663 298.8 287.65ZM299.585 286.407C299.188 286.282 298.229 286.854 297.568 287.343C298.651 287.476 299.428 287.393 299.692 287.095C299.745 287.023 299.779 286.939 299.791 286.85C299.802 286.762 299.791 286.672 299.758 286.589C299.745 286.547 299.722 286.509 299.692 286.478C299.662 286.446 299.625 286.422 299.585 286.407V286.407Z" fill="#153553"/>
<path d="M297.221 287.549C297.212 287.554 297.202 287.556 297.192 287.556C297.182 287.556 297.172 287.554 297.163 287.549C297.143 287.539 297.126 287.525 297.111 287.508C297.097 287.491 297.087 287.471 297.08 287.45C297.08 287.392 296.824 285.667 297.378 285.037C297.451 284.958 297.541 284.896 297.641 284.856C297.741 284.816 297.849 284.799 297.956 284.805C298.075 284.801 298.192 284.836 298.289 284.905C298.385 284.974 298.457 285.073 298.493 285.186C298.667 285.833 297.865 287.143 297.303 287.533C297.292 287.541 297.278 287.547 297.264 287.55C297.25 287.553 297.235 287.553 297.221 287.549V287.549ZM297.882 285.111C297.826 285.114 297.771 285.128 297.721 285.154C297.671 285.18 297.627 285.216 297.593 285.261C297.302 285.854 297.212 286.527 297.336 287.176C297.852 286.679 298.167 286.009 298.221 285.294C298.221 285.211 298.146 285.12 297.948 285.111H297.882Z" fill="#153553"/>
<path opacity="0.2" d="M289.478 275.029L295.238 273.446L295.824 281.513L290.031 282.807L289.478 275.029Z" fill="black"/>
<path d="M282.965 288.925L277.519 291.421L276.139 285.55L274.28 277.656L279.701 275.161L281.569 283.046L282.965 288.925Z" fill="#B97964"/>
<path opacity="0.2" d="M281.569 283.046L276.139 285.55L274.28 277.656L279.701 275.161L281.569 283.046Z" fill="black"/>
<path d="M283.188 288.114L276.66 289.648C276.55 289.668 276.453 289.731 276.39 289.822C276.326 289.914 276.302 290.027 276.321 290.137V290.137L277.213 295.402C277.24 295.539 277.293 295.67 277.371 295.786C277.448 295.902 277.548 296.002 277.664 296.079C277.78 296.156 277.911 296.21 278.047 296.236C278.184 296.262 278.325 296.26 278.461 296.231C280.734 295.659 281.767 295.27 284.659 294.573C287.239 294.082 289.779 293.406 292.262 292.55C294.584 291.596 293.584 289.324 292.518 289.523C289.99 289.979 286.205 289.15 284.254 288.246C283.924 288.084 283.548 288.038 283.188 288.114Z" fill="#153553"/>
<path d="M285.486 288.628C284.958 288.736 284.421 288.786 283.882 288.777C283.855 288.781 283.828 288.776 283.804 288.762C283.78 288.749 283.761 288.728 283.75 288.702C283.738 288.68 283.731 288.654 283.731 288.628C283.731 288.602 283.738 288.576 283.75 288.553C283.907 288.379 285.287 286.895 286.072 286.97C286.159 286.985 286.241 287.021 286.311 287.076C286.38 287.131 286.434 287.203 286.469 287.285C286.551 287.407 286.594 287.552 286.594 287.699C286.594 287.847 286.551 287.991 286.469 288.114C286.21 288.394 285.863 288.575 285.486 288.628V288.628ZM286.064 287.276C285.643 287.21 284.791 287.931 284.213 288.52C285.304 288.479 286.064 288.271 286.271 287.94C286.317 287.862 286.342 287.773 286.342 287.683C286.342 287.592 286.317 287.503 286.271 287.426C286.256 287.386 286.23 287.35 286.197 287.324C286.163 287.298 286.123 287.281 286.081 287.276H286.064Z" fill="#153553"/>
<path d="M283.907 288.777C283.9 288.781 283.891 288.783 283.883 288.783C283.874 288.783 283.866 288.781 283.858 288.777C283.836 288.77 283.815 288.758 283.798 288.743C283.781 288.727 283.767 288.708 283.759 288.686C283.759 288.636 283.213 286.961 283.668 286.256C283.727 286.167 283.805 286.091 283.896 286.035C283.988 285.98 284.09 285.945 284.197 285.933C284.315 285.909 284.438 285.925 284.546 285.979C284.654 286.033 284.74 286.122 284.792 286.232C285.064 286.837 284.486 288.263 283.965 288.719C283.962 288.733 283.955 288.747 283.945 288.757C283.935 288.767 283.922 288.774 283.907 288.777V288.777ZM284.172 286.29C284.063 286.317 283.968 286.386 283.907 286.48C283.718 287.116 283.736 287.796 283.957 288.421C284.388 287.848 284.597 287.138 284.544 286.422C284.544 286.339 284.436 286.256 284.238 286.281L284.172 286.29Z" fill="#153553"/>
<path d="M242.612 208.786L240.852 189.284L208.399 190.047C208.399 190.047 204.556 217.219 207.35 222.211C212.308 231.124 245.05 226.066 252.703 226.821C255.826 228.479 272.536 284.092 272.536 284.092L281.899 280.303C281.899 280.303 271.834 233.38 269.503 224.541C266.355 212.252 253.364 212.468 242.612 208.786Z" fill="#153553"/>
<path d="M296.394 279.341L288.13 280.104C288.13 280.104 278.007 228.372 277.222 228.148C275.817 227.741 271.71 227.277 269.503 226.697C254.182 222.7 216.448 215.345 216.448 215.345L230.365 201.896C230.365 201.896 293.452 209.491 294.824 224.35C295.527 231.464 296.394 279.341 296.394 279.341Z" fill="#153553"/>
<path opacity="0.2" d="M274.999 228.189C273.585 227.783 271.693 227.285 269.503 226.705C270.115 227.028 268.346 218.977 266.578 216.896C263.065 212.75 248.967 210.495 243.918 209.682C239.686 209.002 225.505 207.75 225.505 207.75C225.505 207.75 250.545 205.577 269.412 210.776C278.742 213.347 277.081 222.484 274.999 228.189Z" fill="black"/>
<path d="M204.069 154.185C204.069 154.185 216.043 147.809 233.604 149.45C233.604 149.45 239.695 164.989 240.852 189.251L208.201 191.523C208.201 191.523 208.788 170.727 204.069 154.185Z" fill="url(#paint20_linear_3362_78514)"/>
<path opacity="0.7" d="M208.201 191.556C208.284 185.894 208.075 180.231 207.573 174.591C207.284 171.274 206.87 167.784 206.275 164.226C205.729 160.84 204.992 157.488 204.069 154.185C204.069 154.185 216.043 147.809 233.604 149.45C233.604 149.45 239.695 164.989 240.852 189.251L208.201 191.556Z" fill="white"/>
<path opacity="0.2" d="M207.597 174.592C207.308 171.275 206.895 167.784 206.3 164.227C206.88 163.636 207.578 163.175 208.349 162.876L208.391 162.511C208.366 162.909 210.076 169.036 207.597 174.592Z" fill="black"/>
<path d="M213.118 151.93C216.109 154.658 223.431 153.646 223.431 153.646C223.431 153.646 228.001 152.394 227.043 150.96C224.348 150.512 223.051 149.251 222.506 147.643C222.216 146.639 222.124 145.589 222.233 144.55C222.233 143.986 222.365 143.406 222.464 142.834L213.382 136.109C214.597 140.545 216.051 148.713 213.118 151.93Z" fill="#EBB376"/>
<path opacity="0.2" d="M215.498 140.379C215.861 145.827 220.324 147.336 222.505 147.643C222.216 146.639 222.123 145.589 222.233 144.55L215.498 140.379Z" fill="black"/>
<path d="M221.241 117.419C224.605 118.331 227.406 126.117 224.886 131.267C222.365 136.416 214.771 122.013 214.771 122.013C214.771 122.013 219.068 116.839 221.241 117.419Z" fill="#153553"/>
<path d="M228.258 135.281C228.274 135.596 228.274 135.912 228.258 136.226C228.2 138.473 227.297 140.615 225.729 142.221C224.328 143.685 222.433 144.572 220.415 144.709C218.98 144.78 217.552 144.459 216.283 143.78C212.267 141.732 211.184 138.183 208.846 132.329C208.263 130.967 208.041 129.477 208.201 128.004C208.361 126.53 208.898 125.123 209.759 123.919C210.62 122.714 211.777 121.753 213.117 121.129C214.457 120.505 215.935 120.239 217.407 120.356C224.018 120.845 227.746 129.477 228.258 135.281Z" fill="#EBB376"/>
<path d="M218.44 130.959C218.564 131.448 218.977 131.788 219.266 131.647C219.556 131.506 219.713 131.058 219.556 130.577C219.399 130.096 219.002 129.748 218.729 129.889C218.456 130.03 218.283 130.461 218.44 130.959Z" fill="#153553"/>
<path d="M223.919 129.153C224.043 129.643 224.464 129.941 224.745 129.842C225.026 129.742 225.191 129.253 225.034 128.764C224.877 128.274 224.489 127.976 224.208 128.075C223.927 128.175 223.77 128.689 223.919 129.153Z" fill="#153553"/>
<path d="M222.258 129.966C223.323 131.262 224.561 132.406 225.935 133.366C225.68 133.715 225.352 134.004 224.974 134.211C224.595 134.419 224.176 134.541 223.745 134.568L222.258 129.966Z" fill="#D58745"/>
<path d="M225.184 126.158C225.144 126.196 225.095 126.225 225.042 126.241C224.989 126.257 224.933 126.259 224.878 126.249C224.516 126.15 224.137 126.137 223.769 126.212C223.402 126.287 223.057 126.447 222.762 126.68C222.706 126.735 222.629 126.765 222.55 126.764C222.471 126.762 222.396 126.729 222.341 126.672C222.286 126.615 222.256 126.538 222.258 126.459C222.259 126.379 222.292 126.304 222.349 126.249V126.249C222.716 125.947 223.15 125.736 223.614 125.635C224.078 125.534 224.56 125.546 225.019 125.669C225.057 125.676 225.094 125.692 225.127 125.714C225.159 125.736 225.187 125.765 225.209 125.798C225.23 125.831 225.245 125.868 225.252 125.907C225.259 125.946 225.258 125.986 225.25 126.025C225.233 126.072 225.211 126.116 225.184 126.158V126.158Z" fill="#153553"/>
<path d="M216.63 129.119C216.574 129.14 216.513 129.14 216.457 129.119C216.389 129.079 216.34 129.014 216.32 128.938C216.299 128.862 216.31 128.781 216.349 128.713V128.713C216.59 128.3 216.926 127.951 217.328 127.694C217.731 127.437 218.188 127.281 218.663 127.237C218.702 127.236 218.741 127.242 218.778 127.256C218.814 127.27 218.848 127.291 218.876 127.318C218.904 127.345 218.927 127.378 218.943 127.413C218.959 127.449 218.968 127.488 218.969 127.527V127.527C218.969 127.606 218.939 127.681 218.885 127.738C218.831 127.795 218.758 127.83 218.68 127.834C218.306 127.879 217.947 128.011 217.633 128.22C217.319 128.429 217.057 128.708 216.87 129.036C216.838 129.066 216.8 129.089 216.759 129.103C216.717 129.117 216.674 129.123 216.63 129.119V129.119Z" fill="#153553"/>
<path d="M210.78 123.372L212.077 125.859C211.726 126.241 211.531 126.741 211.531 127.261C211.531 127.78 211.726 128.281 212.077 128.662C213.73 130.519 213.796 134.367 212.639 136.357C212.639 136.357 212.234 135.436 211.523 135.959C210.813 136.481 212.912 141.315 215.35 143.065C215.35 143.065 212.201 141.846 208.912 137.194C205.871 132.899 204.202 128.977 204.474 126.755L210.78 123.372Z" fill="#153553"/>
<path d="M207.862 138.025C208.962 139.16 210.466 139.811 212.044 139.833C214.143 139.833 214.639 137.835 213.597 136.135C212.664 134.634 210.441 132.769 208.565 133.589C206.689 134.41 206.523 136.616 207.862 138.025Z" fill="#EBB376"/>
<path d="M224.39 136.648C224.01 137.483 223.689 138.345 223.432 139.227L222.952 139.169C220.787 138.878 219.87 138.024 219.523 137.162C219.361 136.74 219.302 136.285 219.349 135.835C219.366 135.577 219.422 135.323 219.514 135.081C220.771 135.86 222.181 136.358 223.646 136.54C224.126 136.623 224.39 136.648 224.39 136.648Z" fill="#153553"/>
<path d="M223.655 136.54L223.349 137.295C221.308 137.013 219.903 136.54 219.349 135.835C219.366 135.577 219.422 135.323 219.514 135.081C220.773 135.861 222.186 136.359 223.655 136.54V136.54Z" fill="white"/>
<path d="M222.952 139.169C220.787 138.878 219.87 138.024 219.522 137.162C220.347 137.3 221.141 137.58 221.869 137.991C222.343 138.262 222.721 138.673 222.952 139.169V139.169Z" fill="#DE5753"/>
<path d="M216.308 123.804C216.308 123.804 215.729 119.841 218.225 120.612C220.721 121.383 220.894 119.874 220.151 116.814C219.407 113.754 212.25 112.668 208.201 117.685C204.151 122.701 202.738 126.905 204.697 129.127C206.655 131.349 214.118 124.791 214.118 124.791C214.321 123.67 214.795 122.617 215.498 121.723C215.544 122.485 215.827 123.213 216.308 123.804V123.804Z" fill="#153553"/>
<path d="M220.167 153.331L224.125 156.838C224.125 156.838 226.299 171.598 231.637 178.049H234.943L235.596 175.76C230.63 170.197 227.065 163.521 225.2 156.291V151.59L220.167 153.331Z" fill="#153553"/>
<path d="M214.126 148.736L222.258 151.796L222.952 147.641L227.175 149.175L228.258 154.424L222.506 152.998L219.655 156.829L211.366 151.447L214.126 148.736Z" fill="url(#paint21_linear_3362_78514)"/>
<path opacity="0.5" d="M214.126 148.736L222.258 151.796L222.952 147.641L227.175 149.175L228.258 154.424L222.506 152.998L219.655 156.829L211.366 151.447L214.126 148.736Z" fill="white"/>
<path d="M207.738 191.009L241.232 187.817L241.307 191.896L207.755 194.649L207.738 191.009Z" fill="black"/>
<path d="M234.142 188.655C233.99 188.518 233.812 188.415 233.618 188.352C233.425 188.29 233.22 188.268 233.018 188.29L230.051 188.597C229.684 188.635 229.345 188.809 229.1 189.085C228.855 189.361 228.723 189.72 228.729 190.09V191.997C228.737 192.389 228.9 192.762 229.182 193.034C229.464 193.306 229.842 193.455 230.233 193.448H230.357L233.324 193.133C233.689 193.095 234.028 192.921 234.271 192.644C234.515 192.368 234.646 192.009 234.637 191.64V189.741C234.636 189.535 234.592 189.332 234.506 189.145C234.421 188.957 234.296 188.791 234.142 188.655V188.655ZM233.274 192.37L230.315 192.685C230.214 192.699 230.111 192.691 230.012 192.663C229.914 192.634 229.823 192.585 229.745 192.518C229.667 192.452 229.604 192.369 229.56 192.277C229.516 192.184 229.492 192.083 229.489 191.98V190.081C229.486 189.901 229.55 189.726 229.67 189.591C229.789 189.456 229.955 189.37 230.134 189.352L233.092 189.045H233.158C233.346 189.045 233.526 189.119 233.661 189.25C233.795 189.382 233.873 189.561 233.877 189.75V190.007H233.761L232.935 190.081C232.869 190.087 232.805 190.106 232.746 190.137C232.687 190.168 232.635 190.211 232.592 190.262C232.549 190.313 232.517 190.372 232.497 190.436C232.478 190.499 232.47 190.566 232.476 190.633C232.482 190.699 232.501 190.764 232.532 190.823C232.563 190.882 232.605 190.934 232.656 190.977C232.707 191.02 232.766 191.052 232.83 191.072C232.893 191.092 232.96 191.099 233.026 191.093L233.852 191.01H233.894V191.665C233.893 191.838 233.83 192.005 233.716 192.135C233.602 192.264 233.445 192.348 233.274 192.37V192.37Z" fill="white"/>
<path d="M204.069 154.184C198.483 157.501 190.417 168.421 187.583 168.197C184.748 167.973 169.46 154.35 169.46 154.35L165.972 158.139C165.972 158.139 180.095 175.063 186.674 176.34C193.252 177.617 207.739 165.378 207.739 165.378C208.558 163.269 208.558 160.928 207.739 158.819C206.996 156.946 205.719 155.334 204.069 154.184V154.184Z" fill="url(#paint22_linear_3362_78514)"/>
<path opacity="0.7" d="M204.069 154.184C198.483 157.501 190.417 168.421 187.583 168.197C184.748 167.973 169.46 154.35 169.46 154.35L165.972 158.139C165.972 158.139 180.095 175.063 186.674 176.34C193.252 177.617 207.739 165.378 207.739 165.378C208.558 163.269 208.558 160.928 207.739 158.819C206.996 156.946 205.719 155.334 204.069 154.184V154.184Z" fill="white"/>
<path d="M255.207 231.265C255.207 231.265 144.296 232.036 137.412 216.406L186.806 212.808C196.608 216.934 206.641 220.486 216.854 223.446C228.258 226.788 241.778 229.955 255.207 231.265Z" fill="url(#paint23_linear_3362_78514)"/>
<path opacity="0.2" d="M255.207 231.267C255.207 231.267 251.728 231.267 245.943 231.267C222.217 229.608 194.516 217.784 194.516 217.784C184.516 219.99 177.641 216.035 177.641 216.035L150.683 217.585C150.829 218.251 150.822 218.942 150.665 219.605C150.508 220.268 150.203 220.887 149.774 221.416C163.749 225.355 178.814 227.751 191.095 229.202C165.154 227.253 140.535 223.539 137.378 216.433L186.772 212.834C186.772 212.834 221.275 227.95 255.207 231.267Z" fill="white"/>
<path opacity="0.2" d="M255.207 231.264C255.207 231.264 144.296 232.035 137.412 216.405C137.412 216.405 174.889 232.649 216.854 223.445C228.258 226.786 241.778 229.954 255.207 231.264Z" fill="black"/>
<g filter="url(#filter0_d_3362_78514)">
<rect x="33" y="329.5" width="199" height="147" rx="14.6025" fill="#738698"/>
</g>
<path d="M91.3623 366.5V359.345H92.5378V366.5H91.3623ZM92.1698 366.5V365.427H95.911V366.5H92.1698ZM100.031 366.602C99.5202 366.602 99.0432 366.507 98.6002 366.316C98.1573 366.125 97.7689 365.863 97.435 365.529C97.1011 365.188 96.8387 364.796 96.6479 364.353C96.4639 363.904 96.3719 363.423 96.3719 362.912C96.3719 362.401 96.4639 361.924 96.6479 361.481C96.8387 361.038 97.0976 360.65 97.4247 360.316C97.7586 359.975 98.1437 359.713 98.5798 359.529C99.0227 359.338 99.4997 359.243 100.011 359.243C100.522 359.243 100.996 359.338 101.432 359.529C101.875 359.713 102.263 359.975 102.597 360.316C102.931 360.65 103.19 361.042 103.374 361.491C103.565 361.934 103.66 362.411 103.66 362.922C103.66 363.433 103.565 363.914 103.374 364.364C103.19 364.807 102.931 365.195 102.597 365.529C102.27 365.863 101.885 366.125 101.442 366.316C101.006 366.507 100.536 366.602 100.031 366.602ZM100.011 365.478C100.495 365.478 100.917 365.369 101.278 365.151C101.646 364.933 101.933 364.633 102.137 364.251C102.348 363.863 102.454 363.416 102.454 362.912C102.454 362.537 102.392 362.197 102.27 361.89C102.154 361.577 101.987 361.307 101.769 361.082C101.551 360.851 101.292 360.674 100.992 360.551C100.699 360.428 100.372 360.367 100.011 360.367C99.5338 360.367 99.1113 360.476 98.7433 360.694C98.3822 360.905 98.096 361.202 97.8847 361.583C97.6803 361.965 97.5781 362.408 97.5781 362.912C97.5781 363.287 97.636 363.635 97.7518 363.955C97.8745 364.268 98.0414 364.537 98.2527 364.762C98.4708 364.987 98.7297 365.164 99.0295 365.294C99.3294 365.416 99.6565 365.478 100.011 365.478ZM108.492 366.602C107.974 366.602 107.494 366.51 107.051 366.326C106.615 366.135 106.233 365.873 105.906 365.539C105.579 365.198 105.327 364.807 105.15 364.364C104.973 363.914 104.884 363.433 104.884 362.922C104.884 362.411 104.973 361.934 105.15 361.491C105.327 361.042 105.579 360.65 105.906 360.316C106.233 359.982 106.615 359.72 107.051 359.529C107.494 359.338 107.974 359.243 108.492 359.243C109.072 359.243 109.572 359.338 109.995 359.529C110.417 359.72 110.792 359.979 111.119 360.306L110.322 361.103C110.111 360.871 109.852 360.691 109.545 360.561C109.245 360.432 108.894 360.367 108.492 360.367C108.138 360.367 107.814 360.428 107.521 360.551C107.228 360.674 106.973 360.851 106.755 361.082C106.543 361.307 106.38 361.577 106.264 361.89C106.148 362.203 106.09 362.548 106.09 362.922C106.09 363.297 106.148 363.641 106.264 363.955C106.38 364.268 106.543 364.541 106.755 364.773C106.973 364.997 107.228 365.171 107.521 365.294C107.814 365.416 108.138 365.478 108.492 365.478C108.929 365.478 109.296 365.413 109.596 365.284C109.903 365.147 110.162 364.963 110.373 364.732L111.17 365.529C110.843 365.863 110.458 366.125 110.015 366.316C109.572 366.507 109.065 366.602 108.492 366.602ZM116.85 366.5L113.538 362.769L116.778 359.345H118.281L114.703 363.066L114.714 362.422L118.383 366.5H116.85ZM112.526 366.5V359.345H113.702V366.5H112.526ZM119.521 366.5V359.345H120.696V366.5H119.521ZM120.328 366.5V365.427H124.335V366.5H120.328ZM120.328 363.362V362.33H123.988V363.362H120.328ZM120.328 360.418V359.345H124.284V360.418H120.328ZM126.664 366.5V365.427H128.545C129.036 365.427 129.465 365.321 129.833 365.11C130.208 364.899 130.497 364.606 130.702 364.231C130.913 363.849 131.019 363.41 131.019 362.912C131.019 362.422 130.913 361.989 130.702 361.614C130.49 361.239 130.197 360.946 129.823 360.735C129.455 360.524 129.029 360.418 128.545 360.418H126.664V359.345H128.576C129.093 359.345 129.574 359.437 130.017 359.621C130.46 359.798 130.845 360.05 131.172 360.377C131.506 360.697 131.765 361.076 131.949 361.512C132.133 361.941 132.225 362.411 132.225 362.922C132.225 363.427 132.133 363.897 131.949 364.333C131.765 364.769 131.509 365.151 131.182 365.478C130.855 365.798 130.47 366.05 130.027 366.234C129.584 366.411 129.107 366.5 128.596 366.5H126.664ZM125.857 366.5V359.345H127.032V366.5H125.857ZM137.923 366.5L135.572 359.345H136.727L138.495 364.854H138.188L139.916 359.345H140.734L142.461 364.854H142.154L143.923 359.345H145.078L142.727 366.5H141.909L140.171 361.001H140.478L138.74 366.5H137.923ZM145.041 366.5L147.985 359.345H148.803L151.726 366.5H150.459L148.169 360.704H148.599L146.288 366.5H145.041ZM146.493 365.12V364.098H150.285V365.12H146.493ZM152.977 366.5V359.345H154.152V366.5H152.977ZM153.784 366.5V365.427H157.526V366.5H153.784ZM158.904 366.5V359.345H160.079V366.5H158.904ZM159.711 366.5V365.427H163.452V366.5H159.711ZM164.83 366.5V359.345H166.006V366.5H164.83ZM165.638 366.5V365.427H169.645V366.5H165.638ZM165.638 363.362V362.33H169.297V363.362H165.638ZM165.638 360.418V359.345H169.593V360.418H165.638ZM172.715 366.5V359.549H173.891V366.5H172.715ZM170.385 360.418V359.345H176.222V360.418H170.385Z" fill="#F3F5F6"/>
<path d="M95.1794 389.311C94.3334 389.311 93.5945 389.156 92.9627 388.845C92.3416 388.535 91.7741 388.069 91.2601 387.448L92.6736 386.018C93.0056 386.457 93.3804 386.811 93.798 387.079C94.2263 387.336 94.7243 387.464 95.2918 387.464C95.8701 387.464 96.3252 387.346 96.6572 387.111C96.9891 386.875 97.1551 386.543 97.1551 386.115C97.1551 385.772 97.0587 385.494 96.866 385.28C96.6732 385.065 96.4162 384.883 96.095 384.733C95.7844 384.583 95.4417 384.45 95.0669 384.332C94.6921 384.203 94.3174 384.059 93.9426 383.898C93.5678 383.738 93.2197 383.539 92.8985 383.304C92.5879 383.058 92.3363 382.747 92.1435 382.372C91.9615 381.987 91.8705 381.505 91.8705 380.927C91.8705 380.241 92.0311 379.658 92.3523 379.176C92.6843 378.694 93.1341 378.324 93.7016 378.067C94.2799 377.81 94.9331 377.682 95.6613 377.682C96.368 377.682 97.0212 377.826 97.6209 378.116C98.2206 378.405 98.7185 378.779 99.1147 379.24L97.6852 380.67C97.3639 380.305 97.0319 380.027 96.6893 379.834C96.3573 379.642 95.9986 379.545 95.6131 379.545C95.0884 379.545 94.6814 379.647 94.3923 379.85C94.1032 380.043 93.9586 380.343 93.9586 380.75C93.9586 381.06 94.055 381.312 94.2477 381.505C94.4405 381.698 94.6921 381.864 95.0027 382.003C95.3239 382.142 95.672 382.276 96.0468 382.404C96.4323 382.533 96.8124 382.677 97.1872 382.838C97.5727 382.999 97.9208 383.207 98.2313 383.464C98.5526 383.721 98.8096 384.053 99.0023 384.46C99.1951 384.857 99.2914 385.349 99.2914 385.938C99.2914 386.988 98.922 387.812 98.1831 388.412C97.4549 389.011 96.4537 389.311 95.1794 389.311ZM94.7939 388.315H96.3198V390.757H94.7939V388.315ZM96.3198 378.758H94.7939V376.236H96.3198V378.758ZM102.709 389.151V377.859H104.861V389.151H102.709ZM100.492 379.754V377.859H104.701V379.754H100.492ZM106.936 391.062L108.077 388.942L108.735 388.765C108.66 388.904 108.575 389.022 108.478 389.119C108.382 389.215 108.269 389.263 108.141 389.263C107.873 389.263 107.622 389.145 107.386 388.91C107.15 388.674 107.033 388.38 107.033 388.026C107.033 387.641 107.161 387.314 107.418 387.046C107.675 386.779 107.996 386.645 108.382 386.645C108.735 386.645 109.046 386.779 109.314 387.046C109.581 387.314 109.715 387.641 109.715 388.026C109.715 388.176 109.683 388.358 109.619 388.572C109.554 388.776 109.437 389.038 109.265 389.359L108.029 391.64L106.936 391.062ZM115.51 389.311C114.622 389.311 113.818 389.07 113.101 388.588C112.383 388.107 111.811 387.427 111.382 386.548C110.965 385.67 110.756 384.648 110.756 383.481C110.756 382.313 110.965 381.296 111.382 380.429C111.8 379.561 112.362 378.887 113.069 378.405C113.786 377.923 114.584 377.682 115.462 377.682C116.362 377.682 117.165 377.923 117.872 378.405C118.589 378.887 119.157 379.567 119.574 380.445C119.992 381.312 120.201 382.335 120.201 383.513C120.201 384.68 119.992 385.703 119.574 386.581C119.157 387.448 118.594 388.123 117.888 388.605C117.181 389.076 116.388 389.311 115.51 389.311ZM115.478 387.336C115.992 387.336 116.437 387.191 116.811 386.902C117.186 386.613 117.475 386.184 117.679 385.617C117.893 385.049 118 384.343 118 383.497C118 382.651 117.893 381.944 117.679 381.376C117.475 380.809 117.181 380.386 116.795 380.107C116.421 379.818 115.976 379.674 115.462 379.674C114.959 379.674 114.52 379.818 114.145 380.107C113.77 380.386 113.476 380.809 113.262 381.376C113.058 381.933 112.956 382.635 112.956 383.481C112.956 384.337 113.058 385.049 113.262 385.617C113.476 386.184 113.77 386.613 114.145 386.902C114.52 387.191 114.964 387.336 115.478 387.336ZM126.114 389.311C125.225 389.311 124.422 389.07 123.705 388.588C122.987 388.107 122.414 387.427 121.986 386.548C121.569 385.67 121.36 384.648 121.36 383.481C121.36 382.313 121.569 381.296 121.986 380.429C122.404 379.561 122.966 378.887 123.673 378.405C124.39 377.923 125.188 377.682 126.066 377.682C126.966 377.682 127.769 377.923 128.475 378.405C129.193 378.887 129.76 379.567 130.178 380.445C130.596 381.312 130.805 382.335 130.805 383.513C130.805 384.68 130.596 385.703 130.178 386.581C129.76 387.448 129.198 388.123 128.492 388.605C127.785 389.076 126.992 389.311 126.114 389.311ZM126.082 387.336C126.596 387.336 127.041 387.191 127.415 386.902C127.79 386.613 128.079 386.184 128.283 385.617C128.497 385.049 128.604 384.343 128.604 383.497C128.604 382.651 128.497 381.944 128.283 381.376C128.079 380.809 127.785 380.386 127.399 380.107C127.024 379.818 126.58 379.674 126.066 379.674C125.563 379.674 125.124 379.818 124.749 380.107C124.374 380.386 124.08 380.809 123.865 381.376C123.662 381.933 123.56 382.635 123.56 383.481C123.56 384.337 123.662 385.049 123.865 385.617C124.08 386.184 124.374 386.613 124.749 386.902C125.124 387.191 125.568 387.336 126.082 387.336ZM136.718 389.311C135.829 389.311 135.026 389.07 134.309 388.588C133.591 388.107 133.018 387.427 132.59 386.548C132.172 385.67 131.964 384.648 131.964 383.481C131.964 382.313 132.172 381.296 132.59 380.429C133.008 379.561 133.57 378.887 134.277 378.405C134.994 377.923 135.792 377.682 136.67 377.682C137.569 377.682 138.373 377.923 139.079 378.405C139.797 378.887 140.364 379.567 140.782 380.445C141.2 381.312 141.408 382.335 141.408 383.513C141.408 384.68 141.2 385.703 140.782 386.581C140.364 387.448 139.802 388.123 139.095 388.605C138.389 389.076 137.596 389.311 136.718 389.311ZM136.686 387.336C137.2 387.336 137.644 387.191 138.019 386.902C138.394 386.613 138.683 386.184 138.887 385.617C139.101 385.049 139.208 384.343 139.208 383.497C139.208 382.651 139.101 381.944 138.887 381.376C138.683 380.809 138.389 380.386 138.003 380.107C137.628 379.818 137.184 379.674 136.67 379.674C136.167 379.674 135.728 379.818 135.353 380.107C134.978 380.386 134.684 380.809 134.469 381.376C134.266 381.933 134.164 382.635 134.164 383.481C134.164 384.337 134.266 385.049 134.469 385.617C134.684 386.184 134.978 386.613 135.353 386.902C135.728 387.191 136.172 387.336 136.686 387.336ZM144.021 389.311C143.636 389.311 143.32 389.183 143.074 388.926C142.827 388.669 142.704 388.353 142.704 387.978C142.704 387.603 142.827 387.287 143.074 387.03C143.32 386.773 143.636 386.645 144.021 386.645C144.396 386.645 144.707 386.773 144.953 387.03C145.199 387.287 145.322 387.603 145.322 387.978C145.322 388.353 145.199 388.669 144.953 388.926C144.707 389.183 144.396 389.311 144.021 389.311ZM151.369 389.311C150.48 389.311 149.677 389.07 148.96 388.588C148.242 388.107 147.669 387.427 147.241 386.548C146.823 385.67 146.615 384.648 146.615 383.481C146.615 382.313 146.823 381.296 147.241 380.429C147.659 379.561 148.221 378.887 148.928 378.405C149.645 377.923 150.443 377.682 151.321 377.682C152.22 377.682 153.024 377.923 153.73 378.405C154.448 378.887 155.015 379.567 155.433 380.445C155.851 381.312 156.059 382.335 156.059 383.513C156.059 384.68 155.851 385.703 155.433 386.581C155.015 387.448 154.453 388.123 153.746 388.605C153.04 389.076 152.247 389.311 151.369 389.311ZM151.337 387.336C151.851 387.336 152.295 387.191 152.67 386.902C153.045 386.613 153.334 386.184 153.538 385.617C153.752 385.049 153.859 384.343 153.859 383.497C153.859 382.651 153.752 381.944 153.538 381.376C153.334 380.809 153.04 380.386 152.654 380.107C152.279 379.818 151.835 379.674 151.321 379.674C150.818 379.674 150.379 379.818 150.004 380.107C149.629 380.386 149.334 380.809 149.12 381.376C148.917 381.933 148.815 382.635 148.815 383.481C148.815 384.337 148.917 385.049 149.12 385.617C149.334 386.184 149.629 386.613 150.004 386.902C150.379 387.191 150.823 387.336 151.337 387.336ZM161.973 389.311C161.084 389.311 160.281 389.07 159.564 388.588C158.846 388.107 158.273 387.427 157.845 386.548C157.427 385.67 157.218 384.648 157.218 383.481C157.218 382.313 157.427 381.296 157.845 380.429C158.263 379.561 158.825 378.887 159.531 378.405C160.249 377.923 161.047 377.682 161.925 377.682C162.824 377.682 163.627 377.923 164.334 378.405C165.052 378.887 165.619 379.567 166.037 380.445C166.454 381.312 166.663 382.335 166.663 383.513C166.663 384.68 166.454 385.703 166.037 386.581C165.619 387.448 165.057 388.123 164.35 388.605C163.644 389.076 162.851 389.311 161.973 389.311ZM161.941 387.336C162.455 387.336 162.899 387.191 163.274 386.902C163.649 386.613 163.938 386.184 164.141 385.617C164.356 385.049 164.463 384.343 164.463 383.497C164.463 382.651 164.356 381.944 164.141 381.376C163.938 380.809 163.644 380.386 163.258 380.107C162.883 379.818 162.439 379.674 161.925 379.674C161.422 379.674 160.982 379.818 160.608 380.107C160.233 380.386 159.938 380.809 159.724 381.376C159.521 381.933 159.419 382.635 159.419 383.481C159.419 384.337 159.521 385.049 159.724 385.617C159.938 386.184 160.233 386.613 160.608 386.902C160.982 387.191 161.427 387.336 161.941 387.336Z" fill="#F3F5F6"/>
<rect x="54" y="402.5" width="160" height="9" rx="4.5" fill="#F3F5F6" fill-opacity="0.33"/>
<rect x="54" y="419.5" width="104" height="9" rx="4.5" fill="#F3F5F6" fill-opacity="0.33"/>
<rect x="166" y="419.5" width="48" height="9" rx="4.5" fill="#F3F5F6" fill-opacity="0.33"/>
<rect x="54" y="436.5" width="78" height="9" rx="4.5" fill="#F3F5F6" fill-opacity="0.33"/>
<rect x="54" y="453.5" width="160" height="9" rx="4.5" fill="#F3F5F6" fill-opacity="0.33"/>
<path d="M67 361.5C62.8452 361.5 59.5 364.906 59.5 369.136V372.599C57.9482 374.393 57 376.74 57 379.318C57 384.941 61.4775 389.5 67 389.5C72.5225 389.5 77 384.941 77 379.318C77 376.74 76.0518 374.393 74.5 372.599V369.136C74.5 364.906 71.1548 361.5 67 361.5ZM67 364.045C69.8452 364.045 72 366.239 72 369.136V370.511C70.5276 369.642 68.824 369.136 67 369.136C65.176 369.136 63.4724 369.642 62 370.511V369.136C62 366.239 64.1548 364.045 67 364.045ZM67 371.682C71.1425 371.682 74.5 375.1 74.5 379.318C74.5 383.536 71.1425 386.955 67 386.955C62.8575 386.955 59.5 383.536 59.5 379.318C59.5 375.1 62.8575 371.682 67 371.682ZM67 375.5C65.625 375.5 64.5 376.645 64.5 378.045C64.5 378.981 65.0075 379.793 65.75 380.235V384.409H68.25V380.235C68.9925 379.793 69.5 378.981 69.5 378.045C69.5 376.645 68.375 375.5 67 375.5Z" fill="#F3F5F6"/>
<path d="M314 411.5L309 408.613V414.387L314 411.5ZM303.5 411H296.5V412H303.5V411ZM289.5 411H282.5V412H289.5V411ZM275.5 411H268.5V412H275.5V411ZM261.5 411H254.5V412H261.5V411ZM247.5 411H244V412H247.5V411ZM314 411.5L304 405.726V417.274L314 411.5ZM303.5 410.5H296.5V412.5H303.5V410.5ZM289.5 410.5H282.5V412.5H289.5V410.5ZM275.5 410.5H268.5V412.5H275.5V410.5ZM261.5 410.5H254.5V412.5H261.5V410.5ZM247.5 410.5H244V412.5H247.5V410.5Z" fill="#1870B8" fill-opacity="0.4"/>
<g filter="url(#filter1_d_3362_78514)">
<rect x="322" y="329.5" width="199" height="147" rx="14.6025" fill="white"/>
</g>
<g clip-path="url(#clip0_3362_78514)">
<mask id="mask0_3362_78514" style="mask-type:alpha" maskUnits="userSpaceOnUse" x="340" y="361" width="27" height="27">
<circle cx="353.142" cy="374.825" r="13.1422" fill="url(#paint24_linear_3362_78514)"/>
</mask>
<g mask="url(#mask0_3362_78514)">
<mask id="mask1_3362_78514" style="mask-type:alpha" maskUnits="userSpaceOnUse" x="339" y="361" width="38" height="27">
<path d="M373.438 361.683H341.897C340.445 361.683 339.269 362.86 339.269 364.312V385.339C339.269 386.791 340.445 387.968 341.897 387.968H373.438C374.89 387.968 376.067 386.791 376.067 385.339V364.312C376.067 362.86 374.89 361.683 373.438 361.683Z" fill="white"/>
</mask>
<g mask="url(#mask1_3362_78514)">
<path d="M373.438 361.683H341.897C340.445 361.683 339.269 362.86 339.269 364.312V385.339C339.269 386.791 340.445 387.968 341.897 387.968H373.438C374.89 387.968 376.067 386.791 376.067 385.339V364.312C376.067 362.86 374.89 361.683 373.438 361.683Z" fill="#06A86E"/>
<path fill-rule="evenodd" clip-rule="evenodd" d="M339.27 365.187L351.536 374.825L339.27 384.462V365.187Z" fill="#FFBF2E"/>
<path fill-rule="evenodd" clip-rule="evenodd" d="M337.516 365.625L349.344 374.825L337.516 384.024V365.625Z" fill="#262626"/>
<path fill-rule="evenodd" clip-rule="evenodd" d="M355.04 372.197L342.773 361.683H376.067V372.197H355.04Z" fill="white"/>
<path fill-rule="evenodd" clip-rule="evenodd" d="M355.478 370.445L344.964 361.683H376.068V370.445H355.478Z" fill="#F44E46"/>
<path fill-rule="evenodd" clip-rule="evenodd" d="M342.773 387.968H376.067V377.454H355.04L342.773 387.968Z" fill="white"/>
<path fill-rule="evenodd" clip-rule="evenodd" d="M344.964 387.968H376.068V379.207H355.478L344.964 387.968Z" fill="#072CB4"/>
</g>
</g>
</g>
<path d="M380.362 366.5V359.345H381.538V366.5H380.362ZM381.17 366.5V365.427H384.911V366.5H381.17ZM389.031 366.602C388.52 366.602 388.043 366.507 387.6 366.316C387.157 366.125 386.769 365.863 386.435 365.529C386.101 365.188 385.839 364.796 385.648 364.353C385.464 363.904 385.372 363.423 385.372 362.912C385.372 362.401 385.464 361.924 385.648 361.481C385.839 361.038 386.098 360.65 386.425 360.316C386.759 359.975 387.144 359.713 387.58 359.529C388.023 359.338 388.5 359.243 389.011 359.243C389.522 359.243 389.996 359.338 390.432 359.529C390.875 359.713 391.263 359.975 391.597 360.316C391.931 360.65 392.19 361.042 392.374 361.491C392.565 361.934 392.66 362.411 392.66 362.922C392.66 363.433 392.565 363.914 392.374 364.364C392.19 364.807 391.931 365.195 391.597 365.529C391.27 365.863 390.885 366.125 390.442 366.316C390.006 366.507 389.536 366.602 389.031 366.602ZM389.011 365.478C389.495 365.478 389.917 365.369 390.278 365.151C390.646 364.933 390.933 364.633 391.137 364.251C391.348 363.863 391.454 363.416 391.454 362.912C391.454 362.537 391.392 362.197 391.27 361.89C391.154 361.577 390.987 361.307 390.769 361.082C390.551 360.851 390.292 360.674 389.992 360.551C389.699 360.428 389.372 360.367 389.011 360.367C388.534 360.367 388.111 360.476 387.743 360.694C387.382 360.905 387.096 361.202 386.885 361.583C386.68 361.965 386.578 362.408 386.578 362.912C386.578 363.287 386.636 363.635 386.752 363.955C386.874 364.268 387.041 364.537 387.253 364.762C387.471 364.987 387.73 365.164 388.03 365.294C388.329 365.416 388.656 365.478 389.011 365.478ZM397.492 366.602C396.974 366.602 396.494 366.51 396.051 366.326C395.615 366.135 395.233 365.873 394.906 365.539C394.579 365.198 394.327 364.807 394.15 364.364C393.973 363.914 393.884 363.433 393.884 362.922C393.884 362.411 393.973 361.934 394.15 361.491C394.327 361.042 394.579 360.65 394.906 360.316C395.233 359.982 395.615 359.72 396.051 359.529C396.494 359.338 396.974 359.243 397.492 359.243C398.072 359.243 398.572 359.338 398.995 359.529C399.417 359.72 399.792 359.979 400.119 360.306L399.322 361.103C399.111 360.871 398.852 360.691 398.545 360.561C398.245 360.432 397.894 360.367 397.492 360.367C397.138 360.367 396.814 360.428 396.521 360.551C396.228 360.674 395.973 360.851 395.755 361.082C395.543 361.307 395.38 361.577 395.264 361.89C395.148 362.203 395.09 362.548 395.09 362.922C395.09 363.297 395.148 363.641 395.264 363.955C395.38 364.268 395.543 364.541 395.755 364.773C395.973 364.997 396.228 365.171 396.521 365.294C396.814 365.416 397.138 365.478 397.492 365.478C397.929 365.478 398.296 365.413 398.596 365.284C398.903 365.147 399.162 364.963 399.373 364.732L400.17 365.529C399.843 365.863 399.458 366.125 399.015 366.316C398.572 366.507 398.065 366.602 397.492 366.602ZM400.815 366.5L403.759 359.345H404.576L407.5 366.5H406.232L403.943 360.704H404.372L402.062 366.5H400.815ZM402.266 365.12V364.098H406.059V365.12H402.266ZM408.75 366.5V359.345H409.926V366.5H408.75ZM409.558 366.5V365.427H413.299V366.5H409.558ZM417.758 366.5V365.478H419.812C420.173 365.478 420.453 365.365 420.65 365.141C420.848 364.916 420.947 364.657 420.947 364.364C420.947 364.166 420.902 363.982 420.814 363.812C420.725 363.641 420.596 363.505 420.425 363.403C420.255 363.301 420.051 363.249 419.812 363.249H417.758V362.227H419.638C419.945 362.227 420.19 362.149 420.374 361.992C420.558 361.835 420.65 361.604 420.65 361.297C420.65 360.99 420.558 360.759 420.374 360.602C420.19 360.445 419.945 360.367 419.638 360.367H417.758V359.345H419.669C420.153 359.345 420.555 359.433 420.875 359.611C421.195 359.788 421.434 360.016 421.591 360.295C421.747 360.575 421.826 360.875 421.826 361.195C421.826 361.57 421.72 361.9 421.509 362.186C421.305 362.473 421.001 362.704 420.599 362.882L420.691 362.514C421.141 362.698 421.492 362.956 421.744 363.29C421.996 363.624 422.122 364.016 422.122 364.466C422.122 364.834 422.03 365.171 421.846 365.478C421.669 365.784 421.403 366.033 421.049 366.224C420.701 366.408 420.272 366.5 419.761 366.5H417.758ZM416.95 366.5V359.345H418.126V366.5H416.95ZM423.084 366.5L426.028 359.345H426.845L429.769 366.5H428.501L426.212 360.704H426.641L424.331 366.5H423.084ZM424.535 365.12V364.098H428.328V365.12H424.535ZM431.019 366.5V359.345H431.837L432.195 360.694V366.5H431.019ZM435.977 366.5L431.694 360.909L431.837 359.345L436.12 364.936L435.977 366.5ZM435.977 366.5L435.619 365.243V359.345H436.795V366.5H435.977ZM442.977 366.5L439.665 362.769L442.905 359.345H444.408L440.83 363.066L440.84 362.422L444.51 366.5H442.977ZM438.653 366.5V359.345H439.828V366.5H438.653Z" fill="#738698"/>
<path d="M382.348 384.428V382.726H384.966C385.502 382.726 385.914 382.592 386.203 382.324C386.503 382.046 386.653 381.665 386.653 381.184C386.653 380.744 386.503 380.38 386.203 380.091C385.914 379.791 385.502 379.642 384.966 379.642H382.348V377.859H385.159C385.887 377.859 386.525 378.003 387.071 378.292C387.628 378.571 388.056 378.956 388.356 379.449C388.666 379.941 388.822 380.509 388.822 381.151C388.822 381.815 388.666 382.394 388.356 382.886C388.056 383.368 387.628 383.748 387.071 384.027C386.514 384.294 385.866 384.428 385.127 384.428H382.348ZM380.742 389.151V377.859H382.926V389.151H380.742ZM386.91 389.151L383.183 384.268L385.191 383.641L389.56 389.151H386.91ZM392.446 389.151V377.859H394.598V389.151H392.446ZM390.229 379.754V377.859H394.438V379.754H390.229ZM401.091 389.311C400.202 389.311 399.399 389.07 398.681 388.588C397.964 388.107 397.391 387.427 396.963 386.548C396.545 385.67 396.336 384.648 396.336 383.481C396.336 382.313 396.545 381.296 396.963 380.429C397.38 379.561 397.942 378.887 398.649 378.405C399.367 377.923 400.164 377.682 401.043 377.682C401.942 377.682 402.745 377.923 403.452 378.405C404.169 378.887 404.737 379.567 405.155 380.445C405.572 381.312 405.781 382.335 405.781 383.513C405.781 384.68 405.572 385.703 405.155 386.581C404.737 387.448 404.175 388.123 403.468 388.605C402.761 389.076 401.969 389.311 401.091 389.311ZM401.059 387.336C401.573 387.336 402.017 387.191 402.392 386.902C402.767 386.613 403.056 386.184 403.259 385.617C403.473 385.049 403.58 384.343 403.58 383.497C403.58 382.651 403.473 381.944 403.259 381.376C403.056 380.809 402.761 380.386 402.376 380.107C402.001 379.818 401.557 379.674 401.043 379.674C400.539 379.674 400.1 379.818 399.725 380.107C399.351 380.386 399.056 380.809 398.842 381.376C398.639 381.933 398.537 382.635 398.537 383.481C398.537 384.337 398.639 385.049 398.842 385.617C399.056 386.184 399.351 386.613 399.725 386.902C400.1 387.191 400.545 387.336 401.059 387.336ZM406.932 391.062L408.073 388.942L408.731 388.765C408.656 388.904 408.571 389.022 408.474 389.119C408.378 389.215 408.266 389.263 408.137 389.263C407.869 389.263 407.618 389.145 407.382 388.91C407.146 388.674 407.029 388.38 407.029 388.026C407.029 387.641 407.157 387.314 407.414 387.046C407.671 386.779 407.992 386.645 408.378 386.645C408.731 386.645 409.042 386.779 409.31 387.046C409.577 387.314 409.711 387.641 409.711 388.026C409.711 388.176 409.679 388.358 409.615 388.572C409.551 388.776 409.433 389.038 409.261 389.359L408.025 391.64L406.932 391.062ZM415.506 389.311C414.618 389.311 413.814 389.07 413.097 388.588C412.38 388.107 411.807 387.427 411.378 386.548C410.961 385.67 410.752 384.648 410.752 383.481C410.752 382.313 410.961 381.296 411.378 380.429C411.796 379.561 412.358 378.887 413.065 378.405C413.782 377.923 414.58 377.682 415.458 377.682C416.358 377.682 417.161 377.923 417.868 378.405C418.585 378.887 419.153 379.567 419.57 380.445C419.988 381.312 420.197 382.335 420.197 383.513C420.197 384.68 419.988 385.703 419.57 386.581C419.153 387.448 418.59 388.123 417.884 388.605C417.177 389.076 416.385 389.311 415.506 389.311ZM415.474 387.336C415.988 387.336 416.433 387.191 416.807 386.902C417.182 386.613 417.471 386.184 417.675 385.617C417.889 385.049 417.996 384.343 417.996 383.497C417.996 382.651 417.889 381.944 417.675 381.376C417.471 380.809 417.177 380.386 416.791 380.107C416.417 379.818 415.972 379.674 415.458 379.674C414.955 379.674 414.516 379.818 414.141 380.107C413.766 380.386 413.472 380.809 413.258 381.376C413.054 381.933 412.952 382.635 412.952 383.481C412.952 384.337 413.054 385.049 413.258 385.617C413.472 386.184 413.766 386.613 414.141 386.902C414.516 387.191 414.96 387.336 415.474 387.336ZM426.11 389.311C425.222 389.311 424.418 389.07 423.701 388.588C422.983 388.107 422.411 387.427 421.982 386.548C421.565 385.67 421.356 384.648 421.356 383.481C421.356 382.313 421.565 381.296 421.982 380.429C422.4 379.561 422.962 378.887 423.669 378.405C424.386 377.923 425.184 377.682 426.062 377.682C426.962 377.682 427.765 377.923 428.472 378.405C429.189 378.887 429.757 379.567 430.174 380.445C430.592 381.312 430.801 382.335 430.801 383.513C430.801 384.68 430.592 385.703 430.174 386.581C429.757 387.448 429.194 388.123 428.488 388.605C427.781 389.076 426.988 389.311 426.11 389.311ZM426.078 387.336C426.592 387.336 427.037 387.191 427.411 386.902C427.786 386.613 428.075 386.184 428.279 385.617C428.493 385.049 428.6 384.343 428.6 383.497C428.6 382.651 428.493 381.944 428.279 381.376C428.075 380.809 427.781 380.386 427.395 380.107C427.021 379.818 426.576 379.674 426.062 379.674C425.559 379.674 425.12 379.818 424.745 380.107C424.37 380.386 424.076 380.809 423.862 381.376C423.658 381.933 423.556 382.635 423.556 383.481C423.556 384.337 423.658 385.049 423.862 385.617C424.076 386.184 424.37 386.613 424.745 386.902C425.12 387.191 425.564 387.336 426.078 387.336ZM436.714 389.311C435.825 389.311 435.022 389.07 434.305 388.588C433.587 388.107 433.014 387.427 432.586 386.548C432.168 385.67 431.96 384.648 431.96 383.481C431.96 382.313 432.168 381.296 432.586 380.429C433.004 379.561 433.566 378.887 434.273 378.405C434.99 377.923 435.788 377.682 436.666 377.682C437.566 377.682 438.369 377.923 439.075 378.405C439.793 378.887 440.36 379.567 440.778 380.445C441.196 381.312 441.405 382.335 441.405 383.513C441.405 384.68 441.196 385.703 440.778 386.581C440.36 387.448 439.798 388.123 439.091 388.605C438.385 389.076 437.592 389.311 436.714 389.311ZM436.682 387.336C437.196 387.336 437.64 387.191 438.015 386.902C438.39 386.613 438.679 386.184 438.883 385.617C439.097 385.049 439.204 384.343 439.204 383.497C439.204 382.651 439.097 381.944 438.883 381.376C438.679 380.809 438.385 380.386 437.999 380.107C437.624 379.818 437.18 379.674 436.666 379.674C436.163 379.674 435.724 379.818 435.349 380.107C434.974 380.386 434.68 380.809 434.465 381.376C434.262 381.933 434.16 382.635 434.16 383.481C434.16 384.337 434.262 385.049 434.465 385.617C434.68 386.184 434.974 386.613 435.349 386.902C435.724 387.191 436.168 387.336 436.682 387.336ZM444.017 389.311C443.632 389.311 443.316 389.183 443.07 388.926C442.823 388.669 442.7 388.353 442.7 387.978C442.7 387.603 442.823 387.287 443.07 387.03C443.316 386.773 443.632 386.645 444.017 386.645C444.392 386.645 444.703 386.773 444.949 387.03C445.195 387.287 445.319 387.603 445.319 387.978C445.319 388.353 445.195 388.669 444.949 388.926C444.703 389.183 444.392 389.311 444.017 389.311ZM451.365 389.311C450.476 389.311 449.673 389.07 448.956 388.588C448.238 388.107 447.665 387.427 447.237 386.548C446.819 385.67 446.611 384.648 446.611 383.481C446.611 382.313 446.819 381.296 447.237 380.429C447.655 379.561 448.217 378.887 448.924 378.405C449.641 377.923 450.439 377.682 451.317 377.682C452.216 377.682 453.02 377.923 453.726 378.405C454.444 378.887 455.011 379.567 455.429 380.445C455.847 381.312 456.055 382.335 456.055 383.513C456.055 384.68 455.847 385.703 455.429 386.581C455.011 387.448 454.449 388.123 453.742 388.605C453.036 389.076 452.243 389.311 451.365 389.311ZM451.333 387.336C451.847 387.336 452.291 387.191 452.666 386.902C453.041 386.613 453.33 386.184 453.534 385.617C453.748 385.049 453.855 384.343 453.855 383.497C453.855 382.651 453.748 381.944 453.534 381.376C453.33 380.809 453.036 380.386 452.65 380.107C452.275 379.818 451.831 379.674 451.317 379.674C450.814 379.674 450.375 379.818 450 380.107C449.625 380.386 449.331 380.809 449.116 381.376C448.913 381.933 448.811 382.635 448.811 383.481C448.811 384.337 448.913 385.049 449.116 385.617C449.331 386.184 449.625 386.613 450 386.902C450.375 387.191 450.819 387.336 451.333 387.336ZM461.969 389.311C461.08 389.311 460.277 389.07 459.56 388.588C458.842 388.107 458.269 387.427 457.841 386.548C457.423 385.67 457.214 384.648 457.214 383.481C457.214 382.313 457.423 381.296 457.841 380.429C458.259 379.561 458.821 378.887 459.528 378.405C460.245 377.923 461.043 377.682 461.921 377.682C462.82 377.682 463.623 377.923 464.33 378.405C465.048 378.887 465.615 379.567 466.033 380.445C466.451 381.312 466.659 382.335 466.659 383.513C466.659 384.68 466.451 385.703 466.033 386.581C465.615 387.448 465.053 388.123 464.346 388.605C463.64 389.076 462.847 389.311 461.969 389.311ZM461.937 387.336C462.451 387.336 462.895 387.191 463.27 386.902C463.645 386.613 463.934 386.184 464.138 385.617C464.352 385.049 464.459 384.343 464.459 383.497C464.459 382.651 464.352 381.944 464.138 381.376C463.934 380.809 463.64 380.386 463.254 380.107C462.879 379.818 462.435 379.674 461.921 379.674C461.418 379.674 460.979 379.818 460.604 380.107C460.229 380.386 459.934 380.809 459.72 381.376C459.517 381.933 459.415 382.635 459.415 383.481C459.415 384.337 459.517 385.049 459.72 385.617C459.934 386.184 460.229 386.613 460.604 386.902C460.979 387.191 461.423 387.336 461.937 387.336Z" fill="#153553"/>
<rect x="343" y="402.5" width="160" height="9" rx="4.5" fill="#F3F5F6"/>
<rect x="343" y="419.5" width="104" height="9" rx="4.5" fill="#F3F5F6"/>
<rect x="455" y="419.5" width="48" height="9" rx="4.5" fill="#F3F5F6"/>
<rect x="343" y="436.5" width="78" height="9" rx="4.5" fill="#F3F5F6"/>
<rect width="27" height="27" transform="translate(486 334.5)" fill="white"/>
<defs>
<filter id="filter0_d_3362_78514" x="11.0963" y="307.596" width="242.807" height="190.807" filterUnits="userSpaceOnUse" color-interpolation-filters="sRGB">
<feFlood flood-opacity="0" result="BackgroundImageFix"/>
<feColorMatrix in="SourceAlpha" type="matrix" values="0 0 0 0 0 0 0 0 0 0 0 0 0 0 0 0 0 0 127 0" result="hardAlpha"/>
<feOffset/>
<feGaussianBlur stdDeviation="10.9518"/>
<feComposite in2="hardAlpha" operator="out"/>
<feColorMatrix type="matrix" values="0 0 0 0 0 0 0 0 0 0 0 0 0 0 0 0 0 0 0.05 0"/>
<feBlend mode="normal" in2="BackgroundImageFix" result="effect1_dropShadow_3362_78514"/>
<feBlend mode="normal" in="SourceGraphic" in2="effect1_dropShadow_3362_78514" result="shape"/>
</filter>
<filter id="filter1_d_3362_78514" x="300.096" y="307.596" width="242.807" height="190.807" filterUnits="userSpaceOnUse" color-interpolation-filters="sRGB">
<feFlood flood-opacity="0" result="BackgroundImageFix"/>
<feColorMatrix in="SourceAlpha" type="matrix" values="0 0 0 0 0 0 0 0 0 0 0 0 0 0 0 0 0 0 127 0" result="hardAlpha"/>
<feOffset/>
<feGaussianBlur stdDeviation="10.9518"/>
<feComposite in2="hardAlpha" operator="out"/>
<feColorMatrix type="matrix" values="0 0 0 0 0 0 0 0 0 0 0 0 0 0 0 0 0 0 0.05 0"/>
<feBlend mode="normal" in2="BackgroundImageFix" result="effect1_dropShadow_3362_78514"/>
<feBlend mode="normal" in="SourceGraphic" in2="effect1_dropShadow_3362_78514" result="shape"/>
</filter>
<linearGradient id="paint0_linear_3362_78514" x1="169.482" y1="237.049" x2="333.979" y2="-40.4123" gradientUnits="userSpaceOnUse">
<stop stop-color="#2783C4"/>
<stop offset="1" stop-color="#15B2EE"/>
</linearGradient>
<linearGradient id="paint1_linear_3362_78514" x1="196.105" y1="47.2182" x2="213.844" y2="18.6483" gradientUnits="userSpaceOnUse">
<stop stop-color="#2783C4"/>
<stop offset="1" stop-color="#15B2EE"/>
</linearGradient>
<linearGradient id="paint2_linear_3362_78514" x1="256.512" y1="91.4216" x2="267.466" y2="67.0684" gradientUnits="userSpaceOnUse">
<stop stop-color="#2783C4"/>
<stop offset="1" stop-color="#15B2EE"/>
</linearGradient>
<linearGradient id="paint3_linear_3362_78514" x1="314.854" y1="42.7284" x2="327.158" y2="16.5718" gradientUnits="userSpaceOnUse">
<stop stop-color="#2783C4"/>
<stop offset="1" stop-color="#15B2EE"/>
</linearGradient>
<linearGradient id="paint4_linear_3362_78514" x1="171.115" y1="118.954" x2="184.551" y2="92.7896" gradientUnits="userSpaceOnUse">
<stop stop-color="#2783C4"/>
<stop offset="1" stop-color="#15B2EE"/>
</linearGradient>
<linearGradient id="paint5_linear_3362_78514" x1="369.726" y1="95.0687" x2="380.46" y2="71.1326" gradientUnits="userSpaceOnUse">
<stop stop-color="#2783C4"/>
<stop offset="1" stop-color="#15B2EE"/>
</linearGradient>
<linearGradient id="paint6_linear_3362_78514" x1="226.323" y1="247.941" x2="336.977" y2="89.0673" gradientUnits="userSpaceOnUse">
<stop stop-color="#2783C4"/>
<stop offset="1" stop-color="#15B2EE"/>
</linearGradient>
<linearGradient id="paint7_linear_3362_78514" x1="265.76" y1="269.769" x2="349.702" y2="112.396" gradientUnits="userSpaceOnUse">
<stop stop-color="#2783C4"/>
<stop offset="1" stop-color="#15B2EE"/>
</linearGradient>
<linearGradient id="paint8_linear_3362_78514" x1="286.928" y1="288.272" x2="323.665" y2="180.475" gradientUnits="userSpaceOnUse">
<stop stop-color="#2783C4"/>
<stop offset="1" stop-color="#15B2EE"/>
</linearGradient>
<linearGradient id="paint9_linear_3362_78514" x1="153.818" y1="285.831" x2="176.318" y2="194.677" gradientUnits="userSpaceOnUse">
<stop stop-color="#2783C4"/>
<stop offset="1" stop-color="#15B2EE"/>
</linearGradient>
<linearGradient id="paint10_linear_3362_78514" x1="135.081" y1="237.271" x2="135.632" y2="229.779" gradientUnits="userSpaceOnUse">
<stop stop-color="#2783C4"/>
<stop offset="1" stop-color="#15B2EE"/>
</linearGradient>
<linearGradient id="paint11_linear_3362_78514" x1="246.927" y1="248.388" x2="247.096" y2="243.118" gradientUnits="userSpaceOnUse">
<stop stop-color="#2783C4"/>
<stop offset="1" stop-color="#15B2EE"/>
</linearGradient>
<linearGradient id="paint12_linear_3362_78514" x1="294.985" y1="257.243" x2="295.113" y2="255.158" gradientUnits="userSpaceOnUse">
<stop stop-color="#2783C4"/>
<stop offset="1" stop-color="#15B2EE"/>
</linearGradient>
<linearGradient id="paint13_linear_3362_78514" x1="281.28" y1="234.16" x2="281.57" y2="229.463" gradientUnits="userSpaceOnUse">
<stop stop-color="#2783C4"/>
<stop offset="1" stop-color="#15B2EE"/>
</linearGradient>
<linearGradient id="paint14_linear_3362_78514" x1="234.81" y1="282.105" x2="235.107" y2="274.401" gradientUnits="userSpaceOnUse">
<stop stop-color="#2783C4"/>
<stop offset="1" stop-color="#15B2EE"/>
</linearGradient>
<linearGradient id="paint15_linear_3362_78514" x1="141.145" y1="251.189" x2="141.409" y2="245.899" gradientUnits="userSpaceOnUse">
<stop stop-color="#2783C4"/>
<stop offset="1" stop-color="#15B2EE"/>
</linearGradient>
<linearGradient id="paint16_linear_3362_78514" x1="136.453" y1="268.523" x2="136.976" y2="262.246" gradientUnits="userSpaceOnUse">
<stop stop-color="#2783C4"/>
<stop offset="1" stop-color="#15B2EE"/>
</linearGradient>
<linearGradient id="paint17_linear_3362_78514" x1="134.115" y1="286.82" x2="134.485" y2="281.258" gradientUnits="userSpaceOnUse">
<stop stop-color="#2783C4"/>
<stop offset="1" stop-color="#15B2EE"/>
</linearGradient>
<linearGradient id="paint18_linear_3362_78514" x1="204.531" y1="227.82" x2="210.729" y2="185.894" gradientUnits="userSpaceOnUse">
<stop stop-color="#2783C4"/>
<stop offset="1" stop-color="#15B2EE"/>
</linearGradient>
<linearGradient id="paint19_linear_3362_78514" x1="237.578" y1="156.732" x2="254.933" y2="124.886" gradientUnits="userSpaceOnUse">
<stop stop-color="#2783C4"/>
<stop offset="1" stop-color="#15B2EE"/>
</linearGradient>
<linearGradient id="paint20_linear_3362_78514" x1="208.416" y1="186.969" x2="237.033" y2="147.547" gradientUnits="userSpaceOnUse">
<stop stop-color="#2783C4"/>
<stop offset="1" stop-color="#15B2EE"/>
</linearGradient>
<linearGradient id="paint21_linear_3362_78514" x1="213.362" y1="155.841" x2="217.371" y2="144.155" gradientUnits="userSpaceOnUse">
<stop stop-color="#2783C4"/>
<stop offset="1" stop-color="#15B2EE"/>
</linearGradient>
<linearGradient id="paint22_linear_3362_78514" x1="170.981" y1="174.04" x2="180.417" y2="145.535" gradientUnits="userSpaceOnUse">
<stop stop-color="#2783C4"/>
<stop offset="1" stop-color="#15B2EE"/>
</linearGradient>
<linearGradient id="paint23_linear_3362_78514" x1="151.333" y1="229.286" x2="153.902" y2="203.292" gradientUnits="userSpaceOnUse">
<stop stop-color="#2783C4"/>
<stop offset="1" stop-color="#15B2EE"/>
</linearGradient>
<linearGradient id="paint24_linear_3362_78514" x1="340" y1="361.683" x2="366.284" y2="387.968" gradientUnits="userSpaceOnUse">
<stop stop-color="#07C1FF"/>
<stop offset="1" stop-color="#00A6DD"/>
</linearGradient>
<clipPath id="clip0_3362_78514">
<rect width="26.2844" height="26.2844" fill="white" transform="translate(340 361.683)"/>
</clipPath>
</defs>
</svg>
