<svg width="255" height="71" viewBox="0 0 255 71" fill="none" xmlns="http://www.w3.org/2000/svg">
<g clip-path="url(#clip0_3540_80488)">
<path d="M33.5611 69.1528C52.1364 69.1528 67.0803 54.2089 67.0803 35.6336C67.0803 17.0583 52.1364 2.1145 33.5611 2.1145C14.9858 2.1145 0.0419922 17.0583 0.0419922 35.6336C0.0419922 54.2089 14.9858 69.1528 33.5611 69.1528Z" fill="url(#paint0_linear_3540_80488)"/>
<g clip-path="url(#clip1_3540_80488)">
<path opacity="0.3" d="M32.764 20.4709C30.1192 20.4709 27.9756 22.6146 27.9756 25.2594C27.9756 26.4916 28.4549 27.6025 29.2195 28.4517H36.3086C37.0732 27.6025 37.5525 26.4916 37.5525 25.2594C37.5525 22.6146 35.4088 20.4709 32.764 20.4709ZM48.7255 28.4517L44.0368 31.2668C42.8136 30.5091 41.4358 29.8695 39.8999 29.3963L39.5134 30.5529C39.2963 31.2041 38.6862 31.644 37.9983 31.644H27.5298C26.8418 31.644 26.2318 31.2057 26.0147 30.5529L25.89 30.1757C23.1539 31.6145 21.294 33.8607 20.4749 36.5073C20.3196 36.458 20.1577 36.4327 19.9948 36.4324C19.5715 36.4324 19.1655 36.6006 18.8662 36.8999C18.5668 37.1993 18.3987 37.6053 18.3987 38.0286C18.3987 38.4519 18.5668 38.8579 18.8662 39.1572C19.1655 39.4566 19.5715 39.6247 19.9948 39.6247C19.9948 41.4831 20.6202 43.3768 21.7094 45.1209L22.9658 52.6558C23.0935 53.4267 23.7596 53.9901 24.5401 53.9901H28.2187C28.9993 53.9901 29.6654 53.4267 29.7931 52.6558L29.9832 51.5148C31.6007 52.0665 33.3372 52.3939 35.1582 52.3939C36.2668 52.3939 37.3439 52.3016 38.3848 52.1352L39.0333 53.2138C39.3222 53.6959 39.84 53.9901 40.4018 53.9901H43.9371C44.9442 53.9901 45.6984 53.0702 45.502 52.0822L45.0251 49.6942C46.6244 48.682 47.9281 47.4277 48.844 46.0093H50.6708C51.4035 46.0093 52.043 45.5116 52.2202 44.7998L53.1555 41.0588C53.3582 40.2495 52.9028 39.4205 52.1111 39.1571L49.8821 38.4152C49.4508 37.0125 48.7044 35.6448 47.6687 34.3936C48.2504 32.8821 48.7255 30.9089 48.7255 28.4517ZM45.5332 38.0286C46.4143 38.0286 47.1294 38.7437 47.1294 39.6247C47.1294 40.5058 46.4143 41.2209 45.5332 41.2209C44.6521 41.2209 43.9371 40.5058 43.9371 39.6247C43.9371 38.7437 44.6521 38.0286 45.5332 38.0286Z" fill="white"/>
<path d="M30.3697 18.0769C27.7249 18.0769 25.5813 20.2205 25.5813 22.8654C25.5813 24.0976 26.0606 25.2085 26.8252 26.0577H33.9143C34.6789 25.2085 35.1582 24.0976 35.1582 22.8654C35.1582 20.2205 33.0146 18.0769 30.3697 18.0769ZM46.3312 26.0577L41.6425 28.8727C40.4193 28.115 39.0415 27.4755 37.5056 27.0022L37.1191 28.1588C36.902 28.8101 36.2919 29.25 35.604 29.25H25.1355C24.4476 29.25 23.8375 28.8117 23.6204 28.1588L23.4957 27.7816C20.7596 29.2205 18.8997 31.4667 18.0806 34.1132C17.9254 34.0639 17.7635 34.0387 17.6005 34.0384C17.1772 34.0384 16.7712 34.2066 16.4719 34.5059C16.1726 34.8052 16.0044 35.2112 16.0044 35.6345C16.0044 36.0579 16.1726 36.4639 16.4719 36.7632C16.7712 37.0625 17.1772 37.2307 17.6005 37.2307C17.6005 39.0891 18.2259 40.9828 19.3152 42.7268L20.5715 50.2618C20.6992 51.0327 21.3653 51.596 22.1458 51.596H25.8245C26.605 51.596 27.2711 51.0327 27.3988 50.2618L27.5889 49.1208C29.2065 49.6725 30.943 49.9999 32.764 49.9999C33.8725 49.9999 34.9496 49.9075 35.9906 49.7411L36.639 50.8198C36.9279 51.3018 37.4457 51.596 38.0076 51.596H41.5428C42.55 51.596 43.3041 50.6762 43.1078 49.6881L42.6308 47.3002C44.2301 46.288 45.5338 45.0336 46.4497 43.6153H48.2765C49.0092 43.6153 49.6488 43.1176 49.8259 42.4057L50.7612 38.6647C50.9639 37.8555 50.5085 37.0264 49.7168 36.7631L47.4878 36.0211C47.0565 34.6185 46.3101 33.2508 45.2744 31.9996C45.8561 30.4881 46.3312 28.5148 46.3312 26.0577ZM43.1389 35.6345C44.02 35.6345 44.7351 36.3496 44.7351 37.2307C44.7351 38.1118 44.02 38.8268 43.1389 38.8268C42.2579 38.8268 41.5428 38.1118 41.5428 37.2307C41.5428 36.3496 42.2579 35.6345 43.1389 35.6345Z" fill="white"/>
</g>
</g>
<path d="M99.2498 53.9081C96.7082 53.9081 94.4421 53.3569 92.4517 52.2545C90.4918 51.1214 88.9454 49.575 87.8124 47.6152C86.6793 45.6553 86.1128 43.4352 86.1128 40.9548V21.1574H92.3598V41.1385C92.3598 42.5778 92.6507 43.818 93.2325 44.8591C93.845 45.9003 94.6718 46.7118 95.7129 47.2936C96.7847 47.8448 97.9637 48.1204 99.2498 48.1204C100.567 48.1204 101.73 47.8448 102.741 47.2936C103.751 46.7118 104.548 45.9003 105.129 44.8591C105.742 43.818 106.048 42.5931 106.048 41.1844V21.1574H112.341V41.0007C112.341 43.4811 111.774 45.7013 110.641 47.6611C109.508 49.5903 107.962 51.1214 106.002 52.2545C104.073 53.3569 101.822 53.9081 99.2498 53.9081ZM127.521 53.9081C124.918 53.9081 122.683 53.464 120.815 52.576C118.977 51.6879 117.308 50.3559 115.808 48.5798L119.942 44.4457C120.891 45.7013 121.994 46.6812 123.249 47.3855C124.505 48.0592 126.036 48.396 127.842 48.396C129.465 48.396 130.752 48.0745 131.701 47.4314C132.681 46.7884 133.171 45.9003 133.171 44.7673C133.171 43.7874 132.895 42.9912 132.344 42.3787C131.793 41.7663 131.058 41.2457 130.139 40.817C129.251 40.3883 128.256 40.0055 127.153 39.6686C126.082 39.3012 124.995 38.8878 123.892 38.4284C122.82 37.9691 121.825 37.4026 120.906 36.7289C120.018 36.0246 119.299 35.1365 118.748 34.0647C118.196 32.9623 117.921 31.5843 117.921 29.9307C117.921 27.9709 118.395 26.3019 119.345 24.9239C120.294 23.5459 121.595 22.4895 123.249 21.7545C124.903 21.0196 126.771 20.6521 128.853 20.6521C131.058 20.6521 133.048 21.0655 134.824 21.8923C136.6 22.7191 138.055 23.7909 139.188 25.1077L135.054 29.2417C134.105 28.2005 133.125 27.435 132.114 26.945C131.134 26.4551 130.017 26.2101 128.761 26.2101C127.322 26.2101 126.189 26.4857 125.362 27.0369C124.535 27.5881 124.122 28.3843 124.122 29.4254C124.122 30.3135 124.397 31.0331 124.949 31.5843C125.5 32.1355 126.219 32.6102 127.108 33.0083C128.026 33.4064 129.021 33.7891 130.093 34.1566C131.196 34.5241 132.283 34.9375 133.354 35.3968C134.457 35.8561 135.452 36.4533 136.34 37.1882C137.259 37.9232 137.994 38.8725 138.545 40.0361C139.096 41.1691 139.372 42.5778 139.372 44.262C139.372 47.263 138.315 49.6209 136.202 51.3358C134.089 53.0506 131.196 53.9081 127.521 53.9081ZM148.574 53.4487V47.8908H156.796C158.878 47.8908 160.7 47.462 162.262 46.6046C163.824 45.7166 165.033 44.4764 165.891 42.884C166.779 41.2916 167.223 39.4083 167.223 37.2342C167.223 35.1212 166.779 33.2839 165.891 31.7221C165.003 30.1298 163.778 28.9049 162.216 28.0474C160.654 27.1594 158.848 26.7154 156.796 26.7154H148.436V21.1574H156.888C159.276 21.1574 161.481 21.5555 163.502 22.3517C165.554 23.1478 167.33 24.2809 168.831 25.7507C170.362 27.19 171.541 28.8895 172.368 30.8494C173.225 32.8092 173.654 34.9528 173.654 37.2801C173.654 39.6074 173.225 41.7663 172.368 43.7567C171.541 45.7166 170.377 47.4314 168.877 48.9013C167.376 50.3406 165.6 51.4583 163.548 52.2545C161.527 53.0506 159.338 53.4487 156.98 53.4487H148.574ZM144.302 53.4487V21.1574H150.549V53.4487H144.302ZM177.975 44.4457V38.9796H193.868V44.4457H177.975ZM208.129 53.9081C205.526 53.9081 203.291 53.464 201.423 52.576C199.585 51.6879 197.916 50.3559 196.416 48.5798L200.55 44.4457C201.499 45.7013 202.602 46.6812 203.857 47.3855C205.113 48.0592 206.644 48.396 208.451 48.396C210.074 48.396 211.36 48.0745 212.309 47.4314C213.289 46.7884 213.779 45.9003 213.779 44.7673C213.779 43.7874 213.503 42.9912 212.952 42.3787C212.401 41.7663 211.666 41.2457 210.747 40.817C209.859 40.3883 208.864 40.0055 207.762 39.6686C206.69 39.3012 205.603 38.8878 204.5 38.4284C203.429 37.9691 202.433 37.4026 201.515 36.7289C200.627 36.0246 199.907 35.1365 199.356 34.0647C198.805 32.9623 198.529 31.5843 198.529 29.9307C198.529 27.9709 199.004 26.3019 199.953 24.9239C200.902 23.5459 202.204 22.4895 203.857 21.7545C205.511 21.0196 207.379 20.6521 209.461 20.6521C211.666 20.6521 213.656 21.0655 215.433 21.8923C217.209 22.7191 218.663 23.7909 219.796 25.1077L215.662 29.2417C214.713 28.2005 213.733 27.435 212.722 26.945C211.743 26.4551 210.625 26.2101 209.369 26.2101C207.93 26.2101 206.797 26.4857 205.97 27.0369C205.143 27.5881 204.73 28.3843 204.73 29.4254C204.73 30.3135 205.006 31.0331 205.557 31.5843C206.108 32.1355 206.828 32.6102 207.716 33.0083C208.634 33.4064 209.63 33.7891 210.701 34.1566C211.804 34.5241 212.891 34.9375 213.963 35.3968C215.065 35.8561 216.06 36.4533 216.948 37.1882C217.867 37.9232 218.602 38.8725 219.153 40.0361C219.704 41.1691 219.98 42.5778 219.98 44.262C219.98 47.263 218.923 49.6209 216.811 51.3358C214.698 53.0506 211.804 53.9081 208.129 53.9081ZM240.154 53.9081C237.796 53.9081 235.606 53.4947 233.585 52.6679C231.564 51.8104 229.788 50.6315 228.257 49.131C226.756 47.5998 225.593 45.8237 224.766 43.8027C223.97 41.7816 223.572 39.6074 223.572 37.2801C223.572 34.9528 223.97 32.7786 224.766 30.7575C225.593 28.7364 226.756 26.9756 228.257 25.4751C229.788 23.9746 231.549 22.7957 233.539 21.9383C235.56 21.0808 237.765 20.6521 240.154 20.6521C242.726 20.6521 244.992 21.0808 246.952 21.9383C248.912 22.7651 250.642 23.9134 252.142 25.3833L247.917 29.6092C247.029 28.6293 245.941 27.8637 244.655 27.3125C243.369 26.7613 241.869 26.4857 240.154 26.4857C238.653 26.4857 237.275 26.746 236.02 27.2666C234.795 27.7565 233.723 28.4915 232.804 29.4714C231.886 30.4207 231.181 31.569 230.691 32.9164C230.201 34.2332 229.957 35.6877 229.957 37.2801C229.957 38.9031 230.201 40.373 230.691 41.6897C231.181 43.0065 231.886 44.1548 232.804 45.1347C233.723 46.084 234.795 46.819 236.02 47.3396C237.275 47.8601 238.653 48.1204 240.154 48.1204C241.961 48.1204 243.507 47.8448 244.793 47.2936C246.11 46.7424 247.212 45.9615 248.1 44.951L252.326 49.1769C250.826 50.6774 249.08 51.8411 247.09 52.6679C245.099 53.4947 242.787 53.9081 240.154 53.9081Z" fill="#153553"/>
<defs>
<linearGradient id="paint0_linear_3540_80488" x1="33.5611" y1="2.1145" x2="33.5611" y2="69.1528" gradientUnits="userSpaceOnUse">
<stop stop-color="#18ADE9"/>
<stop offset="1" stop-color="#248ECE"/>
</linearGradient>
<clipPath id="clip0_3540_80488">
<rect x="0.0419922" y="2.1145" width="67.0383" height="67.0383" rx="33.5191" fill="white"/>
</clipPath>
<clipPath id="clip1_3540_80488">
<rect width="38.3076" height="38.3076" fill="white" transform="translate(14.4075 16.4797)"/>
</clipPath>
</defs>
</svg>
