<svg width="21" height="21" viewBox="0 0 21 21" fill="none" xmlns="http://www.w3.org/2000/svg">
<path d="M10.5 0.600098C9.99091 0.600655 9.50119 0.795332 9.13066 1.14445C8.76013 1.49357 8.53668 1.97085 8.50586 2.479L3.60156 4.93213C3.27482 4.71595 2.89178 4.60049 2.5 4.6001C1.96957 4.6001 1.46086 4.81081 1.08579 5.18588C0.710714 5.56096 0.5 6.06966 0.5 6.6001C0.5 7.13053 0.710714 7.63924 1.08579 8.01431C1.46086 8.38938 1.96957 8.6001 2.5 8.6001C2.89112 8.59932 3.27342 8.48388 3.59961 8.26807L8.50586 10.7212C8.52621 11.0503 8.62763 11.3693 8.80107 11.6497C8.97452 11.9302 9.21462 12.1634 9.5 12.3286V16.8696C9.46553 16.8894 9.43166 16.9103 9.39844 16.9321L4.49414 14.479C4.46332 13.9708 4.23987 13.4936 3.86934 13.1445C3.49881 12.7953 3.00909 12.6007 2.5 12.6001C1.96957 12.6001 1.46086 12.8108 1.08579 13.1859C0.710714 13.561 0.5 14.0697 0.5 14.6001C0.5 15.1305 0.710714 15.6392 1.08579 16.0143C1.46086 16.3894 1.96957 16.6001 2.5 16.6001C2.89112 16.5993 3.27342 16.4839 3.59961 16.2681L8.50586 18.7212C8.53668 19.2293 8.76013 19.7066 9.13066 20.0557C9.50119 20.4049 9.99091 20.5995 10.5 20.6001C11.0094 20.5995 11.4994 20.4046 11.87 20.055C12.2406 19.7055 12.4638 19.2277 12.4941 18.7192L17.3984 16.2681C17.7252 16.4842 18.1082 16.5997 18.5 16.6001C19.0304 16.6001 19.5391 16.3894 19.9142 16.0143C20.2893 15.6392 20.5 15.1305 20.5 14.6001C20.5 14.0697 20.2893 13.561 19.9142 13.1859C19.5391 12.8108 19.0304 12.6001 18.5 12.6001C17.9909 12.6007 17.5012 12.7953 17.1307 13.1445C16.7601 13.4936 16.5367 13.9708 16.5059 14.479L11.6016 16.9321C11.5683 16.9109 11.5344 16.8908 11.5 16.8716V12.3286C11.7854 12.1634 12.0255 11.9302 12.1989 11.6497C12.3724 11.3693 12.4738 11.0503 12.4941 10.7212L17.3984 8.26807C17.7252 8.48425 18.1082 8.5997 18.5 8.6001C19.0304 8.6001 19.5391 8.38938 19.9142 8.01431C20.2893 7.63924 20.5 7.13053 20.5 6.6001C20.5 6.06966 20.2893 5.56096 19.9142 5.18588C19.5391 4.81081 19.0304 4.6001 18.5 4.6001C17.9909 4.60066 17.5012 4.79533 17.1307 5.14445C16.7601 5.49357 16.5367 5.97085 16.5059 6.479L11.5996 8.93213C11.2734 8.71631 10.8911 8.60087 10.5 8.6001C10.1082 8.60049 9.72518 8.71595 9.39844 8.93213L4.73633 6.6001L9.39844 4.26807C9.72518 4.48425 10.1082 4.5997 10.5 4.6001C11.0304 4.6001 11.5391 4.38938 11.9142 4.01431C12.2893 3.63924 12.5 3.13053 12.5 2.6001C12.5 2.06966 12.2893 1.56096 11.9142 1.18588C11.5391 0.810811 11.0304 0.600098 10.5 0.600098Z" fill="#153553"/>
</svg>
