<svg width="21" height="20" viewBox="0 0 21 20" fill="none" xmlns="http://www.w3.org/2000/svg">
<path d="M8.5 0C8.23479 2.65169e-05 7.98045 0.105392 7.79292 0.292922C7.60539 0.480453 7.50003 0.734792 7.5 1V2H5.5C3.85503 2 2.5 3.35503 2.5 5V7H1.5C1.23479 7.00003 0.980453 7.10539 0.792922 7.29292C0.605392 7.48045 0.500027 7.73479 0.5 8V12C0.500027 12.2652 0.605392 12.5195 0.792922 12.7071C0.980453 12.8946 1.23479 13 1.5 13H2.5V15C2.5 16.645 3.85503 18 5.5 18H7.5V19C7.50003 19.2652 7.60539 19.5195 7.79292 19.7071C7.98045 19.8946 8.23479 20 8.5 20H12.5C12.7652 20 13.0195 19.8946 13.2071 19.7071C13.3946 19.5195 13.5 19.2652 13.5 19V18H15.5C17.145 18 18.5 16.645 18.5 15V13H19.5C19.7652 13 20.0195 12.8946 20.2071 12.7071C20.3946 12.5195 20.5 12.2652 20.5 12V8C20.5 7.73479 20.3946 7.48045 20.2071 7.29292C20.0195 7.10539 19.7652 7.00003 19.5 7H18.5V5C18.5 3.35503 17.145 2 15.5 2H13.5V1C13.5 0.734792 13.3946 0.480453 13.2071 0.292922C13.0195 0.105392 12.7652 2.65169e-05 12.5 0H8.5ZM9.5 2H11.5V4H9.5V2ZM5.5 4H7.5V5C7.50003 5.26521 7.60539 5.51955 7.79292 5.70708C7.98045 5.89461 8.23479 5.99997 8.5 6H12.5C12.7652 5.99997 13.0195 5.89461 13.2071 5.70708C13.3946 5.51955 13.5 5.26521 13.5 5V4H15.5C16.065 4 16.5 4.43497 16.5 5V7H15.5C15.2348 7.00003 14.9805 7.10539 14.7929 7.29292C14.6054 7.48045 14.5 7.73479 14.5 8V12C14.5 12.2652 14.6054 12.5195 14.7929 12.7071C14.9805 12.8946 15.2348 13 15.5 13H16.5V15C16.5 15.565 16.065 16 15.5 16H13.5V15C13.5 14.7348 13.3946 14.4805 13.2071 14.2929C13.0195 14.1054 12.7652 14 12.5 14H8.5C8.23479 14 7.98045 14.1054 7.79292 14.2929C7.60539 14.4805 7.50003 14.7348 7.5 15V16H5.5C4.93497 16 4.5 15.565 4.5 15V13H5.5C5.76521 13 6.01955 12.8946 6.20708 12.7071C6.39461 12.5195 6.49997 12.2652 6.5 12V8C6.49997 7.73479 6.39461 7.48045 6.20708 7.29292C6.01955 7.10539 5.76521 7.00003 5.5 7H4.5V5C4.5 4.43497 4.93497 4 5.5 4ZM2.5 9H4.5V11H2.5V9ZM16.5 9H18.5V11H16.5V9ZM9.5 16H11.5V18H9.5V16Z" fill="#153553"/>
</svg>
