<svg width="21" height="20" viewBox="0 0 21 20" fill="none" xmlns="http://www.w3.org/2000/svg">
<path d="M18.5 4.7998H16.32C16.43 4.4898 16.5 4.1498 16.5 3.7998C16.5 2.1398 15.16 0.799805 13.5 0.799805C12.45 0.799805 11.54 1.3398 11 2.1498L10.5 2.8198L10 2.1398C9.46 1.3398 8.55 0.799805 7.5 0.799805C5.84 0.799805 4.5 2.1398 4.5 3.7998C4.5 4.1498 4.57 4.4898 4.68 4.7998H2.5C1.39 4.7998 0.51 5.6898 0.51 6.7998L0.5 17.7998C0.5 18.9098 1.39 19.7998 2.5 19.7998H18.5C19.61 19.7998 20.5 18.9098 20.5 17.7998V6.7998C20.5 5.6898 19.61 4.7998 18.5 4.7998ZM13.5 2.7998C14.05 2.7998 14.5 3.2498 14.5 3.7998C14.5 4.3498 14.05 4.7998 13.5 4.7998C12.95 4.7998 12.5 4.3498 12.5 3.7998C12.5 3.2498 12.95 2.7998 13.5 2.7998ZM7.5 2.7998C8.05 2.7998 8.5 3.2498 8.5 3.7998C8.5 4.3498 8.05 4.7998 7.5 4.7998C6.95 4.7998 6.5 4.3498 6.5 3.7998C6.5 3.2498 6.95 2.7998 7.5 2.7998ZM18.5 17.7998H2.5V15.7998H18.5V17.7998ZM18.5 12.7998H2.5V6.7998H7.58L5.5 9.6298L7.12 10.7998L9.5 7.5598L10.5 6.1998L11.5 7.5598L13.88 10.7998L15.5 9.6298L13.42 6.7998H18.5V12.7998Z" fill="#153553"/>
</svg>
