<svg width="206" height="69" viewBox="0 0 206 69" fill="none" xmlns="http://www.w3.org/2000/svg">
<g clip-path="url(#clip0_3321_77569)">
<path d="M27 59C41.9626 59 54 46.9626 54 32C54 17.0374 41.9626 5 27 5C12.0374 5 0 17.0374 0 32C0 46.9626 12.0374 59 27 59Z" fill="url(#paint0_linear_3321_77569)"/>
<g clip-path="url(#clip1_3321_77569)">
<path opacity="0.3" d="M26.3578 19.7863C24.2274 19.7863 22.5007 21.5131 22.5007 23.6435C22.5007 24.6361 22.8868 25.5309 23.5026 26.2149H29.213C29.8289 25.5309 30.2149 24.6361 30.2149 23.6435C30.2149 21.5131 28.4882 19.7863 26.3578 19.7863ZM39.2149 26.2149L35.4382 28.4825C34.4528 27.8721 33.343 27.357 32.1059 26.9758L31.7945 27.9074C31.6196 28.432 31.1282 28.7863 30.574 28.7863H22.1416C21.5874 28.7863 21.096 28.4333 20.9211 27.9074L20.8207 27.6036C18.6168 28.7626 17.1185 30.5719 16.4588 32.7038C16.3337 32.6641 16.2033 32.6437 16.0721 32.6435C15.7311 32.6435 15.4041 32.7789 15.163 33.0201C14.9218 33.2612 14.7864 33.5882 14.7864 33.9292C14.7864 34.2702 14.9218 34.5972 15.163 34.8383C15.4041 35.0795 15.7311 35.2149 16.0721 35.2149C16.0721 36.7118 16.5758 38.2373 17.4532 39.6421L18.4652 45.7116C18.5681 46.3326 19.1046 46.7863 19.7334 46.7863H22.6965C23.3252 46.7863 23.8618 46.3326 23.9647 45.7116L24.1179 44.7925C25.4208 45.2369 26.8195 45.5006 28.2864 45.5006C29.1793 45.5006 30.047 45.4262 30.8854 45.2922L31.4077 46.1611C31.6405 46.5494 32.0576 46.7863 32.5101 46.7863H35.3578C36.1691 46.7863 36.7766 46.0454 36.6184 45.2495L36.2342 43.326C37.5224 42.5106 38.5726 41.5003 39.3104 40.3578H40.7819C41.3721 40.3578 41.8872 39.9569 42.03 39.3834L42.7833 36.3701C42.9466 35.7182 42.5798 35.0504 41.9421 34.8382L40.1466 34.2406C39.7992 33.1107 39.198 32.0091 38.3637 31.0012C38.8322 29.7837 39.2149 28.1942 39.2149 26.2149ZM36.6435 33.9292C37.3532 33.9292 37.9292 34.5052 37.9292 35.2149C37.9292 35.9246 37.3532 36.5006 36.6435 36.5006C35.9338 36.5006 35.3578 35.9246 35.3578 35.2149C35.3578 34.5052 35.9338 33.9292 36.6435 33.9292Z" fill="white"/>
<path d="M24.4293 17.8578C22.2989 17.8578 20.5722 19.5845 20.5722 21.7149C20.5722 22.7075 20.9583 23.6023 21.5741 24.2863H27.2845C27.9004 23.6023 28.2865 22.7075 28.2865 21.7149C28.2865 19.5845 26.5598 17.8578 24.4293 17.8578ZM37.2865 24.2863L33.5097 26.5539C32.5244 25.9436 31.4145 25.4284 30.1774 25.0472L29.866 25.9789C29.6911 26.5034 29.1997 26.8578 28.6456 26.8578H20.2131C19.659 26.8578 19.1675 26.5047 18.9927 25.9789L18.8922 25.675C16.6883 26.834 15.1901 28.6434 14.5303 30.7752C14.4053 30.7355 14.2749 30.7151 14.1436 30.7149C13.8026 30.7149 13.4756 30.8504 13.2345 31.0915C12.9934 31.3326 12.8579 31.6596 12.8579 32.0006C12.8579 32.3416 12.9934 32.6686 13.2345 32.9098C13.4756 33.1509 13.8026 33.2863 14.1436 33.2863C14.1436 34.7833 14.6473 36.3087 15.5248 37.7135L16.5368 43.783C16.6396 44.404 17.1762 44.8578 17.8049 44.8578H20.7681C21.3968 44.8578 21.9333 44.404 22.0362 43.783L22.1894 42.8639C23.4923 43.3083 24.8911 43.572 26.3579 43.572C27.2509 43.572 28.1185 43.4977 28.957 43.3636L29.4793 44.2325C29.712 44.6208 30.1291 44.8578 30.5817 44.8578H33.4293C34.2406 44.8578 34.8481 44.1168 34.6899 43.3209L34.3057 41.3974C35.594 40.582 36.6441 39.5717 37.3819 38.4292H38.8534C39.4436 38.4292 39.9588 38.0283 40.1015 37.4549L40.8548 34.4415C41.0181 33.7896 40.6513 33.1218 40.0136 32.9097L38.2181 32.312C37.8707 31.1822 37.2695 30.0805 36.4352 29.0726C36.9038 27.8551 37.2865 26.2656 37.2865 24.2863ZM34.7151 32.0006C35.4248 32.0006 36.0008 32.5766 36.0008 33.2863C36.0008 33.996 35.4248 34.572 34.7151 34.572C34.0053 34.572 33.4293 33.996 33.4293 33.2863C33.4293 32.5766 34.0053 32.0006 34.7151 32.0006Z" fill="white"/>
</g>
</g>
<path d="M80.0209 49.1668C77.9736 49.1668 76.1482 48.7228 74.5449 47.8348C72.9662 46.9221 71.7206 45.6765 70.8079 44.0978C69.8952 42.5191 69.4389 40.7308 69.4389 38.7328V22.7858H74.4709V38.8808C74.4709 40.0401 74.7052 41.0391 75.1739 41.8778C75.6672 42.7165 76.3332 43.3701 77.1719 43.8388C78.0352 44.2828 78.9849 44.5048 80.0209 44.5048C81.0816 44.5048 82.0189 44.2828 82.8329 43.8388C83.6469 43.3701 84.2882 42.7165 84.7569 41.8778C85.2502 41.0391 85.4969 40.0525 85.4969 38.9178V22.7858H90.5659V38.7698C90.5659 40.7678 90.1096 42.5561 89.1969 44.1348C88.2842 45.6888 87.0386 46.9221 85.4599 47.8348C83.9059 48.7228 82.0929 49.1668 80.0209 49.1668ZM102.794 49.1668C100.697 49.1668 98.8962 48.8091 97.3915 48.0938C95.9115 47.3785 94.5672 46.3055 93.3585 44.8748L96.6885 41.5448C97.4532 42.5561 98.3412 43.3455 99.3525 43.9128C100.364 44.4555 101.597 44.7268 103.053 44.7268C104.36 44.7268 105.396 44.4678 106.161 43.9498C106.95 43.4318 107.345 42.7165 107.345 41.8038C107.345 41.0145 107.123 40.3731 106.679 39.8798C106.235 39.3865 105.643 38.9671 104.903 38.6218C104.187 38.2765 103.386 37.9681 102.498 37.6968C101.634 37.4008 100.759 37.0678 99.8705 36.6978C99.0072 36.3278 98.2055 35.8715 97.4655 35.3288C96.7502 34.7615 96.1705 34.0461 95.7265 33.1828C95.2825 32.2948 95.0605 31.1848 95.0605 29.8528C95.0605 28.2741 95.4429 26.9298 96.2075 25.8198C96.9722 24.7098 98.0205 23.8588 99.3525 23.2668C100.685 22.6748 102.189 22.3788 103.867 22.3788C105.643 22.3788 107.246 22.7118 108.677 23.3778C110.107 24.0438 111.279 24.9071 112.192 25.9678L108.862 29.2978C108.097 28.4591 107.308 27.8425 106.494 27.4478C105.704 27.0531 104.804 26.8558 103.793 26.8558C102.633 26.8558 101.721 27.0778 101.055 27.5218C100.389 27.9658 100.056 28.6071 100.056 29.4458C100.056 30.1611 100.278 30.7408 100.722 31.1848C101.166 31.6288 101.745 32.0111 102.461 32.3318C103.201 32.6525 104.002 32.9608 104.866 33.2568C105.754 33.5528 106.629 33.8858 107.493 34.2558C108.381 34.6258 109.182 35.1068 109.898 35.6988C110.638 36.2908 111.23 37.0555 111.674 37.9928C112.118 38.9055 112.34 40.0401 112.34 41.3968C112.34 43.8141 111.489 45.7135 109.787 47.0948C108.085 48.4761 105.754 49.1668 102.794 49.1668ZM119.752 48.7968V44.3198H126.375C128.052 44.3198 129.52 43.9745 130.778 43.2838C132.036 42.5685 133.01 41.5695 133.701 40.2868C134.416 39.0041 134.774 37.4871 134.774 35.7358C134.774 34.0338 134.416 32.5538 133.701 31.2958C132.986 30.0131 131.999 29.0265 130.741 28.3358C129.483 27.6205 128.028 27.2628 126.375 27.2628H119.641V22.7858H126.449C128.373 22.7858 130.149 23.1065 131.777 23.7478C133.43 24.3891 134.86 25.3018 136.069 26.4858C137.302 27.6451 138.252 29.0141 138.918 30.5928C139.609 32.1715 139.954 33.8981 139.954 35.7728C139.954 37.6475 139.609 39.3865 138.918 40.9898C138.252 42.5685 137.315 43.9498 136.106 45.1338C134.897 46.2931 133.467 47.1935 131.814 47.8348C130.186 48.4761 128.422 48.7968 126.523 48.7968H119.752ZM116.311 48.7968V22.7858H121.343V48.7968H116.311ZM143.435 41.5448V37.1418H156.237V41.5448H143.435ZM167.724 49.1668C165.628 49.1668 163.827 48.8091 162.322 48.0938C160.842 47.3785 159.498 46.3055 158.289 44.8748L161.619 41.5448C162.384 42.5561 163.272 43.3455 164.283 43.9128C165.295 44.4555 166.528 44.7268 167.983 44.7268C169.291 44.7268 170.327 44.4678 171.091 43.9498C171.881 43.4318 172.275 42.7165 172.275 41.8038C172.275 41.0145 172.053 40.3731 171.609 39.8798C171.165 39.3865 170.573 38.9671 169.833 38.6218C169.118 38.2765 168.316 37.9681 167.428 37.6968C166.565 37.4008 165.689 37.0678 164.801 36.6978C163.938 36.3278 163.136 35.8715 162.396 35.3288C161.681 34.7615 161.101 34.0461 160.657 33.1828C160.213 32.2948 159.991 31.1848 159.991 29.8528C159.991 28.2741 160.374 26.9298 161.138 25.8198C161.903 24.7098 162.951 23.8588 164.283 23.2668C165.615 22.6748 167.12 22.3788 168.797 22.3788C170.573 22.3788 172.177 22.7118 173.607 23.3778C175.038 24.0438 176.21 24.9071 177.122 25.9678L173.792 29.2978C173.028 28.4591 172.238 27.8425 171.424 27.4478C170.635 27.0531 169.735 26.8558 168.723 26.8558C167.564 26.8558 166.651 27.0778 165.985 27.5218C165.319 27.9658 164.986 28.6071 164.986 29.4458C164.986 30.1611 165.208 30.7408 165.652 31.1848C166.096 31.6288 166.676 32.0111 167.391 32.3318C168.131 32.6525 168.933 32.9608 169.796 33.2568C170.684 33.5528 171.56 33.8858 172.423 34.2558C173.311 34.6258 174.113 35.1068 174.828 35.6988C175.568 36.2908 176.16 37.0555 176.604 37.9928C177.048 38.9055 177.27 40.0401 177.27 41.3968C177.27 43.8141 176.419 45.7135 174.717 47.0948C173.015 48.4761 170.684 49.1668 167.724 49.1668ZM193.52 49.1668C191.621 49.1668 189.857 48.8338 188.229 48.1678C186.601 47.4771 185.171 46.5275 183.937 45.3188C182.729 44.0855 181.791 42.6548 181.125 41.0268C180.484 39.3988 180.163 37.6475 180.163 35.7728C180.163 33.8981 180.484 32.1468 181.125 30.5188C181.791 28.8908 182.729 27.4725 183.937 26.2638C185.171 25.0551 186.589 24.1055 188.192 23.4148C189.82 22.7241 191.596 22.3788 193.52 22.3788C195.592 22.3788 197.418 22.7241 198.996 23.4148C200.575 24.0808 201.969 25.0058 203.177 26.1898L199.773 29.5938C199.058 28.8045 198.182 28.1878 197.146 27.7438C196.11 27.2998 194.902 27.0778 193.52 27.0778C192.312 27.0778 191.202 27.2875 190.19 27.7068C189.204 28.1015 188.34 28.6935 187.6 29.4828C186.86 30.2475 186.293 31.1725 185.898 32.2578C185.504 33.3185 185.306 34.4901 185.306 35.7728C185.306 37.0801 185.504 38.2641 185.898 39.3248C186.293 40.3855 186.86 41.3105 187.6 42.0998C188.34 42.8645 189.204 43.4565 190.19 43.8758C191.202 44.2951 192.312 44.5048 193.52 44.5048C194.976 44.5048 196.221 44.2828 197.257 43.8388C198.318 43.3948 199.206 42.7658 199.921 41.9518L203.325 45.3558C202.117 46.5645 200.711 47.5018 199.107 48.1678C197.504 48.8338 195.642 49.1668 193.52 49.1668Z" fill="#153553"/>
<defs>
<linearGradient id="paint0_linear_3321_77569" x1="27" y1="5" x2="27" y2="59" gradientUnits="userSpaceOnUse">
<stop stop-color="#18ADE9"/>
<stop offset="1" stop-color="#248ECE"/>
</linearGradient>
<clipPath id="clip0_3321_77569">
<rect y="5" width="54" height="54" rx="27" fill="white"/>
</clipPath>
<clipPath id="clip1_3321_77569">
<rect width="30.8571" height="30.8571" fill="white" transform="translate(11.5715 16.5714)"/>
</clipPath>
</defs>
</svg>
