<svg width="40" height="40" viewBox="0 0 40 40" fill="none" xmlns="http://www.w3.org/2000/svg">
<g clip-path="url(#clip0_1670_27270)">
<path d="M20 40C31.0834 40 40 31.0834 40 20C40 8.9166 31.0834 0 20 0C8.9166 0 0 8.9166 0 20C0 31.0834 8.9166 40 20 40Z" fill="#153553"/>
<path d="M26.6668 24.3202C26.6668 20.6089 24.5773 19.3364 20.3981 18.8063C17.413 18.3821 16.816 17.5339 16.816 16.0491C16.816 14.5644 17.8111 13.6103 19.8011 13.6103C21.5922 13.6103 22.5873 14.2466 23.0847 15.8371C23.1843 16.1553 23.4828 16.3673 23.7813 16.3673H25.3732C25.7713 16.3673 26.0698 16.0491 26.0698 15.6252V15.519C25.6717 13.1861 23.8807 11.3835 21.5922 11.1715V8.62656C21.5922 8.20232 21.2937 7.8842 20.7962 7.77808H19.3037C18.9056 7.77808 18.6071 8.09619 18.5075 8.62656V11.0654C15.5224 11.4896 13.632 13.6103 13.632 16.2614C13.632 19.7607 15.622 21.139 19.8011 21.6694C22.5873 22.1995 23.4828 22.8357 23.4828 24.5325C23.4828 26.2292 22.0896 27.3955 20.1992 27.3955C17.612 27.3955 16.7164 26.2289 16.4179 24.6383C16.3186 24.2143 16.0201 24.0021 15.7216 24.0021H14.0299C13.632 24.0021 13.3335 24.3202 13.3335 24.7444V24.8506C13.7313 27.5014 15.3235 29.4101 18.6071 29.9405V32.4854C18.6071 32.9094 18.9056 33.2275 19.403 33.3336H20.8956C21.2937 33.3336 21.5922 33.0155 21.6918 32.4854V29.9405C24.6768 29.4101 26.6668 27.1833 26.6668 24.3202Z" fill="white"/>
</g>
<defs>
<clipPath id="clip0_1670_27270">
<rect width="40" height="40" rx="20" fill="white"/>
</clipPath>
</defs>
</svg>
