<svg width="25" height="25" viewBox="0 0 25 25" fill="none" xmlns="http://www.w3.org/2000/svg">
<g clip-path="url(#clip0_3269_77664)">
<path d="M12.6787 24.7038C19.4283 24.7038 24.8583 19.2738 24.8583 12.5242C24.8583 5.77457 19.4283 0.344509 12.6787 0.344509C5.92908 0.344509 0.499023 5.77457 0.499023 12.5242C0.499023 19.2738 5.92908 24.7038 12.6787 24.7038Z" fill="#396FF1"/>
<path d="M16.0281 14.4525C16.0281 12.6764 14.9623 12.0674 12.8309 11.8137C11.3084 11.6107 11.0039 11.2047 11.0039 10.4942C11.0039 9.78359 11.5115 9.32698 12.5264 9.32698C13.4399 9.32698 13.9474 9.63147 14.2011 10.3927C14.2519 10.5449 14.4041 10.6464 14.5564 10.6464H15.3683C15.5713 10.6464 15.7236 10.4942 15.7236 10.2912V10.2405C15.5205 9.12394 14.6071 8.26126 13.4399 8.1598V6.94184C13.4399 6.7388 13.2876 6.58656 13.0339 6.53577H12.2727C12.0697 6.53577 11.9174 6.68801 11.8666 6.94184V8.10901C10.3442 8.31205 9.38003 9.32698 9.38003 10.5957C9.38003 12.2704 10.395 12.9301 12.5264 13.1839C13.9474 13.4376 14.4041 13.7421 14.4041 14.5541C14.4041 15.3661 13.6936 15.9243 12.7294 15.9243C11.4099 15.9243 10.9532 15.366 10.8009 14.6048C10.7502 14.4019 10.598 14.3003 10.4457 14.3003H9.58294C9.38003 14.3003 9.22778 14.4525 9.22778 14.6556V14.7064C9.4307 15.975 10.2427 16.8885 11.9174 17.1423V18.3603C11.9174 18.5632 12.0697 18.7154 12.3234 18.7662H13.0846C13.2876 18.7662 13.4399 18.614 13.4907 18.3603V17.1423C15.0131 16.8885 16.0281 15.8228 16.0281 14.4525V14.4525Z" fill="white"/>
<path d="M10.0904 19.7812C6.132 18.3603 4.10201 13.9452 5.5738 10.0374C6.33503 7.90601 8.00974 6.28209 10.0904 5.52086C10.2934 5.41941 10.3949 5.26716 10.3949 5.01334V4.3029C10.3949 4.09986 10.2934 3.94762 10.0904 3.89695C10.0396 3.89695 9.93814 3.89695 9.88735 3.94762C5.06628 5.47007 2.42731 10.5958 3.94977 15.4168C4.86324 18.2587 7.04547 20.441 9.88735 21.3544C10.0904 21.4559 10.2934 21.3544 10.3441 21.1514C10.3949 21.1007 10.3949 21.0499 10.3949 20.9485V20.2379C10.3949 20.0857 10.2426 19.8828 10.0904 19.7812ZM15.4698 3.94762C15.2667 3.84616 15.0637 3.94762 15.013 4.15065C14.9623 4.20144 14.9623 4.25211 14.9623 4.35369V5.06413C14.9623 5.26716 15.1145 5.47008 15.2667 5.57165C19.2251 6.99253 21.2551 11.4077 19.7833 15.3154C19.0221 17.4468 17.3474 19.0707 15.2667 19.832C15.0637 19.9334 14.9623 20.0857 14.9623 20.3395V21.0499C14.9623 21.253 15.0637 21.4052 15.2667 21.4559C15.3175 21.4559 15.419 21.4559 15.4698 21.4052C20.2909 19.8828 22.9298 14.7571 21.4074 9.93599C20.4939 7.04332 18.2609 4.86109 15.4698 3.94762V3.94762Z" fill="white"/>
</g>
<defs>
<clipPath id="clip0_3269_77664">
<rect x="0.499023" y="0.344509" width="24.3593" height="24.3593" rx="12.1797" fill="white"/>
</clipPath>
</defs>
</svg>
