<svg width="50" height="50" viewBox="0 0 50 50" fill="none" xmlns="http://www.w3.org/2000/svg">
<g clip-path="url(#clip0_1719_54319)">
<path d="M25 50C38.8543 50 50 38.8543 50 25C50 11.1458 38.8543 0 25 0C11.1458 0 0 11.1458 0 25C0 38.8543 11.1458 50 25 50Z" fill="url(#paint0_linear_1719_54319)"/>
<g clip-path="url(#clip1_1719_54319)">
<path opacity="0.3" d="M24.4047 13.6914C22.4321 13.6914 20.8333 15.2902 20.8333 17.2628C20.8333 18.1819 21.1908 19.0105 21.761 19.6438H27.0484C27.6186 19.0105 27.9761 18.1819 27.9761 17.2628C27.9761 15.2902 26.3773 13.6914 24.4047 13.6914ZM36.3095 19.6438L32.8125 21.7434C31.9001 21.1783 30.8725 20.7013 29.727 20.3483L29.4387 21.2109C29.2768 21.6967 28.8217 22.0247 28.3086 22.0247H20.5008C19.9877 22.0247 19.5327 21.6978 19.3708 21.2109L19.2778 20.9296C17.2371 22.0028 15.8498 23.6781 15.239 25.652C15.1232 25.6152 15.0024 25.5964 14.8809 25.5962C14.5652 25.5962 14.2624 25.7216 14.0391 25.9449C13.8159 26.1681 13.6904 26.4709 13.6904 26.7866C13.6904 27.1024 13.8159 27.4052 14.0391 27.6284C14.2624 27.8517 14.5652 27.9771 14.8809 27.9771C14.8809 29.3632 15.3473 30.7756 16.1597 32.0764L17.0968 37.6962C17.192 38.2712 17.6888 38.6914 18.271 38.6914H21.0146C21.5968 38.6914 22.0936 38.2712 22.1888 37.6962L22.3307 36.8452C23.5371 37.2567 24.8322 37.5009 26.1904 37.5009C27.0173 37.5009 27.8206 37.4321 28.597 37.3079L29.0806 38.1124C29.2961 38.472 29.6823 38.6914 30.1013 38.6914H32.738C33.4892 38.6914 34.0517 38.0053 33.9053 37.2684L33.5495 35.4874C34.7423 34.7324 35.7147 33.7969 36.3978 32.739H37.7604C38.3068 32.739 38.7838 32.3678 38.916 31.8369L39.6135 29.0467C39.7647 28.4431 39.4251 27.8248 38.8346 27.6283L37.1721 27.075C36.8504 26.0288 36.2937 25.0087 35.5212 24.0755C35.9551 22.9482 36.3095 21.4765 36.3095 19.6438ZM33.9285 26.7866C34.5857 26.7866 35.119 27.32 35.119 27.9771C35.119 28.6343 34.5857 29.1676 33.9285 29.1676C33.2714 29.1676 32.738 28.6343 32.738 27.9771C32.738 27.32 33.2714 26.7866 33.9285 26.7866Z" fill="white"/>
<path d="M22.6196 11.9062C20.6469 11.9062 19.0481 13.5051 19.0481 15.4777C19.0481 16.3967 19.4056 17.2253 19.9759 17.8586H25.2633C25.8335 17.2253 26.191 16.3967 26.191 15.4777C26.191 13.5051 24.5922 11.9062 22.6196 11.9062ZM34.5243 17.8586L31.0273 19.9582C30.115 19.3931 29.0873 18.9161 27.9418 18.5632L27.6535 19.4258C27.4916 19.9115 27.0366 20.2396 26.5235 20.2396H18.7156C18.2025 20.2396 17.7475 19.9127 17.5856 19.4258L17.4926 19.1444C15.4519 20.2176 14.0647 21.8929 13.4538 23.8668C13.338 23.83 13.2173 23.8112 13.0957 23.811C12.78 23.811 12.4772 23.9364 12.254 24.1597C12.0307 24.383 11.9053 24.6858 11.9053 25.0015C11.9053 25.3172 12.0307 25.62 12.254 25.8433C12.4772 26.0665 12.78 26.192 13.0957 26.192C13.0957 27.578 13.5621 28.9904 14.3746 30.2912L15.3116 35.9111C15.4069 36.4861 15.9037 36.9062 16.4858 36.9062H19.2295C19.8116 36.9062 20.3085 36.4861 20.4037 35.9111L20.5455 35.0601C21.7519 35.4716 23.0471 35.7158 24.4053 35.7158C25.2321 35.7158 26.0354 35.6469 26.8118 35.5228L27.2954 36.3273C27.5109 36.6868 27.8971 36.9062 28.3162 36.9062H30.9529C31.7041 36.9062 32.2665 36.2202 32.1201 35.4833L31.7644 33.7022C32.9572 32.9473 33.9295 32.0117 34.6127 30.9539H35.9752C36.5216 30.9539 36.9987 30.5827 37.1308 30.0517L37.8284 27.2615C37.9795 26.658 37.6399 26.0396 37.0494 25.8432L35.3869 25.2898C35.0652 24.2437 34.5086 23.2236 33.7361 22.2904C34.17 21.163 34.5243 19.6913 34.5243 17.8586ZM32.1434 25.0015C32.8005 25.0015 33.3338 25.5348 33.3338 26.192C33.3338 26.8491 32.8005 27.3824 32.1434 27.3824C31.4862 27.3824 30.9529 26.8491 30.9529 26.192C30.9529 25.5348 31.4862 25.0015 32.1434 25.0015Z" fill="white"/>
</g>
</g>
<defs>
<linearGradient id="paint0_linear_1719_54319" x1="25" y1="0" x2="25" y2="50" gradientUnits="userSpaceOnUse">
<stop stop-color="#18ADE9"/>
<stop offset="1" stop-color="#248ECE"/>
</linearGradient>
<clipPath id="clip0_1719_54319">
<rect width="50" height="50" rx="25" fill="white"/>
</clipPath>
<clipPath id="clip1_1719_54319">
<rect width="28.5714" height="28.5714" fill="white" transform="translate(10.7139 10.7148)"/>
</clipPath>
</defs>
</svg>
