<svg width="569" height="504" viewBox="0 0 569 504" fill="none" xmlns="http://www.w3.org/2000/svg">
<g clip-path="url(#clip0_3321_78065)">
<path d="M550.156 108.246L474.938 207.241L471.628 211.607L465.84 213.777L259.872 291.46L270.461 366.9L272.884 384.147L256.039 396.35L108.401 522.724L5.26457e-05 510L217.268 351.76L213.844 278.404L212.915 258.433L229.002 252.436L448.396 170.63L526.694 85.6966L509.083 79.5874L569 60L558.045 128.107L550.156 108.246Z" fill="url(#paint0_linear_3321_78065)" fill-opacity="0.47"/>
<path d="M521.117 475.505H413.241C412.18 475.505 411.321 476.364 411.321 477.425V502.017C411.321 503.077 412.18 503.937 413.241 503.937H521.117C522.177 503.937 523.037 503.077 523.037 502.017V477.425C523.037 476.364 522.177 475.505 521.117 475.505Z" fill="url(#paint1_linear_3321_78065)"/>
<path opacity="0.2" d="M420.738 477.15H416.319V502.55H420.738V477.15Z" fill="#153553"/>
<path opacity="0.2" d="M430.778 477.028H427.563V502.428H430.778V477.028Z" fill="#153553"/>
<path opacity="0.2" d="M440.028 477.15H438.413V502.55H440.028V477.15Z" fill="#153553"/>
<path opacity="0.2" d="M452.49 477.028H451.682V502.428H452.49V477.028Z" fill="#153553"/>
<path opacity="0.2" d="M513.62 502.428H518.039V477.028H513.62V502.428Z" fill="#153553"/>
<path opacity="0.2" d="M503.579 502.549H506.794V477.15H503.579V502.549Z" fill="#153553"/>
<path opacity="0.2" d="M494.346 502.428H495.946V477.028H494.346V502.428Z" fill="#153553"/>
<path opacity="0.2" d="M481.867 502.549H482.675V477.15H481.867V502.549Z" fill="#153553"/>
<path opacity="0.2" d="M466.981 502.549H467.377V477.15H466.981V502.549Z" fill="#153553"/>
<path opacity="0.2" d="M520.051 479.831H414.536C414.18 479.831 413.839 479.69 413.588 479.439C413.336 479.187 413.195 478.846 413.195 478.491C413.199 478.136 413.341 477.798 413.592 477.547C413.843 477.296 414.181 477.154 414.536 477.15H520.051C520.406 477.15 520.747 477.291 520.999 477.543C521.25 477.794 521.391 478.135 521.391 478.491C521.393 478.667 521.36 478.843 521.293 479.006C521.227 479.17 521.128 479.318 521.003 479.443C520.878 479.568 520.73 479.667 520.566 479.734C520.402 479.8 520.227 479.834 520.051 479.831Z" fill="white"/>
<path d="M524.165 447.149H416.288C415.228 447.149 414.368 448.008 414.368 449.069V473.661C414.368 474.721 415.228 475.581 416.288 475.581H524.165C525.225 475.581 526.085 474.721 526.085 473.661V449.069C526.085 448.008 525.225 447.149 524.165 447.149Z" fill="url(#paint2_linear_3321_78065)"/>
<path opacity="0.2" d="M423.784 448.794H419.366V474.194H423.784V448.794Z" fill="#153553"/>
<path opacity="0.2" d="M433.84 448.672H430.625V474.072H433.84V448.672Z" fill="#153553"/>
<path opacity="0.2" d="M443.074 448.794H441.474V474.194H443.074V448.794Z" fill="#153553"/>
<path opacity="0.2" d="M455.538 448.672H454.73V474.072H455.538V448.672Z" fill="#153553"/>
<path opacity="0.2" d="M516.684 474.057H521.103V448.657H516.684V474.057Z" fill="#153553"/>
<path opacity="0.2" d="M506.627 474.179H509.842V448.779H506.627V474.179Z" fill="#153553"/>
<path opacity="0.2" d="M497.378 474.057H498.993V448.657H497.378V474.057Z" fill="#153553"/>
<path opacity="0.2" d="M484.914 474.179H485.722V448.779H484.914V474.179Z" fill="#153553"/>
<path opacity="0.2" d="M470.028 474.179H470.424V448.779H470.028V474.179Z" fill="#153553"/>
<path opacity="0.2" d="M523.098 451.476H417.583C417.228 451.472 416.89 451.329 416.639 451.079C416.388 450.828 416.246 450.489 416.242 450.135C416.242 449.779 416.383 449.438 416.635 449.187C416.886 448.935 417.227 448.794 417.583 448.794H523.098C523.274 448.792 523.45 448.825 523.613 448.892C523.777 448.959 523.925 449.057 524.05 449.182C524.175 449.307 524.274 449.456 524.341 449.619C524.407 449.783 524.441 449.958 524.438 450.135C524.438 450.491 524.297 450.832 524.046 451.083C523.794 451.335 523.453 451.476 523.098 451.476Z" fill="white"/>
<path d="M524.165 418.793H416.288C415.228 418.793 414.368 419.653 414.368 420.713V445.305C414.368 446.365 415.228 447.225 416.288 447.225H524.165C525.225 447.225 526.085 446.365 526.085 445.305V420.713C526.085 419.653 525.225 418.793 524.165 418.793Z" fill="url(#paint3_linear_3321_78065)"/>
<path opacity="0.2" d="M423.784 420.423H419.366V445.823H423.784V420.423Z" fill="#153553"/>
<path opacity="0.2" d="M433.84 420.301H430.625V445.701H433.84V420.301Z" fill="#153553"/>
<path opacity="0.2" d="M443.074 420.423H441.474V445.823H443.074V420.423Z" fill="#153553"/>
<path opacity="0.2" d="M455.538 420.301H454.73V445.701H455.538V420.301Z" fill="#153553"/>
<path opacity="0.2" d="M516.684 445.701H521.103V420.301H516.684V445.701Z" fill="#153553"/>
<path opacity="0.2" d="M506.627 445.824H509.842V420.424H506.627V445.824Z" fill="#153553"/>
<path opacity="0.2" d="M497.378 445.701H498.993V420.301H497.378V445.701Z" fill="#153553"/>
<path opacity="0.2" d="M484.914 445.824H485.722V420.424H484.914V445.824Z" fill="#153553"/>
<path opacity="0.2" d="M470.028 445.824H470.424V420.424H470.028V445.824Z" fill="#153553"/>
<path opacity="0.2" d="M523.098 423.105H417.583C417.227 423.105 416.886 422.964 416.635 422.712C416.383 422.461 416.242 422.12 416.242 421.764C416.246 421.41 416.388 421.071 416.639 420.82C416.89 420.57 417.228 420.427 417.583 420.423H523.098C523.453 420.423 523.794 420.565 524.046 420.816C524.297 421.068 524.438 421.409 524.438 421.764C524.441 421.941 524.407 422.116 524.341 422.28C524.274 422.443 524.175 422.592 524.05 422.717C523.925 422.842 523.777 422.94 523.613 423.007C523.45 423.074 523.274 423.107 523.098 423.105Z" fill="white"/>
<path d="M521.117 390.422H413.241C412.18 390.422 411.321 391.282 411.321 392.342V416.934C411.321 417.995 412.18 418.854 413.241 418.854H521.117C522.177 418.854 523.037 417.995 523.037 416.934V392.342C523.037 391.282 522.177 390.422 521.117 390.422Z" fill="url(#paint4_linear_3321_78065)"/>
<path opacity="0.2" d="M420.738 392.068H416.319V417.468H420.738V392.068Z" fill="#153553"/>
<path opacity="0.2" d="M430.778 391.946H427.563V417.346H430.778V391.946Z" fill="#153553"/>
<path opacity="0.2" d="M440.028 392.068H438.413V417.468H440.028V392.068Z" fill="#153553"/>
<path opacity="0.2" d="M452.49 391.946H451.682V417.346H452.49V391.946Z" fill="#153553"/>
<path opacity="0.2" d="M513.62 417.33H518.039V391.93H513.62V417.33Z" fill="#153553"/>
<path opacity="0.2" d="M503.579 417.452H506.794V392.052H503.579V417.452Z" fill="#153553"/>
<path opacity="0.2" d="M494.346 417.33H495.946V391.93H494.346V417.33Z" fill="#153553"/>
<path opacity="0.2" d="M481.867 417.452H482.675V392.052H481.867V417.452Z" fill="#153553"/>
<path opacity="0.2" d="M466.981 417.452H467.377V392.052H466.981V417.452Z" fill="#153553"/>
<path opacity="0.2" d="M520.051 394.749H414.536C414.181 394.745 413.843 394.603 413.592 394.352C413.341 394.102 413.199 393.763 413.195 393.408C413.195 393.053 413.336 392.712 413.588 392.46C413.839 392.209 414.18 392.068 414.536 392.068H520.051C520.227 392.066 520.402 392.099 520.566 392.166C520.73 392.232 520.878 392.331 521.003 392.456C521.128 392.581 521.227 392.729 521.293 392.893C521.36 393.057 521.393 393.232 521.391 393.408C521.391 393.764 521.25 394.105 520.999 394.357C520.747 394.608 520.406 394.749 520.051 394.749Z" fill="white"/>
<path d="M516.546 362.066H408.669C407.609 362.066 406.75 362.926 406.75 363.986V388.578C406.75 389.638 407.609 390.498 408.669 390.498H516.546C517.606 390.498 518.466 389.638 518.466 388.578V363.986C518.466 362.926 517.606 362.066 516.546 362.066Z" fill="url(#paint5_linear_3321_78065)"/>
<path opacity="0.2" d="M416.166 363.697H411.748V389.097H416.166V363.697Z" fill="#153553"/>
<path opacity="0.2" d="M426.208 363.575H422.993V388.975H426.208V363.575Z" fill="#153553"/>
<path opacity="0.2" d="M435.441 363.697H433.841V389.097H435.441V363.697Z" fill="#153553"/>
<path opacity="0.2" d="M447.92 363.575H447.112V388.975H447.92V363.575Z" fill="#153553"/>
<path opacity="0.2" d="M509.05 388.975H513.468V363.575H509.05V388.975Z" fill="#153553"/>
<path opacity="0.2" d="M498.993 389.096H502.208V363.697H498.993V389.096Z" fill="#153553"/>
<path opacity="0.2" d="M489.775 388.975H491.375V363.575H489.775V388.975Z" fill="#153553"/>
<path opacity="0.2" d="M477.312 389.096H478.12V363.697H477.312V389.096Z" fill="#153553"/>
<path opacity="0.2" d="M462.409 389.096H462.805V363.697H462.409V389.096Z" fill="#153553"/>
<path opacity="0.2" d="M515.48 366.378H409.965C409.788 366.381 409.613 366.347 409.449 366.281C409.286 366.214 409.137 366.115 409.012 365.99C408.887 365.865 408.788 365.717 408.722 365.553C408.655 365.39 408.622 365.214 408.624 365.038C408.624 364.682 408.765 364.341 409.017 364.09C409.268 363.838 409.609 363.697 409.965 363.697H515.48C515.835 363.697 516.176 363.838 516.428 364.09C516.679 364.341 516.82 364.682 516.82 365.038C516.822 365.214 516.789 365.39 516.722 365.553C516.656 365.717 516.557 365.865 516.432 365.99C516.307 366.115 516.159 366.214 515.995 366.281C515.831 366.347 515.656 366.381 515.48 366.378Z" fill="white"/>
<path d="M521.117 333.695H413.241C412.18 333.695 411.321 334.555 411.321 335.615V360.207C411.321 361.268 412.18 362.127 413.241 362.127H521.117C522.177 362.127 523.037 361.268 523.037 360.207V335.615C523.037 334.555 522.177 333.695 521.117 333.695Z" fill="url(#paint6_linear_3321_78065)"/>
<path opacity="0.2" d="M420.738 335.341H416.319V360.741H420.738V335.341Z" fill="#153553"/>
<path opacity="0.2" d="M430.778 335.219H427.563V360.619H430.778V335.219Z" fill="#153553"/>
<path opacity="0.2" d="M440.028 335.341H438.413V360.741H440.028V335.341Z" fill="#153553"/>
<path opacity="0.2" d="M452.49 335.219H451.682V360.619H452.49V335.219Z" fill="#153553"/>
<path opacity="0.2" d="M513.62 360.603H518.039V335.204H513.62V360.603Z" fill="#153553"/>
<path opacity="0.2" d="M503.579 360.726H506.794V335.326H503.579V360.726Z" fill="#153553"/>
<path opacity="0.2" d="M494.346 360.603H495.946V335.204H494.346V360.603Z" fill="#153553"/>
<path opacity="0.2" d="M481.867 360.726H482.675V335.326H481.867V360.726Z" fill="#153553"/>
<path opacity="0.2" d="M466.981 360.726H467.377V335.326H466.981V360.726Z" fill="#153553"/>
<path opacity="0.2" d="M520.051 338.023H414.536C414.18 338.023 413.839 337.882 413.588 337.63C413.336 337.379 413.195 337.038 413.195 336.682C413.195 336.327 413.336 335.986 413.588 335.734C413.839 335.483 414.18 335.342 414.536 335.342H520.051C520.227 335.339 520.402 335.373 520.566 335.439C520.73 335.506 520.878 335.605 521.003 335.73C521.128 335.855 521.227 336.003 521.293 336.167C521.36 336.33 521.393 336.506 521.391 336.682C521.393 336.859 521.36 337.034 521.293 337.198C521.227 337.362 521.128 337.51 521.003 337.635C520.878 337.76 520.73 337.859 520.566 337.925C520.402 337.992 520.227 338.025 520.051 338.023Z" fill="white"/>
<path d="M521.117 305.34H413.241C412.18 305.34 411.321 306.199 411.321 307.26V331.852C411.321 332.912 412.18 333.772 413.241 333.772H521.117C522.177 333.772 523.037 332.912 523.037 331.852V307.26C523.037 306.199 522.177 305.34 521.117 305.34Z" fill="url(#paint7_linear_3321_78065)"/>
<path opacity="0.2" d="M420.738 306.97H416.319V332.37H420.738V306.97Z" fill="#153553"/>
<path opacity="0.2" d="M430.778 306.848H427.563V332.248H430.778V306.848Z" fill="#153553"/>
<path opacity="0.2" d="M440.028 306.97H438.413V332.37H440.028V306.97Z" fill="#153553"/>
<path opacity="0.2" d="M452.49 306.848H451.682V332.248H452.49V306.848Z" fill="#153553"/>
<path opacity="0.2" d="M513.62 332.248H518.039V306.848H513.62V332.248Z" fill="#153553"/>
<path opacity="0.2" d="M503.579 332.37H506.794V306.97H503.579V332.37Z" fill="#153553"/>
<path opacity="0.2" d="M494.346 332.248H495.946V306.848H494.346V332.248Z" fill="#153553"/>
<path opacity="0.2" d="M481.867 332.37H482.675V306.97H481.867V332.37Z" fill="#153553"/>
<path opacity="0.2" d="M466.981 332.37H467.377V306.97H466.981V332.37Z" fill="#153553"/>
<path opacity="0.2" d="M520.051 309.667H414.536C414.179 309.663 413.838 309.519 413.587 309.265C413.336 309.011 413.195 308.668 413.195 308.311C413.199 307.957 413.341 307.618 413.592 307.367C413.843 307.117 414.181 306.974 414.536 306.97H520.051C520.406 306.97 520.747 307.112 520.999 307.363C521.25 307.614 521.391 307.956 521.391 308.311C521.393 308.489 521.36 308.664 521.294 308.829C521.227 308.993 521.129 309.143 521.004 309.269C520.879 309.395 520.731 309.495 520.567 309.564C520.403 309.632 520.228 309.667 520.051 309.667Z" fill="white"/>
<path d="M525.688 276.969H417.812C416.752 276.969 415.892 277.828 415.892 278.888V303.481C415.892 304.541 416.752 305.4 417.812 305.4H525.688C526.749 305.4 527.608 304.541 527.608 303.481V278.888C527.608 277.828 526.749 276.969 525.688 276.969Z" fill="url(#paint8_linear_3321_78065)"/>
<path opacity="0.2" d="M425.308 278.614H420.889V304.014H425.308V278.614Z" fill="#153553"/>
<path opacity="0.2" d="M435.365 278.492H432.15V303.892H435.365V278.492Z" fill="#153553"/>
<path opacity="0.2" d="M444.613 278.614H442.998V304.014H444.613V278.614Z" fill="#153553"/>
<path opacity="0.2" d="M457.062 278.492H456.254V303.892H457.062V278.492Z" fill="#153553"/>
<path opacity="0.2" d="M518.207 303.877H522.626V278.478H518.207V303.877Z" fill="#153553"/>
<path opacity="0.2" d="M508.15 304.014H511.365V278.615H508.15V304.014Z" fill="#153553"/>
<path opacity="0.2" d="M498.917 303.877H500.517V278.478H498.917V303.877Z" fill="#153553"/>
<path opacity="0.2" d="M486.437 304.014H487.245V278.615H486.437V304.014Z" fill="#153553"/>
<path opacity="0.2" d="M471.567 304.014H471.963V278.615H471.567V304.014Z" fill="#153553"/>
<path opacity="0.2" d="M524.622 281.25H419.122C418.945 281.252 418.769 281.219 418.604 281.152C418.44 281.086 418.29 280.988 418.164 280.863C418.038 280.738 417.938 280.59 417.869 280.426C417.801 280.262 417.766 280.087 417.766 279.909C417.766 279.732 417.801 279.556 417.869 279.393C417.938 279.229 418.038 279.08 418.164 278.956C418.29 278.831 418.44 278.733 418.604 278.666C418.769 278.6 418.945 278.566 419.122 278.568H524.622C524.799 278.566 524.975 278.6 525.139 278.666C525.304 278.733 525.453 278.831 525.58 278.956C525.706 279.08 525.806 279.229 525.874 279.393C525.942 279.556 525.978 279.732 525.978 279.909C525.978 280.087 525.942 280.262 525.874 280.426C525.806 280.59 525.706 280.738 525.58 280.863C525.453 280.988 525.304 281.086 525.139 281.152C524.975 281.219 524.799 281.252 524.622 281.25Z" fill="white"/>
<path d="M518.069 248.613H410.193C409.132 248.613 408.273 249.473 408.273 250.533V275.125C408.273 276.186 409.132 277.045 410.193 277.045H518.069C519.13 277.045 519.989 276.186 519.989 275.125V250.533C519.989 249.473 519.13 248.613 518.069 248.613Z" fill="url(#paint9_linear_3321_78065)"/>
<path opacity="0.2" d="M417.69 250.259H413.271V275.658H417.69V250.259Z" fill="#153553"/>
<path opacity="0.2" d="M427.731 250.122H424.516V275.522H427.731V250.122Z" fill="#153553"/>
<path opacity="0.2" d="M436.965 250.259H435.365V275.658H436.965V250.259Z" fill="#153553"/>
<path opacity="0.2" d="M449.444 250.122H448.636V275.522H449.444V250.122Z" fill="#153553"/>
<path opacity="0.2" d="M510.574 275.522H514.992V250.122H510.574V275.522Z" fill="#153553"/>
<path opacity="0.2" d="M500.517 275.643H503.732V250.244H500.517V275.643Z" fill="#153553"/>
<path opacity="0.2" d="M491.299 275.522H492.899V250.122H491.299V275.522Z" fill="#153553"/>
<path opacity="0.2" d="M478.82 275.643H479.627V250.244H478.82V275.643Z" fill="#153553"/>
<path opacity="0.2" d="M463.933 275.643H464.33V250.244H463.933V275.643Z" fill="#153553"/>
<path opacity="0.2" d="M517.003 252.94H411.488C411.134 252.937 410.795 252.794 410.544 252.543C410.294 252.293 410.151 251.954 410.147 251.6C410.147 251.244 410.288 250.903 410.54 250.652C410.791 250.4 411.132 250.259 411.488 250.259H517.003C517.18 250.257 517.355 250.29 517.518 250.357C517.682 250.423 517.831 250.522 517.956 250.647C518.08 250.772 518.179 250.921 518.246 251.084C518.312 251.248 518.346 251.423 518.344 251.6C518.344 251.955 518.202 252.296 517.951 252.548C517.7 252.799 517.359 252.94 517.003 252.94Z" fill="white"/>
<path d="M515.022 220.242H407.146C406.086 220.242 405.226 221.102 405.226 222.162V246.754C405.226 247.815 406.086 248.674 407.146 248.674H515.022C516.083 248.674 516.942 247.815 516.942 246.754V222.162C516.942 221.102 516.083 220.242 515.022 220.242Z" fill="url(#paint10_linear_3321_78065)"/>
<path opacity="0.2" d="M414.642 221.888H410.224V247.288H414.642V221.888Z" fill="#153553"/>
<path opacity="0.2" d="M424.683 221.766H421.469V247.166H424.683V221.766Z" fill="#153553"/>
<path opacity="0.2" d="M433.932 221.888H432.317V247.288H433.932V221.888Z" fill="#153553"/>
<path opacity="0.2" d="M446.396 221.766H445.589V247.166H446.396V221.766Z" fill="#153553"/>
<path opacity="0.2" d="M507.526 247.151H511.945V221.751H507.526V247.151Z" fill="#153553"/>
<path opacity="0.2" d="M497.47 247.288H500.685V221.888H497.47V247.288Z" fill="#153553"/>
<path opacity="0.2" d="M488.236 247.151H489.835V221.751H488.236V247.151Z" fill="#153553"/>
<path opacity="0.2" d="M475.787 247.288H476.595V221.888H475.787V247.288Z" fill="#153553"/>
<path opacity="0.2" d="M460.886 247.288H461.282V221.888H460.886V247.288Z" fill="#153553"/>
<path opacity="0.2" d="M513.956 224.569H408.441C408.265 224.571 408.089 224.538 407.926 224.472C407.762 224.405 407.614 224.306 407.489 224.181C407.364 224.056 407.265 223.908 407.198 223.744C407.132 223.581 407.098 223.405 407.1 223.229C407.098 223.052 407.132 222.877 407.198 222.713C407.265 222.549 407.364 222.401 407.489 222.276C407.614 222.151 407.762 222.052 407.926 221.986C408.089 221.919 408.265 221.886 408.441 221.888H513.956C514.133 221.886 514.308 221.919 514.472 221.986C514.635 222.052 514.784 222.151 514.909 222.276C515.034 222.401 515.132 222.549 515.199 222.713C515.266 222.877 515.299 223.052 515.297 223.229C515.299 223.405 515.266 223.581 515.199 223.744C515.132 223.908 515.034 224.056 514.909 224.181C514.784 224.306 514.635 224.405 514.472 224.472C514.308 224.538 514.133 224.571 513.956 224.569Z" fill="white"/>
<path d="M383.909 475.505H276.033C274.973 475.505 274.113 476.364 274.113 477.425V502.017C274.113 503.077 274.973 503.937 276.033 503.937H383.909C384.97 503.937 385.829 503.077 385.829 502.017V477.425C385.829 476.364 384.97 475.505 383.909 475.505Z" fill="url(#paint11_linear_3321_78065)"/>
<path opacity="0.2" d="M283.515 477.15H279.096V502.55H283.515V477.15Z" fill="#153553"/>
<path opacity="0.2" d="M293.571 477.028H290.356V502.428H293.571V477.028Z" fill="#153553"/>
<path opacity="0.2" d="M302.805 477.15H301.205V502.55H302.805V477.15Z" fill="#153553"/>
<path opacity="0.2" d="M315.268 477.028H314.461V502.428H315.268V477.028Z" fill="#153553"/>
<path opacity="0.2" d="M376.414 502.428H380.833V477.028H376.414V502.428Z" fill="#153553"/>
<path opacity="0.2" d="M366.357 502.549H369.572V477.15H366.357V502.549Z" fill="#153553"/>
<path opacity="0.2" d="M357.124 502.428H358.723V477.028H357.124V502.428Z" fill="#153553"/>
<path opacity="0.2" d="M344.66 502.549H345.467V477.15H344.66V502.549Z" fill="#153553"/>
<path opacity="0.2" d="M329.774 502.549H330.17V477.15H329.774V502.549Z" fill="#153553"/>
<path opacity="0.2" d="M382.843 479.831H277.328C277.152 479.834 276.977 479.8 276.813 479.734C276.649 479.667 276.501 479.568 276.376 479.443C276.251 479.318 276.152 479.17 276.086 479.006C276.019 478.843 275.986 478.667 275.988 478.491C275.988 478.135 276.129 477.794 276.38 477.543C276.632 477.291 276.973 477.15 277.328 477.15H382.843C383.198 477.154 383.536 477.296 383.787 477.547C384.038 477.798 384.18 478.136 384.184 478.491C384.184 478.846 384.043 479.187 383.791 479.439C383.54 479.69 383.199 479.831 382.843 479.831Z" fill="white"/>
<path d="M379.324 447.149H271.447C270.387 447.149 269.527 448.008 269.527 449.069V473.661C269.527 474.721 270.387 475.581 271.447 475.581H379.324C380.384 475.581 381.243 474.721 381.243 473.661V449.069C381.243 448.008 380.384 447.149 379.324 447.149Z" fill="url(#paint12_linear_3321_78065)"/>
<path opacity="0.2" d="M278.943 448.794H274.525V474.194H278.943V448.794Z" fill="#153553"/>
<path opacity="0.2" d="M289 448.672H285.785V474.072H289V448.672Z" fill="#153553"/>
<path opacity="0.2" d="M298.233 448.794H296.634V474.194H298.233V448.794Z" fill="#153553"/>
<path opacity="0.2" d="M310.697 448.672H309.89V474.072H310.697V448.672Z" fill="#153553"/>
<path opacity="0.2" d="M371.843 474.057H376.261V448.657H371.843V474.057Z" fill="#153553"/>
<path opacity="0.2" d="M361.787 474.179H365.001V448.779H361.787V474.179Z" fill="#153553"/>
<path opacity="0.2" d="M352.552 474.057H354.152V448.657H352.552V474.057Z" fill="#153553"/>
<path opacity="0.2" d="M340.074 474.179H340.881V448.779H340.074V474.179Z" fill="#153553"/>
<path opacity="0.2" d="M325.188 474.179H325.584V448.779H325.188V474.179Z" fill="#153553"/>
<path opacity="0.2" d="M378.257 451.476H272.742C272.388 451.472 272.049 451.329 271.798 451.079C271.548 450.828 271.405 450.489 271.401 450.135C271.401 449.779 271.543 449.438 271.794 449.187C272.046 448.935 272.387 448.794 272.742 448.794H378.257C378.434 448.792 378.609 448.825 378.773 448.892C378.936 448.959 379.085 449.057 379.21 449.182C379.335 449.307 379.433 449.456 379.5 449.619C379.567 449.783 379.6 449.958 379.598 450.135C379.598 450.491 379.457 450.832 379.205 451.083C378.954 451.335 378.613 451.476 378.257 451.476Z" fill="white"/>
<path d="M383.909 418.793H276.033C274.973 418.793 274.113 419.653 274.113 420.713V445.305C274.113 446.365 274.973 447.225 276.033 447.225H383.909C384.97 447.225 385.829 446.365 385.829 445.305V420.713C385.829 419.653 384.97 418.793 383.909 418.793Z" fill="url(#paint13_linear_3321_78065)"/>
<path opacity="0.2" d="M283.515 420.423H279.096V445.823H283.515V420.423Z" fill="#153553"/>
<path opacity="0.2" d="M293.571 420.301H290.356V445.701H293.571V420.301Z" fill="#153553"/>
<path opacity="0.2" d="M302.805 420.423H301.205V445.823H302.805V420.423Z" fill="#153553"/>
<path opacity="0.2" d="M315.268 420.301H314.461V445.701H315.268V420.301Z" fill="#153553"/>
<path opacity="0.2" d="M376.414 445.701H380.833V420.301H376.414V445.701Z" fill="#153553"/>
<path opacity="0.2" d="M366.357 445.824H369.572V420.424H366.357V445.824Z" fill="#153553"/>
<path opacity="0.2" d="M357.124 445.701H358.723V420.301H357.124V445.701Z" fill="#153553"/>
<path opacity="0.2" d="M344.66 445.824H345.467V420.424H344.66V445.824Z" fill="#153553"/>
<path opacity="0.2" d="M329.774 445.824H330.17V420.424H329.774V445.824Z" fill="#153553"/>
<path opacity="0.2" d="M382.843 423.105H277.328C277.152 423.107 276.977 423.074 276.813 423.007C276.649 422.94 276.501 422.842 276.376 422.717C276.251 422.592 276.152 422.443 276.086 422.28C276.019 422.116 275.986 421.941 275.988 421.764C275.988 421.409 276.129 421.068 276.38 420.816C276.632 420.565 276.973 420.423 277.328 420.423H382.843C383.198 420.427 383.536 420.57 383.787 420.82C384.038 421.071 384.18 421.41 384.184 421.764C384.184 422.12 384.043 422.461 383.791 422.712C383.54 422.964 383.199 423.105 382.843 423.105Z" fill="white"/>
<path d="M380.847 390.422H272.97C271.91 390.422 271.051 391.282 271.051 392.342V416.934C271.051 417.995 271.91 418.854 272.97 418.854H380.847C381.907 418.854 382.767 417.995 382.767 416.934V392.342C382.767 391.282 381.907 390.422 380.847 390.422Z" fill="url(#paint14_linear_3321_78065)"/>
<path opacity="0.2" d="M280.467 392.068H276.049V417.468H280.467V392.068Z" fill="#153553"/>
<path opacity="0.2" d="M290.524 391.946H287.309V417.346H290.524V391.946Z" fill="#153553"/>
<path opacity="0.2" d="M299.757 392.068H298.157V417.468H299.757V392.068Z" fill="#153553"/>
<path opacity="0.2" d="M312.221 391.946H311.413V417.346H312.221V391.946Z" fill="#153553"/>
<path opacity="0.2" d="M373.366 417.33H377.785V391.93H373.366V417.33Z" fill="#153553"/>
<path opacity="0.2" d="M363.31 417.452H366.525V392.052H363.31V417.452Z" fill="#153553"/>
<path opacity="0.2" d="M354.061 417.33H355.676V391.93H354.061V417.33Z" fill="#153553"/>
<path opacity="0.2" d="M341.597 417.452H342.405V392.052H341.597V417.452Z" fill="#153553"/>
<path opacity="0.2" d="M326.726 417.452H327.122V392.052H326.726V417.452Z" fill="#153553"/>
<path opacity="0.2" d="M379.78 394.749H274.281C273.924 394.749 273.581 394.609 273.327 394.358C273.073 394.106 272.929 393.765 272.925 393.408C272.925 393.231 272.96 393.055 273.028 392.892C273.096 392.728 273.197 392.58 273.323 392.455C273.449 392.33 273.598 392.232 273.763 392.165C273.927 392.099 274.103 392.066 274.281 392.068H379.78C379.958 392.066 380.134 392.099 380.298 392.165C380.462 392.232 380.612 392.33 380.738 392.455C380.864 392.58 380.965 392.728 381.033 392.892C381.101 393.055 381.136 393.231 381.136 393.408C381.132 393.765 380.988 394.106 380.734 394.358C380.48 394.609 380.137 394.749 379.78 394.749Z" fill="white"/>
<path d="M380.847 362.066H272.97C271.91 362.066 271.051 362.926 271.051 363.986V388.578C271.051 389.638 271.91 390.498 272.97 390.498H380.847C381.907 390.498 382.767 389.638 382.767 388.578V363.986C382.767 362.926 381.907 362.066 380.847 362.066Z" fill="url(#paint15_linear_3321_78065)"/>
<path opacity="0.2" d="M280.467 363.697H276.049V389.097H280.467V363.697Z" fill="#153553"/>
<path opacity="0.2" d="M290.524 363.575H287.309V388.975H290.524V363.575Z" fill="#153553"/>
<path opacity="0.2" d="M299.757 363.697H298.157V389.097H299.757V363.697Z" fill="#153553"/>
<path opacity="0.2" d="M312.221 363.575H311.413V388.975H312.221V363.575Z" fill="#153553"/>
<path opacity="0.2" d="M373.366 388.975H377.785V363.575H373.366V388.975Z" fill="#153553"/>
<path opacity="0.2" d="M363.31 389.096H366.525V363.697H363.31V389.096Z" fill="#153553"/>
<path opacity="0.2" d="M354.061 388.975H355.676V363.575H354.061V388.975Z" fill="#153553"/>
<path opacity="0.2" d="M341.597 389.096H342.405V363.697H341.597V389.096Z" fill="#153553"/>
<path opacity="0.2" d="M326.726 389.096H327.122V363.697H326.726V389.096Z" fill="#153553"/>
<path opacity="0.2" d="M379.78 366.378H274.281C274.103 366.381 273.927 366.347 273.763 366.281C273.598 366.214 273.449 366.116 273.323 365.991C273.197 365.866 273.096 365.718 273.028 365.554C272.96 365.391 272.925 365.215 272.925 365.038C272.929 364.681 273.073 364.34 273.327 364.089C273.581 363.838 273.924 363.697 274.281 363.697H379.78C380.137 363.697 380.48 363.838 380.734 364.089C380.988 364.34 381.132 364.681 381.136 365.038C381.136 365.215 381.101 365.391 381.033 365.554C380.965 365.718 380.864 365.866 380.738 365.991C380.612 366.116 380.462 366.214 380.298 366.281C380.134 366.347 379.958 366.381 379.78 366.378Z" fill="white"/>
<path d="M380.847 333.695H272.97C271.91 333.695 271.051 334.555 271.051 335.615V360.207C271.051 361.268 271.91 362.127 272.97 362.127H380.847C381.907 362.127 382.767 361.268 382.767 360.207V335.615C382.767 334.555 381.907 333.695 380.847 333.695Z" fill="url(#paint16_linear_3321_78065)"/>
<path opacity="0.2" d="M280.467 335.341H276.049V360.741H280.467V335.341Z" fill="#153553"/>
<path opacity="0.2" d="M290.524 335.219H287.309V360.619H290.524V335.219Z" fill="#153553"/>
<path opacity="0.2" d="M299.757 335.341H298.157V360.741H299.757V335.341Z" fill="#153553"/>
<path opacity="0.2" d="M312.221 335.219H311.413V360.619H312.221V335.219Z" fill="#153553"/>
<path opacity="0.2" d="M373.366 360.603H377.785V335.204H373.366V360.603Z" fill="#153553"/>
<path opacity="0.2" d="M363.31 360.726H366.525V335.326H363.31V360.726Z" fill="#153553"/>
<path opacity="0.2" d="M354.061 360.603H355.676V335.204H354.061V360.603Z" fill="#153553"/>
<path opacity="0.2" d="M341.597 360.726H342.405V335.326H341.597V360.726Z" fill="#153553"/>
<path opacity="0.2" d="M326.726 360.726H327.122V335.326H326.726V360.726Z" fill="#153553"/>
<path opacity="0.2" d="M379.78 338.023H274.281C274.103 338.025 273.927 337.992 273.763 337.926C273.598 337.859 273.449 337.761 273.323 337.636C273.197 337.511 273.096 337.363 273.028 337.199C272.96 337.035 272.925 336.86 272.925 336.682C272.925 336.505 272.96 336.329 273.028 336.166C273.096 336.002 273.197 335.854 273.323 335.729C273.449 335.604 273.598 335.506 273.763 335.439C273.927 335.373 274.103 335.34 274.281 335.342H379.78C379.958 335.34 380.134 335.373 380.298 335.439C380.462 335.506 380.612 335.604 380.738 335.729C380.864 335.854 380.965 336.002 381.033 336.166C381.101 336.329 381.136 336.505 381.136 336.682C381.136 336.86 381.101 337.035 381.033 337.199C380.965 337.363 380.864 337.511 380.738 337.636C380.612 337.761 380.462 337.859 380.298 337.926C380.134 337.992 379.958 338.025 379.78 338.023Z" fill="white"/>
<path d="M382.173 276.665H274.297C273.236 276.665 272.377 277.524 272.377 278.584V303.177C272.377 304.237 273.236 305.096 274.297 305.096H382.173C383.233 305.096 384.093 304.237 384.093 303.177V278.584C384.093 277.524 383.233 276.665 382.173 276.665Z" fill="url(#paint17_linear_3321_78065)"/>
<path opacity="0.2" d="M281.793 278.309H277.374V303.709H281.793V278.309Z" fill="#153553"/>
<path opacity="0.2" d="M291.849 278.188H288.635V303.588H291.849V278.188Z" fill="#153553"/>
<path opacity="0.2" d="M301.083 278.309H299.483V303.709H301.083V278.309Z" fill="#153553"/>
<path opacity="0.2" d="M313.547 278.188H312.739V303.588H313.547V278.188Z" fill="#153553"/>
<path opacity="0.2" d="M374.691 303.572H379.11V278.173H374.691V303.572Z" fill="#153553"/>
<path opacity="0.2" d="M364.635 303.709H367.85V278.31H364.635V303.709Z" fill="#153553"/>
<path opacity="0.2" d="M355.402 303.572H357.001V278.173H355.402V303.572Z" fill="#153553"/>
<path opacity="0.2" d="M342.922 303.709H343.73V278.31H342.922V303.709Z" fill="#153553"/>
<path opacity="0.2" d="M328.052 303.709H328.448V278.31H328.052V303.709Z" fill="#153553"/>
<path opacity="0.2" d="M381.106 280.991H275.606C275.429 280.993 275.253 280.96 275.089 280.893C274.924 280.827 274.774 280.729 274.648 280.604C274.522 280.479 274.422 280.331 274.354 280.167C274.285 280.003 274.25 279.828 274.25 279.65C274.254 279.293 274.399 278.952 274.653 278.701C274.907 278.45 275.249 278.309 275.606 278.309H381.106C381.463 278.309 381.806 278.45 382.059 278.701C382.313 278.952 382.458 279.293 382.462 279.65C382.462 279.828 382.427 280.003 382.359 280.167C382.29 280.331 382.19 280.479 382.064 280.604C381.938 280.729 381.788 280.827 381.624 280.893C381.459 280.96 381.283 280.993 381.106 280.991Z" fill="white"/>
<path d="M383.909 305.34H276.033C274.973 305.34 274.113 306.199 274.113 307.26V331.852C274.113 332.912 274.973 333.772 276.033 333.772H383.909C384.97 333.772 385.829 332.912 385.829 331.852V307.26C385.829 306.199 384.97 305.34 383.909 305.34Z" fill="url(#paint18_linear_3321_78065)"/>
<path opacity="0.2" d="M283.515 306.97H279.096V332.37H283.515V306.97Z" fill="#153553"/>
<path opacity="0.2" d="M293.571 306.848H290.356V332.248H293.571V306.848Z" fill="#153553"/>
<path opacity="0.2" d="M302.805 306.97H301.205V332.37H302.805V306.97Z" fill="#153553"/>
<path opacity="0.2" d="M315.268 306.848H314.461V332.248H315.268V306.848Z" fill="#153553"/>
<path opacity="0.2" d="M376.414 332.248H380.833V306.848H376.414V332.248Z" fill="#153553"/>
<path opacity="0.2" d="M366.357 332.37H369.572V306.97H366.357V332.37Z" fill="#153553"/>
<path opacity="0.2" d="M357.124 332.248H358.723V306.848H357.124V332.248Z" fill="#153553"/>
<path opacity="0.2" d="M344.66 332.37H345.467V306.97H344.66V332.37Z" fill="#153553"/>
<path opacity="0.2" d="M329.774 332.37H330.17V306.97H329.774V332.37Z" fill="#153553"/>
<path opacity="0.2" d="M382.843 309.667H277.328C277.151 309.667 276.975 309.632 276.812 309.564C276.648 309.495 276.5 309.395 276.375 309.269C276.25 309.143 276.152 308.993 276.085 308.829C276.019 308.664 275.986 308.489 275.988 308.311C275.988 307.956 276.129 307.614 276.38 307.363C276.632 307.112 276.973 306.97 277.328 306.97H382.843C383.198 306.974 383.536 307.117 383.787 307.367C384.038 307.618 384.18 307.957 384.184 308.311C384.184 308.668 384.043 309.011 383.792 309.265C383.541 309.519 383.2 309.663 382.843 309.667Z" fill="white"/>
<path d="M343.807 258.867L340.394 265.541L336.92 272.321L330.841 270.097L333.888 264.139L337.728 256.643L343.807 258.867Z" fill="#FFC2BC"/>
<path opacity="0.2" d="M343.807 258.867L340.394 265.541L333.888 264.139L337.728 256.643L343.807 258.867Z" fill="#153553"/>
<path d="M476.58 221.126C476.397 221.128 476.22 221.062 476.082 220.941C475.944 220.82 475.856 220.653 475.834 220.471C475.62 218.947 455.599 69.6267 431.434 4.10849C431.385 4.01297 431.357 3.90823 431.351 3.80111C431.346 3.69399 431.363 3.58691 431.401 3.48688C431.44 3.38684 431.5 3.29611 431.576 3.22061C431.652 3.14512 431.743 3.08657 431.844 3.04879C431.944 3.01101 432.051 2.99486 432.158 3.00138C432.265 3.00791 432.37 3.03697 432.465 3.08666C432.56 3.13635 432.643 3.20556 432.71 3.28974C432.776 3.37393 432.824 3.47121 432.851 3.5752C457.092 69.2153 477.144 218.78 477.342 220.303C477.368 220.505 477.314 220.709 477.192 220.871C477.069 221.034 476.888 221.142 476.687 221.172L476.58 221.126Z" fill="#153553"/>
<path d="M438.001 216.829L444.477 216.57L445.741 201.547L439.25 201.806L438.001 216.829Z" fill="#FFC2BC"/>
<path d="M445.086 213.142L438.016 212.913C437.887 212.914 437.761 212.955 437.657 213.032C437.553 213.109 437.476 213.216 437.437 213.34L435.913 219.038C435.876 219.176 435.871 219.32 435.898 219.46C435.925 219.6 435.983 219.732 436.068 219.846C436.153 219.961 436.262 220.054 436.389 220.12C436.515 220.186 436.655 220.222 436.797 220.227C439.357 220.227 443.059 220.227 446.274 220.318C450.022 220.44 452.369 220.318 456.818 220.394C459.469 220.471 460.323 217.819 459.21 217.545C454.182 216.28 450.891 216.509 446.625 213.69C446.171 213.371 445.639 213.181 445.086 213.142Z" fill="#153553"/>
<path opacity="0.2" d="M445.741 201.547L445.086 209.287L438.611 209.561L439.251 201.806L445.741 201.547Z" fill="#153553"/>
<path d="M435.364 162.403C437.01 165.557 437.132 198.621 437.132 207.017H448.331C449.778 198.316 456.939 151.6 446.807 144.927C435.654 137.567 407.374 140.097 407.374 140.097L405.332 135.967L401.249 127.74L377.845 136.501L372.741 138.39L370.638 139.182H370.455C370.455 139.182 370.455 139.411 370.455 139.807C370.532 140.721 370.745 142.565 371.126 144.866C371.568 147.625 372.189 150.354 372.985 153.033C375.148 160.087 378.988 166.746 385.662 164.521C385.951 164.43 386.241 164.308 386.53 164.186C387.079 163.942 387.673 163.714 388.282 163.485C393.632 161.761 399.165 160.672 404.769 160.24C418.908 158.899 434.115 159.965 435.364 162.403Z" fill="#153553"/>
<path d="M448.834 207.992L435.746 208.343L435.67 204.122L450.053 203.528L448.834 207.992Z" fill="url(#paint19_linear_3321_78065)"/>
<path d="M338.047 269.061H330.154C330.026 269.061 329.902 269.105 329.802 269.185C329.703 269.266 329.633 269.377 329.606 269.502L328.265 275.247C328.233 275.386 328.232 275.531 328.264 275.67C328.296 275.81 328.359 275.94 328.448 276.051C328.538 276.163 328.652 276.253 328.781 276.314C328.91 276.375 329.051 276.406 329.194 276.405C331.739 276.405 333.598 276.207 336.813 276.207C338.778 276.207 344.705 276.42 347.479 276.42C350.252 276.42 350.526 273.723 349.459 273.479C344.492 272.397 340.744 270.889 339.159 269.457C339.009 269.32 338.834 269.215 338.643 269.147C338.452 269.079 338.249 269.049 338.047 269.061Z" fill="#153553"/>
<path d="M395.49 139.121L394.134 143.799C393.418 146.298 392.427 149.696 391.269 153.642L388.374 163.5C383.437 180.184 377.16 201.013 373.686 210.902C366.768 230.527 343.624 265.434 343.624 265.434L332.486 261.351C332.486 261.351 349.581 228.47 355.188 208.571C359.104 194.675 365.245 169.702 369.282 152.926L371.218 144.881C371.873 142.138 372.406 139.898 372.741 138.329C373.076 136.76 373.351 135.754 373.351 135.754L377.846 136.44L395.49 139.121Z" fill="#153553"/>
<path d="M344.828 266.166L331.724 261.351L333.202 257.45L347.174 261.686L344.828 266.166Z" fill="url(#paint20_linear_3321_78065)"/>
<path opacity="0.2" d="M405.378 135.952L395.489 147.486L394.133 143.799L392.61 139.777L391.223 153.642L373.03 153.048L369.236 152.926L371.171 144.881C370.791 142.58 370.577 140.737 370.501 139.822L370.623 139.137L372.726 138.344C373.122 136.699 373.335 135.769 373.335 135.769L377.83 136.455L401.279 127.74L405.378 135.952Z" fill="#153553"/>
<path opacity="0.2" d="M404.83 160.255C398.576 160.675 392.416 162.004 386.546 164.202C386.256 164.324 385.967 164.445 385.677 164.537L387.003 158.016C387.003 158.016 398.415 157.482 404.83 160.255Z" fill="#153553"/>
<path d="M319.733 142.215L315.756 147.487L312.388 141.072C312.388 141.072 316.213 136.577 318.483 138.649L319.733 142.215Z" fill="#FFC2BC"/>
<path d="M309.676 149.894L308.686 143.327L312.388 140.996L315.756 147.486L309.676 149.894Z" fill="#FFC2BC"/>
<path d="M320.814 141.727L319.701 142.291L318.056 138.116L319.823 137.263L320.814 141.727Z" fill="white"/>
<path d="M365.168 103.681C364.589 104.697 363.995 105.672 363.386 106.606C361.852 109.105 360.247 111.563 358.571 113.981L357.184 115.977C355.782 117.988 354.304 119.954 352.72 121.919C351.928 122.894 351.12 123.885 350.221 124.86C349.319 125.881 348.358 126.848 347.341 127.755C343.444 131.073 339.156 133.902 334.573 136.181C330.155 138.464 325.571 140.41 320.86 142.001L318.879 137.552C320.86 136.349 322.917 135.114 324.882 133.835C326.848 132.555 328.844 131.29 330.748 129.949C332.653 128.608 334.527 127.252 336.295 125.835C338.032 124.474 339.681 123.003 341.231 121.432C344.157 118.032 346.792 114.393 349.109 110.553C351.653 106.606 354.868 99.6888 357.382 95.7425L365.168 103.681Z" fill="#153553"/>
<path opacity="0.2" d="M363.386 106.606C361.852 109.105 360.247 111.563 358.571 113.981C358.741 110.776 359.631 107.651 361.176 104.839C362.094 105.156 362.874 105.78 363.386 106.606Z" fill="#153553"/>
<path d="M450.754 87.2708L446.335 91.3847L446.96 95.1939C448.575 97.327 452.293 94.6911 453.161 94.0206C453.3 93.9198 453.448 93.8331 453.603 93.7616L455.95 92.8169C456.365 92.6444 456.709 92.337 456.927 91.9443C457.146 91.5517 457.226 91.0968 457.153 90.6533L456.696 87.8498C456.654 87.5866 456.56 87.3347 456.417 87.1094C456.275 86.884 456.089 86.6899 455.869 86.5389C455.65 86.3878 455.402 86.283 455.141 86.2307C454.88 86.1784 454.61 86.1797 454.35 86.2346L451.714 86.7679C451.352 86.8382 451.018 87.013 450.754 87.2708Z" fill="#FFC2BC"/>
<path d="M445.314 91.4152L446.533 91.1105L447.234 95.5292L445.314 95.9863V91.4152Z" fill="white"/>
<path d="M446.335 96.0165C441.495 97.041 436.586 97.7031 431.647 97.9973C426.559 98.3923 421.441 98.1569 416.41 97.2964C415.071 97.0403 413.748 96.7045 412.449 96.2907C411.169 95.8946 409.98 95.468 408.792 95.0261C406.43 94.1576 404.221 93.2281 401.92 92.2073L399.223 90.9883C397.182 90.0437 395.17 89.0685 393.129 88.0476C391.605 87.3163 390.188 86.5239 388.725 85.7316L392.641 76.422C396.831 78.5246 401.783 81.3739 405.988 83.4614C409.936 85.5831 414.06 87.3572 418.315 88.7638C420.448 89.3282 422.617 89.7507 424.806 90.0284C427.061 90.3484 429.377 90.5465 431.678 90.7293C433.978 90.9122 436.355 91.0188 438.702 91.0493C441.048 91.0798 443.456 91.1559 445.772 91.1864L446.335 96.0165Z" fill="#153553"/>
<path opacity="0.2" d="M399.177 90.9884C397.135 90.0437 395.124 89.0686 393.082 88.0477L392.29 83.7204C395.339 85.2981 397.765 87.8591 399.177 90.9884Z" fill="#153553"/>
<path d="M358.739 94.9047C361.257 101.099 363.265 107.49 364.742 114.012C365.839 118.583 369.725 123.154 370.395 127.344C371.035 131.965 371.951 136.545 373.138 141.057C377.785 138.558 391.849 135.465 401.28 130.391C401.676 92.4211 391.483 77.6109 391.483 77.6109C388.895 78.2694 386.35 79.0887 383.864 80.064L382.219 80.7497C377.681 82.8915 373.256 85.2665 368.963 87.8653C368.125 88.3681 367.287 88.8861 366.479 89.3889C362.335 92.1011 358.739 94.9047 358.739 94.9047Z" fill="url(#paint21_linear_3321_78065)"/>
<path opacity="0.7" d="M358.739 94.9047C361.257 101.099 363.265 107.49 364.742 114.012C365.839 118.583 369.725 123.154 370.395 127.344C371.035 131.965 371.951 136.545 373.138 141.057C377.785 138.558 391.849 135.465 401.28 130.391C401.676 92.4211 391.483 77.6109 391.483 77.6109C388.895 78.2694 386.35 79.0887 383.864 80.064L382.219 80.7497C377.681 82.8915 373.256 85.2665 368.963 87.8653C368.125 88.3681 367.287 88.8861 366.479 89.3889C362.335 92.1011 358.739 94.9047 358.739 94.9047Z" fill="white"/>
<path d="M383.711 94.1881L384.29 90.6684L381.868 90.5161L380.39 92.1464L383.711 94.1881Z" fill="url(#paint22_linear_3321_78065)"/>
<path d="M381.869 90.5165C377.389 93.0154 372.955 90.1051 370.091 88.1091L369.786 87.8958C371.051 86.1436 371.172 83.3248 370.761 80.4907C370.275 77.3591 369.436 74.2923 368.262 71.3486L378.517 77.23C378.517 77.9309 378.395 78.5556 378.364 79.1042C378.227 80.4298 378.212 81.3287 378.943 81.9077C380.08 82.5421 381.377 82.8332 382.676 82.7458C383.849 84.1018 384.946 88.7948 381.869 90.5165Z" fill="#FFC2BC"/>
<path d="M366.54 89.4342C366.54 89.4342 379.445 102.904 388.892 110.232C388.892 110.232 388.191 86.4173 383.925 80.094L392.701 76.422C392.701 76.422 401.143 95.0718 402.346 126.216L406.156 134.063L395.49 144.911L392.061 136.866L389.761 150.214L367.759 152.164L370.456 136.927L357.459 95.7879L366.54 89.4342Z" fill="#153553"/>
<path d="M382.553 93.472C382.553 93.472 385.601 103.864 385.387 109.41L389.319 111.451L390.019 108.404C390.019 108.404 386.561 95.0109 383.376 92.6645L382.553 93.472Z" fill="url(#paint23_linear_3321_78065)"/>
<path d="M366.997 88.3223C366.997 88.3223 383.117 106.012 388.816 110.233C388.816 110.233 387.155 86.2806 383.452 80.262C383.452 80.262 385.997 78.5098 391.421 83.797L388.709 88.8251L393.524 92.1467C393.524 92.1467 391.878 110.096 388.709 118.613C388.939 116.814 389.041 115.002 389.014 113.189L370.105 102.706L370.943 96.9159L363.797 96.6111C363.797 96.6111 364.589 89.7698 366.997 88.3223Z" fill="#153553"/>
<path opacity="0.2" d="M366.997 88.3223C366.997 88.3223 383.117 106.012 388.816 110.233C388.816 110.233 387.155 86.2806 383.452 80.262C383.452 80.262 385.997 78.5098 391.421 83.797L388.709 88.8251L393.524 92.1467C393.524 92.1467 391.878 110.096 388.709 118.613C388.939 116.814 389.041 115.002 389.014 113.189L370.105 102.706L370.943 96.9159L363.797 96.6111C363.797 96.6111 364.589 89.7698 366.997 88.3223Z" fill="white"/>
<path d="M432.636 5.18976C432.636 5.18976 423.494 4.15366 418.39 6.56108C413.285 8.96849 408.151 16.8154 399.862 17.562C391.573 18.3087 389.912 15.6117 389.912 15.6117C389.912 15.6117 397.211 28.563 411.244 28.4259C425.277 28.2888 432.575 25.9728 440.849 31.1837C440.879 31.1837 434.51 9.22752 432.636 5.18976Z" fill="url(#paint24_linear_3321_78065)"/>
<path opacity="0.2" d="M378.943 81.8771C378.09 84.5284 375.972 88.2766 370.959 88.1852C370.67 88.2091 370.379 88.2091 370.09 88.1852L369.786 87.9719C371.05 86.2196 371.172 83.4008 370.761 80.5668C373.014 79.1084 375.752 78.5991 378.379 79.1498C378.227 80.3992 378.212 81.2981 378.943 81.8771Z" fill="#153553"/>
<path d="M381.868 90.5162C381.948 92.3573 381.555 94.1882 380.725 95.8338C377.906 95.4377 369.48 91.2628 369.054 87.7736C369.271 86.936 369.726 86.1792 370.364 85.5947C373.576 88.4193 377.607 90.1437 381.868 90.5162Z" fill="white"/>
<path d="M381.868 90.5161C383.436 90.9232 384.897 91.6667 386.15 92.695C386.942 89.4191 383.666 81.5416 382.828 81.115C381.461 80.9826 380.084 81.2139 378.836 81.7854C378.836 81.7854 383.437 86.0822 381.868 90.5161Z" fill="white"/>
<path d="M359.303 68.0572C359.135 70.6627 360.826 75.5385 363.752 73.1006C366.677 70.6627 359.592 63.5776 359.303 68.0572Z" fill="#153553"/>
<path d="M377.541 67.0671C379.43 73.1618 380.847 76.6967 378.973 80.8869C376.139 87.1949 367.667 87.1797 363.965 81.7096C360.643 76.8034 358.099 67.6004 363.112 63.0446C364.22 62.0396 365.564 61.3318 367.02 60.9872C368.476 60.6427 369.995 60.6727 371.436 61.0744C372.877 61.4761 374.193 62.2365 375.26 63.2844C376.328 64.3324 377.113 65.6338 377.541 67.0671Z" fill="#FFC2BC"/>
<path d="M378.516 59.3113C377.907 55.3193 373.168 55.883 370.395 57.9857V65.8631C371.465 65.3547 372.485 64.7476 373.443 64.05C373.443 64.05 374.524 69.9466 378.136 71.6684C382.737 67.204 383.118 60.3169 378.516 59.3113Z" fill="#153553"/>
<path d="M381.777 71.196C381.864 72.7974 381.316 74.3685 380.253 75.569C378.805 77.0926 376.947 76.1023 376.413 74.1367C375.88 72.1712 376.093 69.459 377.937 68.621C378.36 68.4449 378.819 68.3762 379.275 68.4209C379.73 68.4657 380.168 68.6226 380.548 68.8776C380.928 69.1326 381.24 69.4778 381.454 69.8823C381.668 70.2869 381.779 70.7382 381.777 71.196Z" fill="#FFC2BC"/>
<path d="M369.039 72.095C369.222 72.5826 369.039 73.0702 368.78 73.1921C368.521 73.314 368.049 73.0092 367.866 72.5216C367.683 72.0341 367.866 71.5465 368.125 71.4246C368.384 71.3027 368.841 71.6074 369.039 72.095Z" fill="#153553"/>
<path d="M363.493 74.1216C363.691 74.6091 363.569 75.0967 363.249 75.2186C362.929 75.3405 362.517 75.0358 362.335 74.5482C362.152 74.0606 362.258 73.573 362.578 73.4511C362.898 73.3292 363.294 73.634 363.493 74.1216Z" fill="#153553"/>
<path d="M365.336 73.7253C365.276 75.3882 364.984 77.0344 364.468 78.6163C364.891 78.7221 365.331 78.736 365.759 78.6572C366.188 78.5783 366.594 78.4085 366.952 78.1592L365.336 73.7253Z" fill="#ED893E"/>
<path d="M370.289 79.0735L369.664 79.3478C369.625 79.3619 369.583 79.3603 369.546 79.3431C369.509 79.326 369.48 79.2948 369.466 79.2564C369.452 79.218 369.453 79.1755 369.47 79.1384C369.488 79.1013 369.519 79.0724 369.557 79.0583C370.17 78.8493 370.725 78.4991 371.178 78.0359C371.631 77.5727 371.968 77.0095 372.163 76.3919C372.166 76.3717 372.174 76.3524 372.185 76.3352C372.197 76.3181 372.211 76.3033 372.228 76.292C372.245 76.2806 372.264 76.2728 372.285 76.269C372.305 76.2652 372.326 76.2655 372.346 76.27C372.366 76.2732 372.385 76.2808 372.401 76.2923C372.418 76.3037 372.432 76.3188 372.442 76.3362C372.452 76.3537 372.458 76.3732 372.46 76.3934C372.462 76.4135 372.459 76.4338 372.452 76.4528C372.29 77.0142 372.014 77.5363 371.642 77.987C371.269 78.4378 370.809 78.8075 370.289 79.0735Z" fill="#153553"/>
<path d="M370.075 69.6874C370.026 69.7141 369.971 69.7281 369.915 69.7281C369.859 69.7281 369.804 69.7141 369.755 69.6874C369.435 69.4696 369.067 69.3311 368.683 69.2834C368.299 69.2357 367.909 69.2802 367.545 69.4132C367.471 69.4455 367.386 69.4468 367.31 69.4168C367.235 69.3868 367.174 69.3279 367.142 69.2532C367.109 69.1784 367.108 69.0939 367.138 69.0182C367.168 68.9424 367.227 68.8817 367.302 68.8494C367.758 68.6754 368.25 68.6136 368.735 68.6693C369.22 68.725 369.685 68.8965 370.09 69.1694C370.156 69.2157 370.203 69.2855 370.22 69.3647C370.237 69.4439 370.223 69.5265 370.181 69.596C370.152 69.6334 370.116 69.6645 370.075 69.6874Z" fill="#153553"/>
<path d="M360.445 73.1005C360.386 73.1228 360.321 73.1228 360.262 73.1005C360.222 73.0967 360.183 73.085 360.148 73.0661C360.112 73.0471 360.081 73.0213 360.055 72.9901C360.03 72.959 360.011 72.923 359.999 72.8845C359.988 72.8459 359.984 72.8054 359.988 72.7653C360.031 72.2756 360.193 71.8036 360.458 71.3897C360.723 70.9758 361.085 70.6323 361.512 70.3884C361.548 70.3701 361.587 70.3592 361.627 70.3562C361.667 70.3532 361.708 70.3582 361.746 70.371C361.784 70.3838 361.82 70.404 361.85 70.4305C361.88 70.457 361.905 70.4893 361.923 70.5255C361.961 70.5963 361.97 70.6793 361.947 70.7563C361.924 70.8334 361.872 70.8983 361.801 70.9369C361.471 71.1349 361.195 71.4105 360.995 71.7398C360.796 72.0691 360.681 72.4421 360.658 72.8263C360.655 72.8883 360.633 72.9478 360.595 72.9968C360.557 73.0458 360.504 73.082 360.445 73.1005Z" fill="#153553"/>
<path d="M373.305 64.0955C373.305 64.0955 369.451 68.0723 365.687 67.8742C366.702 67.4128 367.626 66.7729 368.414 65.9849C368.414 65.9849 361.055 69.1693 357.429 67.5085C353.802 65.8477 354.214 64.0498 354.214 64.0498C354.214 64.0498 354.625 65.1011 358.145 64.9945C358.145 64.9945 355.097 62.9984 356.332 60.1796C356.508 60.517 356.766 60.8042 357.083 61.0147C357.4 61.2252 357.766 61.352 358.145 61.3833C359.339 59.5445 360.942 58.0071 362.83 56.8915C364.717 55.776 366.837 55.1126 369.024 54.9534C376.932 54.0544 378.532 57.178 378.882 59.5245C379.233 61.8709 373.305 64.0955 373.305 64.0955Z" fill="#153553"/>
<path d="M246.687 475.505H138.81C137.75 475.505 136.89 476.364 136.89 477.425V502.017C136.89 503.077 137.75 503.937 138.81 503.937H246.687C247.747 503.937 248.607 503.077 248.607 502.017V477.425C248.607 476.364 247.747 475.505 246.687 475.505Z" fill="url(#paint25_linear_3321_78065)"/>
<path opacity="0.2" d="M146.307 477.15H141.888V502.55H146.307V477.15Z" fill="#153553"/>
<path opacity="0.2" d="M156.348 477.028H153.133V502.428H156.348V477.028Z" fill="#153553"/>
<path opacity="0.2" d="M165.582 477.15H163.982V502.55H165.582V477.15Z" fill="#153553"/>
<path opacity="0.2" d="M178.045 477.028H177.238V502.428H178.045V477.028Z" fill="#153553"/>
<path opacity="0.2" d="M239.19 502.428H243.609V477.028H239.19V502.428Z" fill="#153553"/>
<path opacity="0.2" d="M229.15 502.55H232.365V477.15H229.15V502.55Z" fill="#153553"/>
<path opacity="0.2" d="M219.902 502.428H221.501V477.028H219.902V502.428Z" fill="#153553"/>
<path opacity="0.2" d="M207.438 502.55H208.245V477.15H207.438V502.55Z" fill="#153553"/>
<path opacity="0.2" d="M192.551 502.55H192.947V477.15H192.551V502.55Z" fill="#153553"/>
<path opacity="0.2" d="M245.62 479.832H140.105C139.929 479.834 139.753 479.801 139.59 479.734C139.426 479.667 139.278 479.569 139.153 479.444C139.028 479.319 138.929 479.17 138.862 479.007C138.796 478.843 138.762 478.668 138.764 478.491C138.764 478.136 138.906 477.795 139.157 477.543C139.409 477.292 139.75 477.15 140.105 477.15H245.62C245.976 477.15 246.317 477.292 246.568 477.543C246.82 477.795 246.961 478.136 246.961 478.491C246.963 478.668 246.93 478.843 246.863 479.007C246.796 479.17 246.698 479.319 246.573 479.444C246.448 479.569 246.299 479.667 246.136 479.734C245.972 479.801 245.797 479.834 245.62 479.832Z" fill="white"/>
<path d="M248.211 447.149H140.334C139.274 447.149 138.414 448.009 138.414 449.069V473.661C138.414 474.721 139.274 475.581 140.334 475.581H248.211C249.271 475.581 250.131 474.721 250.131 473.661V449.069C250.131 448.009 249.271 447.149 248.211 447.149Z" fill="url(#paint26_linear_3321_78065)"/>
<path opacity="0.2" d="M147.831 448.795H143.412V474.194H147.831V448.795Z" fill="#153553"/>
<path opacity="0.2" d="M157.872 448.672H154.657V474.072H157.872V448.672Z" fill="#153553"/>
<path opacity="0.2" d="M167.105 448.795H165.505V474.194H167.105V448.795Z" fill="#153553"/>
<path opacity="0.2" d="M179.584 448.672H178.776V474.072H179.584V448.672Z" fill="#153553"/>
<path opacity="0.2" d="M240.714 474.057H245.133V448.658H240.714V474.057Z" fill="#153553"/>
<path opacity="0.2" d="M230.658 474.179H233.873V448.779H230.658V474.179Z" fill="#153553"/>
<path opacity="0.2" d="M221.424 474.057H223.024V448.658H221.424V474.057Z" fill="#153553"/>
<path opacity="0.2" d="M208.961 474.179H209.769V448.779H208.961V474.179Z" fill="#153553"/>
<path opacity="0.2" d="M194.074 474.179H194.47V448.779H194.074V474.179Z" fill="#153553"/>
<path opacity="0.2" d="M247.143 451.476H141.629C141.273 451.476 140.932 451.335 140.68 451.083C140.429 450.832 140.288 450.491 140.288 450.135C140.286 449.958 140.319 449.783 140.386 449.62C140.452 449.456 140.551 449.307 140.676 449.182C140.801 449.058 140.949 448.959 141.113 448.892C141.277 448.826 141.452 448.792 141.629 448.794H247.143C247.32 448.792 247.495 448.826 247.659 448.892C247.822 448.959 247.971 449.058 248.096 449.182C248.221 449.307 248.32 449.456 248.386 449.62C248.453 449.783 248.486 449.958 248.484 450.135C248.484 450.491 248.343 450.832 248.091 451.083C247.84 451.335 247.499 451.476 247.143 451.476Z" fill="white"/>
<path d="M242.116 418.793H134.24C133.18 418.793 132.32 419.653 132.32 420.713V445.305C132.32 446.366 133.18 447.225 134.24 447.225H242.116C243.177 447.225 244.036 446.366 244.036 445.305V420.713C244.036 419.653 243.177 418.793 242.116 418.793Z" fill="url(#paint27_linear_3321_78065)"/>
<path opacity="0.2" d="M141.721 420.423H137.302V445.823H141.721V420.423Z" fill="#153553"/>
<path opacity="0.2" d="M151.777 420.302H148.562V445.701H151.777V420.302Z" fill="#153553"/>
<path opacity="0.2" d="M161.011 420.423H159.411V445.823H161.011V420.423Z" fill="#153553"/>
<path opacity="0.2" d="M173.475 420.302H172.667V445.701H173.475V420.302Z" fill="#153553"/>
<path opacity="0.2" d="M234.604 445.701H239.023V420.301H234.604V445.701Z" fill="#153553"/>
<path opacity="0.2" d="M224.578 445.824H227.793V420.424H224.578V445.824Z" fill="#153553"/>
<path opacity="0.2" d="M215.329 445.701H216.929V420.301H215.329V445.701Z" fill="#153553"/>
<path opacity="0.2" d="M202.866 445.824H203.673V420.424H202.866V445.824Z" fill="#153553"/>
<path opacity="0.2" d="M187.98 445.824H188.376V420.424H187.98V445.824Z" fill="#153553"/>
<path opacity="0.2" d="M241.049 423.105H135.534C135.357 423.107 135.182 423.074 135.019 423.007C134.855 422.941 134.706 422.842 134.581 422.717C134.456 422.592 134.358 422.443 134.291 422.28C134.224 422.116 134.191 421.941 134.193 421.764C134.193 421.409 134.334 421.068 134.586 420.816C134.837 420.565 135.178 420.423 135.534 420.423H241.049C241.403 420.427 241.742 420.57 241.993 420.821C242.243 421.071 242.386 421.41 242.39 421.764C242.39 422.12 242.248 422.461 241.997 422.712C241.746 422.964 241.405 423.105 241.049 423.105Z" fill="white"/>
<path d="M181.352 399.991L178.289 407.533L175.973 413.232L170.153 411.16L172.24 406.04L175.531 397.903L181.352 399.991Z" fill="#E4897B"/>
<path d="M305.745 359.613L300.793 363.285L298.98 359.263L294.775 349.969L299.727 346.281L303.703 355.088L305.745 359.613Z" fill="#E4897B"/>
<path opacity="0.2" d="M175.531 397.903L181.351 399.991L178.289 407.533L172.24 406.04L175.531 397.903Z" fill="#153553"/>
<path opacity="0.2" d="M303.703 355.088L298.98 359.263L294.775 349.969L299.727 346.281L303.703 355.088Z" fill="#153553"/>
<path d="M225.035 191.171C225.203 191.643 225.584 191.933 225.889 191.826C226.193 191.719 226.315 191.247 226.148 190.775C225.98 190.302 225.599 190.013 225.294 190.119C224.99 190.226 224.837 190.698 225.035 191.171Z" fill="#153553"/>
<path d="M225.538 191.948C226.604 193.182 227.834 194.264 229.195 195.163C228.959 195.508 228.65 195.797 228.288 196.007C227.927 196.218 227.524 196.346 227.107 196.382L225.538 191.948Z" fill="#DE5753"/>
<path d="M222.399 189.175C222.33 189.195 222.256 189.195 222.186 189.175C222.136 189.121 222.108 189.05 222.108 188.977C222.108 188.903 222.136 188.832 222.186 188.779C222.441 188.393 222.784 188.073 223.186 187.845C223.589 187.617 224.04 187.488 224.502 187.468C224.58 187.472 224.654 187.506 224.708 187.563C224.762 187.619 224.792 187.695 224.792 187.773C224.792 187.812 224.784 187.851 224.768 187.887C224.753 187.924 224.73 187.956 224.701 187.983C224.673 188.01 224.639 188.031 224.602 188.045C224.565 188.059 224.526 188.065 224.487 188.062C224.12 188.078 223.762 188.182 223.444 188.365C223.126 188.548 222.856 188.805 222.658 189.114C222.622 189.141 222.58 189.161 222.535 189.171C222.491 189.182 222.444 189.183 222.399 189.175Z" fill="#153553"/>
<path d="M213.761 198.85C213.837 203.421 213.258 211.74 209.616 214.163C209.616 214.163 210.028 218.886 218.286 220.349C227.428 221.98 223.436 216.616 223.436 216.616C218.697 214.559 219.474 210.902 220.952 207.596L213.761 198.85Z" fill="#E4897B"/>
<path d="M209.037 195.696C211.414 201.334 212.526 204.838 216.487 206.697C222.43 209.592 228.677 204.442 227.961 198.21C227.382 192.588 223.573 184.314 217.112 184.01C215.691 183.937 214.274 184.229 212.998 184.857C211.721 185.486 210.626 186.431 209.817 187.602C209.008 188.773 208.511 190.131 208.375 191.548C208.238 192.964 208.466 194.392 209.037 195.696Z" fill="#E4897B"/>
<path d="M213.059 204.869C215.741 205.951 224.167 199.917 221.287 192.969C221.287 192.969 224.167 188.322 223.131 183.827C222.095 179.332 218.712 177.976 215.512 179.439C212.678 180.718 212.983 182.318 212.983 182.318C212.983 182.318 199.27 185.914 203.018 191.171C198.188 198.119 209.692 203.543 213.059 204.869Z" fill="#153553"/>
<path d="M219.032 194.553C219.635 195.95 220.679 197.111 222.003 197.86C223.771 198.82 224.791 197.479 224.426 195.696C224.06 193.913 222.795 191.658 220.967 191.43C219.139 191.201 218.331 192.877 219.032 194.553Z" fill="#E4897B"/>
<path d="M207.421 214.208C206.782 212.928 206.081 211.466 207.635 211.07C209.189 210.673 220.22 210.033 223.374 211.07C222.338 212.791 223.938 214.985 223.938 214.985L207.421 214.208Z" fill="url(#paint28_linear_3321_78065)"/>
<path opacity="0.5" d="M207.421 214.208C206.782 212.928 206.081 211.466 207.635 211.07C209.189 210.673 220.22 210.033 223.374 211.07C222.338 212.791 223.938 214.985 223.938 214.985L207.421 214.208Z" fill="#FAFAFA"/>
<path d="M176.369 410.764H169.634C169.512 410.765 169.394 410.807 169.3 410.885C169.205 410.963 169.14 411.07 169.116 411.19L167.897 416.675C167.864 416.808 167.862 416.946 167.892 417.079C167.921 417.213 167.981 417.337 168.066 417.443C168.152 417.55 168.261 417.635 168.385 417.692C168.509 417.749 168.644 417.777 168.781 417.772C171.203 417.772 174.723 417.59 177.771 417.59C181.351 417.59 184.429 417.788 188.619 417.788C191.164 417.788 191.865 415.228 190.798 414.999C185.968 413.933 182.037 413.826 177.862 411.251C177.418 410.956 176.901 410.788 176.369 410.764Z" fill="#153553"/>
<path d="M219.947 268.68C219.947 268.68 218.027 281.616 215.696 296.487C214.675 302.856 213.578 309.576 212.496 315.792C211.292 322.756 210.119 329.064 209.144 333.513C204.893 352.863 182.327 406.192 182.327 406.192L171.28 403.8C171.28 403.8 187.066 362.31 190.585 335.235C193.313 314.467 198.661 268.665 198.661 268.665L219.947 268.68Z" fill="#153553"/>
<path d="M184.963 402.49L182.906 406.482L170.473 403.785L171.509 400.098L184.963 402.49Z" fill="url(#paint29_linear_3321_78065)"/>
<path opacity="0.3" d="M184.963 402.49L182.906 406.482L170.473 403.785L171.509 400.098L184.963 402.49Z" fill="#153553"/>
<path opacity="0.2" d="M215.695 296.488C214.674 302.857 213.577 309.576 212.495 315.793C209.448 303.497 210.438 296.137 210.438 296.137L215.695 296.488Z" fill="#153553"/>
<path d="M201.891 225.499C198.92 228.303 195.797 231.274 192.962 234.245C190.099 237.154 187.383 240.205 184.826 243.387C183.735 244.964 182.752 246.613 181.885 248.324C180.941 250.168 179.981 252.042 179.067 253.961L173.475 265.511L169.086 263.987C170.031 259.706 171.235 255.531 172.545 251.341C173.231 249.253 173.962 247.166 174.77 245.078C175.621 242.833 176.666 240.667 177.893 238.603C180.369 234.825 183.152 231.258 186.213 227.937C189.172 224.614 192.327 221.47 195.659 218.521L201.891 225.499Z" fill="#DC897C"/>
<path d="M168.72 275.263L170.96 271.286L164.134 269.214C163.749 270.134 163.561 271.124 163.582 272.121C163.603 273.119 163.832 274.1 164.255 275.004L168.72 275.263Z" fill="#E4897B"/>
<path d="M173.459 265.45L169.086 264.033L164.134 269.213L170.96 271.286L173.459 265.45Z" fill="#E4897B"/>
<path d="M305.668 358.776L300.107 362.905C300.01 362.98 299.941 363.085 299.91 363.204C299.88 363.322 299.89 363.448 299.939 363.56L302.225 368.695C302.279 368.821 302.361 368.932 302.466 369.02C302.57 369.109 302.694 369.172 302.827 369.204C302.96 369.237 303.099 369.238 303.232 369.208C303.366 369.177 303.49 369.117 303.596 369.03C305.516 367.506 306.385 366.744 308.822 364.931C310.346 363.819 313.82 361.366 315.908 359.827C317.995 358.288 316.73 356.018 315.74 356.475C311.306 358.471 308.746 358.684 306.705 358.486C306.335 358.453 305.967 358.556 305.668 358.776Z" fill="#153553"/>
<path d="M199.239 214.788C193.312 214.422 184.566 227.236 184.566 227.236L193.19 239.014C196.975 236.806 200.125 233.657 202.332 229.872C206.431 222.954 205.288 215.168 199.239 214.788Z" fill="url(#paint30_linear_3321_78065)"/>
<path opacity="0.6" d="M199.239 214.788C193.312 214.422 184.566 227.236 184.566 227.236L193.19 239.014C196.975 236.806 200.125 233.657 202.332 229.872C206.431 222.954 205.288 215.168 199.239 214.788Z" fill="#FAFAFA"/>
<path opacity="0.2" d="M200.916 226.611C197.03 228.699 194.44 233.834 192.81 238.481L193.191 239.014C196.976 236.806 200.125 233.657 202.333 229.872C202.577 229.476 202.805 229.049 203.018 228.638L200.916 226.611Z" fill="#153553"/>
<path d="M234.315 213.843C234.315 213.843 237.865 222.772 231.648 268.696H198.66C198.432 263.622 201.616 238.908 196.725 215.047C200.373 214.339 204.063 213.871 207.772 213.645C211.993 213.447 226.056 210.598 229.774 210.948C234.665 211.375 234.315 213.843 234.315 213.843Z" fill="url(#paint31_linear_3321_78065)"/>
<path opacity="0.6" d="M235.092 234.093C234.695 242.214 233.705 253.398 231.648 268.68H198.66C198.432 263.606 201.616 238.892 196.725 215.032C200.373 214.324 204.063 213.856 207.772 213.63C211.993 213.432 226.056 210.582 229.774 210.933C234.665 211.375 234.345 213.843 234.345 213.843C234.345 213.843 235.092 215.717 235.29 222.162C235.366 225.103 235.351 228.988 235.092 234.093Z" fill="#FAFAFA"/>
<path d="M230.308 266.014L236.829 281.251C236.829 281.251 268.415 285.212 277.374 296.076C286.333 306.94 303.277 351.02 303.277 351.02L294.836 358.196C294.836 358.196 270.609 313.644 263.829 308.265C257.048 302.887 218.454 302.902 209.83 299.687C201.206 296.472 198.722 268.634 198.722 268.634L230.308 266.014Z" fill="#153553"/>
<path d="M293.037 357.358L303.215 349.557L304.526 352.071L294.774 359.766L293.037 357.358Z" fill="url(#paint32_linear_3321_78065)"/>
<path opacity="0.3" d="M293.037 357.358L303.215 349.557L304.526 352.071L294.774 359.766L293.037 357.358Z" fill="#153553"/>
<path d="M223.314 186.021C223.314 186.021 222.933 176.97 218.149 176.665C213.365 176.361 209.601 180.688 209.601 180.688C209.138 180.11 208.551 179.644 207.884 179.322C207.217 179 206.487 178.832 205.746 178.829C203.034 178.677 198.311 183.293 198.311 183.293C198.311 183.293 204.207 179.667 206.691 181.328C206.691 181.328 200.002 183.187 198.311 187.423C197.585 189.575 196.388 191.537 194.806 193.167H198.311L196.01 197.083C196.01 197.083 200.855 201.76 204.512 200.983L203.339 203.208C203.339 203.208 210.515 205.829 213.441 205.021C216.366 204.213 213.593 189.647 213.593 189.647L223.314 186.021Z" fill="#153553"/>
<path opacity="0.2" d="M235.092 234.093C229.104 230.024 229.195 220.654 229.195 220.654L235.29 222.177C235.366 225.103 235.351 228.988 235.092 234.093Z" fill="#153553"/>
<path d="M179.858 280.352L139.161 273.51L128.632 304.837L135.367 317.072L179.797 322.923L188.802 288.793L179.858 280.352Z" fill="url(#paint33_linear_3321_78065)"/>
<path opacity="0.4" d="M128.632 304.837L131.253 309.606L131.847 310.658L135.367 317.072L179.797 322.923L188.802 288.793L184.978 285.197L183.805 284.085L179.874 280.352L139.161 273.51L128.632 304.837Z" fill="#153553"/>
<path opacity="0.2" d="M188.803 288.793L148.517 282.531L139.161 273.51L179.874 280.352L188.803 288.793Z" fill="white"/>
<path opacity="0.1" d="M148.516 282.531L135.367 317.072L128.632 304.837L139.161 273.51L148.516 282.531Z" fill="white"/>
<path d="M131.253 309.606L131.847 310.658L144.021 278.31L184.978 285.197L183.804 284.085L143.29 277.594L131.253 309.606Z" fill="#153553"/>
<path d="M171.234 282.21L169.177 280.306L158.923 278.447L160.721 280.519L171.234 282.21Z" fill="#153553"/>
<path d="M175.196 282.972C175.196 282.972 175.668 272.215 175.378 271.499C175.089 270.783 160.66 268.452 159.578 268.223C158.496 267.994 153.742 278.477 153.742 278.477L154.565 279.742L157.292 280.108C157.292 280.108 160.751 271.072 161.102 270.844C165.055 271.264 168.982 271.905 172.864 272.763C173.169 273.007 171.981 281.22 171.981 281.22L172.91 282.561L175.196 282.972Z" fill="#153553"/>
<path d="M131.391 300.068L134.438 303.984L134.727 303.207L137.028 297.112L137.303 296.381L137.79 295.071C137.79 295.071 136.922 296.046 135.733 297.158C134.501 298.416 133.023 299.406 131.391 300.068Z" fill="url(#paint34_linear_3321_78065)"/>
<path opacity="0.2" d="M132.381 300.357L134.651 303.207L136.952 297.112L137.226 296.381C135.963 298.085 134.299 299.451 132.381 300.357Z" fill="white"/>
<path opacity="0.2" d="M135.657 297.142H136.952L137.714 295.101C137.714 295.101 136.845 296.03 135.657 297.142Z" fill="#153553"/>
<path d="M130.278 292.404L129.714 297.92C131.991 296.879 134.526 296.54 136.997 296.945L137.287 296.183L139.054 291.444L139.252 290.957C136.186 290.655 133.094 291.153 130.278 292.404Z" fill="url(#paint35_linear_3321_78065)"/>
<path d="M136.067 283.049C137.132 285.123 138.532 287.008 140.212 288.625L140.425 288.046L140.974 286.523L141.888 284.008L142.33 282.79L142.452 282.439C141.722 281.322 141.09 280.145 140.562 278.919L136.067 283.049Z" fill="url(#paint36_linear_3321_78065)"/>
<path d="M145.393 275.948C145.948 276.818 146.379 277.762 146.672 278.752L147.312 278.858L148.196 278.996L149.613 279.255L150.969 279.483L151.442 279.559C151.418 277.443 150.627 275.408 149.217 273.83L145.393 275.948Z" fill="url(#paint37_linear_3321_78065)"/>
<path opacity="0.2" d="M146.246 276.1C146.701 276.978 147.059 277.903 147.313 278.858L148.197 278.995C148.122 278.879 148.074 278.748 148.055 278.611C148.037 278.474 148.049 278.335 148.09 278.203C148.13 278.083 148.193 277.971 148.275 277.875C148.358 277.78 148.459 277.701 148.573 277.644C148.686 277.588 148.809 277.554 148.936 277.545C149.062 277.537 149.189 277.553 149.309 277.594C149.429 277.631 149.54 277.693 149.635 277.774C149.731 277.856 149.81 277.955 149.866 278.067C149.923 278.179 149.957 278.302 149.966 278.427C149.975 278.552 149.959 278.678 149.918 278.797C149.863 278.976 149.757 279.134 149.614 279.254L150.97 279.483C150.889 277.69 150.268 275.964 149.187 274.531L146.246 276.1Z" fill="white"/>
<path opacity="0.2" d="M130.644 292.617L130.293 297.082C132.543 296.325 134.919 296.02 137.287 296.183L139.054 291.444C136.196 291.097 133.298 291.502 130.644 292.617ZM135.535 292.252C135.718 292.188 135.913 292.167 136.105 292.191C136.297 292.215 136.482 292.283 136.643 292.389C136.805 292.495 136.941 292.637 137.039 292.804C137.137 292.971 137.196 293.158 137.211 293.352C137.225 293.545 137.195 293.739 137.123 293.918C137.05 294.098 136.938 294.259 136.793 294.388C136.649 294.517 136.477 294.612 136.291 294.664C136.104 294.716 135.908 294.725 135.718 294.689C135.535 294.753 135.339 294.774 135.147 294.75C134.955 294.726 134.771 294.658 134.609 294.552C134.447 294.446 134.311 294.304 134.213 294.137C134.115 293.97 134.056 293.782 134.042 293.589C134.027 293.396 134.057 293.202 134.13 293.022C134.202 292.843 134.315 292.682 134.459 292.553C134.603 292.424 134.775 292.329 134.962 292.277C135.148 292.225 135.344 292.216 135.535 292.252Z" fill="white"/>
<path opacity="0.2" d="M136.845 283.292C137.847 285.013 139.049 286.608 140.426 288.046L140.974 286.522C140.663 286.397 140.412 286.154 140.276 285.847C140.139 285.54 140.128 285.192 140.243 284.877C140.339 284.564 140.548 284.298 140.83 284.131C141.112 283.965 141.446 283.91 141.767 283.978L142.209 282.759C141.434 281.902 140.806 280.924 140.35 279.864L136.845 283.292Z" fill="white"/>
<path d="M273.184 185.045L275.531 181.13L280.711 186.036C280.101 186.824 279.334 187.477 278.458 187.952C277.581 188.427 276.615 188.714 275.622 188.794L273.184 185.045Z" fill="#E4897B"/>
<path d="M279.157 175.888L282.829 181.054L280.711 186.036L275.531 181.13L279.157 175.888Z" fill="#E4897B"/>
<path d="M232.638 211.71C236.854 210.844 241.025 209.766 245.132 208.479C249.09 207.306 252.887 205.648 256.438 203.543C256.762 203.34 257.072 203.116 257.367 202.872L258.419 201.897C259.15 201.196 259.942 200.373 260.628 199.642C262.075 198.027 263.569 196.366 265.001 194.66C267.942 191.277 270.806 187.757 273.762 184.329L277.617 186.889C275.499 191.018 273.153 194.949 270.669 198.865C269.404 200.8 268.109 202.75 266.677 204.655C265.961 205.6 265.153 206.56 264.391 207.52C263.995 207.992 263.492 208.479 263.051 208.967C262.506 209.507 261.931 210.015 261.329 210.491C257.283 213.393 252.832 215.683 248.119 217.286C243.612 218.917 238.973 220.156 234.253 220.989L232.638 211.71Z" fill="#DC897C"/>
<path d="M230.674 225.027C237.088 230.588 251.182 221.05 251.182 221.05L245.56 207.169C240.388 207.773 235.286 208.87 230.323 210.445C221.41 213.477 225.767 220.791 230.674 225.027Z" fill="url(#paint38_linear_3321_78065)"/>
<path opacity="0.6" d="M230.674 225.027C237.088 230.588 251.182 221.05 251.182 221.05L245.56 207.169C240.388 207.773 235.286 208.87 230.323 210.445C221.41 213.477 225.767 220.791 230.674 225.027Z" fill="#FAFAFA"/>
</g>
<defs>
<linearGradient id="paint0_linear_3321_78065" x1="66.609" y1="462.241" x2="454.568" y2="-17.5187" gradientUnits="userSpaceOnUse">
<stop stop-color="#2783C4"/>
<stop offset="1" stop-color="#15B2EE"/>
</linearGradient>
<linearGradient id="paint1_linear_3321_78065" x1="424.524" y1="500.879" x2="430.847" y2="461.475" gradientUnits="userSpaceOnUse">
<stop stop-color="#2783C4"/>
<stop offset="1" stop-color="#15B2EE"/>
</linearGradient>
<linearGradient id="paint2_linear_3321_78065" x1="427.571" y1="472.523" x2="433.895" y2="433.119" gradientUnits="userSpaceOnUse">
<stop stop-color="#2783C4"/>
<stop offset="1" stop-color="#15B2EE"/>
</linearGradient>
<linearGradient id="paint3_linear_3321_78065" x1="427.571" y1="444.167" x2="433.895" y2="404.763" gradientUnits="userSpaceOnUse">
<stop stop-color="#2783C4"/>
<stop offset="1" stop-color="#15B2EE"/>
</linearGradient>
<linearGradient id="paint4_linear_3321_78065" x1="424.524" y1="415.797" x2="430.847" y2="376.392" gradientUnits="userSpaceOnUse">
<stop stop-color="#2783C4"/>
<stop offset="1" stop-color="#15B2EE"/>
</linearGradient>
<linearGradient id="paint5_linear_3321_78065" x1="419.952" y1="387.44" x2="426.276" y2="348.036" gradientUnits="userSpaceOnUse">
<stop stop-color="#2783C4"/>
<stop offset="1" stop-color="#15B2EE"/>
</linearGradient>
<linearGradient id="paint6_linear_3321_78065" x1="424.524" y1="359.07" x2="430.847" y2="319.665" gradientUnits="userSpaceOnUse">
<stop stop-color="#2783C4"/>
<stop offset="1" stop-color="#15B2EE"/>
</linearGradient>
<linearGradient id="paint7_linear_3321_78065" x1="424.524" y1="330.714" x2="430.847" y2="291.31" gradientUnits="userSpaceOnUse">
<stop stop-color="#2783C4"/>
<stop offset="1" stop-color="#15B2EE"/>
</linearGradient>
<linearGradient id="paint8_linear_3321_78065" x1="429.095" y1="302.343" x2="435.419" y2="262.938" gradientUnits="userSpaceOnUse">
<stop stop-color="#2783C4"/>
<stop offset="1" stop-color="#15B2EE"/>
</linearGradient>
<linearGradient id="paint9_linear_3321_78065" x1="421.476" y1="273.987" x2="427.8" y2="234.583" gradientUnits="userSpaceOnUse">
<stop stop-color="#2783C4"/>
<stop offset="1" stop-color="#15B2EE"/>
</linearGradient>
<linearGradient id="paint10_linear_3321_78065" x1="418.429" y1="245.617" x2="424.753" y2="206.212" gradientUnits="userSpaceOnUse">
<stop stop-color="#2783C4"/>
<stop offset="1" stop-color="#15B2EE"/>
</linearGradient>
<linearGradient id="paint11_linear_3321_78065" x1="287.316" y1="500.879" x2="293.64" y2="461.475" gradientUnits="userSpaceOnUse">
<stop stop-color="#2783C4"/>
<stop offset="1" stop-color="#15B2EE"/>
</linearGradient>
<linearGradient id="paint12_linear_3321_78065" x1="282.73" y1="472.523" x2="289.054" y2="433.119" gradientUnits="userSpaceOnUse">
<stop stop-color="#2783C4"/>
<stop offset="1" stop-color="#15B2EE"/>
</linearGradient>
<linearGradient id="paint13_linear_3321_78065" x1="287.316" y1="444.167" x2="293.64" y2="404.763" gradientUnits="userSpaceOnUse">
<stop stop-color="#2783C4"/>
<stop offset="1" stop-color="#15B2EE"/>
</linearGradient>
<linearGradient id="paint14_linear_3321_78065" x1="284.253" y1="415.797" x2="290.577" y2="376.392" gradientUnits="userSpaceOnUse">
<stop stop-color="#2783C4"/>
<stop offset="1" stop-color="#15B2EE"/>
</linearGradient>
<linearGradient id="paint15_linear_3321_78065" x1="284.253" y1="387.44" x2="290.577" y2="348.036" gradientUnits="userSpaceOnUse">
<stop stop-color="#2783C4"/>
<stop offset="1" stop-color="#15B2EE"/>
</linearGradient>
<linearGradient id="paint16_linear_3321_78065" x1="284.253" y1="359.07" x2="290.577" y2="319.665" gradientUnits="userSpaceOnUse">
<stop stop-color="#2783C4"/>
<stop offset="1" stop-color="#15B2EE"/>
</linearGradient>
<linearGradient id="paint17_linear_3321_78065" x1="285.58" y1="302.039" x2="291.903" y2="262.634" gradientUnits="userSpaceOnUse">
<stop stop-color="#2783C4"/>
<stop offset="1" stop-color="#15B2EE"/>
</linearGradient>
<linearGradient id="paint18_linear_3321_78065" x1="287.316" y1="330.714" x2="293.64" y2="291.31" gradientUnits="userSpaceOnUse">
<stop stop-color="#2783C4"/>
<stop offset="1" stop-color="#15B2EE"/>
</linearGradient>
<linearGradient id="paint19_linear_3321_78065" x1="437.37" y1="207.825" x2="438.753" y2="201.272" gradientUnits="userSpaceOnUse">
<stop stop-color="#2783C4"/>
<stop offset="1" stop-color="#15B2EE"/>
</linearGradient>
<linearGradient id="paint20_linear_3321_78065" x1="333.55" y1="265.228" x2="337.463" y2="254.23" gradientUnits="userSpaceOnUse">
<stop stop-color="#2783C4"/>
<stop offset="1" stop-color="#15B2EE"/>
</linearGradient>
<linearGradient id="paint21_linear_3321_78065" x1="363.768" y1="134.234" x2="408.78" y2="86.3591" gradientUnits="userSpaceOnUse">
<stop stop-color="#2783C4"/>
<stop offset="1" stop-color="#15B2EE"/>
</linearGradient>
<linearGradient id="paint22_linear_3321_78065" x1="380.851" y1="93.7932" x2="383.142" y2="89.9333" gradientUnits="userSpaceOnUse">
<stop stop-color="#2783C4"/>
<stop offset="1" stop-color="#15B2EE"/>
</linearGradient>
<linearGradient id="paint23_linear_3321_78065" x1="383.436" y1="109.431" x2="395.483" y2="101.839" gradientUnits="userSpaceOnUse">
<stop stop-color="#2783C4"/>
<stop offset="1" stop-color="#15B2EE"/>
</linearGradient>
<linearGradient id="paint24_linear_3321_78065" x1="395.932" y1="28.3644" x2="406.875" y2="-5.35279" gradientUnits="userSpaceOnUse">
<stop stop-color="#2783C4"/>
<stop offset="1" stop-color="#15B2EE"/>
</linearGradient>
<linearGradient id="paint25_linear_3321_78065" x1="150.093" y1="500.879" x2="156.417" y2="461.475" gradientUnits="userSpaceOnUse">
<stop stop-color="#2783C4"/>
<stop offset="1" stop-color="#15B2EE"/>
</linearGradient>
<linearGradient id="paint26_linear_3321_78065" x1="151.617" y1="472.523" x2="157.941" y2="433.119" gradientUnits="userSpaceOnUse">
<stop stop-color="#2783C4"/>
<stop offset="1" stop-color="#15B2EE"/>
</linearGradient>
<linearGradient id="paint27_linear_3321_78065" x1="145.523" y1="444.167" x2="151.847" y2="404.763" gradientUnits="userSpaceOnUse">
<stop stop-color="#2783C4"/>
<stop offset="1" stop-color="#15B2EE"/>
</linearGradient>
<linearGradient id="paint28_linear_3321_78065" x1="208.733" y1="214.504" x2="209.748" y2="208.305" gradientUnits="userSpaceOnUse">
<stop stop-color="#2783C4"/>
<stop offset="1" stop-color="#15B2EE"/>
</linearGradient>
<linearGradient id="paint29_linear_3321_78065" x1="172.186" y1="405.795" x2="174.526" y2="397.37" gradientUnits="userSpaceOnUse">
<stop stop-color="#2783C4"/>
<stop offset="1" stop-color="#15B2EE"/>
</linearGradient>
<linearGradient id="paint30_linear_3321_78065" x1="186.953" y1="236.408" x2="203.531" y2="214.504" gradientUnits="userSpaceOnUse">
<stop stop-color="#2783C4"/>
<stop offset="1" stop-color="#15B2EE"/>
</linearGradient>
<linearGradient id="paint31_linear_3321_78065" x1="201.287" y1="262.482" x2="242.287" y2="219.046" gradientUnits="userSpaceOnUse">
<stop stop-color="#2783C4"/>
<stop offset="1" stop-color="#15B2EE"/>
</linearGradient>
<linearGradient id="paint32_linear_3321_78065" x1="294.395" y1="358.668" x2="300.584" y2="347.623" gradientUnits="userSpaceOnUse">
<stop stop-color="#2783C4"/>
<stop offset="1" stop-color="#15B2EE"/>
</linearGradient>
<linearGradient id="paint33_linear_3321_78065" x1="135.743" y1="317.609" x2="164.428" y2="262.218" gradientUnits="userSpaceOnUse">
<stop stop-color="#2783C4"/>
<stop offset="1" stop-color="#15B2EE"/>
</linearGradient>
<linearGradient id="paint34_linear_3321_78065" x1="132.147" y1="303.025" x2="138.43" y2="295.872" gradientUnits="userSpaceOnUse">
<stop stop-color="#2783C4"/>
<stop offset="1" stop-color="#15B2EE"/>
</linearGradient>
<linearGradient id="paint35_linear_3321_78065" x1="130.841" y1="297.162" x2="134.678" y2="288.929" gradientUnits="userSpaceOnUse">
<stop stop-color="#2783C4"/>
<stop offset="1" stop-color="#15B2EE"/>
</linearGradient>
<linearGradient id="paint36_linear_3321_78065" x1="136.822" y1="287.581" x2="143.715" y2="280.391" gradientUnits="userSpaceOnUse">
<stop stop-color="#2783C4"/>
<stop offset="1" stop-color="#15B2EE"/>
</linearGradient>
<linearGradient id="paint37_linear_3321_78065" x1="146.107" y1="278.943" x2="149.693" y2="272.94" gradientUnits="userSpaceOnUse">
<stop stop-color="#2783C4"/>
<stop offset="1" stop-color="#15B2EE"/>
</linearGradient>
<linearGradient id="paint38_linear_3321_78065" x1="228.246" y1="224.661" x2="239.047" y2="201.93" gradientUnits="userSpaceOnUse">
<stop stop-color="#2783C4"/>
<stop offset="1" stop-color="#15B2EE"/>
</linearGradient>
<clipPath id="clip0_3321_78065">
<rect width="569" height="504" fill="white"/>
</clipPath>
</defs>
</svg>
