<svg width="30" height="23" viewBox="0 0 30 23" fill="none" xmlns="http://www.w3.org/2000/svg">
<g clip-path="url(#clip0_3666_81853)">
<path d="M8.34158 6.42982C12.5073 2.04162 19.2614 2.04162 23.4272 6.42982L23.9285 6.95793C24.1368 7.17736 24.1368 7.53307 23.9285 7.75251L22.2135 9.55911C22.1093 9.66883 21.9405 9.66883 21.8363 9.55911L21.1464 8.83238C18.2402 5.77103 13.5285 5.77103 10.6223 8.83238L9.88344 9.61064C9.77933 9.72036 9.6105 9.72036 9.50632 9.61064L7.79131 7.80404C7.58296 7.5846 7.58296 7.2289 7.79131 7.00946L8.34158 6.42982ZM26.974 10.1661L28.5004 11.774C28.7087 11.9934 28.7087 12.3491 28.5004 12.5685L21.6178 19.8188C21.4096 20.0381 21.0718 20.0381 20.8635 19.8188L15.9787 14.6731C15.9266 14.6182 15.8422 14.6182 15.7901 14.6731L10.9054 19.8188C10.6971 20.0381 10.3593 20.0381 10.1511 19.8188L3.26828 12.5685C3.05999 12.349 3.05999 11.9933 3.26828 11.7739L4.79467 10.166C5.00296 9.9466 5.34067 9.9466 5.54895 10.166L10.4339 15.3117C10.4859 15.3666 10.5703 15.3666 10.6224 15.3117L15.5071 10.166C15.7154 9.9466 16.0531 9.9466 16.2614 10.166L21.1463 15.3117C21.1984 15.3666 21.2828 15.3666 21.3349 15.3117L26.2197 10.1661C26.4281 9.94667 26.7657 9.94667 26.974 10.1661Z" fill="#3396FF"/>
</g>
<defs>
<clipPath id="clip0_3666_81853">
<rect width="28.8765" height="21.6574" fill="white" transform="translate(0.890869 0.609619)"/>
</clipPath>
</defs>
</svg>
