<svg width="24" height="25" viewBox="0 0 24 25" fill="none" xmlns="http://www.w3.org/2000/svg">
<g clip-path="url(#clip0_3339_78066)">
<path d="M11.5529 16.9119C11.3208 17.144 11.0162 17.2607 10.7115 17.2607C10.4068 17.2607 10.1021 17.144 9.87003 16.9119L5.10937 12.1513C4.64402 11.6859 4.64402 10.9337 5.10937 10.4684C5.57473 10.003 6.32691 10.003 6.79226 10.4684L10.7115 14.3876L20.6493 4.44973C18.4749 2.08725 15.3662 0.598358 11.9016 0.598358C5.32836 0.598358 0 5.92672 0 12.5C0 19.0733 5.32836 24.4016 11.9016 24.4016C18.4749 24.4016 23.8033 19.0733 23.8033 12.5C23.8033 10.2565 23.1713 8.16542 22.0918 6.37303L11.5529 16.9119Z" fill="url(#paint0_linear_3339_78066)"/>
</g>
<defs>
<linearGradient id="paint0_linear_3339_78066" x1="0" y1="0.598358" x2="23.8033" y2="24.4016" gradientUnits="userSpaceOnUse">
<stop stop-color="#59C9A5"/>
<stop offset="1" stop-color="#00AE76"/>
</linearGradient>
<clipPath id="clip0_3339_78066">
<rect width="23.8033" height="23.8033" fill="white" transform="translate(0 0.598358)"/>
</clipPath>
</defs>
</svg>
