<svg width="25" height="24" viewBox="0 0 25 24" fill="none" xmlns="http://www.w3.org/2000/svg">
<g clip-path="url(#clip0_3339_78068)">
<path d="M12.1594 16.3136C11.9273 16.5457 11.6226 16.6623 11.3179 16.6623C11.0132 16.6623 10.7086 16.5457 10.4765 16.3136L5.71582 11.5529C5.25046 11.0876 5.25046 10.3354 5.71582 9.87003C6.18117 9.40468 6.93336 9.40468 7.39871 9.87003L11.3179 13.7892L21.2558 3.85137C19.0814 1.4889 15.9727 0 12.5081 0C5.93481 0 0.606445 5.32836 0.606445 11.9016C0.606445 18.4749 5.93481 23.8033 12.5081 23.8033C19.0814 23.8033 24.4097 18.4749 24.4097 11.9016C24.4097 9.65818 23.7777 7.56706 22.6983 5.77468L12.1594 16.3136Z" fill="url(#paint0_linear_3339_78068)"/>
</g>
<defs>
<linearGradient id="paint0_linear_3339_78068" x1="0.606445" y1="0" x2="24.4097" y2="23.8033" gradientUnits="userSpaceOnUse">
<stop stop-color="#59C9A5"/>
<stop offset="1" stop-color="#00AE76"/>
</linearGradient>
<clipPath id="clip0_3339_78068">
<rect width="23.8033" height="23.8033" fill="white" transform="translate(0.606445)"/>
</clipPath>
</defs>
</svg>
