<svg width="21" height="20" viewBox="0 0 21 20" fill="none" xmlns="http://www.w3.org/2000/svg">
<path d="M10.5 0.200195C8.85499 0.200195 7.5 1.55519 7.5 3.2002C7.5 3.55205 7.57394 3.8853 7.6875 4.2002H4.33594C3.37535 4.2002 2.53825 4.89793 2.36719 5.84277L0.5 16.1104V17.2002C0.5 18.2933 1.40694 19.2002 2.5 19.2002H18.5C19.5931 19.2002 20.5 18.2933 20.5 17.2002V16.1104L20.4844 16.0205L18.6328 5.84082C18.46 4.89748 17.6266 4.2002 16.666 4.2002H13.3125C13.4261 3.8853 13.5 3.55205 13.5 3.2002C13.5 1.55519 12.145 0.200195 10.5 0.200195ZM10.5 2.2002C11.0641 2.2002 11.5 2.63607 11.5 3.2002C11.5 3.76432 11.0641 4.2002 10.5 4.2002C9.93587 4.2002 9.5 3.76432 9.5 3.2002C9.5 2.63607 9.93587 2.2002 10.5 2.2002ZM4.33398 6.2002H4.33594H10.2441V7.1748C9.93514 7.2138 8.20312 7.53893 8.20312 9.62793C8.20312 12.6759 11.3594 11.7736 11.3594 13.8076C11.3594 14.8256 10.7004 14.8506 10.5664 14.8506C10.4444 14.8506 9.64062 14.7582 9.64062 13.2002H7.91797C7.91797 15.8392 9.83023 16.2061 10.1152 16.2451V17.2002H2.5V16.29L4.33398 6.2002ZM11.1641 6.2002H16.666V6.20215L18.5 16.2939V17.2002H11.0293V16.2451C11.3383 16.2061 13.082 15.9199 13.082 13.7959C13.082 10.8709 9.92673 11.4307 9.92773 9.63574C9.92773 8.60774 10.4262 8.5752 10.6152 8.5752C10.8572 8.5752 11.3711 8.9472 11.3711 10.2002H13.0957C13.0957 7.8022 11.4561 7.25424 11.1641 7.19824V6.2002Z" fill="#153553"/>
</svg>
