<svg width="50" height="51" viewBox="0 0 50 51" fill="none" xmlns="http://www.w3.org/2000/svg">
<g clip-path="url(#clip0_3607_81921)">
<path d="M25 50.7627C38.8071 50.7627 50 39.5698 50 25.7627C50 11.9556 38.8071 0.762695 25 0.762695C11.1929 0.762695 0 11.9556 0 25.7627C0 39.5698 11.1929 50.7627 25 50.7627Z" fill="url(#paint0_linear_3607_81921)"/>
<path fill-rule="evenodd" clip-rule="evenodd" d="M34.2261 10.4329V32.9328L29.1926 35.8263V10.4329C29.1926 10.1641 29.272 9.91464 29.4096 9.70381C29.6495 9.33839 30.0642 9.09595 30.5352 9.09595H32.8835C33.6245 9.09595 34.2261 9.69503 34.2261 10.4329ZM26.1739 16.7663H23.8257C23.0847 16.7663 22.483 17.3636 22.483 18.1033V36.7908L24.9989 38.2367L27.5148 36.7908V18.1033C27.5148 17.3654 26.9132 16.7663 26.1722 16.7663H26.1739ZM19.4626 23.1735H17.1143C16.3733 23.1735 15.7717 23.7708 15.7717 24.5105V32.9328L20.8052 35.828V24.5122C20.8052 23.7744 20.2036 23.1753 19.4626 23.1753V23.1735Z" fill="white"/>
<path d="M39.6073 17.2863L35.9041 15.1571V19.0168L36.9221 19.6019V33.3123L24.9991 40.1675L13.0761 33.3123V19.6019L24.9991 12.7467L27.5149 14.1925V10.3363L25.6695 9.27515C25.2549 9.03621 24.7432 9.03621 24.3269 9.27515L10.3926 17.2863C9.97622 17.5253 9.72217 17.9662 9.72217 18.4441V34.47C9.72217 34.9479 9.97799 35.3888 10.3926 35.6278L24.3286 43.639C24.745 43.8779 25.2566 43.8779 25.6713 43.639L39.6073 35.6278C40.0219 35.3888 40.2777 34.9479 40.2777 34.47V18.4441C40.2777 17.968 40.0219 17.527 39.6073 17.2863Z" fill="white"/>
</g>
<defs>
<linearGradient id="paint0_linear_3607_81921" x1="5.90909" y1="45.3855" x2="37.9794" y2="-5.47213" gradientUnits="userSpaceOnUse">
<stop stop-color="#2783C4"/>
<stop offset="1" stop-color="#15B2EE"/>
</linearGradient>
<clipPath id="clip0_3607_81921">
<rect width="50" height="50" fill="white" transform="translate(0 0.762695)"/>
</clipPath>
</defs>
</svg>
