<svg width="153" height="53" viewBox="0 0 153 53" fill="none" xmlns="http://www.w3.org/2000/svg">
<path fill-rule="evenodd" clip-rule="evenodd" d="M36.6348 2.50728V36.2881L29.1095 40.6323V2.50728C29.1095 2.10371 29.2282 1.72916 29.434 1.41264C29.7927 0.864 30.4125 0.5 31.1168 0.5H34.6275C35.7354 0.5 36.6348 1.39945 36.6348 2.50728ZM24.5964 12.0161H21.0857C19.9779 12.0161 19.0784 12.9129 19.0784 14.0234V42.0804L22.8397 44.2512L26.6011 42.0804V14.0234C26.6011 12.9156 25.7016 12.0161 24.5938 12.0161H24.5964ZM14.5627 21.6357H11.052C9.94413 21.6357 9.04468 22.5325 9.04468 23.643V36.2881L16.57 40.635V23.6457C16.57 22.5378 15.6705 21.6384 14.5627 21.6384V21.6357Z" fill="url(#paint0_linear_725_588)"/>
<path d="M44.6797 12.7969L39.1432 9.6V15.395L40.6651 16.2733V36.8578L22.8397 47.15L5.01423 36.8578V16.2733L22.8397 5.9811L26.601 8.15191V2.3622L23.842 0.769043C23.2221 0.410319 22.4572 0.410319 21.8347 0.769043L1.00232 12.7969C0.379826 13.1556 0 13.8177 0 14.5351V38.596C0 39.3135 0.382464 39.9755 1.00232 40.3343L21.8374 52.3621C22.4599 52.7208 23.2248 52.7208 23.8446 52.3621L44.6797 40.3343C45.2995 39.9755 45.682 39.3135 45.682 38.596V14.5351C45.682 13.8203 45.2995 13.1582 44.6797 12.7969Z" fill="#153553"/>
<path fill-rule="evenodd" clip-rule="evenodd" d="M93.7088 33.8259C94.8799 33.8259 95.9059 33.6439 96.7843 33.2799L96.7817 33.2825C97.66 32.9185 98.4276 32.4094 99.0844 31.7526L103.302 35.9703C102.083 37.0491 100.707 37.8984 99.1714 38.5183C97.6363 39.1381 95.8374 39.4494 93.7747 39.4494C91.8756 39.4494 90.1189 39.1223 88.502 38.4655C86.8851 37.8088 85.4739 36.9014 84.2659 35.7408C83.0578 34.5802 82.1214 33.2139 81.4541 31.6445C80.7868 30.0751 80.4518 28.3395 80.4518 26.5116C80.4518 24.6837 80.7788 22.9903 81.4356 21.4314C82.0924 19.8752 83.0235 18.5194 84.2316 17.372C85.437 16.2246 86.8429 15.3225 88.4492 14.6657C90.0556 14.0116 91.7384 13.6819 93.7061 13.6819C95.6738 13.6819 97.4437 13.9931 99.0131 14.613C100.583 15.2328 101.967 16.0822 103.162 17.161L98.9446 21.4156C98.3326 20.7614 97.5967 20.2444 96.7289 19.8699C95.8611 19.4953 94.8535 19.3081 93.7061 19.3081C92.7223 19.3081 91.8017 19.4769 90.9471 19.8171C90.0925 20.1574 89.3671 20.6427 88.7684 21.2758C88.1723 21.9088 87.7028 22.6685 87.3625 23.56C87.0222 24.4515 86.8534 25.3906 86.8534 26.5142C86.8534 27.6379 87.0222 28.6454 87.3625 29.537C87.7028 30.4259 88.1696 31.1882 88.7684 31.8212C89.3671 32.4543 90.0872 32.9475 90.9313 33.2983C91.7753 33.6491 92.7012 33.8259 93.7088 33.8259ZM73.2826 14.104H80.4888L72.4228 26.0764L80.9108 39.0301H73.5279L68.5506 30.8612L63.4045 39.0301H56.2327L64.9423 26.2004L56.6547 14.104H64.1431L68.7801 21.3893L73.2826 14.104ZM113.921 14.104L104.22 39.0275H110.725L112.247 34.6674H121.494L122.992 39.0275H129.602L120.007 14.104H113.924H113.921ZM113.985 29.6769L116.899 21.3233L119.772 29.6769H113.985ZM147.897 15.0536C149.174 15.6866 150.189 16.6019 150.939 17.7968H150.941C151.69 18.9916 152.065 20.4555 152.065 22.1199C152.065 23.7843 151.69 25.2139 150.941 26.4088C150.189 27.6037 149.177 28.5242 147.9 29.1678C146.623 29.8114 145.175 30.1332 143.558 30.1332H138.882V39.0275H132.588V14.104H143.556C145.173 14.104 146.621 14.4205 147.897 15.0536ZM144.17 25.0557C144.674 24.8104 145.078 24.4358 145.384 23.932V23.9294C145.687 23.4256 145.84 22.8453 145.84 22.1199C145.84 21.3946 145.687 20.7852 145.384 20.292C145.078 19.8014 144.674 19.4268 144.17 19.1684C143.666 18.9099 143.11 18.7806 142.501 18.7806H138.879V25.4249H142.501C143.11 25.4249 143.666 25.301 144.17 25.0557Z" fill="#153553"/>
<defs>
<linearGradient id="paint0_linear_725_588" x1="12.3075" y1="39.5482" x2="43.4057" y2="8.44733" gradientUnits="userSpaceOnUse">
<stop stop-color="#2783C4"/>
<stop offset="1" stop-color="#15B2EE"/>
</linearGradient>
</defs>
</svg>
